<svg width="111" height="53" viewBox="0 0 111 53" fill="none" xmlns="http://www.w3.org/2000/svg">
<g clip-path="url(#clip0_253_5459)">
<path d="M76.4999 36.0333C73.3897 37.2389 70.7352 39.227 67.9608 41.1273C67.3094 41.5636 66.6968 42.0551 66.1298 42.5964C65.5687 43.0288 65.0519 43.5155 64.5867 44.0495C64.2189 44.848 64.107 45.4468 65.7541 44.9997C69.0722 43.7382 72.4222 42.6044 75.7323 41.3349C77.4313 40.6371 79.1929 40.1024 80.9933 39.738L84.3833 38.4525C86.6181 37.648 88.8021 36.7095 90.9235 35.6421C92.8976 34.555 94.9469 33.6105 97.056 32.8156C97.12 32.6559 97.1839 32.5042 97.2559 32.3445C97.1526 32.3848 97.0455 32.4142 96.9361 32.4324C96.5179 32.4386 96.1002 32.4038 95.6888 32.3286C94.7117 32.3363 93.7384 32.4515 92.7865 32.6719C90.5078 33.0791 88.2051 33.2228 85.9344 33.7258C84.1914 34.117 82.4484 34.6839 80.6734 35.0752C79.2591 35.2839 77.8635 35.6043 76.4999 36.0333Z" fill="#708E4D"/>
<path d="M72.966 38.0374C75.5725 36.5363 78.107 36.0413 81.4171 35.155C83.9676 34.4684 87.0699 33.7258 89.7483 33.103C88.4691 33.2707 87.1978 33.4304 85.9345 33.7178C84.1915 34.1091 82.4485 34.676 80.6735 35.0672C79.2589 35.2785 77.8634 35.6016 76.5 36.0333C73.3897 37.2389 70.7353 39.227 67.9609 41.1273C67.3094 41.5636 66.6968 42.0551 66.1299 42.5964C65.8421 42.8759 64.8507 43.6344 64.6028 43.9298C64.219 44.377 64.1791 44.9039 64.5149 45.0795C64.339 44.8081 64.323 44.2811 64.8986 43.7781C67.3741 41.5815 70.0787 39.6569 72.966 38.0374Z" fill="#426122"/>
<path d="M91.859 33.7897C91.8611 34.2804 91.8129 34.7699 91.7151 35.2508C92.2268 34.9394 93.3142 34.628 93.8019 34.3326C93.1943 34.3805 92.7225 33.5342 92.2508 33.2707C92.4027 33.7657 92.9863 34.149 92.9064 34.6759C92.4507 34.5801 92.1308 34.0691 91.859 33.7897Z" fill="#657E41"/>
<path d="M88.0612 36.2968C87.3411 35.8433 86.6544 35.3391 86.0064 34.7878C86.75 35.3786 87.7814 36.9276 86.1823 36.7439C85.0729 36.5366 83.997 36.1793 82.9841 35.682C83.6717 36.2888 85.1908 36.9036 85.8145 37.6781L86.0464 37.5982C87.6455 37.0473 89.6043 36.0892 91.2114 35.4904C90.894 35.4696 90.589 35.3596 90.3316 35.1731C90.0741 34.9866 89.8746 34.7313 89.7562 34.4365C89.7162 34.9554 90.0121 36.0972 89.2365 35.6181C88.7088 35.2908 88.3171 34.5562 87.8533 34.157C87.7734 34.7159 89.3404 35.9135 88.0612 36.2968Z" fill="#596F39"/>
<path d="M96.5764 33.1032C96.5764 33.1032 96.6096 33.0949 96.5764 33.1032V33.1032Z" fill="#657E41"/>
<path d="M68.6646 41.9976C69.6547 42.1128 70.6116 42.425 71.4789 42.9158C72.958 42.3808 74.3253 41.9098 76.9717 41.1273C80.018 40.2251 84.3835 38.4445 84.3835 38.4445C83.464 37.9894 81.4971 37.7579 80.7935 37.0792C80.9934 37.8777 82.2247 38.1651 82.1448 38.5244C82.0648 38.8837 80.7376 38.9076 80.4337 38.9555C80.0928 39.0401 79.7377 39.0519 79.3919 38.99C79.046 38.9281 78.7172 38.7939 78.4269 38.5962C77.8432 38.2289 77.2436 37.7978 76.6759 37.3826C77.1476 38.0054 78.0751 38.7399 78.275 39.6422C77.9871 39.8418 77.6993 39.6422 77.4754 39.4825C78.0271 40.7281 75.9244 39.4825 75.5486 39.227C75.9084 39.5943 76.6439 40.0254 76.8758 40.6562C76.0625 41.1253 75.1509 41.3987 74.2134 41.4546C73.5018 41.3269 72.5663 40.1452 72.2145 39.5384C72.0786 40.241 73.7576 41.4227 73.014 41.6303C72.6063 41.7421 70.9832 40.3608 70.7353 40.0813C70.9992 40.9916 72.4943 41.3269 72.5263 42.0055C71.271 42.3569 69.9918 41.7101 68.6646 41.9976Z" fill="#596F39"/>
<path d="M84.1355 38.5962C89.5324 36.4644 96.2565 33.1509 97.208 32.8156C98.1594 32.4803 99.9904 32.6639 100.934 31.9054C101.877 31.1469 101.47 30.9632 101.142 31.1628C99.7825 31.9613 98.3273 31.7936 97.0561 32.4164C95.9847 32.9433 94.2177 33.8616 92.8585 34.4444C91.4993 35.0273 85.7666 37.694 84.2155 38.1651C82.6644 38.6362 73.9414 42.0615 73.9414 42.0615C77.399 41.0892 80.802 39.9324 84.1355 38.5962Z" fill="#A69D5C"/>
<path d="M77.1156 40.6722C76.6475 40.6696 76.1808 40.7205 75.7244 40.8239C75.3032 40.8437 74.8866 40.9189 74.4851 41.0475C74.0936 40.972 73.6891 41.0001 73.3118 41.129C72.9346 41.2578 72.5976 41.483 72.3343 41.782C71.8145 42.3881 71.4374 43.103 71.231 43.8739C70.8339 45.5222 70.9511 47.2523 71.5668 48.8322C71.8455 49.6565 72.29 50.4154 72.873 51.062C73.4559 51.7087 74.1651 52.2296 74.9568 52.5928C79.6821 54.4931 81.9208 49.2234 81.9128 47.0916C81.9291 46.1099 81.7494 45.1348 81.3843 44.2232C81.0191 43.3115 80.4758 42.4817 79.786 41.782C78.7866 40.6323 78.1789 40.7201 77.1156 40.6722Z" fill="#BAAD0C"/>
<path d="M78.5707 47.395C77.5313 48.9919 75.8762 51.1077 73.6855 50.5887C72.9001 50.393 72.2126 49.9192 71.7506 49.2554C72.3494 50.732 73.4948 51.9214 74.9488 52.5768C79.674 54.4771 81.9128 49.2074 81.9048 47.0756C81.9439 45.2932 81.3233 43.5591 80.1617 42.2052C80.3856 43.9937 79.3782 46.1415 78.5707 47.395Z" fill="#AF9F0B"/>
<path d="M77.4993 50.7085C76.3 52.0738 74.3012 52.2335 72.4702 50.5408C73.0819 51.4515 73.946 52.1645 74.9568 52.5928C79.6821 54.4931 81.9208 49.2234 81.9128 47.0916C81.9291 46.1099 81.7494 45.1347 81.3843 44.2231C81.0191 43.3115 80.4758 42.4817 79.786 41.782C79.5767 41.4825 79.3044 41.2323 78.9881 41.0488C78.6719 40.8654 78.3193 40.7532 77.9551 40.7201C78.3632 41.1553 78.7175 41.6378 79.0105 42.1573C80.5616 44.9039 79.7381 48.1535 77.4993 50.7085Z" fill="#A5960C"/>
<path opacity="0.34" d="M80.4816 49.8701C79.6341 51.467 78.011 53.2954 76.1401 52.8882C76.079 52.8962 76.0172 52.8962 75.9562 52.8882C80.0019 53.6867 81.9207 49.0637 81.9127 47.0836C81.929 46.1019 81.7494 45.1268 81.3842 44.2152C81.0191 43.3035 80.4758 42.4737 79.786 41.7741C78.7786 40.6243 78.1869 40.7121 77.1155 40.6642C76.6475 40.6616 76.1807 40.7125 75.7243 40.8159H75.6683C76.4954 40.8909 77.2984 41.1335 78.0284 41.5288C78.7584 41.9242 79.3999 42.4641 79.9139 43.1154C80.1284 43.4062 80.3108 43.7194 80.4576 44.0496C80.9132 44.9515 81.1525 45.9469 81.1567 46.957C81.1608 47.9672 80.9297 48.9645 80.4816 49.8701Z" fill="#CECE4D"/>
<path opacity="0.58" d="M78.3628 52.7205C80.7614 51.7704 81.9207 48.6246 81.9127 47.1315C81.929 46.1498 81.7494 45.1747 81.3842 44.2631C81.0191 43.3515 80.4758 42.5216 79.786 41.822C79.5308 41.461 79.1876 41.1711 78.7889 40.9796C78.3901 40.7882 77.949 40.7016 77.5073 40.7281C77.7654 40.8125 78.0144 40.9221 78.2509 41.0555C80.8974 41.8539 81.7689 45.7343 81.4011 48.1216C81.2311 49.0531 80.8743 49.9406 80.3522 50.7309C79.8301 51.5212 79.1534 52.1979 78.3628 52.7205Z" fill="#E0DC5A"/>
<path opacity="0.54" d="M72.6301 42.6523C72.1279 43.4916 71.8345 44.439 71.7746 45.4149C71.6706 47.2353 72.0864 49.4709 73.5896 50.5967C74.0133 50.9161 74.3891 50.2534 74.2052 49.3991C73.9414 48.3611 73.5096 47.395 74.8928 45.3271C75.4998 44.5921 76.0177 43.7881 76.4359 42.9318C76.7797 42.0455 75.7803 41.1433 74.7489 41.4786C73.7175 41.814 73.1898 41.7101 72.6301 42.6523Z" fill="#CECE4D"/>
<path opacity="0.62" d="M72.1744 41.9736C71.7396 42.5401 71.4192 43.1854 71.231 43.8739C70.8339 45.5222 70.9511 47.2523 71.5668 48.8321C72.0885 50.3353 73.1362 51.5999 74.5171 52.3932L74.2932 52.2335C72.5789 50.8173 71.4929 48.7833 71.2709 46.5726C71.1071 44.984 71.4217 43.3827 72.1744 41.9736Z" fill="#DBD875"/>
<path opacity="0.54" d="M75.6763 41.3828C75.3002 41.518 74.8967 41.5591 74.501 41.5026C74.1013 41.4387 73.7015 41.0954 73.2937 41.271C73.1818 41.3189 72.6541 41.6942 72.734 41.9337C72.9313 42.3515 73.2453 42.7034 73.6383 42.9471C74.0312 43.1907 74.4863 43.3157 74.9488 43.307C75.4308 43.2655 75.8971 43.1153 76.3126 42.8678C76.7281 42.6202 77.0819 42.2817 77.3474 41.8779C77.3972 41.7846 77.4226 41.6803 77.4215 41.5746C77.4204 41.4689 77.3927 41.3651 77.341 41.2729C77.2892 41.1807 77.2151 41.103 77.1254 41.0469C77.0357 40.9907 76.9333 40.958 76.8277 40.9516C76.316 40.9117 76.0761 41.2471 75.6763 41.3828Z" fill="#CECE4D"/>
<path d="M74.0772 41.5186C73.8933 41.6783 74.0772 41.8938 74.2931 41.9417C74.7488 41.9417 75.7163 41.8779 75.8922 41.4068C75.8602 41.1593 74.2931 41.327 74.0772 41.5186Z" fill="#A5960C"/>
<path d="M74.381 41.6383V41.5904C74.3766 41.6061 74.3766 41.6226 74.381 41.6383Z" fill="#897D22"/>
<path d="M74.8769 41.8538C75.0608 41.8538 75.3886 41.8538 75.5005 41.6861C75.7084 41.3827 75.1328 41.4786 74.9968 41.5265C74.8609 41.5744 74.8529 41.5265 74.685 41.5265C74.5901 41.5065 74.4921 41.5065 74.3972 41.5265C74.3412 41.5265 74.2932 41.6063 74.3412 41.6382V41.6861C74.3812 41.8778 74.661 41.8778 74.8769 41.8538Z" fill="#897D22"/>
<path d="M73.3098 34.3247C73.1061 34.9876 72.9721 35.67 72.91 36.3607C72.8829 37.3352 73.0827 38.3028 73.4937 39.1872C73.8431 39.6865 74.1379 40.2219 74.3731 40.784C74.3969 41.1366 74.4504 41.4864 74.5331 41.83C74.5331 41.8699 74.757 41.83 75.0048 41.83C75.2527 41.83 75.3566 41.8299 75.4046 41.7501C75.8763 41.1593 74.1173 39.1313 73.9094 38.6841C73.4121 37.5612 73.3106 36.3031 73.6216 35.1151C73.7017 34.8077 73.7367 34.4904 73.7255 34.173C73.5977 34.2217 73.4625 34.2487 73.3257 34.2528L73.3098 34.3247Z" fill="#E5E1AB"/>
<path d="M73.1898 36.5203C73.1898 36.7838 73.1898 37.0393 73.1898 37.2629C73.2458 38.5563 74.3492 39.5224 74.7889 40.7041C74.9213 41.0718 75.002 41.456 75.0288 41.8459C75.1553 41.8513 75.2814 41.8267 75.3966 41.774C75.8683 41.1832 74.1093 39.1551 73.9014 38.708C73.4041 37.5851 73.3027 36.327 73.6136 35.139C73.6937 34.8317 73.7287 34.5143 73.7175 34.1969H73.6216C73.4019 34.9554 73.2574 35.7336 73.1898 36.5203Z" fill="#C1B878"/>
<path opacity="0.51" d="M73.1897 48.3212C73.3816 46.4928 73.8853 46.2053 73.9892 44.4727C74.0475 43.8425 73.9656 43.2073 73.7494 42.6124C73.5665 42.1397 73.2951 41.7062 72.9498 41.3349C72.7512 41.4615 72.5687 41.6116 72.4062 41.782C72.2334 41.9726 72.0782 42.1783 71.9424 42.3968C71.8573 42.5389 71.7799 42.6855 71.7106 42.8359V42.8838C71.6466 43.0275 71.5826 43.1713 71.5266 43.331C71.5232 43.3468 71.5232 43.3631 71.5266 43.3789L71.3588 43.8499C70.9617 45.4982 71.0789 47.2283 71.6946 48.8082C71.7505 48.9599 71.8145 49.1036 71.8784 49.2474V49.3432L71.9744 49.5268L72.0304 49.6466L72.0943 49.7664C72.0943 49.8063 72.1343 49.8462 72.1583 49.8781C72.1988 49.958 72.2442 50.0353 72.2942 50.1097C72.3342 50.1656 72.3582 50.2214 72.3982 50.2773L72.4781 50.3971L72.5501 50.5009C72.5909 50.5653 72.6363 50.6266 72.686 50.6845L72.726 50.7484L72.8779 50.932L72.9738 51.0438L73.0778 51.1716C73.0806 51.1847 73.0806 51.1984 73.0778 51.2115L73.1337 51.2674L73.2856 51.4271L73.3576 51.4909L73.4456 51.5708L73.7094 51.7944L73.7974 51.8582L73.8693 51.9061L73.9333 51.9461L74.1572 52.0818V51.986C73.3754 50.9337 73.029 49.6215 73.1897 48.3212Z" fill="#75690D"/>
<path d="M50.7388 19.0746C49.8753 18.2282 49.0038 17.3898 48.1483 16.5435C46.6469 15.4826 45.247 14.2852 43.9667 12.9665C41.4642 10.4435 38.8337 8.08814 36.2991 5.60501C34.9719 4.53511 34.836 5.14192 34.852 6.00423C35.0544 6.68062 35.3221 7.33572 35.6515 7.96035C35.9534 8.68233 36.3172 9.37692 36.7389 10.0363C38.5138 12.9027 40.1449 15.777 42.5116 18.1244C43.59 19.0632 44.7394 19.9174 45.9496 20.6794C47.4207 21.7493 48.788 22.9709 50.2271 24.0248C52.1061 25.3981 54.1608 26.4201 56.0797 27.7296C56.8628 28.3121 57.7074 28.8074 58.5983 29.2067C59.005 29.304 59.4012 29.4403 59.7816 29.6139C59.8766 29.6736 59.965 29.7432 60.0455 29.8215C60.0455 29.6538 60.0455 29.4861 60.0455 29.3105C58.4296 27.7394 56.9305 26.0529 55.5601 24.2644C54.0593 22.4389 52.4493 20.7058 50.7388 19.0746Z" fill="#708E4D"/>
<path d="M35.1956 5.03815C34.8199 5.03815 34.652 5.5651 34.8199 6.124C34.9238 6.49128 35.5315 7.59311 35.6834 7.96039C35.9853 8.68237 36.3491 9.37696 36.7708 10.0363C38.5457 12.9027 40.1768 15.7771 42.5434 18.1245C43.6219 19.0632 44.7713 19.9174 45.9814 20.6794C47.4526 21.7493 48.8198 22.9709 50.259 24.0249C51.3064 24.8233 52.4017 25.4541 53.5051 26.1168C51.2984 24.472 48.7558 22.5558 46.693 20.895C44.0226 18.7552 41.8958 17.2861 40.1128 14.8669C38.1193 12.23 36.4146 9.38727 35.0278 6.3875C34.716 5.66891 34.9318 5.22179 35.1956 5.03815Z" fill="#426122"/>
<path d="M55.8318 26.9391C56.3675 26.8912 57.1351 26.3004 57.6788 26.5878C57.319 26.1088 56.4875 25.3982 56.1357 24.9111C56.0382 25.3903 55.8853 25.8565 55.6799 26.3004C56.0477 26.1567 56.5435 25.8133 56.9672 25.8932C56.8633 26.4281 56.1677 26.5399 55.8318 26.9391Z" fill="#657E41"/>
<path d="M55.7999 24.5119C54.5766 23.3222 53.1774 21.6695 51.9141 20.5197L51.7382 20.3521C50.8587 20.8151 49.2196 20.7672 48.3481 21.0547C49.4735 21.0027 50.6006 21.1048 51.6982 21.3581C53.2413 21.8292 51.6982 22.8431 50.7548 23.0747C51.5705 22.8363 52.4012 22.6522 53.2413 22.5238C54.2647 23.3861 52.3458 23.8572 52.1939 24.4001C52.7945 24.0947 53.4141 23.828 54.0489 23.6017C54.9523 23.4739 54.2248 24.4001 54.0489 24.8951C54.2757 24.6742 54.56 24.5212 54.8695 24.4535C55.179 24.3857 55.5013 24.406 55.7999 24.5119Z" fill="#596F39"/>
<path d="M46.901 18.8829C47.8205 18.5476 49.7154 19.1225 50.7388 19.0746C50.7388 19.0746 47.4527 15.6972 45.0221 13.6452C42.9193 11.8727 41.8239 10.8906 40.7046 9.80476C39.7171 9.90769 38.7189 9.80992 37.7703 9.51733C38.8496 10.3158 40.2968 10.2359 41.3122 11.1142C41.0164 11.721 39.5053 11.4336 38.9136 12.1601C39.2494 12.0005 41.3122 11.3617 41.624 11.6491C42.2157 12.1362 40.2009 12.5434 40.025 13.246C40.5926 12.8388 41.9279 12.1282 42.6315 12.3039C43.4702 12.7196 44.1968 13.3302 44.7502 14.0844C44.2865 14.5874 43.447 14.6673 42.9673 14.8828C43.399 14.8269 45.8376 14.4996 44.8382 15.4178C45.126 15.3699 45.4698 15.306 45.6377 15.6094C45.062 16.336 43.9187 16.6314 43.2391 17.0226C43.9267 16.8789 44.6463 16.7192 45.3339 16.6154C45.6776 16.5477 46.032 16.5546 46.3728 16.6359C46.7136 16.7172 47.0328 16.8709 47.3088 17.0865C47.5726 17.2541 48.7639 17.8849 48.708 18.1644C48.652 18.4438 47.4047 18.2442 46.901 18.8829Z" fill="#596F39"/>
<path d="M60.2292 29.3663C59.4937 28.6717 54.6325 22.9789 50.5708 18.835C48.0495 16.2798 45.3968 13.8573 42.6234 11.5773C42.6234 11.5773 49.2356 18.2122 50.4669 19.2582C51.6982 20.3041 55.8878 25.0468 56.8632 26.1247C57.8386 27.2026 59.1259 28.7595 59.8934 29.6618C60.8049 30.7476 62.2201 31.1628 63.1316 32.4563C63.3554 32.7677 64.5388 33.3904 63.9871 32.3126C63.4354 31.2347 60.9648 30.053 60.2292 29.3663Z" fill="#E5E1AB"/>
<path d="M63.2355 31.4503C62.6512 31.3813 62.0817 31.2196 61.5485 30.9712C62.1643 31.3691 62.7055 31.8717 63.1475 32.4563C63.3714 32.7677 64.5547 33.3904 64.0031 32.3126C63.8045 31.979 63.5439 31.6863 63.2355 31.4503Z" fill="#A69D5C"/>
<path d="M33.061 31.7537C32.8346 31.4913 32.6338 31.2078 32.4613 30.9073C31.9408 30.2881 31.3506 29.7309 30.7023 29.2466C29.2392 28.009 27.9279 26.6118 26.4008 25.4381C25.2255 24.5279 23.9303 23.7294 22.7389 22.8032C21.8537 22.0173 20.9102 21.2993 19.9166 20.6555C17.5179 19.3141 14.8235 18.6754 12.1291 17.9248C11.5044 17.7402 10.8651 17.6093 10.2181 17.5336C9.89033 17.4936 8.74699 17.1743 8.46715 17.326C8.18731 17.4777 8.22729 18.0047 8.46715 18.5636C11.0337 20.0087 13.5202 21.5577 16.1027 22.9789C18.0606 23.9562 19.835 25.2635 21.3477 26.8433C23.2762 27.9968 25.2765 29.0262 27.3363 29.9253C28.5031 30.5033 29.7016 31.0151 30.9262 31.4582C31.6456 31.66 32.3322 31.9638 32.965 32.3605C33.2397 32.3548 33.5108 32.2979 33.7646 32.1928H33.6926C33.6686 32.0811 33.2848 31.9533 33.061 31.7537Z" fill="#6E9145"/>
<path d="M19.9164 20.6555C17.5178 19.3141 14.8234 18.6754 12.1289 17.9248C11.5043 17.7402 10.865 17.6093 10.218 17.5336C9.89018 17.4936 8.74684 17.1743 8.467 17.326C8.18716 17.4777 8.21116 17.6773 8.27512 17.9887C8.34708 17.9887 8.14718 17.1903 8.8108 17.3739C11.5042 17.8799 14.1575 18.579 16.7502 19.4658C19.1009 20.3281 20.7479 21.6855 23.0826 23.3143C24.8736 24.5838 27.0003 26.1567 28.8153 27.5379C28.0157 26.8114 27.2162 26.0928 26.4167 25.4381C25.2413 24.5279 23.9461 23.7294 22.7548 22.8032C21.8644 22.0166 20.9156 21.2986 19.9164 20.6555Z" fill="#496F23"/>
<path d="M27.88 30.6758C28.5813 31.0915 29.3587 31.363 30.1666 31.4742C30.9662 31.602 31.6858 31.7856 32.4294 31.8814C32.3734 31.7138 32.3094 31.5381 32.2614 31.3704C32.1575 31.4343 31.9816 31.4423 31.8857 31.5141C31.8857 31.4103 31.8457 31.2826 31.8857 31.1628C31.6806 31.1536 31.476 31.189 31.286 31.2666C31.3077 31.0302 31.3451 30.7955 31.3979 30.564C31.3321 30.6605 31.247 30.7424 31.148 30.8045C31.049 30.8666 30.9382 30.9076 30.8225 30.9248C30.7069 30.9421 30.5889 30.9352 30.476 30.9047C30.3632 30.8742 30.2578 30.8208 30.1666 30.7477C29.8069 30.3804 30.1027 29.6299 30.0147 29.1907C29.7829 29.55 29.8468 30.1329 29.4711 30.3564C29.3111 30.0371 29.4711 29.558 29.4711 29.2386C28.9034 29.7097 29.0553 30.7556 28.0478 30.085C27.1843 29.5181 27.5601 28.9592 27.9439 28.2406C27.5841 28.4961 27.0165 29.2865 26.9125 28.544C26.9392 27.9863 27.006 27.4313 27.1124 26.8832C26.7126 27.1307 26.7846 28.7596 25.8571 28.1528C25.7675 27.4537 25.7221 26.7497 25.7212 26.0449C25.7212 26.8433 25.3055 28.3124 24.5779 27.1866C24.1202 26.3721 23.7759 25.4991 23.5544 24.5917C23.5544 25.3902 23.9942 26.8114 23.7384 27.5939L23.8503 27.7775C23.8088 27.7687 23.7703 27.7495 23.7384 27.7216C24.6179 29.1667 26.4808 29.8135 27.88 30.6758Z" fill="#5B7635"/>
<path d="M13.0084 21.0866C12.7206 22.388 14.0718 22.9709 15.0553 23.7135C16.0403 24.4668 17.1386 25.0597 18.3094 25.47C19.0762 25.7362 19.8619 25.9444 20.66 26.0928C21.0278 26.1726 21.4596 26.492 21.8434 26.3004C21.6086 25.5243 21.5006 24.7155 21.5235 23.9051C21.1318 24.456 21.5875 25.3982 21.3157 25.5019C21.0438 25.6057 20.3242 24.8073 20.1324 24.6396C19.9025 24.4652 19.7124 24.2441 19.5746 23.9908C19.4367 23.7375 19.3544 23.458 19.3328 23.1705C19.2529 22.6036 19.2209 21.9888 19.1809 21.414C19.021 22.0447 19.053 23.0108 18.6052 23.6496C18.3174 23.5777 18.2854 23.2903 18.2614 23.0428C17.7577 24.0568 17.4619 22.0367 17.4059 21.6774C17.4547 22.2185 17.3837 22.7637 17.198 23.2743C16.4709 23.0013 15.817 22.5641 15.2872 21.9968C14.9833 21.4778 15.2392 20.2482 15.4391 19.7053C14.9194 19.9928 15.0633 21.6854 14.5356 21.3022C14.2478 21.1106 14.2717 19.338 14.3197 19.0346C13.8799 19.6813 14.4556 20.8151 14.0399 21.1904C13.1284 20.5836 12.8406 19.4099 11.9771 18.7312C12.2409 19.33 13.1204 20.1604 13.0485 20.8231L13.0084 21.0866Z" fill="#5B7635"/>
<path d="M27.0244 29.0629C24.3927 27.7791 21.8593 26.3033 19.4448 24.6476C17.3873 23.2523 15.2517 21.9754 13.0485 20.8232C11.2961 19.9888 9.6898 18.8781 8.29121 17.5336C8.01137 18.2442 9.38657 20.1045 9.73037 20.5836C11.6503 23.1464 14.0475 25.3152 16.7903 26.9711C19.4892 28.7437 22.4261 30.1254 25.5133 31.075C26.8908 31.5665 28.3308 31.8622 29.7908 31.9533C31.0301 31.9533 32.6531 32.6959 33.7885 32.2008H33.7165V32.1609C31.3099 31.6818 29.0472 30.3085 27.0244 29.0629Z" fill="#93AD64"/>
<path d="M16.9583 23.0428C17.422 23.3462 17.8937 23.6416 18.3654 23.929C17.9017 23.6256 17.43 23.3462 16.9583 23.0428Z" fill="#A0B96A"/>
<path d="M8.42725 18.356C8.78858 19.1455 9.23637 19.8925 9.76246 20.5836C11.6824 23.1464 14.0796 25.3152 16.8224 26.971C19.5213 28.7437 22.4581 30.1254 25.5454 31.075C26.7383 31.4849 27.971 31.7686 29.2233 31.9213C25.9595 31.1685 22.824 29.9418 19.9166 28.2805C15.3672 25.7973 10.8658 22.9629 8.42725 18.356Z" fill="#BFD493"/>
<path d="M26.8564 31.1868C27.0483 31.091 28.7993 30.3884 29.0232 30.5561C29.8228 31.0511 30.0626 31.7936 31.3579 31.8415C32.0647 31.8677 32.7598 32.0304 33.4047 32.3206C33.5444 32.2913 33.681 32.2485 33.8124 32.1928H33.7405V32.1529C31.3418 31.6579 29.0872 30.2846 27.0563 29.039C24.4282 27.7533 21.8976 26.2776 19.4847 24.6237C17.4262 23.23 15.2907 21.9532 13.0884 20.7992C11.3361 19.9649 9.72973 18.8541 8.33114 17.5096C8.27153 17.8049 8.31382 18.1117 8.45109 18.38C8.62628 18.4501 8.78637 18.5531 8.92279 18.6833C9.49047 19.2023 11.4733 20.6076 12.2489 20.7034C13.0245 20.7992 13.0484 21.0627 12.081 21.6934C12.3784 21.6576 12.679 21.6576 12.9765 21.6934C13.6801 21.7813 14.8713 21.6934 14.9993 22.404C15.0552 22.6995 14.1278 22.9789 14.0078 23.3941C13.8399 24.0009 15.3751 22.396 15.7029 22.7873C15.7029 22.7873 17.7177 23.5857 17.7257 24.0089C17.7257 24.6476 15.9827 24.6317 15.9827 24.6317C16.0467 25.478 18.7252 24.6955 19.1809 24.8393C20.9159 25.3582 18.8771 25.6377 17.8696 26.8034C18.5732 26.6198 19.4048 25.6856 20.1323 25.5898C20.8599 25.494 21.1158 26.1567 19.8845 27.1867L21.4836 26.3882C22.1072 26.6757 20.9239 27.4182 20.3882 27.9292C22.8828 26.7715 23.2346 27.4501 22.9787 27.2745C23.5864 27.6817 22.3231 28.52 22.467 28.4721C22.6109 28.4242 23.6583 27.7216 23.8102 27.6737C24.4338 27.5539 25.2814 28.528 25.857 28.8474C26.4327 29.1668 25.7371 29.7097 25.0575 30.061C25.5612 30.1249 26.4087 29.3903 26.6566 29.3344C26.6566 29.3344 27.4561 29.574 26.8005 30.2048C26.4887 30.4922 27.8719 29.7177 28.1277 30.0371C28.1517 30.1888 26.8165 31.0591 26.8564 31.1868Z" fill="#7C8F4D"/>
<path d="M33.7165 31.8735C32.7251 31.9134 30.7022 30.7876 29.6069 30.2766C28.5115 29.7656 24.122 27.1787 23.0027 26.4361C21.8833 25.6936 15.7668 22.3721 15.7668 22.3721C17.0381 23.2983 21.4755 25.989 24.4578 27.9612C27.4401 29.9333 31.8855 31.5621 32.9569 32.1849C33.146 32.2768 33.3484 32.3388 33.5566 32.3685C34.2584 32.5551 34.9714 32.6965 35.6913 32.7917C36.0191 32.616 35.5314 32.4324 35.7553 32.1609C35.3795 32.1928 34.2842 31.8415 33.7165 31.8735Z" fill="#E5E1AB"/>
<path d="M81.8888 31.4343C81.7147 31.1366 81.5676 30.8239 81.449 30.5002C81.0313 29.8065 80.5379 29.1611 79.9779 28.5759C78.7226 27.1228 77.6512 25.5339 76.332 24.1286C75.3166 23.0507 74.1732 22.0447 73.1338 20.9349C72.3828 20.019 71.565 19.1597 70.6872 18.364C68.5125 16.6553 65.978 15.5934 63.4434 14.4197C62.8569 14.1383 62.247 13.9086 61.6205 13.7331C61.2927 13.6452 60.2213 13.1342 59.9175 13.238C59.6136 13.3418 59.5736 13.8768 59.7335 14.4756C62.0362 16.312 64.2429 18.2362 66.5696 20.0646C68.3445 21.3441 69.8861 22.9186 71.127 24.7195C72.8436 26.1647 74.6517 27.4982 76.5399 28.7116C77.5959 29.4703 78.6959 30.1662 79.834 30.7956C80.511 31.1147 81.1406 31.5258 81.7049 32.0171C81.985 32.0691 82.2723 32.0691 82.5524 32.0171H82.4724C82.4404 31.8575 82.0887 31.6658 81.8888 31.4343Z" fill="#6E9145"/>
<path d="M73.1898 20.9509C72.4387 20.0349 71.621 19.1756 70.7432 18.3799C68.5685 16.6713 66.0339 15.6094 63.4994 14.4357C62.9129 14.1543 62.3029 13.9245 61.6764 13.749C61.3486 13.6612 60.2772 13.1502 59.9734 13.254C59.6696 13.3578 59.6696 13.5734 59.6856 13.8768C59.7496 13.8768 59.6856 13.0783 60.3093 13.3658C62.8911 14.2912 65.4005 15.4067 67.8169 16.7032C69.9837 17.9328 71.4149 19.5376 73.4137 21.4938C75.0128 23.0268 76.8277 24.927 78.3948 26.5718C77.7392 25.7734 77.0836 24.8951 76.348 24.1127C75.3166 23.0508 74.1732 22.0447 73.1898 20.9509Z" fill="#496F23"/>
<path d="M76.9556 29.5421C77.582 30.0649 78.3043 30.4608 79.0823 30.7078C79.8259 30.9473 80.5295 31.2507 81.2571 31.4663C81.2171 31.2906 81.1851 31.107 81.1611 30.9313C81.0572 30.9792 80.8813 30.9313 80.7774 31.0112C80.7774 30.9153 80.7774 30.7796 80.8253 30.6678C80.6225 30.624 80.4126 30.624 80.2097 30.6678C80.2699 30.4397 80.3446 30.2157 80.4336 29.9972C80.3542 30.0833 80.2578 30.1521 80.1504 30.1991C80.0431 30.2461 79.9272 30.2704 79.81 30.2704C79.6927 30.2704 79.5768 30.2461 79.4694 30.1991C79.3621 30.1521 79.2657 30.0833 79.1863 29.9972C78.8985 29.574 79.3062 28.8794 79.2902 28.4402C79.0024 28.7516 78.9784 29.3345 78.5626 29.5022C78.4587 29.1588 78.6906 28.7037 78.7785 28.4003C78.1389 28.7756 78.1229 29.8295 77.2434 29.0151C76.3639 28.2007 76.9396 27.8174 77.4353 27.1787C77.0355 27.3703 76.3479 28.057 76.3639 27.3065C76.4822 26.7643 76.6372 26.2308 76.8276 25.7096C76.3959 25.8853 76.196 27.5061 75.3885 26.7555C75.4062 26.0514 75.4756 25.3496 75.5964 24.6557C75.4924 25.4541 74.7968 26.8274 74.2771 25.6058C73.9558 24.7269 73.7568 23.8081 73.6855 22.8751C73.5255 23.6736 73.7654 25.1347 73.3896 25.8692L73.4616 26.0689C73.4228 26.0515 73.3876 26.0272 73.3577 25.997C73.9893 27.522 75.7083 28.4562 76.9556 29.5421Z" fill="#5B7635"/>
<path d="M71.2949 23.45C71.079 23.5218 70.4313 22.6037 70.2714 22.412C70.0632 22.2043 69.9025 21.954 69.8004 21.6783C69.6983 21.4027 69.6571 21.1082 69.6798 20.8152C69.6798 20.2323 69.7597 19.6255 69.8077 19.0506C69.5519 19.6494 69.4239 20.6475 68.8802 21.1665C68.6164 21.0467 68.6324 20.7593 68.6404 20.5197C67.9848 21.43 68.0088 19.394 68.0168 19.0267C67.9785 19.5708 67.8201 20.0998 67.553 20.5756C66.8724 20.1866 66.2962 19.6387 65.874 18.9788C65.7966 18.1968 65.9792 17.4111 66.3937 16.7431C65.834 16.9427 65.6981 18.6354 65.2423 18.1963C64.9865 17.9568 65.2983 16.2162 65.3942 15.9208C64.8506 16.4956 65.2423 17.7013 64.7706 18.0127C63.971 17.2621 63.8671 16.0645 63.1235 15.2501C63.2914 15.8888 64.027 16.8469 63.8431 17.4857V17.6454C63.3394 18.8749 64.5867 19.6814 65.4422 20.5677C66.2942 21.468 67.2815 22.2303 68.3685 22.8272C69.0852 23.209 69.828 23.5399 70.5913 23.8173C70.9351 23.945 71.3268 24.3362 71.7186 24.2005C71.6125 23.4037 71.6342 22.5952 71.7826 21.8052C71.2868 22.3561 71.5907 23.3462 71.2949 23.45Z" fill="#5B7635"/>
<path d="M76.388 27.8095C73.999 26.1149 71.7381 24.2468 69.6239 22.2205C67.8153 20.5147 65.9093 18.9152 63.9152 17.4299C62.3234 16.3282 60.9173 14.9807 59.7496 13.4377C59.3658 14.1004 60.4212 16.1524 60.6771 16.6793C62.1657 19.5142 64.1851 22.0376 66.6256 24.1127C69.0186 26.2974 71.7107 28.1309 74.621 29.5581C75.8975 30.2808 77.2705 30.8184 78.6987 31.1549C79.922 31.3705 81.4091 32.3446 82.6324 32.0492H82.5525C82.5525 32.0492 82.5525 32.0492 82.5525 32.0013C80.1859 31.0751 78.171 29.3664 76.388 27.8095Z" fill="#93AD64"/>
<path d="M67.4011 20.2483C67.8089 20.6315 68.2007 20.9988 68.6484 21.3581C68.2326 20.9509 67.8169 20.6076 67.4011 20.2483Z" fill="#A0B96A"/>
<path d="M59.7015 14.26C59.9285 15.0913 60.2476 15.8947 60.653 16.6553C62.1417 19.4902 64.161 22.0135 66.6016 24.0887C68.9945 26.2734 71.6866 28.1069 74.597 29.534C75.7084 30.1311 76.8794 30.6101 78.0909 30.9632C74.9904 29.6955 72.0921 27.9821 69.4879 25.8772C65.3863 22.7234 61.3966 19.2023 59.7015 14.26Z" fill="#BFD493"/>
<path d="M75.8603 29.8774C76.0682 29.8135 77.9071 29.4223 78.107 29.598C78.8346 30.2287 78.9065 30.9952 80.2018 31.2427C80.8935 31.3858 81.5524 31.6566 82.1446 32.0412C82.287 32.037 82.4287 32.021 82.5684 31.9933H82.4884C82.4884 31.9933 82.4884 31.9933 82.4884 31.9454C80.2097 31.0671 78.1869 29.3584 76.3879 27.8015C73.9954 26.1113 71.7343 24.243 69.6238 22.2125C67.8174 20.5043 65.9112 18.9046 63.9152 17.4219C62.3256 16.3175 60.9198 14.9703 59.7495 13.4297C59.6502 13.714 59.6502 14.0236 59.7495 14.3079C59.9068 14.4107 60.0471 14.5373 60.1653 14.6832C60.645 15.298 62.372 16.9987 63.1316 17.2143C63.8911 17.4298 63.8592 17.7013 62.8038 18.1724C63.1022 18.1791 63.3982 18.2274 63.6833 18.3161C64.3629 18.5237 65.5542 18.6195 65.5702 19.3461C65.5702 19.6415 64.6187 19.7692 64.4268 20.1445C64.163 20.7194 65.938 19.3461 66.2018 19.8172C66.2018 19.8172 68.0568 20.9349 68.0008 21.3501C67.9128 21.9809 66.1778 21.6775 66.1778 21.6775C66.1059 22.5318 68.8723 22.1885 69.328 22.4041C70.9271 23.2025 68.8963 23.1466 67.7289 24.1287C68.4565 24.0648 69.4319 23.2743 70.1275 23.3302C70.8231 23.3861 71.0071 24.0488 69.6159 24.9271L71.3029 24.3682C71.8706 24.7515 70.5833 25.2944 69.9676 25.7175C72.6141 24.967 72.862 25.7176 72.6381 25.486C73.1658 25.989 71.7826 26.6038 71.9345 26.5879C72.0864 26.5719 73.2298 26.0369 73.3817 26.0289C74.0213 26.0289 74.7009 27.1068 75.2206 27.514C75.7403 27.9212 74.9647 28.3125 74.2691 28.5839C74.7489 28.7356 75.7083 28.1448 75.9162 28.1208C75.9162 28.1208 76.7157 28.4881 75.9162 28.9991C75.5644 29.2387 77.0516 28.6957 77.2595 29.055C77.2994 29.1029 75.8443 29.7337 75.8603 29.8774Z" fill="#7C8F4D"/>
<path d="M82.5284 31.6499C81.545 31.5381 79.7221 30.1009 78.7306 29.3823C77.7392 28.6637 73.8135 25.446 72.83 24.5358C71.8466 23.6256 66.3378 19.362 66.3378 19.362C67.4411 20.4798 71.3908 23.8412 74.0213 26.2684C76.6518 28.6957 80.7774 31.0112 81.7289 31.8016C81.9028 31.923 82.0942 32.0172 82.2966 32.081C82.9569 32.3762 83.6352 32.6295 84.3274 32.8396C84.6872 32.7198 84.2315 32.4563 84.4953 32.2247C84.1115 32.2327 83.0881 31.7218 82.5284 31.6499Z" fill="#E5E1AB"/>
<path d="M35.7554 32.129C35.3796 32.2008 34.2842 31.8495 33.7166 31.8815H33.6526C34.0351 32.0278 34.3717 32.2731 34.628 32.5921C34.9779 32.6755 35.3332 32.7342 35.6914 32.7677C36.0192 32.5761 35.5315 32.3924 35.7554 32.129Z" fill="#ADA261"/>
<path d="M37.0346 29.5261C36.9155 28.5595 36.6902 27.609 36.363 26.6916C35.6994 24.48 35.2996 22.2124 34.54 20.0087C33.9484 18.324 33.1808 16.6633 32.5972 14.9467C32.2198 13.5694 31.7415 12.2217 31.166 10.9146C29.5669 7.96836 27.3442 5.55709 25.1215 3.02605C24.614 2.43004 24.0577 1.87721 23.4584 1.37329C23.1466 1.11779 22.2112 0.0399287 21.8594 7.06245e-06C21.5076 -0.0399146 21.1638 0.53493 21.0598 1.26949C22.6589 4.41532 24.17 7.65696 25.857 10.7549C27.1801 13.0361 28.1048 15.5255 28.5915 18.1165C29.7762 20.5471 31.1113 22.9017 32.5892 25.1666C33.3816 26.5199 34.2519 27.8262 35.1957 29.0789C35.7865 29.7603 36.279 30.5209 36.6588 31.3385C36.9475 31.5222 37.2672 31.652 37.6023 31.7217H37.5143C37.5143 31.5381 37.2265 31.1549 37.1306 30.8036C37.0614 30.3813 37.0293 29.9539 37.0346 29.5261Z" fill="#87A564"/>
<path d="M31.166 10.9146C29.5669 7.96836 27.3442 5.55709 25.1215 3.02605C24.614 2.43004 24.0577 1.87721 23.4584 1.37329C23.1466 1.11779 22.2111 0.0399286 21.8593 6.95279e-06C21.5075 -0.0399147 21.3716 0.199617 21.2357 0.550928C21.2917 0.598834 21.6035 -0.319378 22.1712 0.287431C24.5571 2.56873 26.7699 5.02404 28.7913 7.63303C30.5823 10.0283 31.3659 12.5194 32.6291 15.6892C33.6046 18.1484 34.6919 21.1425 35.6114 23.7294C35.2996 22.4839 34.9878 21.2383 34.572 20.0087C33.9804 18.324 33.2128 16.6633 32.6291 14.9467C32.2414 13.5685 31.7524 12.2208 31.166 10.9146Z" fill="#4F712D"/>
<path d="M30.4464 20.4639V20.7194C30.4131 20.6814 30.3861 20.6382 30.3665 20.5916C30.2865 22.6037 31.7337 24.472 32.5732 26.2764C33.0016 27.1605 33.6023 27.9505 34.3401 28.5999C35.0357 29.2307 35.6674 29.9093 36.355 30.5002C36.403 30.2926 36.459 30.077 36.5229 29.8694C36.379 29.8694 36.1951 29.7656 36.0512 29.7736C36.1391 29.6778 36.1631 29.5021 36.2751 29.4143C36.0755 29.268 35.8462 29.1672 35.6034 29.1189C35.7802 28.8953 35.9726 28.6845 36.1791 28.4881C36.0483 28.5412 35.908 28.5668 35.7668 28.5635C35.6257 28.5602 35.4867 28.528 35.3585 28.4688C35.2303 28.4097 35.1157 28.3249 35.0217 28.2197C34.9277 28.1146 34.8562 27.9912 34.8119 27.8574C34.7 27.2506 35.4835 26.6837 35.6914 26.1886C35.2196 26.3962 34.8919 26.9871 34.3722 26.9871C34.4201 26.5639 34.8999 26.1886 35.1717 25.8852C34.2922 25.981 33.7565 27.1388 33.1809 25.7974C32.6931 24.6556 33.4367 24.3442 34.3002 23.8731C33.7725 23.8731 32.7011 24.3123 33.0609 23.4899C33.3247 22.931 34.0203 22.4599 34.3562 21.9489C33.7885 21.9489 32.7571 23.6257 32.2534 22.4041C32.6214 21.6378 33.0435 20.8987 33.5166 20.1924C33.0209 20.9908 31.5897 22.1965 31.5977 20.5916C31.6786 19.4667 31.9099 18.3577 32.2854 17.2941C31.6857 18.1165 31.2219 19.8411 30.4464 20.4639Z" fill="#6A814A"/>
<path d="M23.9142 6.79467C22.7628 7.91248 23.7383 9.39756 24.242 10.7868C24.7399 12.1932 25.4547 13.5132 26.3608 14.6991C26.9598 15.4699 27.6116 16.1983 28.3116 16.8789C28.6315 17.1983 28.8713 17.821 29.375 17.8609C29.6446 16.941 30.0603 16.0703 30.6063 15.282C29.8068 15.5695 29.6869 16.823 29.3271 16.7831C28.9673 16.7432 28.7834 15.4257 28.7034 15.1303C28.5778 14.8029 28.5242 14.4523 28.5462 14.1024C28.5683 13.7524 28.6656 13.4113 28.8314 13.1023C29.1272 12.4795 29.503 11.8408 29.8388 11.234C29.2631 11.7689 28.6475 12.7749 27.776 13.1103C27.5441 12.8388 27.704 12.5354 27.8319 12.2719C26.6646 12.9586 27.696 10.7229 27.8799 10.3237C27.5521 10.7309 27.2243 11.5054 26.6086 11.8008C26.051 11.0497 25.681 10.1765 25.5293 9.25381C25.5692 8.53522 26.6406 7.46536 27.2003 7.05017C26.4887 6.99428 25.5053 8.79873 25.2094 8.08813C25.0575 7.70488 26.2488 5.93236 26.4967 5.69283C25.6252 6.06011 25.4573 7.58512 24.7857 7.68891C24.274 6.47529 24.7857 5.10199 24.33 3.84845C24.202 4.64688 24.5378 6.04412 24.0261 6.66689L23.9142 6.79467Z" fill="#6A814A"/>
<path d="M32.7571 24.0807C30.9616 21.0509 29.3903 17.894 28.0558 14.6353C26.9002 11.8782 25.5896 9.18849 24.1301 6.5791C22.916 4.58059 22.0331 2.39938 21.5156 0.119751C20.764 0.654701 20.9159 3.43325 20.9399 4.11192C21.19 7.95971 22.1752 11.7242 23.8422 15.2022C25.3865 18.7738 27.4326 22.1076 29.9187 25.1028C30.981 26.5056 32.2352 27.7527 33.6445 28.8075C34.8918 29.6059 36.0432 31.4423 37.5383 31.7138H37.4504C37.4542 31.69 37.4542 31.6657 37.4504 31.6419C35.3636 29.55 34.0123 26.6756 32.7571 24.0807Z" fill="#BED29B"/>
<path d="M26.6006 11.3697C26.8644 11.9925 27.1443 12.6073 27.4001 13.2061C27.1683 12.5753 26.8884 11.9685 26.6006 11.3697Z" fill="#D2E5A8"/>
<path d="M20.9399 4.1199C21.19 7.96769 22.1752 11.7322 23.8422 15.2101C25.3865 18.7818 27.4326 22.1155 29.9187 25.1107C30.8519 26.3108 31.9076 27.4106 33.0689 28.3923C30.276 25.4695 27.9246 22.1557 26.0889 18.5556C23.1706 13.0783 20.4921 7.24977 21.0678 0.990051C20.9141 2.02585 20.8713 3.07503 20.9399 4.1199Z" fill="#DBEFB0"/>
<path d="M31.19 26.1167C31.4538 26.1167 33.6605 26.6198 33.7965 26.9152C34.3002 27.9611 34.0203 28.8554 35.2996 29.7496C35.9922 30.2424 36.5838 30.863 37.0426 31.578C37.203 31.6431 37.3689 31.6939 37.5383 31.7297H37.4504C37.4542 31.7059 37.4542 31.6817 37.4504 31.6579C35.3716 29.5819 33.9884 26.7076 32.7651 24.1127C30.9664 21.0845 29.395 17.9274 28.0638 14.6672C26.9073 11.8975 25.5912 9.19691 24.1221 6.5791C22.9152 4.57792 22.0353 2.39745 21.5156 0.119751C21.2588 0.377939 21.098 0.715981 21.0598 1.07788C21.1882 1.264 21.2804 1.47257 21.3317 1.69269C21.5635 2.6029 22.6269 5.32556 23.3545 5.93237C24.0821 6.53918 23.9142 6.81862 22.5549 6.81862C22.8787 6.97778 23.1798 7.17915 23.4504 7.41744C24.106 7.97635 25.3613 8.663 25.0495 9.46942C24.9136 9.79678 23.7942 9.46942 23.3945 9.81274C22.8188 10.3078 25.4333 9.70895 25.5052 10.3158C25.5052 10.3158 27.0004 12.4556 26.7286 12.8787C26.3288 13.5335 24.5618 12.3518 24.5618 12.3518C24.0741 13.262 27.2802 14.2361 27.672 14.6992C29.0792 16.3599 26.8725 15.306 25.0495 15.809C25.849 16.0964 27.3442 15.6972 28.1358 16.0725C28.9273 16.4477 28.7514 17.31 26.8085 17.5576L28.9353 17.7652C29.375 18.4678 27.688 18.4279 26.8085 18.5636C30.0946 19.0427 30.0067 19.9609 29.8547 19.6175C30.1905 20.416 28.3676 20.4159 28.5435 20.4878C28.7194 20.5597 30.2465 20.4878 30.4144 20.5916C31.126 20.879 31.3339 22.42 31.7017 23.1226C32.0695 23.8252 31.0141 23.9211 30.1026 23.8412C30.5663 24.2325 31.9096 24.0568 32.1494 24.1366C32.1494 24.1366 32.8211 24.9351 31.7257 25.1028C31.222 25.1906 33.1249 25.3263 33.1728 25.8134C33.1569 25.9651 31.2379 25.965 31.19 26.1167Z" fill="#9BAA74"/>
<path d="M31.262 33.646C29.6919 33.6744 28.1248 33.7943 26.5687 34.0053C23.8811 34.2368 21.2107 34.6368 18.5733 35.2029C16.2318 36.4237 13.6977 37.2339 11.0816 37.5982C7.57963 38.213 4.14161 39.0195 0.687601 39.6742C0.175896 40.2171 -0.111942 40.752 0.183887 41.0874C0.479717 41.4227 1.8789 41.4387 2.27067 41.5265C3.03718 41.6863 3.8152 41.7851 4.59736 41.822C7.96342 42.0056 11.2575 42.309 14.5436 41.7182C15.9297 41.3681 17.2874 40.9144 18.6052 40.3608C20.3243 39.762 22.1072 39.3468 23.8023 38.7639C26.001 38.0134 28.0398 36.9276 30.1986 36.0892C31.1252 35.783 32.0154 35.376 32.853 34.8756C33.1649 34.5972 33.5022 34.3486 33.8605 34.133C34.1963 33.9893 34.66 33.9973 34.8199 33.8695C34.5868 33.6657 34.3149 33.5109 34.0204 33.4144C33.1168 33.6236 32.1878 33.7016 31.262 33.646Z" fill="#87A564"/>
<path d="M0.167896 40.249C-0.0159977 40.5764 -0.0719655 40.8638 0.167896 41.0474C0.407758 41.2311 1.86296 41.3987 2.25473 41.4866C3.02124 41.6463 3.79921 41.7451 4.58137 41.782C7.94743 41.9657 11.2415 42.2691 14.5276 41.6782C15.9137 41.3282 17.2714 40.8744 18.5893 40.3209C20.3083 39.7221 22.0913 39.3069 23.7863 38.724C25.0096 38.3088 26.1849 37.7898 27.3522 37.2629C24.7457 38.1332 21.7555 39.1153 19.173 39.8658C15.8948 40.8239 13.4722 41.7261 10.458 41.806C7.15403 41.8219 3.8535 41.5924 0.583672 41.1193C-0.27983 41.0794 0.24785 40.265 0.167896 40.249Z" fill="#4F712D"/>
<path d="M29.3271 35.8656C29.5909 35.3945 29.543 34.4285 30.1266 34.141C30.2597 34.0929 30.4013 34.0726 30.5425 34.0815C30.6838 34.0904 30.8218 34.1282 30.9478 34.1926C31.0738 34.257 31.1851 34.3466 31.2749 34.4559C31.3647 34.5651 31.4311 34.6917 31.4698 34.8277C31.4958 34.5586 31.5412 34.2917 31.6057 34.0292C31.794 34.1895 32.015 34.3067 32.2534 34.3725C32.2534 34.2288 32.3813 34.1011 32.4053 33.9813C32.4852 34.0931 32.6851 34.1729 32.7651 34.2847C32.893 34.1171 33.0289 33.9334 33.1649 33.7657C32.2774 33.5901 31.3499 33.5102 30.4224 33.3585C29.4599 33.1595 28.4667 33.1595 27.5041 33.3585C25.5612 33.7977 23.1946 33.8136 21.6515 35.1231C21.7014 35.1109 21.7535 35.1109 21.8034 35.1231L21.6115 35.2908C21.6115 36.2808 20.5162 37.686 20.2363 38.6441C20.8366 37.694 21.5657 36.8315 22.403 36.0812C23.6663 35.0752 23.6024 36.9435 23.2746 37.8298C23.5406 37.0098 23.8639 36.2094 24.242 35.4345C25.5293 35.0911 24.8257 36.9355 25.1855 37.3667C25.2759 36.7034 25.4121 36.0471 25.5932 35.4025C26.001 34.6041 26.3928 35.7139 26.6566 36.1371C26.5047 35.171 26.2888 34.3965 27.4561 34.0771C28.8633 33.7098 28.2557 34.8357 28.7434 35.5862C28.8313 35.2109 28.8393 34.6041 29.1432 34.3087C29.495 34.7238 29.2151 35.3227 29.3271 35.8656Z" fill="#6A814A"/>
<path d="M17.5978 38.5723C17.8818 37.6566 18.3139 36.7935 18.8771 36.0173C18.5333 35.642 17.8937 35.8337 17.446 35.7858C16.4791 35.6512 15.5039 35.5845 14.5276 35.5861C13.032 35.6031 11.5482 35.8536 10.1302 36.3287C8.72297 36.7998 6.932 36.9514 6.77209 38.5483L6.71611 38.724C6.54821 39.5224 5.22099 40.1212 4.6853 40.7041C5.93258 40.257 6.71614 39.0353 7.99541 38.692C8.32322 39.2829 7.19585 40.3528 7.47569 41.271C7.53965 40.8957 8.20324 38.8757 8.60301 38.7559C9.34659 38.5483 8.52307 40.4246 9.01079 40.9596C9.01079 40.257 9.1707 38.7639 9.71439 38.2849C10.5375 37.8365 11.4556 37.5902 12.3929 37.5663C12.4137 38.2234 12.2823 38.8764 12.0091 39.4745C12.2089 39.0833 13.3363 36.8955 13.5202 38.2449C13.6481 37.9734 13.7921 37.6621 14.1439 37.686C14.4157 38.5723 13.9999 39.6821 13.936 40.4646C14.1998 39.8178 14.4797 39.1392 14.7915 38.5164C14.9339 38.1955 15.1429 37.9085 15.4049 37.6745C15.6668 37.4405 15.9755 37.2648 16.3106 37.159C16.5984 37.0473 17.8057 36.4405 17.9976 36.6401C18.1895 36.8397 17.366 37.7978 17.5978 38.5723Z" fill="#6A814A"/>
<path d="M13.3682 33.3026C9.596 34.1272 6.0182 35.6697 2.83024 37.8457C2.25457 38.2609 -0.032135 39.8578 0.00784197 40.776C2.12621 39.7798 4.39115 39.1301 6.71599 38.8517C9.68115 38.3948 12.6176 37.7683 15.5109 36.9754C18.9047 36.0135 22.3656 35.3063 25.865 34.8596C28.6633 34.2208 31.7815 33.5422 34.7079 33.8935H34.7638C33.6285 32.8875 31.5656 33.1349 30.1425 32.6719C28.4417 32.2097 26.6838 31.9919 24.9215 32.0251C21.0291 31.8988 17.1386 32.329 13.3682 33.3026Z" fill="#BED29B"/>
<path d="M12.033 37.8457C12.6886 37.694 13.3362 37.5424 13.9918 37.3747C13.3362 37.5104 12.6886 37.6701 12.033 37.8457Z" fill="#D2E5A8"/>
<path d="M13.3682 33.3026C9.59601 34.1273 6.01821 35.6697 2.83026 37.8457C1.95662 38.4291 1.15195 39.1095 0.431641 39.8738C5.03699 35.5702 11.2814 34.0772 17.3899 32.9993C21.3556 32.2339 25.4117 32.0483 29.4309 32.4484C27.9404 32.1354 26.4206 31.9828 24.8975 31.9932C21.0116 31.8796 17.1293 32.3205 13.3682 33.3026Z" fill="#DBEFB0"/>
<path d="M5.72472 38.6441C4.80525 38.4445 1.99888 39.2829 1.13537 39.6662C0.928331 39.7586 0.706172 39.8128 0.479745 39.8259C0.218706 40.0797 0.0522596 40.4149 0.00799561 40.776C2.12636 39.7798 4.3913 39.1301 6.71614 38.8517C9.6813 38.3948 12.6178 37.7683 15.5111 36.9754C18.9048 36.0135 22.3658 35.3063 25.8651 34.8596C28.6635 34.2208 31.7817 33.5422 34.7 33.8935C34.7211 33.8978 34.7429 33.8978 34.764 33.8935C34.6604 33.7989 34.5448 33.7184 34.4202 33.6539C33.572 33.7332 32.7165 33.6464 31.9016 33.3985C30.4065 32.9514 29.8628 33.7178 28.7035 33.9653C28.3916 34.0372 26.6567 32.592 26.4728 32.3685C26.3848 32.5042 27.5682 34.0133 27.4402 34.0931C27.0245 34.3486 25.7452 32.9434 25.9851 33.3905C26.5128 34.3646 25.4813 34.3246 25.4813 34.3246C25.2735 34.1809 24.5859 33.0072 23.9862 32.8955C24.5859 33.5422 25.2814 34.4205 24.3939 34.5801C23.5064 34.7398 22.2672 35.4983 21.5955 35.1231C21.4356 35.0273 20.5242 33.8056 20.3723 33.7018C20.2204 33.598 21.3397 35.0352 20.4922 35.2987C20.852 35.2029 20.1804 35.8337 17.7898 33.5502C18.1975 34.3486 19.2609 35.6421 18.4374 35.7299L16.9662 34.1809C17.9657 35.8736 17.35 36.5044 16.6144 36.1451C15.8789 35.7858 15.2472 34.3566 14.5116 33.8775C15.2072 35.5942 17.43 36.712 15.2473 36.6241C14.6396 36.6241 11.8892 34.6759 11.4814 35.6181C11.4814 35.6181 13.4962 36.2808 13.2324 37.0074C13.0565 37.4784 10.45 37.6222 10.45 37.6222C9.93032 37.9336 8.79493 35.5143 8.75495 36.2648C8.75495 36.7918 9.68246 37.4705 9.49857 37.7819C9.07481 38.5803 7.75554 37.9735 6.91602 37.7819C6.56174 37.7111 6.21789 37.5957 5.89264 37.4386C6.77213 38.5164 6.71615 38.8517 5.72472 38.6441Z" fill="#9BAA74"/>
<path d="M33.8286 33.646C32.2295 33.8855 26.6727 34.0771 22.4911 35.1709C18.3095 36.2648 12.209 37.6222 10.41 38.189C10.41 38.189 18.6773 36.7519 20.2444 36.3447C21.8115 35.9375 27.8 34.7478 29.2632 34.5242C30.7263 34.3007 32.7172 34.1729 33.9085 34.0691C35.3157 33.9334 36.467 33.0231 38.0501 33.0072C38.4339 33.0072 37.8263 32.6559 37.4825 32.4882C37.2906 32.4643 34.0125 33.622 33.8286 33.646Z" fill="#E5E1AB"/>
<path d="M26.6966 38.8517L23.3065 40.1532C21.7161 41.0712 20.0431 41.8384 18.3094 42.4447C14.9673 43.6663 11.7292 45.0715 8.4111 46.3331C6.88398 47.0836 7.3797 47.4669 8.16325 47.8102C8.87111 47.9001 9.58606 47.9215 10.2981 47.874C11.0809 47.8975 11.8643 47.8575 12.6407 47.7543C15.9828 47.3391 19.2848 47.0596 22.411 45.8939C23.7139 45.309 24.9701 44.6257 26.1689 43.8499C27.768 42.9557 29.439 42.2531 30.9661 41.3588C32.9969 40.233 34.8119 38.8038 36.7867 37.5982C37.6449 37.1311 38.4492 36.5715 39.1854 35.9295C39.4388 35.6003 39.7255 35.2979 40.0409 35.0273C40.1353 34.9641 40.2374 34.9132 40.3447 34.8756C40.1863 34.8091 40.0316 34.7345 39.881 34.652C37.7759 35.4639 35.614 36.1204 33.4127 36.6161C31.1327 37.2313 28.8902 37.9777 26.6966 38.8517Z" fill="#87A564"/>
<path d="M8.58705 47.8102C7.78751 47.8102 7.49168 47.411 7.43571 47.0916C7.29979 47.4429 7.68357 47.8102 8.23525 47.89C8.61103 47.9459 9.83431 47.89 10.2661 47.89C11.0489 47.9135 11.8324 47.8735 12.6087 47.7703C15.9508 47.3551 19.2529 47.0757 22.3791 45.9099C23.6819 45.325 24.9382 44.6417 26.1369 43.866C27.736 42.9717 29.4071 42.2691 30.9342 41.3748C32.0695 40.7441 33.1329 40.0255 34.1883 39.3069C31.7896 40.6163 28.9673 42.1254 26.6006 43.2991C23.5384 44.8241 21.3157 46.1415 18.3654 46.7483C15.1529 47.4474 11.875 47.8034 8.58705 47.8102Z" fill="#4F712D"/>
<path d="M35.9793 37.5264C36.1552 37.0154 35.9793 36.0732 36.435 35.6979C35.8514 35.8337 34.8359 36.2888 34.2603 36.4006C34.6565 36.6916 35.0185 37.0264 35.3396 37.3986C35.3396 37.0074 35.2597 36.4086 35.4995 36.0652C35.9473 36.3766 35.7634 37.0473 35.9793 37.5264Z" fill="#6A814A"/>
<path d="M28.4956 38.3887L28.2717 38.4845C28.3197 39.4746 27.6001 40.9357 27.4722 41.8459C27.9016 40.806 28.469 39.8285 29.1592 38.9396C30.2226 37.734 30.4944 39.5784 30.3185 40.5365C30.4401 39.6949 30.6191 38.8625 30.8542 38.0453C32.0695 37.4784 31.6538 39.4187 32.1255 39.7859C32.1 39.1148 32.1187 38.4426 32.1815 37.7739C32.4453 36.8956 32.981 37.9415 33.3568 38.3088C33.2507 38.0107 33.2304 37.6888 33.2983 37.3797C33.3661 37.0707 33.5193 36.7868 33.7405 36.5602C32.1654 37.1511 30.0786 37.718 28.4956 38.3887Z" fill="#6A814A"/>
<path d="M24.9216 42.2531C24.9936 41.287 26.3128 39.8019 26.6966 38.8517C26.6966 38.8517 22.2511 40.4486 19.3728 41.774C16.8782 42.9398 15.543 43.4986 14.0718 44.0815C13.7573 45.0262 13.251 45.8959 12.5847 46.6365C13.7361 45.9738 14.2877 44.6324 15.487 44.0735C15.9188 44.6005 15.0233 45.846 15.4311 46.7004C15.4311 46.3251 15.7189 44.2093 16.0947 44.0256C16.7903 43.6903 16.3186 45.6864 16.8942 46.1255C16.7503 45.4389 16.6703 43.9298 17.1181 43.3709C17.8451 42.782 18.7035 42.3767 19.6206 42.1892C19.7656 42.8305 19.7656 43.4961 19.6206 44.1374C19.7486 43.7142 20.4682 41.3668 20.8839 42.6603C20.9639 42.3729 21.0438 42.0375 21.4036 41.9976C21.8274 42.796 21.6115 43.9857 21.6835 44.7682C21.8354 44.0895 21.9873 43.3629 22.1872 42.7002C22.2696 42.3597 22.4243 42.0409 22.6409 41.7654C22.8575 41.4899 23.1308 41.2641 23.4425 41.1033C23.7063 40.9357 24.7857 40.1213 25.0415 40.3049C25.2974 40.4885 24.5458 41.5345 24.9216 42.2531Z" fill="#6A814A"/>
<path d="M43.415 32.7597C42.2077 32.8156 40.9524 34.165 40.0169 34.5482C39.0815 34.9315 31.8536 36.9435 26.4247 38.9076C23.0472 40.1271 19.7352 41.5209 16.5024 43.0834C16.5024 43.0834 25.2974 39.8897 26.7685 39.1791C28.2397 38.4685 34.2922 36.68 35.6994 36.2169C37.1066 35.7538 39.0414 35.2668 40.1848 34.9474C41.552 34.5722 42.5195 33.4623 44.0786 33.1749C44.4064 33.103 44.6223 32.7038 43.415 32.7597Z" fill="#C1B878"/>
<path d="M45.7736 4.76661C46.2053 3.88833 48.444 0.734518 46.1733 1.57287C44.7262 2.08387 42.9751 3.79253 41.8398 4.83049C40.5004 6.05947 39.3308 7.46108 38.3618 8.99834C36.1071 12.5993 35.8352 15.7371 37.0905 19.7452C38.042 22.8032 39.9129 26.1327 42.8552 27.7934C43.9586 28.4322 47.7004 31.1788 48.7558 30.2526C48.5399 30.0131 48.3001 29.6857 48.0682 29.4542C43.199 24.7834 41.496 15.8808 43.7987 9.49337C44.3593 7.87885 45.0188 6.30025 45.7736 4.76661Z" fill="#87A564"/>
<path d="M48.4041 30.3804C48.1963 30.1408 48.1883 29.5819 47.9724 29.3823C43.1112 24.7035 41.4002 15.809 43.7028 9.42148C44.2714 7.81921 44.9335 6.25159 45.6857 4.72669C46.0135 4.07198 47.3807 2.08388 47.021 1.53296C46.9894 1.77261 46.9164 2.00495 46.8051 2.2196C46.2454 3.30547 44.9981 5.84453 44.0227 6.85055C43.3671 7.52124 43.3671 5.15783 42.5195 5.01412C42.9697 5.69354 43.2595 6.46616 43.3671 7.2737C43.2311 9.27776 42.4636 7.56911 42.4636 7.56911C42.1118 8.51126 43.5989 9.36561 42.8393 9.89258C42.4635 10.8747 40.3448 9.14205 40.1129 9.89258C40.1129 9.89258 42.8953 10.1401 42.5115 12.1362C41.9599 15.1303 38.6977 12.695 38.6977 12.695C38.5218 13.3019 42.0078 14.0764 41.9759 14.7231C41.9119 16.32 40.3768 16.6393 40.1049 16.9827C40.1529 16.9827 42.1278 15.5854 42.2237 16.9268C42.2957 17.837 40.9285 18.835 40.9285 18.835C41.0244 19.1144 42.4556 17.5575 42.4556 18.835C42.4556 19.6334 39.3134 21.4619 39.3134 21.4619C39.969 21.7573 42.0238 19.1464 42.6795 21.0547C43.0313 22.0687 43.2391 23.2983 42.0878 23.7534C42.4236 23.8811 43.2231 23.1865 43.415 23.5059C44.1106 24.6237 43.463 24.959 43.6549 25.3263C43.6549 25.3263 43.9427 24.6237 44.4544 25.7495C44.9821 26.4122 44.3585 27.011 44.4144 27.0589C44.6783 27.1547 44.8302 26.5639 45.0541 26.7635C45.4858 27.1467 46.3973 28.0569 46.1095 28.7196C46.5732 28.5919 47.4847 29.526 48.4041 30.3804Z" fill="#6A814A"/>
<path d="M40.7206 6.29163C42.3197 4.30354 44.3105 2.18765 46.909 1.56487H47.045C46.925 1.40519 46.6452 1.37325 46.1095 1.56487C44.6623 2.07587 42.9113 3.78453 41.784 4.8225C40.4423 6.04934 39.2725 7.45127 38.306 8.99034C36.0513 12.5913 35.7795 15.7291 37.0268 19.7372C37.9862 22.7952 39.8491 26.1247 42.7994 27.7854C43.3351 28.0968 44.5024 28.9113 45.6778 29.55C42.8874 27.6897 40.2649 25.7814 38.7457 22.6914C37.4025 19.9608 36.4911 16.9747 36.9228 13.9087C37.3306 10.9385 38.8737 8.5512 40.7206 6.29163Z" fill="#BFD493"/>
<path d="M50.1391 32.4164C50.3511 32.5286 50.5868 32.5889 50.8267 32.5921C50.9707 32.5921 51.4264 32.4723 51.4823 32.3206C51.6182 31.9214 50.6348 31.6898 50.403 31.5222C50.0159 31.306 49.6607 31.0373 49.3476 30.7237C49.1046 30.4351 48.8371 30.1679 48.548 29.9253C48.4031 29.7365 48.2456 29.5577 48.0763 29.3904C43.2071 24.7195 41.5041 15.817 43.8068 9.42952C44.0626 8.71093 44.3505 7.96838 44.6543 7.23383C42.9908 10.1909 42.2581 13.5797 42.5515 16.9587C42.7674 19.7692 43.0552 22.7155 44.4464 25.1667C45.4602 26.8644 46.653 28.449 48.0043 29.8934C48.0043 29.8934 48.8039 30.9553 49.0437 31.3066C49.3707 31.6918 49.7233 32.0546 50.0991 32.3925H50.0032C50.0492 32.3955 50.0948 32.4035 50.1391 32.4164Z" fill="#E5E1AB"/>
<path d="M37.2105 32.1769C36.6061 31.9827 36.0462 31.6706 35.5635 31.2587C34.612 30.5161 33.9644 30.2766 34.5241 31.6898C34.6112 32.0654 34.8212 32.4013 35.121 32.6443C35.4208 32.8872 35.7931 33.0234 36.1791 33.0312C36.5309 33.0951 36.8347 33.111 37.0906 33.135C38.2247 32.9832 39.3752 32.9993 40.5046 33.1829C41.3761 33.1829 42.3836 33.3745 43.0712 33.4464C45.6057 33.6859 48.2042 33.3745 50.7307 33.4943C51.1225 33.4943 52.018 33.63 52.8335 33.63C54.4093 33.7421 55.991 33.7421 57.5668 33.63C62.412 33.63 67.9608 33.9494 70.6553 34.1091C73.0539 34.2528 79.9698 33.6859 81.1132 33.63C82.3845 33.5662 94.0417 32.9753 98.863 32.9753C101.35 32.9753 103.548 32.4084 105.955 32.2727C107.018 32.1385 108.065 31.9005 109.081 31.5621C110.464 31.2267 110.808 31.2587 111.04 29.7417C108.889 29.4303 106.459 30.2447 104.396 30.5401C101.799 30.8712 99.1858 31.0578 96.5683 31.099C91.819 31.3066 87.5335 32.1689 82.5924 31.9533C80.0631 31.9341 77.5364 32.1182 75.0367 32.5042C72.7297 32.6879 70.4117 32.6879 68.1047 32.5042C63.5953 32.2327 58.0785 32.1689 53.4891 32.3206C52.4476 32.1827 51.3974 32.1213 50.3469 32.137C49.0585 32.2645 47.7639 32.3205 46.4692 32.3046C45.2299 32.2567 43.9587 32.3046 42.6794 32.1769C41.6312 32.0519 40.5728 32.0358 39.5212 32.129C38.8934 31.8863 38.2818 31.6036 37.6902 31.2826C36.6668 30.6758 35.3716 28.2007 34.628 26.9232C33.8845 25.6457 31.15 20.1844 30.5104 18.6993C29.8708 17.2142 25.905 9.82074 25.905 9.82074C26.5766 11.5933 29.2631 17.2302 30.9661 21.1904C32.6691 25.1507 36.0752 29.7257 36.7388 31.0511C36.9592 31.3596 37.2294 31.6294 37.5383 31.8495C37.6423 32.0332 37.5863 32.2727 37.2105 32.1769Z" fill="#E5E1AB"/>
<path d="M34.5722 26.9471C33.8286 25.6696 31.0942 20.2163 30.4545 18.7312C29.9668 17.6214 27.6322 13.1981 26.4568 11.0424H26.3049C27.3523 13.4377 29.5031 17.9328 30.8783 21.2303C32.0044 23.6497 33.3225 25.9752 34.82 28.1847C34.9185 28.1147 35.0229 28.0533 35.1319 28.0011C34.94 27.6098 34.7401 27.2505 34.5722 26.9471Z" fill="#C1B878"/>
<path d="M109.665 29.6618C109.457 30.026 109.173 30.3414 108.832 30.5866C108.491 30.8318 108.102 31.001 107.69 31.083C105.293 31.6076 102.851 31.9017 100.398 31.9613C99.8948 32.0303 99.3868 32.0597 98.8789 32.0491C98.4472 32.0491 97.9994 31.9852 97.5437 31.9613C95.6568 32.089 93.7059 31.9613 91.9469 32.1769C89.4124 32.4563 86.9258 32.6959 84.3913 32.7438C83.2075 32.9276 82.0143 33.0449 80.8173 33.0951C79.0263 33.2308 77.2194 33.3426 75.4125 33.3985C75.1651 33.4541 74.9083 33.4541 74.6609 33.3985C71.8763 33.5063 69.0875 33.4263 66.3137 33.1589C65.5392 33.2668 64.7535 33.2668 63.979 33.1589C62.4694 33.0193 60.9518 32.9873 59.4377 33.0631L50.203 33.2468C46.8209 33.3266 43.4789 32.7677 40.1048 32.7757C38.098 32.7757 35.7633 32.7757 34.3881 31.075C34.3232 31.0018 34.2669 30.9215 34.2202 30.8355C34.2416 31.1138 34.3176 31.3851 34.4441 31.6339C34.5312 32.0095 34.7413 32.3454 35.041 32.5884C35.3408 32.8313 35.7131 32.9675 36.0991 32.9753C36.4509 33.0392 36.7467 33.0551 37.0106 33.0791C38.1419 32.9233 39.2902 32.9395 40.4166 33.127C41.2961 33.127 42.2955 33.3186 42.9831 33.3825C45.5257 33.63 48.1242 33.3186 50.6507 33.4384C51.0425 33.4384 51.938 33.5741 52.7535 33.5741C54.3293 33.6862 55.911 33.6862 57.4868 33.5741C62.324 33.5741 67.8808 33.8855 70.5752 34.0532C72.9738 34.1969 79.8899 33.63 81.0332 33.5741C82.3045 33.5103 93.9618 32.9194 98.783 32.9194C101.262 32.9194 103.46 32.3525 105.875 32.2168C106.937 32.0779 107.984 31.84 109.001 31.5062C110.376 31.1708 110.72 31.2028 110.952 29.6858C110.524 29.6389 110.094 29.6309 109.665 29.6618Z" fill="#C1B878"/>
<path d="M70.6392 13.6852C69.8816 13.4826 69.1089 13.341 68.3286 13.262C67.9288 13.262 66.5376 12.8708 66.2098 13.0544C65.882 13.2381 65.938 13.8528 66.2578 14.5555C69.392 16.2322 72.4302 18.0287 75.5804 19.6735C77.9554 20.8039 80.1188 22.3323 81.9767 24.1926C84.3278 25.5279 86.7605 26.7146 89.2605 27.7456C90.6843 28.4099 92.1445 28.9937 93.634 29.4942C94.5068 29.724 95.3436 30.0733 96.1205 30.5321C96.4317 30.5312 96.7393 30.466 97.024 30.3405C96.9281 30.1808 96.4723 30.0371 96.2245 29.7976C95.9462 29.4877 95.6998 29.1506 95.4889 28.7915C94.8385 28.0643 94.1121 27.4085 93.3222 26.8354C91.5152 25.3822 89.9001 23.7375 88.0292 22.3642C86.59 21.3023 85.0149 20.3601 83.5598 19.2822C82.4698 18.3557 81.3097 17.5149 80.0898 16.7671C77.1395 15.2182 73.9014 14.5156 70.6392 13.6852Z" fill="#87A564"/>
<path d="M66.6336 13.1103C69.8839 13.6476 73.0906 14.4215 76.228 15.4258C79.0744 16.3999 81.1132 17.9887 83.9596 19.897C86.1503 21.3661 88.7568 23.2185 90.9715 24.8313C90.0121 23.977 89.0447 23.1307 88.0053 22.3642C86.5661 21.3023 84.991 20.3601 83.5358 19.2822C82.4458 18.3557 81.2857 17.5149 80.0658 16.7671C77.1155 15.2182 73.8774 14.5156 70.6153 13.6852C69.8577 13.4826 69.0849 13.341 68.3046 13.262C67.9048 13.262 66.5136 12.8708 66.1858 13.0544C65.858 13.2381 65.89 13.4936 65.9779 13.8528C66.0819 13.8688 65.818 12.9666 66.6336 13.1103Z" fill="#4F712D"/>
<path d="M85.9105 24.5279C85.3375 23.5599 84.9016 22.5174 84.6152 21.4299C84.6152 22.404 85.2069 24.0887 84.9191 25.0389L85.055 25.2545C85.0034 25.2472 84.954 25.2281 84.9111 25.1986C85.9904 26.8992 88.2371 27.5939 89.9561 28.6318C90.8094 29.1217 91.7532 29.4341 92.7306 29.55C93.658 29.6778 94.5695 29.8854 95.473 29.9812C95.393 29.7816 95.3211 29.566 95.2491 29.3664C95.1372 29.4462 94.9213 29.4622 94.8094 29.55C94.8094 29.4223 94.7454 29.2706 94.8094 29.1268C94.5626 29.1214 94.3175 29.1676 94.0898 29.2626C94.1073 28.9777 94.1474 28.6947 94.2097 28.4162C94.1321 28.5345 94.0311 28.6355 93.9127 28.7131C93.7944 28.7906 93.6613 28.843 93.5218 28.867C93.3823 28.8909 93.2393 28.886 93.1018 28.8524C92.9643 28.8188 92.8352 28.7573 92.7226 28.6717C92.2828 28.2326 92.6186 27.3224 92.5067 26.7954C92.2268 27.2426 92.3308 27.9372 91.8751 28.2166C91.6752 27.8414 91.8751 27.2585 91.8751 26.8753C91.2114 27.4581 91.4193 28.7037 90.188 27.9292C89.1327 27.2665 89.5724 26.5878 90.0121 25.7096C89.5964 26.0289 88.9248 26.995 88.7728 26.0928C88.7962 25.4212 88.863 24.7518 88.9727 24.0887C88.501 24.4001 88.621 26.3722 87.4936 25.6856C87.3655 24.8476 87.2933 24.0021 87.2777 23.1546C87.3177 24.0648 86.782 25.8612 85.9105 24.5279Z" fill="#6A814A"/>
<path d="M95.481 29.9812C95.481 29.9812 95.5054 29.9975 95.481 29.9812V29.9812Z" fill="#799354"/>
<path d="M71.7826 17.4697C71.4628 19.0666 73.1098 19.7213 74.3251 20.5916C75.5417 21.4747 76.8911 22.1593 78.3228 22.6196C79.254 22.916 80.2052 23.1454 81.1691 23.3063C81.6089 23.3941 82.1606 23.7694 82.5923 23.5139C82.2957 22.6039 82.1472 21.6523 82.1526 20.6954C81.6889 21.366 82.2645 22.4839 81.9447 22.6595C81.6249 22.8352 80.7294 21.8611 80.4976 21.6455C80.206 21.4497 79.961 21.1923 79.78 20.8916C79.599 20.5908 79.4864 20.254 79.4502 19.9049C79.3462 19.2183 79.2822 18.4837 79.2183 17.7891C79.0504 18.5875 79.1063 19.7373 78.5866 20.5037C78.2428 20.4159 78.1949 20.0726 78.1549 19.7772C77.5792 21.0068 77.1635 18.5875 77.0915 18.1803C77.1616 18.8318 77.0907 19.4908 76.8836 20.1125C75.996 19.8097 75.1931 19.3007 74.541 18.6274C74.1732 18.0047 74.445 16.5276 74.6689 15.8649C74.0532 16.2241 74.2611 18.2601 73.6215 17.837C73.2777 17.6134 73.2537 15.4417 73.3017 15.1063C72.79 15.9048 73.5176 17.2541 73.0218 17.7252C71.9105 17.0066 71.5267 15.6093 70.4713 14.8109C70.8071 15.5295 71.8865 16.5036 71.8146 17.302L71.7826 17.4697Z" fill="#6A814A"/>
<path d="M65.994 13.3099C65.6822 14.1722 67.3772 16.3838 67.8009 16.9507C70.1919 19.9781 73.1388 22.5226 76.4839 24.448C79.7808 26.5166 83.356 28.1055 87.1018 29.1667C88.7745 29.729 90.5192 30.049 92.2828 30.1169C93.778 30.1169 95.6649 30.9632 97.08 30.3405C97.0712 30.3213 97.0574 30.3047 97.0401 30.2926C94.1458 29.7496 91.3794 28.1607 88.9008 26.7156C85.6978 25.2364 82.6085 23.5231 79.6581 21.5896C77.1432 19.9614 74.5349 18.4817 71.8466 17.1583C69.7019 16.1969 67.7258 14.8975 65.994 13.3099Z" fill="#BED29B"/>
<path d="M76.5879 19.7213C77.1556 20.0806 77.7312 20.4239 78.3149 20.7593C77.7392 20.4 77.1875 20.0567 76.5879 19.7213Z" fill="#D2E5A8"/>
<path d="M66.1538 14.3079C66.6084 15.2459 67.1633 16.132 67.8089 16.9507C70.1999 19.9781 73.1468 22.5226 76.4918 24.448C79.7887 26.5166 83.3639 28.1055 87.1097 29.1668C88.5602 29.6309 90.0556 29.9413 91.5711 30.093C87.6191 29.2656 83.8082 27.8698 80.2577 25.9491C74.7888 23.0907 69.248 19.7852 66.1538 14.3079Z" fill="#DBEFB0"/>
<path d="M88.7328 29.2785C88.9647 29.1588 91.0515 28.2965 91.3313 28.4801C92.3387 29.063 92.6186 29.9572 94.1777 29.9732C95.0297 29.9843 95.8715 30.1606 96.6562 30.4922C96.794 30.4654 96.9282 30.4225 97.056 30.3644C97.0464 30.3431 97.0293 30.3261 97.008 30.3165C94.1137 29.7736 91.3553 28.1847 88.8767 26.7395C85.6721 25.2634 82.5826 23.55 79.634 21.6136C77.1192 19.9854 74.5108 18.5057 71.8225 17.1823C69.6891 16.2179 67.724 14.9187 66.0019 13.3339C65.9371 13.6914 65.9963 14.0604 66.1698 14.3798C66.3799 14.464 66.5745 14.5828 66.7455 14.7311C67.4491 15.3539 69.8717 16.9907 70.8152 17.1264C71.7586 17.2622 71.7826 17.5336 70.6392 18.3241C70.9947 18.2761 71.3551 18.2761 71.7106 18.3241C72.5661 18.4119 73.9893 18.2682 74.1732 19.1225C74.2451 19.4738 73.1338 19.8411 72.9979 20.3521C72.814 21.0786 74.5969 19.1065 75.0287 19.5536C75.0287 19.5536 77.4673 20.4718 77.4913 20.9828C77.4913 21.7812 75.4045 21.7812 75.4045 21.7812C75.5164 22.8032 78.7146 21.7813 79.2983 21.9569C81.409 22.5238 78.9544 22.923 77.7711 24.3522C78.6186 24.1127 79.5941 22.9629 80.4576 22.8272C81.3211 22.6915 81.6729 23.4899 80.2097 24.7994L82.0806 23.7614C82.8802 24.0967 81.433 25.0149 80.8014 25.6537C83.7757 24.1846 84.2154 24.999 83.9036 24.7994C84.6392 25.2704 83.144 26.3084 83.3199 26.2525C83.4958 26.1966 84.7351 25.3103 84.919 25.2784C85.6706 25.1107 86.718 26.2685 87.4215 26.6357C88.1251 27.003 87.3016 27.6737 86.5261 28.1208C87.1337 28.1767 88.1252 27.2745 88.381 27.2026C88.381 27.2026 89.3804 27.4741 88.5809 28.2406C88.2211 28.5999 89.8602 27.6338 90.18 28.0091C90.2679 28.041 88.6848 29.1268 88.7328 29.2785Z" fill="#9BAA74"/>
<path d="M85.7585 25.4062C89.4124 27.7057 94.6334 29.55 96.1125 30.2686C97.7916 31.067 97.056 31.4822 98.5111 31.8655C99.7504 32.0252 101.174 31.5621 100.806 31.4423C99.3027 30.9633 97.6077 30.4123 96.2804 29.8455C95.1771 29.3824 93.3222 28.6478 91.9949 28.0091C90.6677 27.3703 85.3028 24.4241 83.9356 23.5618C82.5683 22.6995 75.1406 18.851 75.1406 18.851C76.6917 19.9768 82.1126 23.1067 85.7585 25.4062Z" fill="#E5E1AB"/>
<path d="M42.4316 38.5883C42.3129 38.0924 42.1413 37.6105 41.9199 37.1511C41.7866 36.714 41.5985 36.2955 41.3602 35.9055C41.3432 35.471 41.2115 35.0486 40.9784 34.6813C40.7453 34.3139 40.4192 34.0146 40.033 33.8136C39.2571 33.4175 38.4016 33.2018 37.5304 33.1829C35.6831 33.174 33.8774 33.7314 32.3574 34.7798C31.5526 35.2829 30.8589 35.9445 30.3186 36.7242C29.7784 37.5039 29.4029 38.3854 29.2152 39.3149C28.4156 44.8001 34.5721 45.8301 36.8348 45.2632C37.8807 45.0308 38.8697 44.5927 39.7441 43.9744C40.6186 43.3562 41.3609 42.5701 41.9279 41.6623C42.9033 40.3369 42.6555 39.7221 42.4316 38.5883Z" fill="#BAAD0C"/>
<path d="M35.6675 41.8459C33.6846 41.1592 31.0461 39.9456 31.0141 37.4944C31.021 36.6099 31.3507 35.7582 31.9416 35.0991C30.5262 36.1043 29.5504 37.6131 29.2152 39.3149C28.4156 44.8001 34.5721 45.8301 36.8348 45.2632C38.7351 44.8544 40.4159 43.7563 41.5521 42.1813C39.7371 42.8679 37.2106 42.3808 35.6675 41.8459Z" fill="#AF9F0B"/>
<path d="M31.8857 41.5584C30.1267 40.6402 29.4471 38.5564 30.7743 36.193C29.9666 37.0635 29.4256 38.1469 29.2152 39.3148C28.4156 44.8001 34.5721 45.8301 36.8348 45.2632C37.8807 45.0308 38.8697 44.5927 39.7441 43.9744C40.6186 43.3561 41.3609 42.5701 41.9279 41.6622C42.191 41.3646 42.386 41.0133 42.4992 40.6327C42.6125 40.2521 42.6412 39.8514 42.5834 39.4586C42.2236 40.0002 41.8025 40.4985 41.3282 40.9436C38.8097 43.307 35.1638 43.307 31.8857 41.5584Z" fill="#A5960C"/>
<path opacity="0.34" d="M33.5327 44.4967C31.6458 44.0096 29.2712 42.7561 29.2232 40.6802C29.2232 40.6163 29.2232 40.5524 29.1672 40.4885C29.3191 44.9757 34.764 45.8141 36.8508 45.2791C37.8966 45.0467 38.8857 44.6086 39.7601 43.9903C40.6346 43.3721 41.3769 42.5861 41.9439 41.6782C42.9033 40.3209 42.6555 39.7061 42.4316 38.5723C42.3129 38.0764 42.1414 37.5946 41.9199 37.1351V37.0792C42.0515 37.9742 41.9996 38.8865 41.7673 39.7608C41.535 40.6351 41.1272 41.4531 40.5687 42.1652C40.3091 42.4575 40.0227 42.7248 39.7132 42.9637C38.8743 43.6832 37.8784 44.1966 36.8052 44.4628C35.732 44.729 34.6112 44.7406 33.5327 44.4967Z" fill="#CECE4D"/>
<path opacity="0.58" d="M30.0146 42.9797C31.6137 45.2792 35.2676 45.7023 36.8907 45.2951C37.9365 45.0627 38.9255 44.6246 39.8 44.0064C40.6744 43.3881 41.4168 42.6021 41.9837 41.6942C42.2985 41.3319 42.5158 40.8955 42.6151 40.4262C42.7145 39.9568 42.6925 39.47 42.5514 39.0115C42.5287 39.3057 42.4778 39.5972 42.3995 39.8818C42.2396 42.8839 38.3378 44.7921 35.7074 45.0157C34.6699 45.0785 33.6305 44.9304 32.652 44.5804C31.6735 44.2305 30.7763 43.6859 30.0146 42.9797Z" fill="#E0DC5A"/>
<path opacity="0.54" d="M39.1854 34.3486C38.1665 34.0313 37.0862 33.9628 36.0353 34.149C34.0764 34.5003 31.8137 35.5143 30.9981 37.3986C30.7743 37.9176 31.5818 38.1971 32.4373 37.742C33.4688 37.199 34.3802 36.4964 36.9308 37.4306C37.8769 37.8821 38.8723 38.2223 39.897 38.4445C40.1488 38.4468 40.3962 38.3792 40.6118 38.2493C40.8273 38.1193 41.0024 37.9321 41.1177 37.7086C41.2329 37.485 41.2837 37.2339 41.2644 36.9832C41.2451 36.7325 41.1565 36.4921 41.0084 36.2888C40.5127 35.3227 40.3527 34.668 39.1854 34.3486Z" fill="#CECE4D"/>
<path opacity="0.62" d="M39.793 33.7258C39.0787 33.4118 38.3105 33.2383 37.5304 33.2148C35.683 33.206 33.8774 33.7633 32.3573 34.8117C30.9034 35.7378 29.8309 37.1545 29.3351 38.8039C29.3751 38.716 29.407 38.6202 29.447 38.5244C29.9718 37.4454 30.7045 36.4803 31.6031 35.6843C32.5017 34.8884 33.5486 34.2771 34.684 33.8855C36.3321 33.3201 38.1127 33.2644 39.793 33.7258Z" fill="#DBD875"/>
<path opacity="0.54" d="M41.3042 37.2549C41.0716 36.8852 40.9267 36.4674 40.8804 36.0333C40.8804 35.5941 41.1123 35.1071 40.8245 34.6999C40.7445 34.5961 40.2088 34.133 39.977 34.2687C39.5817 34.5834 39.2866 35.006 39.1276 35.4852C38.9687 35.9643 38.9526 36.4793 39.0815 36.9674C39.2461 37.4637 39.5228 37.9155 39.8902 38.2879C40.2576 38.6604 40.7058 38.9434 41.2002 39.1152C41.3127 39.1423 41.4301 39.1409 41.5419 39.1112C41.6537 39.0815 41.7563 39.0245 41.8405 38.9452C41.9246 38.8659 41.9876 38.7669 42.0238 38.6572C42.06 38.5475 42.0682 38.4305 42.0477 38.3168C42.0078 37.7978 41.56 37.6381 41.3042 37.2549Z" fill="#CECE4D"/>
<path d="M40.7605 35.5942C40.5447 35.4345 40.3688 35.7139 40.3688 35.9295C40.4727 36.4086 40.8005 37.4146 41.3362 37.4386C41.6 37.3907 41.0164 35.7698 40.7605 35.5942Z" fill="#A5960C"/>
<path d="M40.7126 35.9375V35.8896C40.7126 35.8896 40.7206 35.9135 40.7126 35.9375Z" fill="#897D22"/>
<path d="M40.6006 36.5204C40.6646 36.712 40.7365 37.0633 40.9444 37.1432C41.3202 37.2789 41.0643 36.696 40.9924 36.5683C40.9204 36.4405 40.9284 36.4166 40.9364 36.2329C40.9373 36.1249 40.9127 36.0182 40.8645 35.9215C40.8165 35.8657 40.7606 35.8337 40.7286 35.9215V35.9695C40.4567 36.0014 40.5287 36.2968 40.6006 36.5204Z" fill="#897D22"/>
<path d="M48.1962 32.9274C47.4381 32.8792 46.6769 32.9113 45.9256 33.0232C44.8876 33.2432 43.9156 33.7025 43.0872 34.3645C42.6417 34.8614 42.146 35.3109 41.608 35.7059C41.2396 35.8198 40.8812 35.9641 40.5366 36.1371C40.5366 36.1371 40.5366 36.3846 40.6486 36.6401C40.7605 36.8956 40.7605 37.0074 40.8325 37.0393C41.5761 37.3906 43.279 35.0113 43.6948 34.644C44.7611 33.8314 46.0716 33.4036 47.4127 33.4304C47.7583 33.4382 48.1031 33.3952 48.4361 33.3026C48.3513 33.1776 48.2866 33.0403 48.2442 32.8954L48.1962 32.9274Z" fill="#E5E1AB"/>
<path d="M45.8375 33.3905L45.038 33.5821C43.6788 33.9813 42.9352 35.3866 41.7918 36.1451C41.436 36.3781 41.0482 36.5583 40.6405 36.6801C40.6885 36.8557 40.7445 37.0234 40.8164 37.0553C41.56 37.4066 43.263 35.0273 43.6788 34.66C44.7451 33.8474 46.0556 33.4196 47.3966 33.4464C47.7422 33.4543 48.0871 33.4112 48.4201 33.3186L48.3561 33.2228C47.5131 33.1974 46.6696 33.2535 45.8375 33.3905Z" fill="#C1B878"/>
<path d="M72.2943 40.76C71.9951 40.3463 71.6491 39.9686 71.263 39.6343C70.9716 39.2811 70.6356 38.9671 70.2635 38.7001C70.0797 38.3058 69.7938 37.9678 69.4353 37.7207C69.0769 37.4737 68.659 37.3267 68.2247 37.2948C67.3562 37.2225 66.4828 37.3538 65.6741 37.6781C63.9688 38.3914 62.5254 39.6127 61.5405 41.1752C60.9916 41.9511 60.607 42.8306 60.4104 43.7601C60.2138 44.6896 60.2093 45.6493 60.3972 46.5806C61.7804 51.9461 67.8649 50.5009 69.7278 49.1037C70.6011 48.4837 71.3421 47.6964 71.9076 46.7875C72.4732 45.8787 72.852 44.8665 73.0219 43.8101C73.4137 42.1892 72.942 41.7102 72.2943 40.76Z" fill="#BAAD0C"/>
<path d="M67.3292 46.3809C65.2344 46.5167 62.3241 46.381 61.3567 44.1773C61.0195 43.3638 60.991 42.4553 61.2767 41.6223C60.3537 43.0998 60.0386 44.8764 60.3972 46.5806C61.7884 51.946 67.8649 50.5009 69.7278 49.1036C71.3192 47.9884 72.4413 46.3246 72.878 44.4328C71.4788 45.7422 68.9603 46.2772 67.3292 46.3809Z" fill="#AF9F0B"/>
<path d="M63.7313 47.5786C61.7565 47.419 60.3173 45.7662 60.6212 43.0675C60.2135 44.1944 60.1468 45.4161 60.4292 46.5806C61.8124 51.9461 67.897 50.5009 69.7599 49.1037C70.6332 48.4837 71.3742 47.6963 71.9397 46.7875C72.5053 45.8787 72.8841 44.8665 73.054 43.8101C73.177 43.4336 73.2186 43.0354 73.1758 42.6417C73.1331 42.248 73.0071 41.8679 72.8061 41.5266C72.6782 42.163 72.4825 42.784 72.2224 43.3789C70.7913 46.5008 67.4172 47.89 63.7313 47.5786Z" fill="#A5960C"/>
<path opacity="0.34" d="M66.3938 49.6466C64.4589 49.934 61.7884 49.7025 60.9329 47.8102C60.9329 47.7543 60.845 47.7064 60.813 47.6505C62.6919 51.7305 68.0088 50.3971 69.7598 49.1037C70.6331 48.4837 71.3741 47.6964 71.9397 46.7875C72.5052 45.8787 72.884 44.8665 73.0539 43.8101C73.4137 42.2132 72.942 41.7182 72.2544 40.76C71.9552 40.3463 71.6091 39.9686 71.223 39.6343L71.175 39.5864C71.6461 40.3598 71.9542 41.2211 72.0807 42.1175C72.2072 43.014 72.1493 43.9268 71.9106 44.8001C71.7899 45.1743 71.6318 45.5353 71.4388 45.878C70.946 46.8522 70.2342 47.6995 69.3589 48.3532C68.4837 49.007 67.4688 49.4497 66.3938 49.6466Z" fill="#CECE4D"/>
<path opacity="0.58" d="M62.5239 49.6386C64.9225 51.1317 68.4246 50.1017 69.7598 49.1037C70.6331 48.4837 71.3741 47.6963 71.9396 46.7875C72.5052 45.8787 72.884 44.8665 73.0539 43.81C73.2036 43.3531 73.2344 42.8657 73.1434 42.3936C73.0525 41.9215 72.8429 41.4802 72.5342 41.1113C72.6299 41.3908 72.6942 41.68 72.7261 41.9736C73.7575 44.8081 70.8951 48.0737 68.5605 49.3033C67.6296 49.7648 66.6144 50.0325 65.5767 50.0901C64.539 50.1478 63.5003 49.9942 62.5239 49.6386Z" fill="#E0DC5A"/>
<path opacity="0.54" d="M67.657 38.1092C66.594 38.2117 65.5712 38.5677 64.6746 39.1472C63.0036 40.233 61.3166 42.0455 61.2926 44.0975C61.2926 44.6643 62.1401 44.6005 62.7478 43.8499C63.4913 42.9477 64.059 41.9497 66.7455 41.8219C67.795 41.8663 68.8461 41.794 69.8796 41.6063C70.8791 41.3349 71.023 39.8658 70.0636 39.211C69.264 38.5164 68.8563 37.9495 67.657 38.1092Z" fill="#CECE4D"/>
<path opacity="0.62" d="M67.9608 37.2709C67.1796 37.2595 66.4033 37.3978 65.6741 37.6781C63.9688 38.3915 62.5253 39.6127 61.5405 41.1753C60.5586 42.6044 60.1269 44.3398 60.3252 46.0617C60.3252 45.9659 60.3252 45.8701 60.3252 45.7663C60.4589 43.3453 61.5452 41.0753 63.3475 39.4506C64.6357 38.2847 66.2411 37.5262 67.9608 37.2709Z" fill="#DBD875"/>
<path opacity="0.54" d="M70.7432 39.9615C70.3833 39.7127 70.0852 39.385 69.8717 39.0034C69.6718 38.6202 69.7278 38.0613 69.296 37.7978C69.1841 37.7339 68.4965 37.5104 68.3606 37.7339C68.1155 38.1758 68.0054 38.6797 68.0437 39.1834C68.0821 39.6871 68.2672 40.1686 68.5764 40.5684C68.9237 40.9589 69.3554 41.2654 69.8389 41.4646C70.3223 41.6638 70.8448 41.7505 71.3668 41.7181C71.4805 41.7007 71.588 41.6551 71.6795 41.5855C71.771 41.5158 71.8435 41.4244 71.8904 41.3196C71.9374 41.2147 71.9572 41.0998 71.9482 40.9853C71.9391 40.8708 71.9014 40.7604 71.8386 40.6642C71.5907 40.1931 71.127 40.217 70.7432 39.9615Z" fill="#CECE4D"/>
<path d="M69.5918 38.6441C69.328 38.5802 69.272 38.9076 69.352 39.1072C69.6398 39.5144 70.3354 40.3129 70.8391 40.1212C71.063 39.9775 69.9037 38.708 69.5918 38.6441Z" fill="#A5960C"/>
<path d="M69.6798 38.9795V38.9156C69.6798 38.9156 69.6718 38.9636 69.6798 38.9795Z" fill="#897D22"/>
<path d="M69.8078 39.5624C69.9358 39.7141 70.1356 40.0095 70.3675 40.0015C70.7592 40.0015 70.2955 39.5384 70.1836 39.4506C70.0716 39.3628 70.0637 39.3468 69.9997 39.1632C69.9601 39.0643 69.897 38.9766 69.8158 38.9077C69.7519 38.9077 69.6879 38.9077 69.6799 38.9077V38.9715C69.6799 38.9715 69.6799 38.9716 69.6799 38.9316C69.472 39.1472 69.6479 39.3867 69.8078 39.5624Z" fill="#897D22"/>
<path d="M75.4125 33.3186C74.696 33.5688 74.0073 33.8926 73.3577 34.2847C72.4887 34.8935 71.7719 35.694 71.2629 36.6241C71.0473 37.2548 70.7631 37.8599 70.4154 38.4286C70.2475 38.6601 69.7598 38.9476 69.6158 39.227C69.6158 39.2669 69.7438 39.4426 69.9117 39.6502C70.0796 39.8578 70.1595 39.9376 70.2395 39.9456C71.039 39.9456 71.7106 37.1271 71.9664 36.656C72.626 35.4918 73.6642 34.5876 74.9088 34.0931C75.2316 33.9658 75.5334 33.7908 75.8043 33.5741C75.6773 33.4972 75.566 33.397 75.4764 33.2787L75.4125 33.3186Z" fill="#E5E1AB"/>
<path d="M73.4137 34.652C73.1738 34.8223 72.9579 34.982 72.766 35.131C71.6707 36.0173 71.5267 37.6141 70.7672 38.7479C70.5319 39.1014 70.2464 39.4187 69.9197 39.6901C70.0236 39.8258 70.1515 39.9616 70.2235 39.9696C71.023 39.9696 71.6947 37.1511 71.9505 36.68C72.6101 35.5158 73.6482 34.6115 74.8928 34.117C75.2156 33.9897 75.5175 33.8148 75.7883 33.5981L75.6924 33.5342C74.8978 33.8309 74.1346 34.2053 73.4137 34.652Z" fill="#C1B878"/>
<path d="M68.8962 34.4763C67.3235 34.5044 65.7537 34.6244 64.195 34.8356C61.5073 35.0672 58.8369 35.4672 56.1996 36.0333C53.8601 37.2589 51.3252 38.0694 48.7079 38.4286C45.2059 39.0514 41.7679 39.8578 38.3139 40.5045C37.8022 41.0554 37.5143 41.5904 37.8102 41.9257C38.106 42.2611 39.5052 42.277 39.897 42.3649C40.6635 42.5246 41.4415 42.6234 42.2236 42.6603C45.5897 42.8439 48.8918 43.1473 52.1699 42.5565C53.556 42.2064 54.9137 41.7527 56.2315 41.1991C57.9505 40.6003 59.7335 40.1851 61.4285 39.6023C63.6273 38.8517 65.6661 37.7659 67.8248 36.9275C68.7502 36.6179 69.64 36.2111 70.4793 35.7139C70.7911 35.4355 71.1284 35.1869 71.4867 34.9714C71.8226 34.8356 72.2863 34.8356 72.4462 34.7079C72.2131 34.504 71.9411 34.3492 71.6467 34.2527C70.7454 34.4592 69.819 34.5345 68.8962 34.4763Z" fill="#87A564"/>
<path d="M37.7942 41.0794C37.6103 41.4068 37.5623 41.6942 37.7542 41.8779C37.9461 42.0615 39.4492 42.2292 39.841 42.317C40.6075 42.4768 41.3855 42.5755 42.1677 42.6124C45.5337 42.7961 48.8358 43.0995 52.1139 42.5086C53.5 42.1586 54.8577 41.7048 56.1756 41.1513C57.8946 40.5524 59.6775 40.1373 61.3726 39.5544C62.5959 39.1392 63.7712 38.6202 64.9385 38.0933C62.332 38.9636 59.3418 39.9456 56.7592 40.6882C53.4811 41.6543 51.0585 42.5565 48.0523 42.6363C44.7458 42.6481 41.4429 42.4186 38.17 41.9497C37.3464 41.9098 37.8821 41.0954 37.7942 41.0794Z" fill="#4F712D"/>
<path d="M66.9534 36.6881C67.2173 36.225 67.1693 35.2509 67.753 34.9714C67.8861 34.9233 68.0276 34.903 68.1689 34.9119C68.3102 34.9208 68.4481 34.9586 68.5741 35.023C68.7001 35.0874 68.8115 35.1771 68.9013 35.2863C68.9911 35.3956 69.0575 35.5221 69.0962 35.6581C69.1256 35.3894 69.1709 35.1228 69.2321 34.8596C69.4223 35.0169 69.6427 35.1337 69.8797 35.2029C69.8797 35.0592 70.0076 34.9315 70.0316 34.8117C70.1116 34.9235 70.3115 35.0033 70.3994 35.1151C70.5194 34.9395 70.6633 34.7638 70.7912 34.5962C69.9037 34.4205 68.9763 34.3407 68.0568 34.181C67.088 34.001 66.0928 34.0173 65.1305 34.2289C63.1876 34.668 60.8209 34.684 59.2858 35.9854C59.336 35.9763 59.3875 35.9763 59.4377 35.9854L59.2379 36.1531C59.2379 37.1431 58.1425 38.5484 57.8627 39.5065C58.4559 38.5533 59.1738 37.6833 59.9974 36.9196C61.2687 35.9295 61.2048 37.7899 60.8689 38.6762C61.1367 37.8697 61.46 37.0827 61.8364 36.3208C63.1236 35.9774 62.42 37.8138 62.7798 38.253C62.8702 37.5896 63.0065 36.9334 63.1876 36.2888C63.5953 35.4904 63.9871 36.6002 64.259 37.0234C64.0991 36.0573 63.8832 35.2748 65.0585 34.9634C66.4657 34.5882 65.8581 35.7619 66.3458 36.4725C66.4417 36.0972 66.4417 35.4904 66.7455 35.187C67.1213 35.5543 66.7935 36.185 66.9534 36.6881Z" fill="#6A814A"/>
<path d="M55.2242 39.3947C55.5119 38.4805 55.9438 37.6181 56.5035 36.8397C56.1597 36.4724 55.52 36.664 55.0803 36.6161C54.1107 36.4816 53.1329 36.4149 52.154 36.4165C50.6609 36.4327 49.1796 36.6833 47.7645 37.1591C46.3493 37.6222 44.5663 37.7819 44.3984 39.3707L44.3425 39.5544C44.1746 40.3528 42.8473 40.9517 42.3116 41.5265C43.5669 41.0874 44.3425 39.8658 45.6217 39.5225C45.9496 40.1133 44.8222 41.1832 45.102 42.1014C45.166 41.7261 45.8296 39.7061 46.2294 39.5863C46.973 39.3787 46.1574 41.263 46.6371 41.79C46.6371 41.0874 46.805 39.5943 47.3487 39.1152C48.1714 38.6657 49.0898 38.4193 50.0272 38.3966C50.0408 39.0539 49.9069 39.706 49.6354 40.3049C49.8353 39.9137 50.9706 37.726 51.1465 39.0753C51.2745 38.8039 51.4184 38.4925 51.7702 38.5164C52.042 39.4027 51.6263 40.5125 51.5623 41.295C51.8342 40.6482 52.106 39.9616 52.4178 39.3468C52.5602 39.0259 52.7693 38.739 53.0312 38.505C53.2931 38.271 53.6018 38.0952 53.9369 37.9895C54.2248 37.8777 55.4321 37.2629 55.624 37.4625C55.8159 37.6621 54.9924 38.6282 55.2242 39.3947Z" fill="#6A814A"/>
<path d="M50.9946 34.133C47.2229 34.9592 43.6454 36.5015 40.4567 38.6761C39.881 39.0913 37.5943 40.6881 37.6343 41.6063C39.7531 40.6112 42.0178 39.9616 44.3424 39.6821C47.3084 39.2262 50.2451 38.597 53.1373 37.7978C56.5442 36.8361 60.0187 36.1316 63.5313 35.6899C66.3297 35.0512 69.4399 34.3725 72.3263 34.7238H72.3822C71.2469 33.7178 69.1841 33.9254 67.7689 33.5022C66.0681 33.0405 64.3101 32.8228 62.5479 32.8555C58.6555 32.7295 54.7651 33.1597 50.9946 34.133Z" fill="#BED29B"/>
<path d="M49.6594 38.6681C50.315 38.5244 50.9627 38.3727 51.6183 38.197C50.9707 38.3407 50.315 38.5164 49.6594 38.6681Z" fill="#D2E5A8"/>
<path d="M50.9946 34.133C47.223 34.9592 43.6455 36.5015 40.4567 38.6761C39.5831 39.2595 38.7784 39.9398 38.0581 40.7041C42.6635 36.4005 48.9079 34.8995 55.0244 33.8296C58.9875 33.0653 63.0404 32.8771 67.0574 33.2707C65.5686 32.9647 64.0519 32.8149 62.532 32.8236C58.6434 32.7095 54.7584 33.1504 50.9946 34.133Z" fill="#DBEFB0"/>
<path d="M43.351 39.4745C42.4315 39.2749 39.6251 40.1132 38.7616 40.4965C38.5549 40.5898 38.3325 40.644 38.106 40.6562C37.8449 40.91 37.6785 41.2452 37.6343 41.6063C39.7526 40.6102 42.0175 39.9605 44.3424 39.6821C47.3084 39.2263 50.2451 38.597 53.1373 37.7978C56.5449 36.8374 60.0191 36.1302 63.5313 35.682C66.3297 35.0512 69.4399 34.3725 72.3262 34.7238H72.3822C72.2763 34.6299 72.1611 34.547 72.0384 34.4763C71.1908 34.5579 70.3353 34.4739 69.5198 34.2288C68.0247 33.7817 67.489 34.5482 66.3217 34.7957C66.0099 34.8676 64.2749 33.4224 64.091 33.1989C64.003 33.3346 65.1864 34.8436 65.0585 34.9234C64.6427 35.1789 63.3634 33.7657 63.6033 34.2208C64.131 35.1869 63.0996 35.147 63.0996 35.147C62.8917 35.0113 62.2041 33.8376 61.6044 33.7258C62.2121 34.3725 62.8997 35.2508 62.0122 35.4105C61.1247 35.5702 59.8854 36.3287 59.2218 35.9455C59.0619 35.8576 58.1424 34.636 57.9905 34.5322C57.8386 34.4284 58.958 35.8656 58.1105 36.1291C58.4703 36.0253 57.7986 36.672 55.408 34.3805C55.8158 35.179 56.8792 36.4724 56.0556 36.5602L54.5845 35.0113C55.5839 36.7039 54.9682 37.3347 54.2327 36.9674C53.4971 36.6002 52.8654 35.1869 52.1299 34.7079C52.8335 36.4245 55.0482 37.5423 52.8655 37.4545C52.2578 37.4545 49.5074 35.5063 49.0996 36.4484C49.0996 36.4484 51.1145 37.1112 50.8506 37.8377C50.6747 38.3088 48.0683 38.4525 48.0683 38.4525C47.5486 38.7639 46.4132 36.3446 46.3732 37.0952C46.3732 37.6221 47.3007 38.3008 47.1248 38.6122C46.6931 39.3707 45.3738 38.8038 44.5343 38.6122C44.1803 38.544 43.8365 38.4314 43.5109 38.2769C44.4064 39.3707 44.3424 39.6821 43.351 39.4745Z" fill="#9BAA74"/>
<path d="M71.4548 34.4763C69.8557 34.8516 64.2589 34.9075 60.1253 36.0013C55.9917 37.0952 49.8432 38.4525 48.0363 39.0194C48.0363 39.0194 56.3035 37.5823 57.8706 37.1751C59.4377 36.7679 65.4263 35.5782 66.8974 35.3546C68.3686 35.131 70.3434 35.0033 71.5347 34.8995C72.9419 34.7638 74.7329 33.3745 76.332 33.3665C76.7157 33.3665 76.332 32.7996 74.2851 32.9194C73.1898 33.1988 73.3577 34.0133 71.4548 34.4763Z" fill="#E5E1AB"/>
</g>
<defs>
<clipPath id="clip0_253_5459">
<rect width="111" height="53" fill="white"/>
</clipPath>
</defs>
</svg>
