<svg width="178" height="164" viewBox="0 0 178 164" fill="none" xmlns="http://www.w3.org/2000/svg">
<g clip-path="url(#clip0_253_2818)">
<path d="M36.8 136.118C36.3715 135.49 36.0528 135.769 35.6291 135.077C35.1266 134.452 34.7816 133.716 34.6233 132.93C34.4354 132.247 33.952 132.178 33.8199 131.275C36.6579 129.579 40.8031 136.678 38.2651 137.661C37.422 137.667 37.2729 136.74 36.8 136.118Z" fill="#1D490E"/>
<path d="M140.79 63.8706C144.753 70.2586 142.276 71.2237 140.578 71.4146C133.99 72.1231 113.274 87.3955 108.391 90.9724C105.422 93.1329 99.1267 97.2138 93.5211 101.453C92.8853 101.888 91.3228 104.795 90.2662 103.071C90.6329 100.628 86.9904 97.0854 84.8855 96.1131C86.378 93.1564 89.2482 94.3449 92.8103 92.1667C95.4276 90.5732 110.717 80.4593 115.935 77.0533C120.958 73.7688 128.778 68.6586 133.745 65.6299C138.098 62.9603 138.014 59.3971 140.79 63.8706Z" fill="#9BC221"/>
<path d="M139.297 61.9845C139.9 62.5223 140.405 63.1604 140.79 63.8706C142.259 66.2341 142.84 67.8474 142.902 68.9673C142.401 69.4102 141.846 69.7891 141.251 70.0952C138.818 71.3566 136.096 71.9804 133.652 73.1532C128.239 75.7597 123.343 79.248 118.41 82.6286C113.257 86.1475 108.135 89.73 103.211 93.5653C100.884 95.3719 98.3382 96.8925 96.0313 98.71C95.0837 99.4416 94.2195 100.275 93.4545 101.196C92.7322 102.089 92.0758 103.167 90.9114 103.466C90.887 103.477 90.8647 103.492 90.8453 103.511C90.6097 103.415 90.4159 103.238 90.2989 103.012C90.6712 100.578 87.037 97.0295 84.9238 96.0628C85.2393 95.3941 85.7455 94.8336 86.3787 94.4518C91.0889 95.0012 91.5828 99.2532 94.448 98.2533C95.3342 98.1325 115.995 81.9289 126.204 75.5994C128.667 74.0795 131.265 72.7914 133.966 71.7518C135.872 70.9955 138.228 70.1372 139.177 68.1934C140.038 66.2213 140.081 63.9882 139.297 61.9845Z" fill="#8DAA16"/>
<path d="M84.8798 96.1051C85.0279 95.8141 85.2052 95.5389 85.4088 95.2837C89.0776 94.7159 91.5424 100.116 91.2591 103.567C90.9107 103.66 90.5628 103.558 90.2492 103.046C90.6272 100.62 86.9848 97.0774 84.8798 96.1051Z" fill="#D8D7BA"/>
<path d="M141.561 68.5275C141.45 66.3264 140.196 63.0897 138.086 61.8789C138.852 61.4405 139.522 61.8184 140.773 63.8459C144.267 69.4764 142.755 70.8968 141.186 71.2776C141.477 70.3913 141.604 69.4593 141.561 68.5275Z" fill="#1D490E"/>
<path d="M138.026 64.4147C135.234 66.3208 132.938 69.378 130.261 71.5213C127.418 73.8135 124.012 75.0497 120.964 76.8283C114.882 80.5455 108.992 84.5677 103.316 88.8795C99.7427 91.5016 95.1344 94.3821 91.007 95.36C90.572 95.0407 90.1136 94.7547 89.6356 94.5044C89.7781 93.5958 92.9495 93.4522 93.9811 92.9415C95.5284 92.0575 97.0217 91.0822 98.4531 90.0209C101.801 87.8312 105.122 85.6004 108.449 83.4858C111.991 81.2247 115.165 78.5849 118.838 76.3916C122.511 74.1983 126.38 72.4522 129.665 69.8333C131.771 68.165 135.341 64.9161 138.026 64.4147Z" fill="#BAD740"/>
<path d="M88.0069 97.457C92.0907 103.774 89.6504 104.811 87.944 105.008C81.3799 105.857 60.9683 121.54 56.1552 125.202C53.2259 127.42 47.021 131.633 41.4887 135.98C40.895 136.458 39.3603 139.371 38.265 137.661C38.5956 135.219 34.8819 131.749 32.7469 130.821C34.1948 127.835 37.078 128.953 40.578 126.684C43.1697 125.036 58.2424 114.622 63.3873 111.109C68.3422 107.725 76.0637 102.452 80.9771 99.3272C85.2959 96.608 85.1397 93.0455 88.0069 97.457Z" fill="#9BC221"/>
<path d="M50.988 127.955C48.7093 129.814 46.169 131.343 43.9185 133.243C42.9909 134 42.1436 134.851 41.3896 135.781C40.6842 136.699 40.0555 137.782 38.8997 138.111L38.8336 138.156C38.6001 138.062 38.4041 137.894 38.2764 137.677C38.607 135.235 34.8932 131.765 32.7582 130.838C33.0613 130.159 33.56 129.587 34.1906 129.194C38.8884 129.618 39.4852 133.897 42.3357 132.822C43.208 132.699 63.5783 116.052 73.6022 109.558C76.0253 107.979 78.592 106.631 81.2682 105.534C83.151 104.745 85.507 103.85 86.4227 101.893C86.85 100.901 87.0738 99.8332 87.0809 98.753C87.0879 97.6728 86.878 96.6023 86.4636 95.6047C87.0786 96.1263 87.5988 96.7501 88.0014 97.4488C89.5113 99.784 90.1227 101.389 90.232 102.489C89.7491 102.953 89.207 103.352 88.6199 103.674C86.2049 104.997 83.5024 105.667 81.0531 106.904C75.6583 109.643 70.8388 113.225 66.0124 116.691C60.9026 120.362 55.8344 124.04 50.988 127.955Z" fill="#8DAA16"/>
<path d="M32.7469 130.821C32.8891 130.526 33.0647 130.247 33.2702 129.991C36.9187 129.341 39.4996 134.698 39.2884 138.148C38.9373 138.255 38.5895 138.153 38.2538 137.644C38.59 135.211 34.8819 131.749 32.7469 130.821Z" fill="#D8D7BA"/>
<path d="M88.8603 102.093C88.6998 99.8902 87.3883 96.6929 85.2562 95.5212C85.2812 94.7776 86.9114 95.2143 88.2304 97.3409C91.7241 102.971 90.1095 104.437 88.525 104.865C88.8088 103.97 88.9225 103.03 88.8603 102.093Z" fill="#1D490E"/>
<path d="M85.2455 98.059C82.4937 100.023 80.243 103.146 77.6296 105.33C74.8292 107.667 71.4542 108.966 68.4432 110.816C62.4343 114.653 56.6233 118.791 51.0323 123.214C47.5092 125.911 42.9631 128.882 38.856 129.943C38.4223 129.627 37.9615 129.35 37.4792 129.115L37.7712 129.17C37.8858 128.256 40.7564 127.991 41.7768 127.464C43.3074 126.552 44.7802 125.547 46.1866 124.453C49.4899 122.197 52.765 119.9 56.0965 117.686C59.5649 115.317 62.7027 112.642 66.3556 110.401C70.0086 108.161 73.8353 106.335 77.0504 103.631C79.0674 101.939 82.5971 98.5961 85.2455 98.059Z" fill="#BAD740"/>
<path d="M87.9555 103.801C88.249 103.072 88.3584 102.282 88.2738 101.501C88.2055 101.099 87.996 100.722 87.8917 100.321C87.8176 99.9389 87.7048 99.5656 87.5548 99.2067C87.3594 98.841 87.125 98.4977 86.8555 98.1827C86.63 97.8523 86.3051 97.8199 86.1347 97.464C86.0108 97.1289 85.8216 96.8218 85.5782 96.5604C85.3369 96.3134 84.9669 96.2149 84.717 95.9376C84.8258 95.7453 84.9904 95.5906 85.1891 95.4941C85.4962 95.5705 85.7975 95.6682 86.091 95.7864C86.4314 96.0308 86.7227 96.3371 86.9498 96.6893C87.5351 97.3426 88.0318 98.0701 88.4273 98.853C88.7417 99.496 88.9231 100.196 88.9606 100.911C88.9125 101.269 88.9045 101.632 88.9366 101.993C89.0101 102.366 89.2409 102.669 89.1702 103.044C89.0878 103.419 88.9683 103.784 88.8135 104.135C88.6854 104.586 88.9584 104.702 88.53 104.837C87.1652 105.321 87.7021 104.458 87.9555 103.801Z" fill="#D8D7BA"/>
<path d="M139.951 63.4752C140.773 64.3507 141.406 65.386 141.81 66.5166C142.157 67.4465 142.203 68.4621 141.939 69.4192C141.744 70.0371 141.674 71.2112 141.145 71.2698C141.026 71.2856 140.909 71.3091 140.793 71.3403C140.823 70.5328 141.106 69.7585 141.088 68.935C141.043 67.9712 140.829 67.0227 140.458 66.1323C140.267 65.6934 139.943 65.2726 139.742 64.8532C139.541 64.3637 139.239 63.922 138.856 63.5567C138.688 63.4171 138.478 63.4638 138.315 63.2965C138.166 63.0862 138.037 62.8619 137.931 62.6267C137.812 62.4533 137.527 62.5148 137.621 62.1726C137.645 62.0887 137.698 62.016 137.771 61.9667C137.843 61.9174 137.93 61.8945 138.017 61.9019L138.12 61.9285L138.017 61.9019L137.967 61.9357C138.625 61.6927 139.538 63.0305 139.951 63.4752Z" fill="#D8D7BA"/>
<path d="M138.053 61.9374L137.95 61.9109C137.987 61.9092 138.022 61.9184 138.053 61.9374Z" fill="#D8D7BA"/>
<path opacity="0.48" d="M141.151 64.3992L141.27 64.5726L141.377 64.7295L141.49 64.8947L141.619 65.0846L141.811 65.3654L141.851 65.4232L141.935 65.5471L142.11 65.8032L142.223 65.9683L142.386 66.2078L142.488 66.3564L142.602 66.6297L142.647 66.6958L142.686 66.7536L142.801 67.063L142.846 67.129L142.919 67.2364L142.983 67.4354L143.028 67.5015L143.1 67.7669L143.162 67.8578L143.203 68.0599L143.265 68.1507L143.295 68.3361L143.302 68.4526L143.32 68.6215L143.365 68.6876L143.37 68.854L143.368 68.94L143.356 69.1176L143.323 69.3344L143.275 69.5124L143.225 69.5463L143.182 69.6604L143.132 69.6943C143.106 69.7145 143.078 69.7334 143.05 69.7507C143.033 69.7665 143.013 69.7798 142.992 69.7901C142.965 69.8039 142.94 69.8209 142.918 69.8409C142.898 69.853 142.878 69.8662 142.86 69.8804L142.786 69.9311C142.786 69.9311 142.744 69.9593 142.72 69.9762C142.695 69.9932 142.67 70.0101 142.645 70.027C142.62 70.0439 142.645 70.027 142.587 70.0665C142.562 70.0888 142.535 70.1078 142.505 70.1229C142.505 70.1229 142.447 70.1623 142.422 70.1792L142.323 70.2469C142.301 70.2677 142.276 70.2849 142.249 70.2977L141.696 70.6755C141.671 70.6857 141.648 70.7011 141.629 70.7206L141.563 70.7657C141.563 70.7657 141.514 70.7996 141.489 70.8165L141.44 70.8503C141.44 70.8503 141.382 70.8898 141.365 70.9011C141.347 70.9153 141.327 70.9284 141.307 70.9405L141.233 70.9913C141.219 71.006 141.202 71.0176 141.184 71.0251L141.101 71.0815C140.893 71.1314 140.682 71.1662 140.47 71.1856C133.887 71.9024 113.172 87.1748 108.283 90.7434C105.314 92.9039 99.0244 96.993 93.4133 101.224C92.9591 101.535 92.0502 103.112 91.1626 103.355C91.0809 103.374 90.9971 103.382 90.9132 103.38C90.8371 103.375 90.7626 103.356 90.6935 103.324C90.6359 103.295 90.5824 103.258 90.5342 103.215L90.5004 103.165L90.3086 102.884C90.2605 103.25 90.1124 103.595 89.8806 103.881C89.6489 104.168 89.3425 104.384 88.9953 104.508L88.8962 104.575C88.8962 104.575 88.8961 104.575 88.8466 104.609L88.7723 104.66C88.7584 104.675 88.7415 104.686 88.7228 104.694C88.5278 104.759 88.3246 104.795 88.1193 104.803C81.5552 105.653 61.1493 121.343 56.3305 124.997C53.4069 127.224 47.1963 131.428 41.6697 135.784C41.3297 136.143 41.0089 136.519 40.7087 136.912C40.2451 136.127 39.7511 135.35 39.2323 134.59C38.8794 133.862 38.6691 133.072 38.6128 132.265C38.5824 130.287 41.0631 129.381 42.5663 128.62C46.7518 126.38 57.4658 119.851 58.3221 119.278C58.3221 119.278 70.5874 111.314 76.4667 106.997C81.8287 103.056 86.2394 97.1382 92.4086 94.4511C95.5778 93.238 98.6077 91.6886 101.446 89.8294C115.65 83.5331 128.499 72.7003 141.113 63.9531L141.151 64.3992Z" fill="#48602C"/>
<path d="M51.698 159.087C50.8632 159.088 50.692 158.164 50.233 157.545C49.774 156.926 49.4857 157.195 49.0563 156.496C48.5606 155.871 48.2181 155.138 48.0562 154.357C47.8683 153.674 47.3849 153.605 47.2389 152.699C50.0495 151.034 54.1974 158.119 51.698 159.087Z" fill="#1D490E"/>
<path d="M106.117 123.428C105.49 123.856 103.966 126.75 102.904 125.017C103.259 122.594 99.6333 119.04 97.5367 118.062C98.9962 115.128 101.85 116.328 105.357 114.175C107.924 112.615 122.997 102.662 128.127 99.304C133.083 96.0647 140.793 91.0417 145.686 88.0637C149.962 85.4588 149.878 81.8956 152.654 86.3691C156.617 92.7571 154.173 93.6996 152.486 93.871C145.978 94.537 125.584 109.589 120.802 113.085C117.836 115.231 111.634 119.236 106.117 123.428Z" fill="#9BC221"/>
<path d="M115.623 115.713C113.343 117.5 110.833 118.984 108.565 120.788C107.632 121.51 106.78 122.331 106.023 123.237C105.315 124.133 104.678 125.185 103.535 125.481L103.461 125.532C103.23 125.435 103.04 125.262 102.92 125.041C103.276 122.619 99.6502 119.064 97.5535 118.087C97.8564 117.422 98.3554 116.865 98.9836 116.492C103.653 117.07 104.163 121.311 106.998 120.32C107.867 120.21 128.248 104.198 138.242 98.0152C140.673 96.5259 143.238 95.2651 145.902 94.2492C147.742 93.5381 150.109 92.6602 151.031 90.7472C151.467 89.7639 151.703 88.7037 151.726 87.6281C151.748 86.5525 151.556 85.4832 151.16 84.4828C151.76 85.0236 152.265 85.6612 152.654 86.3689C153.742 87.8799 154.47 89.6193 154.783 91.4543C154.286 91.9031 153.73 92.2825 153.131 92.5822C150.724 93.8266 148.048 94.4306 145.598 95.5951C140.268 98.1452 135.447 101.583 130.594 104.921C125.532 108.414 120.501 111.97 115.623 115.713Z" fill="#8DAA16"/>
<path d="M103.908 125.53C103.559 125.622 103.214 125.507 102.898 125.008C103.254 122.586 99.6276 119.032 97.5309 118.054C97.6723 117.762 97.847 117.489 98.0516 117.238C101.679 116.698 104.158 122.101 103.908 125.53Z" fill="#D8D7BA"/>
<path d="M152.66 86.3772C156.154 92.0076 154.674 93.4054 153.114 93.7806C153.405 92.8955 153.524 91.9633 153.466 91.0336C153.339 88.8438 152.075 85.6265 149.981 84.4044C150.758 83.9464 151.395 84.3471 152.66 86.3772Z" fill="#1D490E"/>
<path d="M103.586 117.345C103.158 117.025 102.704 116.74 102.229 116.492C102.363 115.59 105.501 115.469 106.511 114.961C108.04 114.099 109.514 113.141 110.922 112.094C114.205 109.949 117.467 107.758 120.778 105.654C124.262 103.433 127.381 100.818 131.001 98.6728C134.622 96.5273 138.444 94.8011 141.672 92.2217C143.742 90.5539 147.278 87.3275 149.9 86.8573C147.142 88.7408 144.876 91.7894 142.265 93.8876C139.458 96.1434 136.134 97.3232 133.1 99.1044C127.119 102.749 121.33 106.702 115.758 110.947C112.206 113.566 107.664 116.401 103.586 117.345Z" fill="#BAD740"/>
<path d="M54.8723 157.44C54.2446 157.869 52.7933 160.798 51.6981 159.087C51.9957 156.668 48.3067 153.181 46.1882 152.242C47.5892 149.275 50.4532 150.42 53.912 148.179C56.4459 146.57 71.3038 136.302 76.3744 132.84C81.255 129.507 88.8608 124.313 93.6917 121.244C97.911 118.557 97.7574 114.981 100.622 119.406C104.708 125.709 102.307 126.732 100.611 126.909C94.1214 127.708 74.0376 143.178 69.2849 146.787C66.4277 149.005 60.308 153.147 54.8723 157.44Z" fill="#9BC221"/>
<path d="M64.2202 149.531C61.9828 151.362 59.4699 152.86 57.2664 154.74C56.3463 155.486 55.5094 156.33 54.7703 157.256C54.0897 158.156 53.4693 159.234 52.3245 159.544C52.3245 159.544 52.2749 159.577 52.2501 159.594C52.0218 159.493 51.8322 159.321 51.7094 159.104C52.0013 156.676 48.318 153.198 46.1995 152.259C46.4901 151.588 46.9782 151.023 47.5988 150.637C52.2553 151.09 52.8713 155.344 55.6861 154.306C56.5445 154.179 76.5983 137.761 86.4679 131.36C88.856 129.806 91.3871 128.483 94.0266 127.409C95.846 126.651 98.2076 125.765 99.0985 123.825C99.5196 122.833 99.7361 121.767 99.7351 120.69C99.734 119.613 99.5155 118.547 99.0926 117.556C99.7093 118.081 100.229 118.71 100.628 119.414C101.743 120.904 102.506 122.627 102.858 124.454C102.377 124.92 101.835 125.319 101.246 125.64C98.8668 126.926 96.1948 127.588 93.7373 128.83C88.4581 131.49 83.7046 135.027 78.9195 138.464C73.9805 142.031 68.9949 145.653 64.2202 149.531Z" fill="#8DAA16"/>
<path d="M52.705 159.586C52.3565 159.679 52.0087 159.578 51.6868 159.071C51.9844 156.652 48.2954 153.165 46.177 152.226C46.3123 151.933 46.4825 151.659 46.6838 151.407C50.3022 150.801 52.8858 156.145 52.705 159.586Z" fill="#D8D7BA"/>
<path d="M101.254 126.821C101.516 125.929 101.614 124.997 101.542 124.07C101.371 121.886 100.045 118.686 97.9354 117.511C97.9522 116.773 99.5659 117.221 100.885 119.348C104.379 124.978 102.791 126.413 101.254 126.821Z" fill="#1D490E"/>
<path d="M52.2173 151.407C51.7842 151.093 51.3266 150.814 50.8489 150.573L51.1464 150.636C51.2527 149.728 54.0904 149.486 55.1025 148.964C56.611 148.067 58.0617 147.077 59.4463 145.998C62.6835 143.787 65.929 141.571 69.1662 139.361C72.5768 137.032 75.6706 134.398 79.2658 132.197C82.8609 129.997 86.6325 128.196 89.8037 125.534C91.8316 123.822 95.3261 120.552 97.9132 119.996C95.1888 121.929 92.985 125.033 90.4211 127.183C87.662 129.491 84.3697 130.734 81.3613 132.571C75.4567 136.342 69.7493 140.413 64.2615 144.768C60.755 147.453 56.2749 150.38 52.2173 151.407Z" fill="#BAD740"/>
<path d="M101.093 120.84C101.403 121.485 101.584 122.184 101.626 122.898C101.585 123.251 101.58 123.607 101.613 123.96C101.758 124.311 101.849 124.683 101.88 125.061C101.803 125.432 101.684 125.794 101.526 126.139C101.406 126.584 101.685 126.708 101.265 126.838C99.8691 127.258 100.398 126.401 100.648 125.757C100.931 125.032 101.032 124.248 100.942 123.474C100.836 123.075 100.706 122.683 100.552 122.3C100.479 121.917 100.369 121.542 100.223 121.18C100.032 120.812 99.7972 120.468 99.5237 120.156C99.2925 119.817 98.9815 119.788 98.8111 119.432C98.6694 119.108 98.4685 118.814 98.219 118.565C97.9694 118.323 97.602 118.211 97.3577 117.942C97.4642 117.752 97.6261 117.599 97.8216 117.504C98.1267 117.577 98.4263 117.672 98.7179 117.788C99.0539 118.042 99.3436 118.352 99.5741 118.705C100.172 119.347 100.682 120.065 101.093 120.84Z" fill="#D8D7BA"/>
<path d="M151.823 85.9676C152.636 86.8496 153.268 87.8831 153.682 89.0091C154.027 89.935 154.078 90.9445 153.828 91.9004C153.627 92.5101 153.579 93.6812 153.058 93.7341C152.94 93.7499 152.822 93.7734 152.707 93.8046C152.723 92.9945 153.011 92.2285 152.971 91.4079C152.923 90.4477 152.712 89.5028 152.346 88.6135C152.147 88.1803 151.824 87.7594 151.622 87.3401C151.421 86.8506 151.12 86.4089 150.737 86.0436C150.569 85.904 150.361 85.9368 150.19 85.7751C150.041 85.568 149.916 85.3441 149.819 85.1079C149.701 84.9345 149.416 84.996 149.504 84.6455C149.529 84.5617 149.581 84.4889 149.654 84.4396C149.726 84.3903 149.813 84.3675 149.9 84.3749L149.997 84.3931L149.9 84.3749L149.85 84.4087C150.514 84.2099 151.402 85.5285 151.823 85.9676Z" fill="#D8D7BA"/>
<path d="M149.928 84.4162L149.831 84.3979L149.928 84.4162Z" fill="#D8D7BA"/>
<path opacity="0.48" d="M61.3387 146.074C60.4623 146.83 59.5915 147.594 58.7178 148.336C56.2556 150.405 52.3903 155.49 49.2691 151.93L49.207 151.84L48.5303 150.849C48.4103 150.671 48.2728 150.505 48.1199 150.354C49.6295 149.674 51.6402 149.657 53.9207 148.209C56.4546 146.6 71.3125 136.333 76.3831 132.87C81.2637 129.537 88.8695 124.343 93.7003 121.275C95.0833 120.306 96.3414 119.171 97.446 117.894C97.5525 117.704 97.7143 117.551 97.9099 117.456C97.9343 117.444 97.9566 117.429 97.9759 117.411C98.011 117.369 98.0567 117.338 98.1081 117.32C98.1477 117.29 98.189 117.262 98.2319 117.236C98.298 117.185 98.3669 117.138 98.4384 117.095C98.5038 117.038 98.5759 116.988 98.6531 116.948C98.708 116.905 98.766 116.865 98.8265 116.83C98.9007 116.773 98.9779 116.72 99.0577 116.672C100.645 115.733 102.861 115.964 105.453 114.387C108.046 112.811 123.088 102.866 128.218 99.5081C133.174 96.2688 140.884 91.2457 145.777 88.2678C147.161 87.3429 148.423 86.2488 149.535 85.0112L149.543 84.8974C149.566 84.8126 149.618 84.7387 149.691 84.6891C149.764 84.6395 149.851 84.6174 149.939 84.6267L149.889 84.6606C149.97 84.6431 150.054 84.6393 150.136 84.6495C150.136 84.6495 150.21 84.5988 150.243 84.5762C150.277 84.5483 150.313 84.5237 150.351 84.5029C150.351 84.5029 150.425 84.4522 150.45 84.4352C150.642 84.412 150.837 84.4538 151.003 84.5539L151.12 84.6192L151.154 84.6687L151.205 84.743L151.239 84.7926L151.301 84.8834L151.34 84.9412L151.374 84.9908L151.442 85.0899L151.526 85.2137L151.605 85.3294L152.474 86.6011L152.835 87.1296L153.06 87.46L153.173 87.6251L153.207 87.6747C146.197 89.1313 139.61 93.6536 134.053 98.2477C133.888 98.3605 133.731 98.4676 133.574 98.5748C130.026 100.792 126.535 103.091 122.976 105.291C120.201 106.902 117.646 108.863 115.372 111.126C110.916 113.467 107.756 117.21 103.478 119.793C98.9868 122.508 93.957 124.151 89.5316 127.015C81.6985 130.972 74.7081 136.642 67.5247 141.656C66.2093 142.403 64.9581 143.257 63.7838 144.211C62.9328 144.783 62.1164 145.405 61.3387 146.074Z" fill="#364C18"/>
<path d="M57.8788 156.683C57.0713 156.653 56.8893 155.748 56.4303 155.129C55.9713 154.51 55.6938 154.76 55.2701 154.069C54.7787 153.443 54.4316 152.717 54.2535 151.942C54.0573 151.264 53.5904 151.183 53.4279 150.289C56.0895 148.69 60.2791 155.783 57.8788 156.683Z" fill="#1D490E"/>
<path d="M109.713 122.788C109.127 123.189 107.704 126.001 106.648 124.276C106.929 121.904 103.345 118.322 101.292 117.302C102.642 114.455 105.423 115.691 108.771 113.66C111.231 112.173 125.53 102.736 130.467 99.522C135.184 96.4461 142.525 91.663 147.195 88.8373C151.295 86.3647 151.106 82.8609 153.891 87.3288C157.87 93.7055 155.531 94.5886 153.909 94.7148C147.624 95.2286 128.238 109.593 123.655 112.953C120.87 114.976 114.963 118.791 109.713 122.788Z" fill="#9BC221"/>
<path d="M118.74 115.401C116.576 117.109 114.181 118.514 112.023 120.23C111.135 120.927 110.329 121.721 109.619 122.598C108.98 123.435 108.365 124.484 107.264 124.752L107.197 124.797C106.972 124.692 106.785 124.519 106.665 124.301C106.941 121.921 103.362 118.346 101.309 117.326C101.591 116.68 102.068 116.138 102.673 115.777C107.202 116.451 107.795 120.635 110.519 119.731C111.356 119.644 130.704 104.337 140.236 98.4701C142.542 97.0594 144.984 95.8828 147.524 94.9579C149.276 94.2949 151.549 93.4929 152.405 91.625C153.214 89.6458 153.205 87.4267 152.381 85.4539C152.977 85.998 153.479 86.6373 153.866 87.3456C154.957 88.8525 155.7 90.5826 156.042 92.4111C155.572 92.841 155.044 93.2018 154.473 93.4826C152.173 94.6538 149.582 95.1874 147.254 96.2812C142.154 98.6734 137.573 101.947 132.951 105.128C128.162 108.434 123.351 111.78 118.74 115.401Z" fill="#8DAA16"/>
<path d="M107.627 124.806C107.295 124.887 106.95 124.772 106.642 124.268C106.924 121.896 103.339 118.313 101.286 117.293C101.417 117.012 101.583 116.748 101.78 116.508C105.275 116.059 107.795 121.434 107.627 124.806Z" fill="#D8D7BA"/>
<path d="M153.891 87.3288C157.393 92.9537 155.996 94.295 154.508 94.6334C154.759 93.7582 154.854 92.8452 154.785 91.9371C154.609 89.7811 153.319 86.5807 151.267 85.3305C151.984 84.9259 152.637 85.3152 153.891 87.3288Z" fill="#1D490E"/>
<path d="M107.133 116.74C106.715 116.413 106.273 116.12 105.808 115.864C105.904 114.976 108.94 114.936 109.909 114.457C111.365 113.641 112.765 112.729 114.1 111.728C117.225 109.691 120.336 107.615 123.484 105.61C126.809 103.51 129.771 101.003 133.221 98.9615C136.671 96.9205 140.325 95.3209 143.402 92.8569C145.35 91.2598 148.68 88.1744 151.233 87.7632C148.615 89.5509 146.482 92.5092 144.011 94.5116C141.344 96.6714 138.128 97.7779 135.262 99.4324C129.558 102.893 124.045 106.658 118.745 110.711C115.381 113.214 111.054 115.903 107.133 116.74Z" fill="#BAD740"/>
<path d="M60.8899 155.099C60.3036 155.499 58.954 158.346 57.8562 156.65C58.0903 154.262 54.4483 150.755 52.3794 149.782C53.6647 146.895 56.4654 148.07 59.7564 145.956C62.1772 144.412 76.2728 134.677 81.1369 131.356C85.7863 128.181 93.0204 123.241 97.6309 120.31C101.669 117.747 101.422 114.246 104.289 118.658C108.381 124.969 106.081 125.91 104.482 126.034C98.2149 126.68 79.1469 141.457 74.6254 144.908C71.8925 147.077 66.0757 151.025 60.8899 155.099Z" fill="#9BC221"/>
<path d="M69.7816 147.55C67.6459 149.299 65.2543 150.726 63.1663 152.528C62.2917 153.237 61.5038 154.048 60.8189 154.942C60.1905 155.795 59.5949 156.855 58.497 157.145C58.472 157.155 58.4495 157.17 58.4309 157.19C58.2033 157.088 58.014 156.916 57.8901 156.7C58.1243 154.312 54.4765 150.796 52.4076 149.824C52.6808 149.171 53.1494 148.618 53.7492 148.242C58.257 148.796 58.9612 153.002 61.6521 152.048C62.4858 151.939 81.51 136.211 90.9145 130.14C93.1927 128.665 95.6111 127.419 98.1345 126.421C99.8852 125.721 102.15 124.889 102.973 123.008C103.733 121.01 103.681 118.794 102.826 116.835C103.43 117.367 103.944 117.994 104.347 118.69C105.451 120.191 106.214 121.913 106.584 123.739C106.128 124.183 105.613 124.563 105.054 124.868C102.782 126.08 100.226 126.664 97.9004 127.816C92.8524 130.318 88.3384 133.691 83.7789 136.962C79.0876 140.36 74.3112 143.827 69.7816 147.55Z" fill="#8DAA16"/>
<path d="M58.8635 157.185C58.529 157.281 58.1977 157.168 57.8619 156.658C58.096 154.27 54.454 150.763 52.3851 149.791C52.5045 149.506 52.659 149.238 52.845 148.992C56.3539 148.51 58.9674 153.809 58.8635 157.185Z" fill="#D8D7BA"/>
<path d="M105.084 126.01C105.322 125.132 105.399 124.218 105.311 123.312C105.066 121.179 103.74 117.979 101.666 116.768C101.666 116.041 103.239 116.517 104.563 118.652C108.065 124.277 106.577 125.644 105.084 126.01Z" fill="#1D490E"/>
<path d="M58.2162 149.127C57.7878 148.811 57.3358 148.528 56.8643 148.282L57.1617 148.345C57.2434 147.454 59.9762 147.271 60.9388 146.783C62.3756 145.935 63.7549 144.993 65.0679 143.963C68.1482 141.86 71.2085 139.709 74.3253 137.642C77.5708 135.425 80.5078 132.899 83.9238 130.809C87.3399 128.718 90.9658 127.041 93.9662 124.484C95.8923 122.854 99.183 119.71 101.688 119.211C99.101 121.062 97.0319 124.061 94.6002 126.121C91.9954 128.336 88.7939 129.517 85.9754 131.224C80.3458 134.807 74.9132 138.69 69.7015 142.858C66.3823 145.427 62.1086 148.212 58.2162 149.127Z" fill="#BAD740"/>
<path d="M104.796 120.128C105.115 120.763 105.307 121.454 105.362 122.163C105.326 122.511 105.33 122.862 105.374 123.209C105.517 123.557 105.613 123.924 105.658 124.298C105.588 124.657 105.484 125.009 105.345 125.347C105.234 125.787 105.498 125.909 105.095 126.027C103.762 126.416 104.249 125.587 104.478 124.947C104.736 124.232 104.819 123.465 104.719 122.711C104.603 122.314 104.465 121.923 104.307 121.54C104.227 121.163 104.114 120.795 103.968 120.44C103.766 120.074 103.53 119.728 103.263 119.407C103.037 119.077 102.734 119.041 102.558 118.677C102.41 118.354 102.208 118.058 101.96 117.802C101.719 117.555 101.366 117.445 101.116 117.168C101.221 116.99 101.373 116.845 101.555 116.747C101.853 116.833 102.146 116.937 102.432 117.056C102.767 117.307 103.052 117.616 103.274 117.97C103.874 118.62 104.386 119.345 104.796 120.128Z" fill="#D8D7BA"/>
<path d="M153.082 86.9245C153.892 87.8042 154.524 88.8323 154.944 89.9521C155.307 90.861 155.38 91.86 155.153 92.8122C154.977 93.4049 154.948 94.5508 154.457 94.5951C154.383 94.6459 154.241 94.6336 154.122 94.6543C154.114 93.8612 154.363 93.1094 154.321 92.3028C154.25 91.3483 154.021 90.4125 153.641 89.5339C153.442 89.1007 153.077 88.7081 152.917 88.2605C152.707 87.7759 152.406 87.3359 152.031 86.964C151.869 86.8327 151.67 86.8598 151.507 86.6925C151.359 86.4851 151.232 86.2635 151.128 86.031C151.009 85.8576 150.735 85.8995 150.771 85.5968C150.792 85.5149 150.842 85.4436 150.912 85.3959C150.982 85.3482 151.067 85.3274 151.151 85.3374L151.24 85.3613L151.151 85.3374L151.117 85.2878C151.764 85.1363 152.669 86.4798 153.082 86.9245Z" fill="#D8D7BA"/>
<path d="M151.212 85.356L151.123 85.332C151.123 85.332 151.187 85.3368 151.212 85.356Z" fill="#D8D7BA"/>
<path opacity="0.48" d="M53.1331 148.723C53.2046 148.668 53.2791 148.617 53.356 148.57C53.4082 148.529 53.4634 148.491 53.5212 148.458C53.5899 148.405 53.6616 148.356 53.7359 148.311C55.218 147.396 57.3757 147.63 59.8131 146.074C62.2504 144.519 76.3708 134.768 81.1936 131.474C85.843 128.299 93.0772 123.359 97.6851 120.443C98.9962 119.521 100.183 118.434 101.216 117.208C101.315 117.026 101.469 116.878 101.655 116.787L101.713 116.748C101.746 116.709 101.789 116.68 101.837 116.663C101.874 116.635 101.912 116.608 101.952 116.584C102.016 116.535 102.082 116.49 102.151 116.449C102.217 116.404 102.283 116.359 102.349 116.313C102.401 116.272 102.456 116.234 102.514 116.201L102.77 116.026C104.277 115.13 106.427 115.405 108.896 113.913C111.364 112.421 125.655 102.99 130.592 99.7757C135.309 96.6999 142.642 91.9224 147.32 89.091C148.64 88.2128 149.837 87.1633 150.88 85.9699C150.872 85.9344 150.871 85.8973 150.879 85.8616C150.901 85.7824 150.951 85.7135 151.019 85.6671C151.087 85.6207 151.169 85.5998 151.251 85.6079C151.334 85.5891 151.42 85.5881 151.503 85.6051C151.503 85.6051 151.561 85.5656 151.594 85.5431L151.701 85.4698L151.826 85.4573C152.016 85.4398 152.207 85.4834 152.371 85.5816L152.444 85.689L152.495 85.7633L152.557 85.8541L152.63 85.9615L152.704 86.0688L153.73 87.5718L154.091 88.1003L154.209 88.2737L154.322 88.439L154.435 88.6041L154.559 88.7858L154.751 89.0666L154.79 89.1243L154.875 89.2482L155.05 89.5043L155.162 89.6694L155.332 89.9172L155.394 90.008C151.635 90.5298 147.985 91.6491 144.58 93.3237C141.666 94.3436 138.881 95.6971 136.279 97.3575C131.413 100.269 126.69 103.07 122.64 107.034C119.932 108.884 117.239 110.722 114.607 112.702C112.426 114.118 110.273 115.588 108.149 117.112C104.272 119.892 100.927 122.673 96.3256 124.144C93.2024 125.139 90.0905 126.149 87.5949 128.205C86.1157 128.981 84.6875 129.851 83.3192 130.81C78.4964 134.103 73.1839 137.016 68.775 140.863C68.709 140.908 68.6429 140.953 68.5768 140.998C66.6479 142.323 64.8022 143.766 63.0499 145.317C61.5167 146.618 59.9001 147.904 58.4571 149.337C57.3789 150.401 56.5246 151.65 55.4659 152.724C55.3913 152.768 55.3195 152.817 55.2512 152.871C55.1666 152.95 55.0861 153.033 55.0099 153.12C54.9395 153.198 54.8737 153.279 54.8129 153.364C54.5455 152.935 54.3544 152.463 54.2482 151.969C54.072 151.339 53.6347 151.177 53.4716 150.477C53.1315 150.237 52.772 150.024 52.3967 149.843C52.4192 149.823 52.4442 149.806 52.471 149.792C52.5332 149.653 52.5985 149.536 52.6638 149.419C52.6963 149.363 52.7327 149.31 52.7729 149.259L52.8712 149.12C52.9128 149.098 52.9516 149.072 52.9869 149.041C53.0235 148.93 53.0725 148.823 53.1331 148.723Z" fill="#48602C"/>
<path d="M40.5869 140.919C43.4249 139.223 47.5702 146.322 45.0378 147.312C44.189 147.311 44.04 146.383 43.5727 145.77C43.1055 145.157 42.8198 145.412 42.3961 144.721C41.8968 144.098 41.5539 143.365 41.3959 142.582C41.2081 141.899 40.7021 141.797 40.5869 140.919Z" fill="#123107"/>
<path d="M100.274 111.094C99.6384 111.529 98.076 114.436 97.0194 112.712C97.3917 110.278 93.7575 106.729 91.6386 105.754C93.1369 102.806 96.0014 103.986 99.5717 101.802C102.181 100.214 117.462 90.106 122.688 86.6945C127.711 83.41 135.531 78.2998 140.499 75.2711C144.862 72.618 144.781 69.0409 147.549 73.52C151.512 79.908 149.04 80.8814 147.336 81.064C140.754 81.7808 120.038 97.0531 115.149 100.622C112.183 102.768 105.863 106.866 100.274 111.094Z" fill="#678212"/>
<path d="M109.945 103.268C107.624 105.082 105.073 106.595 102.766 108.412C101.821 109.148 100.958 109.981 100.189 110.898C99.4666 111.791 98.8101 112.869 97.6513 113.176L97.5853 113.221C97.3497 113.132 97.1565 112.957 97.0445 112.731C97.4168 110.297 93.7826 106.748 91.6638 105.773C91.9793 105.105 92.4855 104.544 93.1186 104.162C97.8289 104.712 98.3229 108.964 101.196 107.958C102.066 107.849 122.743 91.6337 132.952 85.3042C135.415 83.7828 138.016 82.4974 140.72 81.4649C142.579 80.7286 144.976 79.842 145.931 77.9065C146.378 76.9206 146.623 75.8551 146.652 74.7729C146.68 73.6907 146.491 72.6136 146.097 71.6056C146.7 72.1434 147.205 72.7815 147.59 73.4917C149.059 75.8552 149.646 77.4768 149.708 78.5967C149.209 79.0434 148.654 79.4226 148.056 79.7246C145.624 80.9859 142.907 81.6181 140.457 82.7826C135.044 85.3891 130.157 88.8718 125.222 92.2662C120.003 95.8663 114.87 99.4322 109.945 103.268Z" fill="#5E720C"/>
<path d="M98.073 113.191C97.7246 113.283 97.3711 113.174 97.0632 112.67C97.4355 110.236 93.8013 106.687 91.6824 105.712C91.8283 105.421 92.0078 105.148 92.217 104.899C95.8445 104.359 98.3151 109.768 98.073 113.191Z" fill="#918F67"/>
<path d="M147.557 73.5143C151.051 79.1448 149.539 80.5651 147.976 80.9542C148.265 80.0647 148.39 79.1301 148.344 78.1958C148.234 75.9948 146.986 72.7662 144.876 71.5554C145.633 71.1226 146.312 71.4951 147.557 73.5143Z" fill="#123107"/>
<path d="M97.7683 104.995C97.3415 104.67 96.884 104.386 96.4025 104.148C96.5393 103.231 99.7165 103.096 100.742 102.577C102.295 101.701 103.789 100.726 105.214 99.6562C108.563 97.4666 111.889 95.2439 115.26 93.0872C118.799 90.84 121.967 88.1919 125.64 85.9986C129.313 83.8054 133.182 82.0593 136.473 79.4487C138.568 77.7639 142.157 74.4898 144.85 73.9827C142.059 75.8888 139.768 78.9543 137.091 81.0976C134.243 83.3816 130.837 84.6177 127.789 86.3963C121.707 90.1135 115.817 94.1357 110.141 98.4475C106.504 101.137 101.888 104.023 97.7683 104.995Z" fill="#7B9023"/>
<path d="M48.2614 145.632C47.6338 146.06 46.1273 149.014 45.0377 147.312C45.3626 144.862 41.6545 141.401 39.5195 140.473C40.9618 137.478 43.845 138.597 47.359 136.331C49.9367 134.679 65.015 124.274 70.1599 120.76C75.1148 117.377 82.8362 112.104 87.744 108.971C92.046 106.227 91.9063 102.653 94.7626 107.084C98.8408 113.393 96.4144 114.433 94.6941 114.626C88.1299 115.476 67.7323 131.161 62.9052 134.821C59.9929 137.064 53.788 141.277 48.2614 145.632Z" fill="#678212"/>
<path d="M57.7664 137.615C55.4821 139.466 52.9417 140.995 50.6969 142.903C49.7627 143.653 48.9144 144.504 48.1678 145.441C47.465 146.345 46.8281 147.434 45.6724 147.763C45.648 147.774 45.6257 147.789 45.6064 147.808C45.3716 147.716 45.175 147.547 45.0491 147.329C45.3741 144.879 41.6603 141.409 39.5253 140.481C39.8367 139.808 40.3335 139.238 40.9576 138.837C45.6554 139.262 46.2523 143.541 49.1084 142.474C49.9751 142.342 70.3453 125.695 80.3691 119.202C82.7946 117.626 85.3609 116.279 88.0352 115.178C89.918 114.388 92.274 113.494 93.1954 111.545C93.6218 110.551 93.8447 109.482 93.8507 108.4C93.8568 107.319 93.6459 106.247 93.2306 105.248C93.8455 105.77 94.3658 106.394 94.7684 107.092C96.2783 109.427 96.8954 111.04 97.0047 112.14C96.5218 112.605 95.9797 113.003 95.3925 113.326C92.9719 114.64 90.2751 115.319 87.8259 116.556C82.4311 119.295 77.6115 122.877 72.785 126.342C67.6752 130.013 62.6097 133.678 57.7664 137.615Z" fill="#5E720C"/>
<path d="M46.0555 147.792C45.7044 147.899 45.3566 147.797 45.0208 147.288C45.3458 144.838 41.6377 141.376 39.5027 140.448C39.6431 140.15 39.8167 139.869 40.0203 139.61C43.6913 138.993 46.2667 144.342 46.0555 147.792Z" fill="#918F67"/>
<path d="M95.0585 107.003C98.5523 112.634 96.9321 114.091 95.3475 114.519C95.6264 113.625 95.7373 112.687 95.6745 111.753C95.5114 109.564 94.1943 106.358 92.0621 105.186C92.0954 104.437 93.6783 104.858 95.0585 107.003Z" fill="#123107"/>
<path d="M45.6229 139.587C45.1881 139.273 44.7276 138.996 44.2463 138.759L44.5438 138.822C44.6585 137.908 47.5234 137.635 48.5438 137.108C50.0744 136.196 51.5472 135.19 52.9537 134.096C56.257 131.841 59.5603 129.585 62.8636 127.329C66.3238 124.966 69.4671 122.299 73.12 120.059C76.773 117.819 80.5941 115.984 83.8092 113.28C85.8757 111.554 89.4141 108.242 92.0674 107.641C89.3073 109.61 87.0649 112.728 84.4432 114.918C81.6484 117.262 78.2735 118.562 75.2568 120.404C69.2497 124.243 63.4405 128.384 57.8515 132.81C54.2763 135.554 49.7188 138.509 45.6229 139.587Z" fill="#7B9023"/>
<path d="M92.9374 107.071C92.7982 106.743 92.595 106.445 92.3396 106.196C92.0983 105.949 91.7283 105.85 91.4784 105.573C91.5925 105.389 91.7524 105.239 91.9423 105.135C92.2522 105.208 92.5564 105.304 92.8525 105.422C93.1918 105.667 93.4829 105.974 93.7113 106.325C94.2861 106.992 94.7708 107.732 95.1531 108.525C95.4659 109.168 95.6472 109.868 95.6864 110.583C95.6364 110.938 95.6265 111.298 95.6567 111.656C95.7302 112.03 95.961 112.332 95.9242 112.757C95.8436 113.13 95.722 113.494 95.5618 113.84C95.4337 114.291 95.7068 114.407 95.2784 114.542C93.8797 114.977 94.4165 114.114 94.6782 113.451C94.9674 112.725 95.0757 111.941 94.9938 111.164C94.8828 110.763 94.7507 110.369 94.598 109.982C94.5332 109.6 94.4248 109.227 94.2749 108.87C94.0779 108.502 93.8415 108.156 93.57 107.838C93.3857 107.479 93.1273 107.438 92.9374 107.071Z" fill="#918F67"/>
<path d="M146.724 73.127C147.542 74.0005 148.175 75.0304 148.585 76.1546C148.931 77.0897 148.975 78.1094 148.712 79.071C148.511 79.6807 148.441 80.8547 147.917 80.9216C147.799 80.9373 147.681 80.9609 147.566 80.9921C147.59 80.1764 147.872 79.4021 147.855 78.5785C147.811 77.6145 147.598 76.6657 147.225 75.7759C147.034 75.337 146.71 74.9161 146.509 74.4968C146.308 74.0074 146.006 73.5657 145.623 73.2003C145.461 73.069 145.253 73.1018 145.082 72.94C144.934 72.7326 144.807 72.5111 144.703 72.2785C144.585 72.1051 144.294 72.1583 144.388 71.8161C144.412 71.7323 144.465 71.6595 144.538 71.6102C144.61 71.5609 144.697 71.5381 144.784 71.5455L144.881 71.5637L144.784 71.5455L144.701 71.5297C145.397 71.3444 146.311 72.6822 146.724 73.127Z" fill="#918F67"/>
<path d="M144.82 71.581L144.723 71.5627C144.757 71.5584 144.791 71.5648 144.82 71.581Z" fill="#918F67"/>
<path d="M50.7784 151.977C49.9296 151.976 49.7724 151.054 49.2995 150.432C48.8266 149.811 48.5523 150.083 48.1285 149.391C47.636 148.761 47.2922 148.027 47.1227 147.245C46.9431 146.556 46.4597 146.487 46.3193 145.59C49.1656 143.888 53.3108 150.987 50.7784 151.977Z" fill="#1D490E"/>
<path d="M106.038 115.793C105.41 116.221 103.839 119.134 102.783 117.41C103.149 114.968 99.5208 111.427 97.4019 110.452C98.9084 107.498 101.773 108.679 105.335 106.5C107.952 104.907 123.234 94.7986 128.452 91.3927C133.474 88.1082 141.303 82.9923 146.27 79.9637C150.628 77.3023 150.511 73.7617 153.321 78.2126C157.275 84.6063 154.806 85.5657 153.108 85.7566C146.526 86.4734 125.81 101.746 120.921 105.314C117.916 107.439 111.629 111.514 106.038 115.793Z" fill="#9BC221"/>
<path d="M115.706 107.98C113.387 109.781 110.841 111.301 108.535 113.119C107.584 113.852 106.717 114.688 105.95 115.611C105.227 116.503 104.579 117.576 103.415 117.874C103.415 117.874 103.365 117.908 103.34 117.925C103.113 117.824 102.925 117.649 102.808 117.429C103.166 114.993 99.5376 111.452 97.4188 110.477C97.7381 109.807 98.2467 109.245 98.8819 108.86C103.584 109.416 104.078 113.668 106.951 112.662C107.829 112.547 128.498 96.3376 138.707 90.0081C141.17 88.4867 143.771 87.2012 146.475 86.1687C148.375 85.4042 150.731 84.5459 151.678 82.616C152.127 81.6307 152.374 80.565 152.402 79.4824C152.43 78.3998 152.24 77.3226 151.843 76.3151C152.45 76.8491 152.959 77.4856 153.345 78.1956C154.806 80.5647 155.387 82.1781 155.457 83.2923C154.962 83.7429 154.406 84.1224 153.806 84.4202C151.365 85.6872 148.651 86.3054 146.207 87.4782C140.802 90.0791 135.907 93.5674 130.974 96.9479C125.752 100.526 120.611 104.097 115.706 107.98Z" fill="#8DAA16"/>
<path d="M103.767 117.876C103.41 117.974 103.071 117.867 102.749 117.36C103.115 114.918 99.4869 111.378 97.3681 110.403C97.5157 110.113 97.695 109.84 97.9027 109.59C101.577 109.03 104.05 114.425 103.767 117.876Z" fill="#D8D7BA"/>
<path d="M153.298 78.1796C156.783 83.8157 155.279 85.2304 153.711 85.6112C154.002 84.7249 154.129 83.793 154.085 82.8611C153.975 80.6601 152.718 77.4371 150.616 76.2207C151.369 75.7796 152.038 76.1577 153.298 78.1796Z" fill="#1D490E"/>
<path d="M103.509 109.66C103.077 109.342 102.62 109.059 102.143 108.813C102.272 107.902 105.449 107.766 106.475 107.247C108.022 106.363 109.515 105.388 110.947 104.327C114.295 102.137 117.621 99.9146 120.992 97.758C124.539 95.5051 127.708 92.857 131.373 90.6693C135.037 88.4817 138.923 86.7242 142.206 84.1193C144.303 82.4206 147.897 79.1548 150.582 78.6533C147.783 80.5651 145.495 83.6166 142.815 85.7739C139.967 88.0578 136.569 89.2884 133.521 91.0669C127.436 94.7799 121.546 98.8023 115.873 103.118C112.236 105.808 107.611 108.663 103.509 109.66Z" fill="#BAD740"/>
<path d="M54.0022 150.297C53.3663 150.731 51.8681 153.68 50.7785 151.978C51.0952 149.533 47.3897 146.057 45.2547 145.13C46.6943 142.149 49.5858 143.262 53.0858 140.993C55.6693 139.35 70.7502 128.931 75.895 125.417C80.85 122.034 88.5715 116.761 93.4766 113.641C97.7868 110.892 97.6389 107.324 100.49 111.747C104.582 118.058 102.141 119.095 100.435 119.292C93.8707 120.141 73.4592 135.824 68.6378 139.491C65.7254 141.734 59.5288 145.942 54.0022 150.297Z" fill="#9BC221"/>
<path d="M63.507 142.281C61.2227 144.131 58.6741 145.666 56.4376 147.568C55.5023 148.321 54.6499 149.171 53.8946 150.104C53.1975 151.016 52.5688 152.099 51.4131 152.428L51.3387 152.479C51.1078 152.388 50.9157 152.22 50.7954 152.002C51.1121 149.558 47.4066 146.082 45.2716 145.155C45.5812 144.485 46.0751 143.916 46.6957 143.516C51.3935 143.941 51.9986 148.214 54.8464 147.153C55.7214 147.016 76.0834 130.375 86.1568 123.847C88.5825 122.272 91.1488 120.925 93.8227 119.823C95.6643 119.062 98.0616 118.139 98.9747 116.196C99.4027 115.202 99.6271 114.132 99.6346 113.049C99.642 111.967 99.4325 110.894 99.0183 109.894C99.6333 110.415 100.151 111.041 100.548 111.743C102.058 114.079 102.683 115.686 102.784 116.791C102.299 117.253 101.755 117.649 101.166 117.969C98.7595 119.285 96.057 119.956 93.6052 121.207C88.2047 123.938 83.3908 127.528 78.567 130.979C73.4159 134.679 68.3504 138.344 63.507 142.281Z" fill="#8DAA16"/>
<path d="M51.7879 152.463C51.4368 152.569 51.089 152.468 50.7615 151.953C51.0782 149.508 47.3727 146.033 45.2378 145.105C45.383 144.815 45.5555 144.539 45.7528 144.281C49.4264 143.649 52.0299 149.04 51.7879 152.463Z" fill="#D8D7BA"/>
<path d="M101.066 119.187C101.339 118.294 101.447 117.359 101.385 116.427C101.23 114.232 99.9129 111.026 97.7808 109.854C97.8058 109.111 99.4361 109.548 100.761 111.682C104.254 117.313 102.632 118.784 101.066 119.187Z" fill="#1D490E"/>
<path d="M51.3637 144.252C50.9295 143.934 50.4657 143.659 49.9788 143.43L50.2789 143.479C50.3992 142.574 53.2641 142.3 54.2845 141.773C55.8151 140.861 57.2879 139.855 58.6944 138.762C61.9977 136.506 65.301 134.25 68.6043 131.994C72.0727 129.626 75.2161 126.959 78.8551 124.716C82.4942 122.473 86.3348 120.65 89.5499 117.945C91.6108 116.211 95.1631 112.901 97.8081 112.306C95.0481 114.276 92.8056 117.393 90.1921 119.578C87.3891 121.928 84.0143 123.227 81.0059 125.064C74.9986 128.903 69.1894 133.044 63.6005 137.47C60.017 140.22 55.4625 143.197 51.3637 144.252Z" fill="#BAD740"/>
<path d="M100.964 113.203C101.277 113.848 101.455 114.55 101.489 115.266C101.443 115.621 101.435 115.979 101.467 116.335C101.541 116.708 101.772 117.011 101.735 117.436C101.65 117.808 101.529 118.171 101.372 118.519C101.236 118.975 101.517 119.086 101.089 119.221C99.682 119.661 100.227 118.792 100.48 118.135C100.77 117.41 100.878 116.625 100.796 115.848C100.722 115.439 100.521 115.055 100.408 114.66C100.334 114.277 100.224 113.902 100.08 113.54C99.889 113.172 99.6542 112.828 99.3805 112.516C99.1549 112.186 98.8439 112.156 98.6679 111.792C98.5285 111.464 98.3253 111.166 98.0701 110.917C97.8288 110.67 97.4588 110.571 97.2088 110.294C97.3186 110.102 97.483 109.948 97.681 109.85C97.9899 109.927 98.2939 110.023 98.5912 110.137C98.9287 110.384 99.2171 110.692 99.4417 111.046C100.046 111.692 100.558 112.418 100.964 113.203Z" fill="#D8D7BA"/>
<path d="M152.464 77.7921C153.284 78.665 153.915 79.6975 154.318 80.8252C154.66 81.7609 154.705 82.7798 154.444 83.7417C154.243 84.3514 154.181 85.5198 153.652 85.5784C153.535 85.5947 153.419 85.621 153.306 85.6571C153.331 84.8414 153.613 84.0671 153.596 83.2435C153.55 82.2797 153.337 81.3313 152.965 80.4409C152.775 80.002 152.451 79.5813 152.249 79.1619C152.049 78.6724 151.747 78.2306 151.364 77.8653C151.196 77.7257 150.986 77.7724 150.823 77.605C150.671 77.4004 150.544 77.1783 150.444 76.9436C150.326 76.7702 150.035 76.8234 150.128 76.4812C150.157 76.3977 150.212 76.3257 150.285 76.2759C150.358 76.2261 150.445 76.2012 150.533 76.2048L150.636 76.2314L150.533 76.2048L150.483 76.2387C151.133 76.0012 152.038 77.3447 152.464 77.7921Z" fill="#D8D7BA"/>
<path d="M150.561 76.2463L150.458 76.2197L150.561 76.2463Z" fill="#D8D7BA"/>
<path opacity="0.48" d="M60.6117 138.821C59.7188 139.588 58.8454 140.366 57.9495 141.111C55.4517 143.216 51.4981 148.35 48.366 144.81L48.2983 144.71C48.0784 144.388 47.8528 144.058 47.6216 143.72C47.4983 143.543 47.3581 143.379 47.2029 143.23C48.7429 142.542 50.7785 142.508 53.092 141.037C55.6697 139.386 70.7563 128.975 75.9011 125.462C80.8561 122.078 88.5775 116.805 93.477 113.678C94.8777 112.7 96.1523 111.553 97.2722 110.262C97.3859 110.074 97.5493 109.921 97.7444 109.819C97.7629 109.799 97.7855 109.784 97.8104 109.774C97.8153 109.746 97.8258 109.72 97.8413 109.697C97.8568 109.674 97.8769 109.655 97.9004 109.64C97.944 109.615 97.9855 109.587 98.0243 109.555C98.0986 109.504 98.1647 109.459 98.2308 109.414C98.2968 109.369 98.3794 109.313 98.4455 109.267C98.5088 109.23 98.5695 109.189 98.6271 109.143L98.8997 108.957C100.498 107.999 102.738 108.213 105.364 106.614C107.989 105.015 123.263 94.912 128.481 91.506C133.503 88.2215 141.332 83.1057 146.299 80.077C147.7 79.1424 148.979 78.0371 150.107 76.7866L150.106 76.6785C150.134 76.595 150.189 76.523 150.262 76.4732C150.335 76.4234 150.422 76.3985 150.51 76.4022L150.461 76.436C150.546 76.4178 150.635 76.4148 150.721 76.4275C150.751 76.401 150.785 76.3783 150.82 76.3598L150.936 76.2809C150.967 76.2551 151 76.2324 151.035 76.2132C151.229 76.1908 151.426 76.2304 151.597 76.3262L151.67 76.4336L151.698 76.4749L151.749 76.5492L151.817 76.6483L151.856 76.7062L151.884 76.7474L152.042 76.9787L152.121 77.0943L152.984 78.3578L153.345 78.8863L153.717 79.4313C146.625 80.9443 139.944 85.5426 134.283 90.1961L133.795 90.5288C130.204 92.7877 126.657 95.1127 123.054 97.3551C120.234 98.9866 117.635 100.973 115.32 103.266C110.864 105.607 107.589 109.429 103.244 112.057C98.6875 114.818 93.5974 116.514 89.1059 119.423C81.1597 123.445 74.0595 129.202 66.763 134.281C65.4284 135.041 64.1579 135.909 62.9643 136.875C62.1412 137.475 61.3555 138.125 60.6117 138.821Z" fill="#364C18"/>
<path d="M43.0799 138.381C42.6514 137.753 42.3327 138.031 41.9089 137.34C41.4064 136.715 41.0615 135.979 40.9032 135.193C40.7153 134.51 40.2319 134.441 40.0998 133.538C42.9378 131.842 47.083 138.941 44.5449 139.923C43.6853 139.941 43.5528 139.002 43.0799 138.381Z" fill="#1D490E"/>
<path d="M99.7953 103.708C99.1594 104.142 97.5969 107.05 96.5404 105.325C96.907 102.883 93.2646 99.34 91.1596 98.3677C92.6522 95.411 95.5223 96.5995 99.0845 94.4214C101.702 92.8279 116.983 82.7196 122.204 79.2997C127.232 76.0235 135.052 70.9133 140.02 67.8846C144.378 65.2232 144.261 61.6826 147.07 66.1335C151.033 72.5216 148.556 73.4866 146.857 73.6775C140.269 74.386 119.554 89.6584 114.67 93.2353C111.696 95.3875 105.401 99.4684 99.7953 103.708Z" fill="#9BC221"/>
<path d="M109.458 95.8867C107.131 97.6933 104.585 99.2138 102.278 101.031C101.332 101.764 100.467 102.594 99.6961 103.509C98.9794 104.41 98.3229 105.488 97.1585 105.787L97.0925 105.832C96.8569 105.736 96.6631 105.559 96.5461 105.333C96.9184 102.899 93.2759 99.3564 91.171 98.3841C91.4865 97.7154 91.9927 97.1549 92.6258 96.7731C97.3361 97.3225 97.8301 101.575 100.695 100.575C101.573 100.46 122.284 84.222 132.451 77.9207C134.914 76.4008 137.512 75.1127 140.213 74.0731C142.077 73.345 144.475 72.4585 145.424 70.5147C145.87 69.5285 146.115 68.4631 146.143 67.381C146.172 66.299 145.984 65.2221 145.59 64.2138C146.193 64.7516 146.698 65.3897 147.084 66.0999C148.552 68.4634 149.133 70.0768 149.196 71.1966C148.694 71.6395 148.139 72.0184 147.544 72.3245C145.112 73.5859 142.389 74.2098 139.945 75.3825C134.532 77.989 129.637 81.4774 124.704 84.8579C119.516 88.4854 114.383 92.0513 109.458 95.8867Z" fill="#8DAA16"/>
<path d="M91.1596 98.3675C91.3077 98.0766 91.4849 97.8014 91.6885 97.5462C95.3573 96.9783 97.8223 102.379 97.539 105.83C97.336 105.881 97.1215 105.856 96.9356 105.76C96.7497 105.664 96.6052 105.503 96.529 105.309C96.907 102.883 93.2646 99.3398 91.1596 98.3675Z" fill="#D8D7BA"/>
<path d="M144.388 64.1746C145.155 63.7361 145.825 64.1142 147.076 66.1417C150.57 71.7722 149.057 73.1925 147.489 73.5733C147.78 72.687 147.907 71.755 147.863 70.8232C147.747 68.6138 146.485 65.3827 144.388 64.1746Z" fill="#1D490E"/>
<path d="M144.294 66.6608C141.503 68.5669 139.207 71.6241 136.529 73.7674C133.687 76.0596 130.281 77.2958 127.233 79.0744C121.151 82.7916 115.261 86.8138 109.585 91.1256C106.011 93.7477 101.395 96.6338 97.2756 97.6061C96.8432 97.283 96.3845 96.9968 95.9042 96.7505C96.0466 95.8419 99.2181 95.6983 100.25 95.1875C101.797 94.3036 103.29 93.3283 104.722 92.267C108.07 90.0773 111.39 87.8464 114.717 85.7318C118.259 83.4707 121.433 80.8308 125.106 78.6376C128.779 76.4443 132.648 74.6982 135.934 72.0793C138.051 70.4276 141.645 67.1618 144.294 66.6608Z" fill="#BAD740"/>
<path d="M94.2867 99.7198C98.3706 106.037 95.9303 107.074 94.2239 107.27C87.6597 108.12 67.2482 123.802 62.4268 127.47C59.5058 129.683 53.3009 133.896 47.7687 138.243C47.1666 138.727 45.6401 141.634 44.5449 139.923C44.8755 137.482 41.1618 134.012 39.0268 133.084C40.4747 130.097 43.3579 131.216 46.8579 128.947C49.4496 127.298 64.5223 116.885 69.6671 113.371C74.6221 109.988 82.3435 104.715 87.2569 101.59C91.5758 98.8708 91.4195 95.3083 94.2867 99.7198Z" fill="#9BC221"/>
<path d="M57.2735 130.226C54.9948 132.085 52.4545 133.614 50.204 135.514C49.2731 136.268 48.4252 137.119 47.6749 138.052C46.9695 138.97 46.3409 140.053 45.1851 140.382L45.1191 140.427C44.883 140.338 44.6858 140.168 44.5618 139.948C44.8924 137.507 41.1787 134.036 39.0437 133.109C39.3467 132.43 39.8454 131.858 40.476 131.465C45.1738 131.889 45.7707 136.168 48.6211 135.093C49.5017 134.964 69.8637 118.323 79.8819 111.821C82.3077 110.246 84.8739 108.899 87.5479 107.797C89.4307 107.008 91.7868 106.113 92.6999 104.17C93.1279 103.176 93.3522 102.105 93.3597 101.023C93.3672 99.9406 93.1576 98.8676 92.7433 97.8675C93.3583 98.389 93.8785 99.0129 94.2811 99.7115C95.791 102.047 96.4024 103.652 96.5118 104.751C96.0288 105.216 95.4867 105.614 94.8996 105.937C92.4928 107.254 89.7822 107.93 87.3386 109.175C81.9382 111.906 77.1186 115.488 72.2921 118.953C67.1823 122.624 62.1225 126.298 57.2735 130.226Z" fill="#8DAA16"/>
<path d="M39.0102 133.095C39.1524 132.799 39.328 132.521 39.5335 132.265C43.182 131.615 45.7629 136.972 45.5517 140.422C45.2007 140.529 44.8528 140.427 44.5171 139.918C44.8755 137.481 41.1617 134.011 39.0102 133.095Z" fill="#D8D7BA"/>
<path d="M91.5642 97.8252C91.5892 97.0815 93.2195 97.5183 94.5384 99.6449C98.0322 105.275 96.4176 106.741 94.833 107.169C95.105 106.274 95.2157 105.337 95.16 104.403C95.0022 102.186 93.6907 98.9886 91.5642 97.8252Z" fill="#1D490E"/>
<path d="M91.5028 100.289C88.751 102.253 86.5003 105.376 83.8869 107.56C81.0922 109.904 77.7034 111.202 74.7006 113.046C68.6917 116.883 62.8806 121.021 57.2896 125.444C53.7665 128.141 49.2203 131.112 45.1132 132.173C44.6796 131.857 44.2189 131.58 43.7366 131.345L44.0284 131.4C44.1431 130.486 47.0136 130.221 48.034 129.694C49.5647 128.782 51.0375 127.776 52.4439 126.683C55.7472 124.427 59.0505 122.171 62.3125 119.944C65.7809 117.575 68.9187 114.9 72.5716 112.659C76.2246 110.419 80.0513 108.593 83.2664 105.889C85.3473 104.202 88.8826 100.867 91.5028 100.289Z" fill="#BAD740"/>
<path d="M94.2355 106.064C94.5291 105.335 94.6383 104.545 94.5538 103.763C94.4855 103.362 94.2761 102.984 94.1718 102.583C94.0977 102.201 93.9848 101.828 93.8348 101.469C93.6395 101.104 93.405 100.76 93.1356 100.445C92.91 100.115 92.5851 100.083 92.4147 99.7266C92.2753 99.3982 92.0721 99.1006 91.8169 98.8512C91.5757 98.6042 91.2057 98.5057 90.9557 98.2284C91.0645 98.0361 91.2292 97.8814 91.4279 97.7849C91.7358 97.8584 92.0374 97.9561 92.3298 98.0772C92.6702 98.3216 92.9615 98.6279 93.1886 98.9801C93.7614 99.6446 94.2443 100.382 94.6248 101.172C94.9392 101.815 95.1206 102.515 95.1581 103.23C95.11 103.588 95.1019 103.951 95.1341 104.312C95.2076 104.685 95.4384 104.988 95.3677 105.363C95.2853 105.738 95.1657 106.103 95.0109 106.454C94.8828 106.905 95.1559 107.021 94.7275 107.156C93.4453 107.584 93.9821 106.721 94.2355 106.064Z" fill="#D8D7BA"/>
<path d="M146.231 65.7378C147.053 66.6133 147.685 67.6487 148.09 68.7793C148.437 69.7092 148.482 70.7248 148.219 71.6819C148.015 72.3055 147.954 73.4738 147.424 73.5324C147.306 73.5482 147.188 73.5718 147.073 73.603C147.103 72.7955 147.385 72.0212 147.368 71.1976C147.323 70.2338 147.109 69.2854 146.738 68.395C146.547 67.9561 146.223 67.5353 146.022 67.1159C145.821 66.6264 145.519 66.1847 145.136 65.8194C144.968 65.6798 144.758 65.7265 144.595 65.5592C144.446 65.3488 144.317 65.1245 144.211 64.8894C144.092 64.716 143.807 64.7774 143.859 64.4634C143.885 64.378 143.939 64.304 144.013 64.2538C144.086 64.2035 144.175 64.1799 144.264 64.187L144.367 64.2137L144.264 64.187L144.186 64.1797C144.905 63.9553 145.818 65.2931 146.231 65.7378Z" fill="#D8D7BA"/>
<path d="M144.339 64.2084L144.236 64.1819C144.272 64.1802 144.308 64.1894 144.339 64.2084Z" fill="#D8D7BA"/>
<path opacity="0.48" d="M95.2444 107.009L95.1453 107.077L95.0957 107.111L95.0214 107.162C95.0076 107.176 94.9907 107.188 94.9719 107.195C94.7737 107.259 94.5681 107.298 94.3602 107.31C87.7961 108.16 67.3901 123.851 62.5713 127.504C59.6477 129.731 53.4372 133.936 47.9106 138.291C47.4564 138.601 46.5866 140.2 45.7432 140.437C45.6608 140.458 45.5764 140.472 45.4913 140.476C45.418 140.47 45.3459 140.454 45.2771 140.428L45.1235 140.327L45.084 140.269L45.0333 140.195L44.8753 139.964C44.6571 139.965 44.4463 139.884 44.2848 139.737C43.9151 138.708 43.6233 137.653 43.412 136.58L43.35 136.489C43.7286 136.121 44.2048 135.045 44.6816 134.768C46.5157 133.767 48.4181 132.897 50.3747 132.164C51.1008 131.862 51.7935 131.546 52.4749 131.214L52.782 131.15C58.3446 129.773 62.6749 125.847 66.8722 122.17C71.8958 117.945 77.2036 114.069 82.7582 110.571C88.3863 106.861 93.5984 102.418 99.3397 98.9089C107.786 96.5071 114.963 91.8728 121.651 86.4701C126.341 83.7274 130.885 80.77 135.368 77.5997C139.906 74.5745 144.135 71.1104 147.995 67.2574L148.125 67.4475L148.317 67.7282L148.356 67.786L148.441 67.9099L148.616 68.1659L148.728 68.331L148.892 68.5706L148.993 68.7192L149.107 68.9925L149.152 69.0585L149.192 69.1164L149.306 69.4257L149.351 69.4918L149.425 69.5991L149.488 69.7982L149.533 69.8642L149.605 70.1297L149.667 70.2205L149.709 70.4226L149.771 70.5134L149.8 70.6989L149.807 70.8154L149.826 70.9843L149.871 71.0504L149.875 71.2168L149.915 71.2745L149.903 71.4522L149.869 71.6689L149.821 71.847L149.772 71.8808L149.729 71.995C149.714 72.0086 149.697 72.02 149.679 72.0288L149.597 72.0852C149.579 72.101 149.56 72.1143 149.539 72.1247C149.512 72.1385 149.487 72.1555 149.465 72.1754C149.445 72.1875 149.425 72.2007 149.407 72.2149L149.332 72.2657C149.332 72.2657 149.332 72.2657 149.266 72.3108C149.2 72.3559 149.217 72.3446 149.192 72.3615C149.167 72.3785 149.151 72.3898 149.134 72.401C149.109 72.4234 149.081 72.4423 149.052 72.4574C149.052 72.4574 148.994 72.4969 148.969 72.5138L148.87 72.5815C148.87 72.5815 148.82 72.6153 148.796 72.6322L148.73 72.6773C148.73 72.6773 148.73 72.6774 148.663 72.7225C148.644 72.7414 148.622 72.7567 148.597 72.7676C148.597 72.7676 148.597 72.7676 148.531 72.8127C148.513 72.8269 148.493 72.8401 148.474 72.8522C148.474 72.8522 148.416 72.8916 148.391 72.9085L148.341 72.9424L148.267 72.9931L148.218 73.027L148.135 73.0834C147.927 73.1332 147.716 73.168 147.504 73.1875C140.921 73.9043 120.206 89.1766 115.317 92.7453C112.348 94.9058 106.058 98.9949 100.447 103.226C99.9931 103.536 99.0842 105.114 98.1966 105.356C98.115 105.376 98.0311 105.384 97.9472 105.381C97.8711 105.377 97.7967 105.358 97.7275 105.326L97.5738 105.225L97.5344 105.167L97.3483 104.894C97.3648 105.176 97.3218 105.457 97.2221 105.72C97.1224 105.984 96.9681 106.223 96.7695 106.423C96.5709 106.622 96.3325 106.778 96.0696 106.879C95.8068 106.98 95.5256 107.024 95.2444 107.009Z" fill="#48602C"/>
<path d="M45.6697 138.308C48.5159 136.606 52.6612 143.705 50.1287 144.696C49.28 144.694 49.1227 143.772 48.6637 143.153C48.2047 142.534 47.9025 142.801 47.4788 142.109C46.9852 141.482 46.6455 140.748 46.4869 139.965C46.299 139.282 45.7931 139.18 45.6697 138.308Z" fill="#1D490E"/>
<path d="M105.365 108.477C104.738 108.906 103.175 111.814 102.119 110.089C102.483 107.661 98.8484 104.112 96.7296 103.137C98.2361 100.183 101.101 101.363 104.663 99.1852C107.28 97.5917 122.561 87.4834 127.779 84.0774C132.802 80.7929 140.631 75.6772 145.598 72.6485C149.962 69.9954 149.839 66.4464 152.648 70.8974C156.603 77.291 154.139 78.2587 152.436 78.4413C145.853 79.1581 125.138 94.4305 120.249 97.9991C117.266 100.157 110.979 104.232 105.365 108.477Z" fill="#9BC221"/>
<path d="M115.036 100.651C112.715 102.465 110.163 103.978 107.857 105.795C106.91 106.533 106.044 107.368 105.272 108.287C104.549 109.18 103.901 110.252 102.742 110.559L102.668 110.61C102.439 110.51 102.252 110.335 102.135 110.114C102.494 107.677 98.8653 104.137 96.7464 103.162C97.0657 102.492 97.5744 101.93 98.2095 101.545C102.912 102.1 103.406 106.352 106.279 105.347C107.157 105.232 127.826 89.0224 138.035 82.6929C140.498 81.1716 143.098 79.8862 145.803 78.8537C147.703 78.0891 150.059 77.2308 151.005 75.3009C151.455 74.3156 151.701 73.2498 151.73 72.1673C151.758 71.0847 151.568 70.0076 151.171 69C151.782 69.5304 152.291 70.1676 152.673 70.8804C153.767 72.3941 154.492 74.1422 154.791 75.9854C154.292 76.4321 153.737 76.8113 153.139 77.1133C150.699 78.3803 147.984 78.9985 145.54 80.1713C140.135 82.7721 135.24 86.2604 130.313 89.6493C125.094 93.2494 119.961 96.8152 115.036 100.651Z" fill="#8DAA16"/>
<path d="M103.123 110.602C102.766 110.7 102.421 110.585 102.113 110.081C102.477 107.653 98.8429 104.104 96.724 103.129C96.8716 102.839 97.0509 102.566 97.2586 102.316C100.927 101.748 103.406 107.151 103.123 110.602Z" fill="#D8D7BA"/>
<path d="M152.648 70.8976C156.134 76.5337 154.63 77.9484 153.067 78.3375C153.353 77.4472 153.477 76.5132 153.436 75.5791C153.325 73.3781 152.069 70.1551 149.967 68.9387C150.725 68.5059 151.378 68.8953 152.648 70.8976Z" fill="#1D490E"/>
<path d="M102.859 102.378C102.427 102.06 101.971 101.777 101.494 101.531C101.63 100.614 104.799 100.485 105.825 99.9655C107.378 99.09 108.871 98.1144 110.297 97.045C113.646 94.8553 116.971 92.6326 120.301 90.5042C123.848 88.2513 127.017 85.6032 130.69 83.4099C134.363 81.2166 138.232 79.4705 141.523 76.8599C143.612 75.1668 147.206 71.901 149.9 71.3939C147.1 73.3057 144.818 76.3655 142.132 78.5145C139.284 80.7984 135.886 82.0289 132.838 83.8075C126.756 87.5247 120.866 91.5469 115.191 95.8588C111.587 98.5256 106.978 101.406 102.859 102.378Z" fill="#BAD740"/>
<path d="M53.3525 143.015C52.7166 143.449 51.2183 146.398 50.1287 144.696C50.4454 142.251 46.7456 138.784 44.6106 137.856C46.0446 134.867 48.936 135.98 52.4418 133.719C55.0195 132.068 70.1061 121.657 75.2509 118.144C80.2059 114.76 87.9274 109.487 92.8269 106.359C97.1371 103.61 96.9891 100.042 99.8455 104.473C103.932 110.776 101.497 111.821 99.7851 112.01C93.221 112.859 72.8151 128.55 67.988 132.209C65.0757 134.452 58.879 138.66 53.3525 143.015Z" fill="#9BC221"/>
<path d="M62.8574 134.999C60.5731 136.849 58.0245 138.384 55.7879 140.286C54.8516 141.039 54.0008 141.892 53.2507 142.83C52.5479 143.734 51.9191 144.817 50.7634 145.146C50.7361 145.159 50.7111 145.176 50.6891 145.197C50.4565 145.102 50.263 144.931 50.1401 144.712C50.4568 142.268 46.7513 138.792 44.6163 137.864C44.9259 137.194 45.4199 136.626 46.0404 136.226C50.7382 136.651 51.3433 140.924 54.1911 139.863C55.0661 139.726 75.4281 123.084 85.4602 116.585C87.886 115.01 90.4523 113.663 93.1263 112.561C95.0091 111.772 97.365 110.877 98.2781 108.934C98.7061 107.939 98.9305 106.87 98.938 105.787C98.9455 104.705 98.7359 103.632 98.3217 102.632C98.9367 103.153 99.4545 103.779 99.8512 104.481C101.361 106.816 101.986 108.424 102.087 109.529C101.602 109.99 101.06 110.389 100.475 110.715C98.0629 112.023 95.3661 112.702 92.9169 113.939C87.5221 116.678 82.7025 120.26 77.8705 123.717C72.7663 127.397 67.7064 131.07 62.8574 134.999Z" fill="#8DAA16"/>
<path d="M51.1465 145.175C50.7872 145.287 50.4394 145.186 50.1119 144.671C50.4286 142.226 46.7287 138.759 44.5938 137.831C44.7332 137.536 44.904 137.257 45.1032 136.999C48.7824 136.376 51.3577 141.725 51.1465 145.175Z" fill="#D8D7BA"/>
<path d="M100.117 104.409C103.61 110.039 101.982 111.502 100.406 111.925C100.682 111.032 100.79 110.096 100.724 109.164C100.57 106.969 99.2524 103.764 97.1203 102.592C97.1618 101.837 98.7921 102.274 100.117 104.409Z" fill="#1D490E"/>
<path d="M50.7139 136.97C50.2786 136.654 49.8149 136.379 49.329 136.148L49.6348 136.205C49.7494 135.292 52.6143 135.018 53.6347 134.491C55.1654 133.579 56.6381 132.573 58.0446 131.48C61.3479 129.224 64.623 126.927 67.9545 124.712C71.4229 122.344 74.5663 119.677 78.2054 117.434C81.8444 115.191 85.685 113.368 88.9083 110.658C90.9667 108.937 94.5133 105.619 97.1666 105.019C94.4147 106.982 92.1641 110.106 89.5506 112.29C86.7477 114.64 83.3727 115.94 80.3643 117.776C74.3571 121.615 68.5479 125.756 62.9589 130.182C59.3672 132.938 54.821 135.909 50.7139 136.97Z" fill="#BAD740"/>
<path d="M97.4721 103.551C97.2226 103.309 96.8608 103.205 96.6109 102.928C96.7251 102.744 96.8848 102.593 97.0747 102.49C97.3836 102.567 97.6875 102.663 97.9849 102.777C98.3242 103.022 98.6153 103.328 98.8437 103.679C99.431 104.335 99.9296 105.066 100.327 105.851C100.641 106.496 100.82 107.198 100.852 107.915C100.809 108.269 100.802 108.627 100.83 108.983C100.904 109.356 101.135 109.659 101.098 110.084C101.017 110.457 100.896 110.82 100.736 111.167C100.607 111.617 100.881 111.734 100.452 111.869C99.0452 112.309 99.5903 111.44 99.8437 110.783C100.136 110.059 100.245 109.273 100.159 108.497C100.056 108.093 99.9262 107.696 99.7717 107.308C99.6977 106.929 99.5896 106.557 99.4487 106.197C99.2559 105.826 99.0192 105.479 98.7438 105.165C98.5182 104.834 98.2072 104.804 98.0312 104.44C97.9008 104.112 97.7113 103.811 97.4721 103.551Z" fill="#D8D7BA"/>
<path d="M151.815 70.5103C152.634 71.3832 153.265 72.4157 153.668 73.5434C154.017 74.4777 154.062 75.4988 153.795 76.4599C153.594 77.0696 153.532 78.238 153.008 78.3049C152.89 78.3207 152.772 78.3442 152.657 78.3753C152.681 77.5596 152.964 76.7854 152.946 75.9618C152.903 74.9978 152.689 74.049 152.316 73.1591C152.125 72.7202 151.801 72.2995 151.6 71.8801C151.399 71.3907 151.097 70.949 150.714 70.5835C150.552 70.4522 150.336 70.4906 150.173 70.3232C150.021 70.1186 149.894 69.8965 149.794 69.6618C149.676 69.4884 149.385 69.5416 149.479 69.1994C149.504 69.114 149.559 69.04 149.632 68.9897C149.706 68.9395 149.794 68.9159 149.883 68.9231L149.981 68.9413L149.883 68.9231L149.8 68.9073C150.488 68.7277 151.402 70.0655 151.815 70.5103Z" fill="#D8D7BA"/>
<path d="M149.911 68.9641L149.814 68.9458C149.848 68.9448 149.881 68.951 149.911 68.9641Z" fill="#D8D7BA"/>
<path d="M88.4519 119.228C88.0668 118.522 87.7298 117.905 87.5139 117.447C85.9523 114.202 78.8954 104.187 74.6385 103.752C74.2823 103.698 73.9179 103.746 73.5883 103.892C73.2587 104.037 72.9776 104.274 72.7782 104.574C72.5568 104.871 71.7744 105.587 71.4918 105.368C71.2092 105.149 71.5555 104.114 71.7404 103.782C72.0754 103.312 72.5317 102.942 73.0606 102.71C73.5894 102.479 74.1711 102.396 74.7435 102.47C78.4367 102.842 83.3558 108.698 86.3334 113.058C87.1935 114.283 87.9713 115.564 88.6616 116.893C88.8632 117.312 89.1889 117.913 89.5683 118.611C92.3297 123.736 95.1423 129.469 93.5067 132.535C93.1894 133.095 92.7318 133.562 92.1791 133.89C91.6263 134.219 90.9974 134.398 90.3544 134.409C90.1856 134.427 90.015 134.41 89.8526 134.361C89.6901 134.312 89.5391 134.231 89.4082 134.123C89.8727 133.77 90.355 133.44 90.8534 133.136C91.191 133.085 91.5083 132.943 91.7712 132.725C92.0342 132.507 92.2327 132.221 92.3457 131.899C93.8302 129.214 90.1938 122.47 88.4519 119.228Z" fill="#CCBE83"/>
<path d="M87.4388 132.126L87.447 131.854C87.6935 127.506 87.5521 123.145 87.0245 118.822C86.3766 113.907 84.8732 109.143 82.5823 104.745C81.7467 103.185 79.9432 100.881 78.61 100.968C78.39 100.948 78.1694 100.997 77.9785 101.108C77.7876 101.219 77.6356 101.386 77.5434 101.587C77.5434 101.587 76.8414 102.066 76.5689 102.252C76.2964 102.438 75.9927 102.561 75.8587 102.737C75.7234 102.539 75.8949 102.24 75.9837 101.998C76.594 100.516 77.4843 99.7624 78.5568 99.6839C80.4173 99.6243 82.0956 101.639 83.0204 102.993C83.2825 103.364 83.5221 103.75 83.7379 104.15C86.1071 108.684 87.6603 113.6 88.3264 118.672C88.8624 123.071 89.0036 127.509 88.7486 131.934L88.7406 132.206C88.5439 135.464 88.1682 138.833 86.2259 139.517C85.0617 139.67 83.8802 139.422 82.8757 138.814C82.8757 138.814 83.429 138.436 83.6355 138.295C83.8926 138.132 84.1348 137.947 84.3588 137.741C84.6722 137.987 85.5258 138.421 85.8047 138.315C86.702 137.945 87.256 135.883 87.4388 132.126Z" fill="#E5D898"/>
<path d="M105.291 83.8262C105.008 83.6074 105.354 82.5717 105.547 82.234C105.885 81.7664 106.341 81.3981 106.87 81.1673C107.398 80.9365 107.978 80.8517 108.551 80.9218C112.244 81.294 117.163 87.1499 120.14 91.5102C121.001 92.7356 121.778 94.0168 122.469 95.3453C122.67 95.7646 122.996 96.3657 123.367 97.0689C126.128 102.194 128.949 107.921 127.319 110.996C126.997 111.553 126.536 112.018 125.981 112.346C125.427 112.674 124.797 112.854 124.153 112.867C124.032 112.868 123.911 112.857 123.792 112.835C124.527 112.395 125.167 111.814 125.676 111.125C125.874 110.903 126.037 110.652 126.161 110.382C127.601 107.667 123.965 100.923 122.223 97.6807C121.838 96.9749 121.501 96.3574 121.285 95.8994C119.715 92.6605 112.666 82.64 108.41 82.2048C108.053 82.1515 107.689 82.2006 107.36 82.3462C107.031 82.4917 106.75 82.7279 106.549 83.0271C106.364 83.3232 105.581 84.0393 105.291 83.8262Z" fill="#CCBE83"/>
<path d="M121.204 110.57L121.212 110.298C121.463 105.95 121.322 101.589 120.79 97.2666C120.149 92.3535 118.644 87.5924 116.345 83.2037C115.518 81.6374 113.706 79.3388 112.381 79.4202C112.161 79.4007 111.94 79.4498 111.749 79.5606C111.558 79.6715 111.406 79.8387 111.314 80.0394C111.314 80.0394 110.604 80.5244 110.34 80.7048C110.076 80.8853 109.755 81.0192 109.63 81.1898C109.494 80.9916 109.666 80.693 109.755 80.4507C110.365 78.9683 111.247 78.2206 112.328 78.1365C114.188 78.0769 115.866 80.0913 116.791 81.4457C117.237 82.0981 117.503 82.5945 117.509 82.6027C119.878 87.1368 121.431 92.0522 122.097 97.1244C122.636 101.523 122.777 105.962 122.519 110.386L122.511 110.658C122.315 113.917 121.939 117.285 119.994 117.984C118.976 118.118 117.941 117.943 117.023 117.481C117.023 117.481 117.073 117.448 117.098 117.431L118.568 116.427C118.922 116.609 119.34 116.759 119.525 116.694C120.473 116.397 121.021 114.328 121.204 110.57Z" fill="#E5D898"/>
<path d="M103.176 123.802C101.429 120.94 99.2145 118.391 96.6234 116.264C91.6484 112.117 87.2833 109.431 83.6482 108.292C79.6179 107.036 69.7339 105.915 68.8651 107.356C68.5982 107.645 68.2874 107.89 67.9441 108.082C67.6341 107.894 67.7564 106.672 67.9691 106.345C69.8131 103.318 83.9222 106.991 84.0585 107.031C87.8578 108.215 92.4017 111.021 97.4913 115.247C99.7595 117.124 101.76 119.302 103.438 121.721C103.754 122.184 104.048 122.649 104.319 123.118C104.7 123.649 104.922 124.278 104.958 124.931C104.994 125.584 104.844 126.234 104.524 126.804C104.139 127.309 103.619 127.693 103.023 127.911C102.427 128.129 101.781 128.172 101.162 128.034C100.835 127.981 100.536 127.818 100.314 127.572C100.314 127.572 100.772 127.357 101.299 127.118C101.583 126.977 101.878 126.857 102.179 126.758C102.422 126.737 102.658 126.666 102.873 126.551C103.088 126.436 103.277 126.278 103.429 126.087C103.6 125.72 103.667 125.312 103.623 124.909C103.578 124.506 103.423 124.123 103.176 123.802Z" fill="#F4EAA8"/>
<path d="M95.961 114.318C94.8148 113.562 93.5251 113.049 92.1721 112.813C91.2188 112.144 90.308 111.555 89.4397 111.046C89.7824 110.761 90.0378 110.385 90.1765 109.961C92.4313 111.354 94.5874 112.9 96.6297 114.588C96.3927 114.471 96.1781 114.388 95.961 114.318Z" fill="#CCBE83"/>
<path d="M88.3814 110.4C87.7835 109.249 86.84 108.314 85.6833 107.726L85.627 107.644C87.1593 108.281 88.6379 109.041 90.0485 109.916C89.8834 110.029 89.6788 110.084 89.4941 110.186C89.2418 110.315 89.0175 110.493 88.8342 110.709L88.3814 110.4Z" fill="#DDCF94"/>
<path d="M94.6941 108.899C92.3419 111.377 90.6671 112.17 89.565 111.336C89.4972 111.283 89.4405 111.218 89.398 111.144C89.3555 111.07 89.328 110.988 89.3173 110.903C89.3065 110.818 89.3127 110.732 89.3353 110.649C89.358 110.566 89.3968 110.489 89.4494 110.422C89.5537 110.285 89.7078 110.196 89.878 110.172C90.0482 110.149 90.2207 110.194 90.3578 110.298C90.3578 110.298 91.0901 110.803 93.7354 107.991L93.9684 107.748C95.032 106.61 96.6437 104.891 98.3173 104.984C98.4671 104.99 98.6144 105.025 98.7512 105.087C98.8905 105.152 99.0039 105.262 99.0735 105.4C99.118 105.484 99.1434 105.577 99.1478 105.673C99.1523 105.768 99.1356 105.863 99.0991 105.951C99.0293 106.109 98.9007 106.233 98.7408 106.297C98.5809 106.361 98.4023 106.36 98.2431 106.294C97.1829 106.231 95.7685 107.741 94.9215 108.647L94.6941 108.899Z" fill="#F4EAA8"/>
<path d="M89.2747 109.935C89.2006 109.891 89.1363 109.832 89.0857 109.762C89.035 109.692 88.9991 109.612 88.98 109.528C88.9609 109.444 88.9591 109.357 88.9747 109.272C88.9902 109.187 89.0228 109.106 89.0705 109.033C89.304 108.734 89.5981 108.488 89.9334 108.311C90.0022 108.27 90.0683 108.225 90.1316 108.176C90.6354 107.832 91.1309 107.493 91.6086 107.058L91.8481 106.895L92.9288 106.048C93.806 105.364 94.7162 104.658 95.5426 103.899C95.916 103.56 96.2725 103.195 96.6125 102.842C97.1324 102.287 97.6831 101.761 98.262 101.267C98.3693 101.194 98.5015 101.104 98.6081 100.959C99.1586 100.345 99.8851 99.9163 100.688 99.7315C100.774 99.7246 100.86 99.7354 100.942 99.7631C101.023 99.7908 101.098 99.8349 101.162 99.8927C101.29 100.006 101.369 100.166 101.38 100.337C101.387 100.422 101.377 100.508 101.35 100.59C101.324 100.671 101.281 100.746 101.224 100.811C101.168 100.875 101.099 100.928 101.022 100.965C100.945 101.003 100.861 101.024 100.775 101.029C100.281 101.227 99.8353 101.531 99.4702 101.92C99.3133 102.027 99.2012 102.164 99.0829 102.257C98.5366 102.721 98.0179 103.217 97.5295 103.741C97.1648 104.112 96.8165 104.47 96.4157 104.841C95.5536 105.636 94.6242 106.367 93.7223 107.068C93.3479 107.323 92.9932 107.602 92.6581 107.903L92.4186 108.067C91.8984 108.422 91.4098 108.877 90.8178 109.269L90.6361 109.393C90.471 109.488 90.3135 109.595 90.1654 109.715C90.1223 109.789 90.0647 109.853 89.9963 109.904C89.9278 109.956 89.8497 109.993 89.7667 110.013C89.6837 110.034 89.5973 110.037 89.5128 110.024C89.4283 110.011 89.3474 109.981 89.2747 109.935Z" fill="#F4EAA8"/>
<path d="M89.1045 108.587C89.4895 108.693 89.8399 108.899 90.1209 109.183C90.4019 109.467 90.6036 109.819 90.7063 110.205C90.6919 112.152 87.9686 110.949 87.4808 109.986C88.1944 110.056 88.4477 108.635 89.1045 108.587Z" fill="#E5D898"/>
<path d="M87.7997 109.974C88.0398 109.616 88.5772 108.559 89.1045 108.586C89.4838 108.704 89.8283 108.913 90.1077 109.196C90.387 109.478 90.5926 109.825 90.7063 110.205C90.7255 110.333 90.7168 110.464 90.6807 110.589C90.6447 110.713 90.5821 110.829 90.4973 110.927C90.4125 111.025 90.3076 111.104 90.1895 111.157C90.0715 111.211 89.9433 111.239 89.8136 111.238C90.1274 111.024 90.0394 110.346 89.8855 109.978C89.4152 108.846 88.1987 110.186 87.7997 109.974Z" fill="#CCBE83"/>
<path d="M118.532 24.5188L118.459 24.7498C118.474 24.6701 118.498 24.5926 118.532 24.5188Z" fill="#6DB133"/>
<path d="M119.896 30.7195C119.42 33.0547 118.569 35.3552 117.985 37.6916C116.91 42.144 115.343 46.463 113.313 50.5691C111.419 54.2847 110.062 59.0012 107.321 62.2048C107.989 59.6578 108.504 57.0736 108.866 54.4656C109.65 49.3894 110.927 44.0608 112.135 38.9133C112.881 36.2871 113.903 33.7471 115.182 31.3351C116.236 29.1016 117.084 26.2464 118.56 24.2939L118.515 24.4941C118.481 24.5679 118.457 24.6455 118.442 24.7251C118.457 24.6455 118.481 24.5679 118.515 24.4941C118.603 24.2727 118.722 24.065 118.868 23.8771C120.552 24.4104 120.188 29.3211 119.896 30.7195Z" fill="#6DB133"/>
<path d="M117.714 28.5885C116.014 32.0767 114.644 35.7164 113.622 39.4597C111.817 46.7469 110.605 54.2465 107.682 61.2077C107.581 61.4561 107.519 61.7189 107.499 61.9864L107.31 62.2242C107.978 59.6895 108.498 57.1184 108.869 54.5238C109.653 49.4476 110.939 44.1134 112.138 38.9715C112.884 36.3449 113.905 33.8045 115.185 31.3931C116.24 29.1596 117.095 26.2988 118.571 24.3464L118.512 24.544C118.561 24.4284 118.618 24.3164 118.683 24.2092C118.635 25.7164 118.306 27.2014 117.714 28.5885Z" fill="#5F9E24"/>
<path d="M116.968 28.5415C116.346 30.4678 115.107 32.537 114.281 34.3962C112.467 38.7169 111.195 43.2459 110.496 47.8796C109.488 56.2812 106.831 62.0189 108.489 59.7482C110.293 56.5237 111.918 53.2028 113.357 49.8004C115.482 44.8617 117.524 39.1446 117.718 38.6127C116.662 42.7289 115.177 46.7226 113.285 50.5278C111.39 54.2434 110.034 58.96 107.293 62.1636C107.96 59.6167 108.476 57.0324 108.838 54.4245C109.622 49.3482 110.899 44.0197 112.107 38.8722C112.853 36.246 113.875 33.7058 115.154 31.2938C116.208 29.0604 117.055 26.2051 118.531 24.2526L118.486 24.4528C118.567 24.2561 118.672 24.0705 118.799 23.9003C118.025 25.3776 117.411 26.9335 116.968 28.5415Z" fill="#82D13E"/>
<path opacity="0.48" d="M119.845 30.8394L119.668 31.6264C117.645 32.0511 116.068 33.6607 114.862 35.6712C113.868 37.3188 112.767 38.9175 111.737 40.5654L112.123 39.0911C112.871 36.4683 113.889 33.9305 115.162 31.5185C116.216 29.285 117.072 26.4241 118.553 24.4799L118.512 24.5081L118.477 24.6166L118.605 24.36L118.703 24.2203L118.794 24.1583C118.822 24.1408 118.85 24.122 118.877 24.1019C120.493 24.536 120.129 29.4467 119.845 30.8394Z" fill="#3E5422"/>
<path d="M122.819 33.4217C121.512 32.4127 116.516 28.0389 118.497 25.8867C118.31 24.513 118.229 23.7206 119.137 22.8701C120.178 21.8933 121.421 23.7322 122.801 24.8485C124.411 26.0671 126.082 27.2011 127.809 28.2459C131.223 30.4435 133.522 31.6106 136.923 33.9137C140.317 36.0721 143.083 39.0875 144.939 42.6558C146.584 45.8439 148.991 48.8015 150.705 52.0387C144.657 47.438 137.187 44.6559 131.133 39.7446C128.41 37.5477 125.564 35.5435 122.819 33.4217Z" fill="#6DB133"/>
<path d="M129.39 38.38C127.216 36.7039 124.985 35.1034 122.819 33.4217C121.512 32.4127 116.516 28.0389 118.497 25.8867C118.31 24.513 118.229 23.7206 119.137 22.8701C120.178 21.8933 121.421 23.7322 122.801 24.8485C124.411 26.0671 126.082 27.2011 127.809 28.2459C131.134 30.3834 133.368 31.5097 136.649 33.7253C131.952 31.617 127.289 29.3279 123.363 25.9905C120.485 23.5485 119.391 24.4649 119.221 26.6275C118.998 29.4924 123.476 33.1066 125.547 35.0223C126.828 36.2063 128.091 37.2933 129.39 38.38Z" fill="#6AAA2A"/>
<path d="M118.729 23.3545C122.575 30.1737 128.611 34.6859 134.945 39.1031C137.848 41.043 140.643 43.1406 143.317 45.3866C140.842 43.6251 138.322 41.9557 135.92 40.2655C129.809 35.9623 122.41 32.0423 118.436 25.4436C118.267 24.7352 118.372 23.9891 118.729 23.3545Z" fill="#5F9E24"/>
<path d="M143.26 40.8355C141.865 38.9001 140.365 37.0418 138.769 35.2688C141.356 37.2349 143.465 39.7602 144.939 42.6558C146.583 45.8439 148.991 48.8015 150.705 52.0387C145.624 48.1456 139.507 45.5537 134.088 41.8918L135.032 42.4583C137.374 43.8135 141.674 45.8181 144.092 47.0365C146.128 48.0679 150.45 51.8252 149.284 50.2239C149.079 49.9765 143.7 41.4436 143.26 40.8355Z" fill="#82D13E"/>
<path opacity="0.59" d="M122.801 24.8485C124.411 26.0672 126.082 27.2012 127.81 28.246L128.427 28.6358L128.664 28.7885L129.025 29.0147L129.226 29.1317L129.611 29.3771L129.714 29.4397L132.197 30.9292C131.731 30.9202 131.265 30.943 130.802 30.9974C128.587 31.2994 127.513 31.5 125.682 29.9533C124.603 29.1268 123.425 28.4383 122.175 27.9038C120.848 26.6317 119.968 24.9639 119.668 23.15C119.644 22.9704 119.597 22.7947 119.529 22.6273C120.499 22.3641 121.578 23.8553 122.801 24.8485Z" fill="#3E5422"/>
<path d="M106.929 40.7243C104.249 43.1118 96.4575 47.0761 93.8417 46.5615C94.9632 46.1469 96.1242 45.7901 97.2336 45.2868C99.4501 44.4497 101.424 43.0764 102.981 41.2897C104.432 39.3902 105.166 37.0605 106.632 35.1636C108.048 33.4387 109.831 32.0514 111.851 31.103C113.337 30.3182 117.302 28.6764 116.378 26.4012C117.802 26.7126 116.701 29.2683 116.306 30.1797C114.447 34.5495 110.275 37.7497 106.929 40.7243Z" fill="#568E20"/>
<path d="M111.187 34.4749C110.889 34.6779 110.646 34.9413 110.365 35.1691C110.8 34.6178 114.293 31.4336 114.977 30.3248C115.42 29.668 115.793 28.9667 116.09 28.2322C116.316 27.9989 116.446 27.6898 116.455 27.3655C116.443 28.1363 116.226 28.89 115.828 29.5499C114.579 31.4493 113.009 33.1161 111.187 34.4749Z" fill="#75BC38"/>
<path d="M106.93 40.7243C104.477 42.6427 101.77 44.2103 98.885 45.3821C102.127 43.5004 105.145 41.2568 107.88 38.6945C110.999 35.7779 115.573 31.8549 117.061 27.4365C116.97 28.3933 116.709 29.3262 116.29 30.191C114.447 34.5496 110.275 37.7497 106.93 40.7243Z" fill="#629F2E"/>
<path d="M98.816 45.4051C96.7785 46.2516 94.898 46.7606 93.8418 46.5616C94.9633 46.1469 96.1243 45.7901 97.2337 45.2868C99.4501 44.4497 101.425 43.0764 102.981 41.2897C104.432 39.3902 105.166 37.0605 106.632 35.1636C108.048 33.4387 109.831 32.0515 111.851 31.103C112.234 30.9019 112.761 30.6631 113.379 30.3261C112.332 31.1052 111.239 31.8194 110.105 32.4649C107.676 34.3171 106.399 36.4005 104.808 39.0005C103.043 42.0141 100.324 44.3529 97.0796 45.6463C96.771 45.8328 96.2741 46.2932 98.816 45.4051Z" fill="#75BC38"/>
<path d="M128.132 25.846C126.736 25.734 125.028 24.3329 124.067 24.1661C123.105 23.9993 122.522 24.9183 121.785 24.5132C120.797 23.9959 119.928 23.2776 119.234 22.4046C118.539 21.5315 118.035 20.5229 117.754 19.4435C117.527 17.7097 118.447 16.9117 119.62 18.169C120.426 19.0116 120.58 20.4077 121.314 21.3232C122.048 22.2386 123.538 22.8073 124.576 23.5641C125.613 24.3208 126.576 25.5888 128.132 25.846Z" fill="#5F8E29"/>
<path d="M120.627 23.1004C120.81 23.5178 121.042 23.9119 121.319 24.2742C119.559 23.1771 118.283 21.4491 117.754 19.4434C117.527 17.7096 118.447 16.9116 119.62 18.1689C119.915 18.5045 120.152 18.8872 120.321 19.301L120.277 19.8397C120.114 20.9386 120.234 22.061 120.627 23.1004Z" fill="#5C8021"/>
<path d="M115.98 17.8572C115.068 19.3402 113.184 22.0432 111.379 22.8039C111.667 19.3253 111.462 14.6096 112.677 11.4064C114.876 5.61819 117.851 17.1734 115.98 17.8572Z" fill="#5F8E29"/>
<path d="M111.982 14.1821C112.117 13.2353 112.35 12.3051 112.678 11.4063C114.859 5.59339 117.834 17.1847 115.981 17.8571C115.894 18.0134 115.784 18.1727 115.664 18.3516C115.68 17.7013 115.545 17.0563 115.269 16.4673C114.992 15.8784 114.583 15.3616 114.073 14.9577C113.455 14.5226 112.734 14.2553 111.982 14.1821Z" fill="#5C8021"/>
<path d="M112.199 13.0286C112.323 12.4779 112.482 11.9359 112.677 11.4063C114.571 6.35929 117.091 14.447 116.485 17.0887C116.48 16.4002 116.368 15.7167 116.155 15.0621C115.871 14.2882 115.307 13.6492 114.574 13.2725C113.841 12.8957 112.993 12.8086 112.199 13.0286Z" fill="#52731A"/>
<path d="M119.454 22.1455C118.892 24.1585 118.035 26.0775 116.913 27.8404C114.399 31.979 107.48 30.855 104.783 31.0737C105.986 29.4654 109.527 30.1471 114.258 25.5484C115.564 24.2913 116.387 22.6151 116.582 20.8128C116.833 17.2265 114.539 13.441 114.989 9.79134L115.67 10.6824C115.448 12.13 117.373 14.3635 117.929 15.7636C118.776 17.607 119.987 19.965 119.454 22.1455Z" fill="#7AA43E"/>
<path d="M115.097 12.7329C114.899 11.7479 114.846 10.7392 114.941 9.73901L115.623 10.6302C115.4 12.0778 117.325 14.3113 117.882 15.7113C118.663 17.5998 119.943 19.9709 119.401 22.157C118.839 24.1701 117.983 26.0891 116.86 27.852C114.346 31.9905 107.427 30.8667 104.731 31.0853C105.788 29.6728 108.644 30.0238 112.504 26.988C116.511 27.1098 119.165 22.3427 118.959 20.0734C118.601 17.4575 117.277 15.0701 115.248 13.3803C115.182 13.1684 115.132 12.9521 115.097 12.7329Z" fill="#5F8E29"/>
<path d="M123.164 20.096C120.651 18.8093 117.976 18.19 116.251 15.7712C115.264 14.326 113.626 10.4195 113.956 8.70446L115.246 9.15606C117.331 7.40483 118.492 12.2791 119.075 13.8064C120.075 16.4414 121.614 17.8971 123.164 20.096Z" fill="#5F8E29"/>
<path d="M123.164 20.0959C120.651 18.8092 117.976 18.1899 116.251 15.7711C115.497 14.5708 114.896 13.2803 114.464 11.93C115.894 15.5309 118.994 17.7126 122.708 19.463L123.164 20.0959Z" fill="#9FCC51"/>
<path d="M114.015 10.2264C113.909 9.72607 113.889 9.21134 113.957 8.70435L115.246 9.15595C117.331 7.40472 118.492 12.279 119.075 13.8063C119.923 15.7688 121.077 17.5844 122.494 19.1852C119.446 17.4884 119.288 13.5155 116.891 11.1929C116.521 10.8175 116.068 10.5344 115.568 10.3665C115.069 10.1986 114.537 10.1506 114.015 10.2264Z" fill="#52731A"/>
<path d="M112.457 12.0052C109.99 11.195 112.381 7.21314 114.753 6.50163C117.318 5.71862 118.206 8.49072 117.569 10.04C116.629 9.63542 115.568 9.61452 114.613 9.98173C113.657 10.3489 112.884 11.0751 112.457 12.0052Z" fill="#61873D"/>
<path d="M112.111 11.8538C110.246 10.79 112.53 7.14777 114.786 6.47916C115.094 6.35833 115.425 6.3098 115.755 6.33733C116.085 6.36487 116.403 6.46771 116.687 6.63794C116.971 6.80817 117.211 7.04119 117.39 7.31913C117.57 7.59707 117.683 7.91251 117.721 8.24103C116.524 8.17593 115.338 8.49014 114.331 9.13885C113.323 9.78757 112.547 10.7376 112.111 11.8538Z" fill="#567C35"/>
<path d="M110.733 33.0295C109.989 33.537 109.522 34.4492 108.759 34.8737C105.986 36.4162 100.566 31.459 99.2418 29.0939C102.274 30.1474 104.664 28.8062 107.991 28.6415C109.876 28.5651 111.231 28.7053 112.715 28.6971C114.274 28.6724 115.796 28.223 117.119 27.3971C116.287 29.2722 114.841 30.8071 113.018 31.7475C112.288 32.1856 111.423 32.5336 110.733 33.0295Z" fill="#82B34F"/>
<path d="M110.167 33.5127C108.499 32.9946 106.803 32.5717 105.088 32.2462C104.425 32.0715 103.773 31.8573 103.136 31.605C104.201 31.8344 105.02 31.8808 105.865 32.0545C108.707 32.6691 110.757 32.9763 113.783 31.2368C113.56 31.3891 113.321 31.5526 113.073 31.7218C112.371 32.2012 111.478 32.5079 110.782 32.9955C110.561 33.1478 110.355 33.3209 110.167 33.5127Z" fill="#789F43"/>
<path d="M99.2417 29.094C102.274 30.1475 104.664 28.8062 107.99 28.6416C109.876 28.5651 111.231 28.7053 112.715 28.6971C114.273 28.6724 115.796 28.223 117.119 27.3972C117.037 27.5617 116.964 27.7206 116.88 27.863C116.525 28.1055 116.144 28.2928 115.752 28.4997C113.489 29.7065 110.918 29.2941 108.439 29.5463C107.505 29.432 106.561 29.4379 105.629 29.5638C104.599 29.7223 101.817 29.4787 101.487 30.2368C101.157 30.9949 103.308 33.0983 104.007 33.82C102.109 32.5914 100.486 30.982 99.2417 29.094Z" fill="#A5D46E"/>
<path d="M131.855 25.3745C131.041 26.984 130.534 27.8024 128.724 28.4327C127.746 28.7737 125.356 29.3162 124.9 28.4892C124.192 27.7751 123.566 26.9837 123.035 26.1301C122.705 25.6905 122.337 25.2815 121.934 24.9081C121.752 24.7659 120.571 24.3131 120.506 24.2001C119.037 21.8727 123.758 21.87 124.874 21.2169C125.99 20.5637 126.412 20.0459 127.948 20.026C129.217 20.121 130.491 20.1134 131.759 20.003C133.536 19.6975 136.802 18.5212 138.074 20.6677C134.675 20.1064 133.196 22.7635 131.855 25.3745Z" fill="#82B34F"/>
<path d="M123.184 26.0646L122.906 26.0123C122.615 25.6182 122.283 25.2565 121.915 24.9333C121.797 24.8618 121.674 24.8001 121.546 24.7488C121.732 24.755 121.915 24.7391 122.104 24.7314C124.93 25.4655 127.387 24.6836 130.17 23.2797C130.442 23.0936 130.752 22.9792 131.058 22.8066C128.718 24.6466 125.901 26.7638 123.184 26.0646Z" fill="#789F43"/>
<path d="M128.104 20.8037C126.029 21.3121 121.618 21.733 120.395 23.985C119.432 21.9182 123.811 21.8944 124.88 21.2251C126.095 20.4683 126.417 20.0542 127.954 20.0343C129.223 20.1293 130.497 20.1216 131.765 20.0113C133.542 19.7058 136.807 18.5294 138.079 20.6759C137.821 20.6344 137.571 20.6234 137.33 20.6066C136.213 19.8924 134.863 19.638 133.563 19.8969C131.742 20.2084 129.86 20.3431 128.104 20.8037Z" fill="#9FCC51"/>
</g>
<defs>
<clipPath id="clip0_253_2818">
<rect width="95.56" height="150.12" fill="white" transform="matrix(0.563932 0.825821 0.825821 -0.563932 0 84.6575)"/>
</clipPath>
</defs>
</svg>
