<svg width="97" height="177" viewBox="0 0 97 177" fill="none" xmlns="http://www.w3.org/2000/svg">
<g clip-path="url(#clip0_253_2671)">
<path d="M34.7942 31.9418L34.6176 31.8093C34.6669 31.865 34.727 31.9101 34.7942 31.9418Z" fill="#6DB133"/>
<path d="M32.3746 26.7757C30.7585 25.3715 28.8951 24.197 27.1996 22.8547C23.9956 20.2761 20.5155 18.0607 16.8231 16.2491C13.432 14.5889 9.88194 12.019 6.17291 11.2242C8.04584 12.6761 9.82996 14.2391 11.5157 15.9047C14.8538 19.0927 18.6865 22.1924 22.3513 25.1507C24.3231 26.6153 26.4422 27.8702 28.6744 28.8951C30.6525 29.9106 32.8161 31.4826 34.9444 32.0566L34.7942 31.9418C34.727 31.9101 34.6669 31.865 34.6176 31.8094C34.6669 31.865 34.727 31.9101 34.7942 31.9418C34.9796 32.0502 35.1786 32.1334 35.3859 32.1891C36.2955 30.9174 33.346 27.5881 32.3746 26.7757Z" fill="#6DB133"/>
<path d="M31.9861 29.4867C28.8767 27.9299 25.9201 26.085 23.1551 23.9762C17.8565 19.7726 12.9111 15.0922 7.02079 11.7187C6.81025 11.6026 6.62189 11.4501 6.46443 11.2683L6.19067 11.2065C8.06562 12.6528 9.8499 14.2129 11.5334 15.8781C14.8716 19.0661 18.7042 22.1658 22.3779 25.133C24.3457 26.5963 26.4621 27.8485 28.6921 28.8686C30.6703 29.8841 32.8427 31.4561 34.9621 32.0301L34.812 31.9241C34.9108 31.9801 35.0142 32.0274 35.1211 32.0654C34.2418 31.0222 33.1794 30.1483 31.9861 29.4867Z" fill="#5F9E24"/>
<path d="M31.4826 29.9284C29.9813 28.8952 27.9502 28.1004 26.3606 27.2261C22.7007 25.1246 19.316 22.5764 16.2844 19.6403C10.9858 14.2004 5.96094 11.5599 8.33649 12.2664C11.3888 13.5724 14.3665 15.0465 17.2558 16.6819C21.4771 19.0309 26.0869 21.9805 26.4843 22.2631C23.48 19.9135 20.2392 17.8832 16.8143 16.205C13.4232 14.5448 9.87309 11.975 6.16406 11.1802C8.03699 12.6321 9.82111 14.195 11.5068 15.8606C14.845 19.0486 18.6776 22.1483 22.3425 25.1067C24.3143 26.5712 26.4334 27.8261 28.6655 28.851C30.6437 29.8666 32.8073 31.4385 34.9355 32.0125L34.7854 31.8977C34.9478 31.9977 35.1231 32.075 35.3065 32.1273C33.9606 31.5259 32.6794 30.7891 31.4826 29.9284Z" fill="#82D13E"/>
<path opacity="0.48" d="M32.2686 26.7051L31.7122 26.237C30.0343 27.0495 28.0385 26.7669 26.078 25.9986C24.4708 25.3628 22.8017 24.8153 21.168 24.2324L22.2454 25.1155C24.2171 26.5776 26.3363 27.8296 28.5684 28.851C30.5377 29.8666 32.7101 31.4385 34.8296 32.0125L34.7413 31.9507L34.9797 32.0655L35.121 32.1185H35.2181H35.2976C36.1895 30.8557 33.24 27.5882 32.2686 26.7051Z" fill="#3E5422"/>
<path d="M36.4545 23.0754C35.5714 24.2764 32.3745 29.3189 34.6264 30.6612C34.8119 31.8976 34.9532 32.6041 35.9511 33.1074C37.0903 33.6903 37.7173 31.8093 38.6004 30.4581C39.6776 28.9983 40.8332 27.598 42.0622 26.2634C44.4554 23.4993 46.1156 21.9539 48.4912 19.0573C50.8681 16.336 52.4882 13.0379 53.1893 9.49332C53.7986 6.33182 55.1233 3.1703 55.7768 -0.0177002C51.7233 5.47519 46.0096 9.77591 42.0004 15.5337C40.2253 18.0947 38.2825 20.5233 36.4545 23.0754Z" fill="#6DB133"/>
<path d="M40.8612 17.1322C39.4129 19.128 37.894 21.0797 36.4457 23.0755C35.5626 24.2765 32.3657 29.319 34.6177 30.6613C34.8031 31.8976 34.9444 32.6041 35.9423 33.1075C37.0815 33.6903 37.7085 31.8093 38.5916 30.4582C39.6688 28.9983 40.8244 27.598 42.0534 26.2635C44.3848 23.6142 46.0185 22.0334 48.2881 19.2958C44.7557 22.2983 41.3292 25.4775 38.7947 29.319C36.9225 32.1626 35.748 31.6504 35.0592 29.8224C34.1761 27.4115 37.0903 23.1549 38.3885 20.9914C39.1656 19.6844 40.0487 18.4039 40.8612 17.1322Z" fill="#6AAA2A"/>
<path d="M35.4654 32.7895C37.0638 25.9366 41.1261 20.5232 45.471 15.1275C47.4785 12.7182 49.3563 10.2037 51.0964 7.5946C49.4096 9.74054 47.6523 11.8158 46.0185 13.8735C41.8326 19.1721 36.4545 24.3912 34.6883 31.0939C34.7332 31.7346 35.0094 32.3372 35.4654 32.7895Z" fill="#5F9E24"/>
<path d="M52.2002 11.5068C51.4862 13.5265 50.6667 15.5074 49.7452 17.4412C51.4727 15.0826 52.6496 12.3667 53.1893 9.49332C53.7986 6.33182 55.1232 3.1703 55.7767 -0.0177002C52.3591 4.61858 47.7582 8.40709 43.9962 12.9286C44.2169 12.699 44.4377 12.4782 44.6585 12.2398C46.3275 10.4735 49.5332 7.66528 51.3082 5.99622C52.8007 4.58326 55.5825 0.264893 54.9731 1.94279C54.9025 2.15473 52.4121 10.871 52.2002 11.5068Z" fill="#82D13E"/>
<path opacity="0.59" d="M38.6004 30.476C39.6776 29.0161 40.8332 27.6158 42.0622 26.2812L42.4949 25.7779L42.6627 25.5924L42.9188 25.3009L43.0601 25.1508L43.3338 24.8418L43.4045 24.7623C44.0227 24.0823 44.5967 23.4729 45.1707 22.8459C44.7693 22.9732 44.359 23.0706 43.9432 23.1374C41.9385 23.4465 40.9936 23.5524 39.7926 25.3451C39.0704 26.3294 38.2278 27.2194 37.2846 27.9944C36.4681 29.4293 36.1367 31.0895 36.3397 32.7279C36.3527 32.8895 36.3527 33.0519 36.3397 33.2135C37.2404 33.2312 37.8056 31.6417 38.6004 30.476Z" fill="#3E5422"/>
<path d="M17.6532 26.705C14.4387 26.4754 6.71155 27.9149 5.1308 29.6988C6.1552 29.3897 7.1796 29.0011 8.24815 28.7627C10.2814 28.1469 12.4354 28.0437 14.5182 28.4624C16.5846 29.0276 18.3862 30.2816 20.4703 30.838C22.4268 31.2794 24.4571 31.2794 26.4136 30.838C27.8972 30.5907 31.6239 29.5928 32.2067 31.7211C33.0898 30.7232 30.8733 29.4956 30.0961 29.0718C26.3959 27.0318 21.6625 27.0318 17.6532 26.705Z" fill="#568E20"/>
<path d="M24.1529 28.8598L23.1903 28.8157C23.8085 28.9746 28.0297 29.3279 29.1248 29.7518C29.801 29.9786 30.452 30.2745 31.0676 30.6349C31.3587 30.6797 31.623 30.8306 31.8094 31.0587C31.3749 30.5172 30.8053 30.0999 30.158 29.8489C28.2281 29.1763 26.1966 28.8417 24.1529 28.8598Z" fill="#75BC38"/>
<path d="M17.6531 26.705C14.8546 26.6756 12.0659 27.0412 9.36963 27.7912C12.7113 27.3539 16.092 27.3005 19.4458 27.6323C23.2608 28.0032 28.6742 28.3034 32.1537 30.626C31.5588 29.9997 30.8633 29.4774 30.0961 29.0806C26.3959 27.0318 21.6624 27.0318 17.6531 26.705Z" fill="#629F2E"/>
<path d="M9.31672 27.8442C7.39156 28.3564 5.78429 29.0188 5.1308 29.7341C6.1552 29.425 7.1796 29.0364 8.24815 28.798C10.2814 28.1822 12.4354 28.0791 14.5182 28.4978C16.5846 29.063 18.3862 30.3169 20.4703 30.8733C22.4268 31.3147 24.4571 31.3147 26.4136 30.8733C26.7933 30.8115 27.2967 30.6967 27.9237 30.5995C26.7418 30.6126 25.5619 30.7012 24.3913 30.8645C21.6536 30.8645 19.596 30.0874 17.0439 29.0983C14.1358 27.916 10.9168 27.7357 7.89491 28.5861C7.62115 28.7009 7.01183 28.5949 9.31672 27.8442Z" fill="#75BC38"/>
<path d="M46.8133 44.1374C46.0097 44.0844 46.0715 43.687 45.2149 43.7135C44.3789 43.6475 43.539 43.7744 42.7599 44.0844C42.0534 44.3228 41.6736 43.9343 40.8435 44.3405C41.0113 47.8111 49.6216 47.3166 49.0122 44.526C48.5265 43.7842 47.6257 44.1904 46.8133 44.1374Z" fill="#1D490E"/>
<path d="M36.7106 96.1785C36.6991 99.8442 37.117 103.499 37.9558 107.067C38.2384 108.121 38.6383 109.14 39.148 110.105C39.8603 110.167 40.5565 110.352 41.2056 110.653L41.3292 110.705C40.7464 109.231 40.1459 107.756 39.722 106.343C38.6727 102.428 38.2847 98.3663 38.5739 94.324C39.0397 86.0855 38.1598 77.8263 35.9688 69.8709V68.9878C35.0327 71.5841 35.2623 73.5181 35.8805 76.0526C37.9028 84.1065 36.7371 86.2524 36.7106 96.1785Z" fill="#9BC221"/>
<path d="M22.4573 59.6535C19.7285 59.1943 13.0081 59.8037 11.5157 61.2078C12.3988 61.0223 13.3261 60.7751 14.2533 60.6514C16.0392 60.2917 17.8861 60.3766 19.6314 60.8987C21.3976 61.5433 22.7929 62.762 24.5326 63.3979C26.1653 63.9478 27.9016 64.1199 29.6105 63.9012C30.8998 63.8041 34.1584 63.2478 34.494 65.1199C35.2888 64.3251 33.5226 63.1064 32.8956 62.6737C29.9019 60.5896 25.8573 60.2629 22.4573 59.6535Z" fill="#64B150"/>
<path d="M22.4573 59.6535C20.0698 59.4028 17.6589 59.489 15.2953 59.9096C18.1845 59.8081 21.0758 60.0333 23.9144 60.5807C27.1466 61.1989 31.7476 61.8877 34.5117 64.1131C34.0605 63.5246 33.5071 63.0221 32.8779 62.6295C29.9019 60.5896 25.8572 60.2628 22.4573 59.6535Z" fill="#83BF5C"/>
<path d="M15.2424 59.9185C13.9146 60.0427 12.6363 60.4849 11.5157 61.2078C12.3988 61.0224 13.3261 60.7751 14.2533 60.6514C16.0392 60.2917 17.8861 60.3766 19.6314 60.8987C21.3976 61.5434 22.7929 62.762 24.5326 63.3979C26.1653 63.9478 27.9016 64.1199 29.6105 63.9013C29.946 63.9013 30.4141 63.8218 30.9263 63.7864C29.9218 63.7024 28.9129 63.6847 27.9061 63.7335C25.7414 63.4511 23.6547 62.7395 21.7685 61.6405C19.3765 60.3987 16.6392 59.9886 13.9884 60.4748C13.7323 60.519 13.2112 60.3865 15.2424 59.9185Z" fill="#B2E0A6"/>
<path d="M34.5645 66.9392C34.6633 66.9444 34.7583 66.9782 34.8383 67.0363C34.9624 66.5082 34.9441 65.9566 34.7853 65.4379C34.679 64.9694 34.4325 64.5443 34.0788 64.2192C33.9047 64.0481 33.722 63.886 33.5313 63.7335C33.3261 63.5574 33.1008 63.4062 32.8601 63.2831C31.2665 62.5532 29.5565 62.1107 27.8088 61.9761L26.9963 61.8613C27.5085 62.0379 31.0851 62.6826 31.9859 63.1242C32.3355 63.2631 32.6699 63.4377 32.9838 63.6452C33.1339 63.7777 33.8669 64.2457 33.9817 64.3958C34.3576 64.8054 34.5901 65.3261 34.644 65.8794C34.6572 66.0705 34.6572 66.2624 34.644 66.4535C34.6089 66.6138 34.5824 66.776 34.5645 66.9392Z" fill="#9BC221"/>
<path d="M35.3771 68.4316C33.4166 67.3189 31.0146 71.8492 30.4847 73.006C29.372 75.4434 28.3652 77.9337 27.2084 80.3358C24.612 85.758 23.8261 91.8161 21.4417 97.203C23.5435 95.3662 25.3362 93.0348 27.4468 91.2421C29.797 89.2181 31.5726 86.6109 32.5953 83.6828C33.7522 80.6891 34.2025 78.7992 35.2446 75.832C35.7257 74.353 36.2828 72.8999 36.9137 71.4783C37.523 70.2331 38.6799 68.9879 37.7968 68.3786C36.9137 67.7693 36.375 68.043 35.3771 68.4316Z" fill="#6DB133"/>
<path d="M32.6836 83.4443C33.7787 80.5831 34.2291 78.7109 35.2446 75.832C35.7257 74.353 36.2828 72.8999 36.9137 71.4783C37.5231 70.2331 38.6799 68.9879 37.7968 68.3786C36.9137 67.7693 36.4103 68.043 35.4124 68.4316C33.4519 67.3189 31.0499 71.8492 30.52 73.006C29.6369 74.9312 28.8245 76.8917 27.9502 78.808C28.5419 77.6423 29.1512 76.4855 29.7959 75.3374C30.8645 73.4388 32.7896 69.4383 34.9797 69.1028C36.6311 68.8467 37.523 69.5089 36.1896 72.1053C34.4912 75.7004 33.3108 79.518 32.6836 83.4443Z" fill="#6AAA2A"/>
<path d="M27.6853 84.0535C26.8022 86.1464 26.0339 88.3365 25.142 90.5001C26.3558 88.1 27.4377 85.6354 28.383 83.1174C30.5907 77.5803 32.9133 72.2552 37.3553 68.1576C36.8167 68.0042 36.2403 68.0577 35.7392 68.3077C31.4473 72.4583 29.8048 78.7019 27.6853 84.0535Z" fill="#5F9E24"/>
<path d="M25.9191 83.7093C25.9985 83.4532 26.078 83.1882 26.1487 82.9321C24.3825 87.6479 23.4994 92.6904 21.4771 97.2031C23.5788 95.3662 25.3715 93.0348 27.4821 91.2421C29.3771 89.6171 30.8856 87.5897 31.8977 85.3077C30.8495 86.8211 29.7173 88.2746 28.5065 89.6614C28.1268 90.1029 22.6692 95.64 22.5544 95.7725C21.5654 96.9382 23.6053 93.0348 24.0292 91.3128C24.5326 89.2905 25.2832 85.7051 25.9191 83.7093Z" fill="#82D13E"/>
<path opacity="0.48" d="M36.9137 71.4783C37.523 70.2332 38.6799 68.988 37.7968 68.3786C37.66 68.2859 37.5115 68.2116 37.3552 68.1579H37.1874C37.0789 68.1453 36.9693 68.1453 36.8607 68.1579H36.6399H36.5339H36.3132L36.1719 68.202H36.0482L35.8628 68.2638H35.7656L35.5184 68.3521C35.2623 68.882 34.9974 69.403 34.7324 69.9241C35.0069 70.0811 35.2419 70.2987 35.4195 70.5605C35.597 70.8222 35.7124 71.1211 35.7568 71.4342C35.8773 72.41 35.8921 73.3959 35.801 74.3749C36.1231 73.3913 36.4945 72.4246 36.9137 71.4783Z" fill="#48602C"/>
<path opacity="0.48" d="M24.7534 87.0738C25.2744 86.1907 25.7954 85.3076 26.3076 84.4245C27.8914 81.4517 29.6611 78.5819 31.6062 75.8319C32.3922 74.781 33.2047 73.7566 34.0083 72.7322C34.9974 71.2133 35.9423 69.6767 36.8342 68.0959H36.7282H36.5869H36.5163H36.2955L36.1542 68.1401H36.0306L35.8451 68.2019H35.748L35.4213 68.3256C33.4608 67.2129 31.0587 71.7432 30.5289 72.9C30.2551 73.5005 29.9813 74.1099 29.7164 74.7192V74.7899C29.1512 76.0969 28.586 77.4392 28.0032 78.702C27.7736 79.2142 27.5351 79.7264 27.2879 80.2297C26.8905 81.1129 26.5284 81.943 26.1928 82.8261C25.6011 84.3008 25.1596 85.6785 24.7534 87.0738Z" fill="#48602C"/>
<path d="M40.2606 72.6263C39.9957 71.5578 38.6357 68.0165 37.3022 68.2108C37.2646 68.3907 37.2497 68.5747 37.2581 68.7583V68.9526V68.7583V68.6082C36.8695 70.4539 37.2139 72.7235 37.2581 74.631C37.1638 76.7344 37.2911 78.8419 37.6378 80.9187C38.4591 84.8838 39.3245 89.0255 40.4549 92.814C41.0643 94.7557 41.5597 96.7313 41.9385 98.7308C42.8216 95.587 42.2123 91.8691 42.2653 88.637C42.3321 85.1054 42.0033 81.5775 41.285 78.1192C40.87 76.3 40.7022 74.3925 40.2606 72.6263Z" fill="#6DB133"/>
<path d="M37.2581 68.7583C37.2489 68.8227 37.2489 68.8882 37.2581 68.9526V68.7583Z" fill="#6DB133"/>
<path d="M38.0352 71.8669C37.9923 70.7052 37.7348 69.5614 37.2757 68.4934C37.2669 68.5903 37.2669 68.6879 37.2757 68.7848V68.6258C36.8872 70.4715 37.2757 72.7411 37.2757 74.6486C37.1806 76.752 37.3079 78.8596 37.6555 80.9363C38.4768 84.9014 39.351 89.0432 40.4726 92.8405C41.0851 94.7783 41.5805 96.7512 41.9562 98.7485L42.0092 98.5189C41.9353 98.3264 41.8907 98.124 41.8767 97.9184C41.6206 92.0987 39.9869 86.438 38.8477 80.795C38.2944 77.8514 38.0224 74.8619 38.0352 71.8669Z" fill="#5F9E24"/>
<path d="M37.2581 68.7582V68.608C36.8696 70.4537 37.214 72.7233 37.2581 74.6308C37.1639 76.7342 37.2912 78.8417 37.6379 80.9185C38.4591 84.8836 39.3246 89.0253 40.455 92.8138C41.0644 94.7555 41.5598 96.7311 41.9386 98.7306C42.8217 95.5868 42.2124 91.8689 42.2653 88.6368C42.3323 85.3606 42.0511 82.0865 41.4264 78.8697C41.4705 79.3024 41.9297 83.9652 42.0799 88.1069C42.2008 90.9533 42.1654 93.8041 41.9739 96.6465C41.5765 98.7483 41.5235 93.9001 39.4482 87.7095C38.3821 84.2448 37.7473 80.6618 37.5584 77.0417C37.6218 75.3873 37.6011 73.7309 37.4966 72.0786C37.3016 70.8199 37.2336 69.5448 37.2935 68.2725C37.2638 68.4326 37.252 68.5954 37.2581 68.7582Z" fill="#82D13E"/>
<path d="M28.7186 64.8374C26.8729 64.8374 25.0007 65.0582 23.1462 65.1112C19.6147 65.1876 16.1024 65.6526 12.6726 66.4976C9.52879 67.2748 5.7756 67.5397 2.90552 69.0763C4.93728 68.9942 6.97215 69.0355 8.99892 69.1999C12.9464 69.456 17.1764 69.3765 21.2211 69.2971C23.3123 69.1717 25.3844 68.8254 27.4028 68.2638C29.2573 67.8488 31.5534 67.681 33.2666 66.8862H33.1076C33.2907 66.8488 33.4686 66.7895 33.6375 66.7096C33.5757 65.3938 29.8137 64.8551 28.7186 64.8374Z" fill="#6DB133"/>
<path d="M29.9548 66.8331C27.0578 67.5328 24.1008 67.9557 21.1238 68.096C15.3306 68.2549 9.47566 67.9105 3.75315 68.9791C3.54824 69.0098 3.33991 69.0098 3.135 68.9791C3.06435 68.9791 2.99368 69.0409 2.92303 69.085C4.95484 69.0073 6.98945 69.0486 9.01644 69.2087C12.9639 69.4648 17.194 69.3853 21.2474 69.3058C23.3384 69.1841 25.4106 68.8407 27.4291 68.2814C29.2925 67.8575 31.5885 67.6898 33.3018 66.9038H33.1428L33.4254 66.8331C32.2784 66.6201 31.1019 66.6201 29.9548 66.8331Z" fill="#5F9E24"/>
<path d="M29.8666 67.3984C28.3124 67.5485 26.5462 68.1402 25.0096 68.4493C21.4479 69.0938 17.8199 69.2925 14.2092 69.0409C7.70959 68.3963 2.96732 69.4206 4.93664 68.5729C7.66454 67.7518 10.4359 67.0826 13.2378 66.5683C17.3089 65.7823 21.954 65.1995 22.3868 65.1465C19.1103 65.2546 15.8543 65.7074 12.6726 66.4976C9.52879 67.2747 5.7756 67.5396 2.90552 69.0762C4.93728 68.9942 6.97215 69.0355 8.99892 69.1999C12.9464 69.456 17.1764 69.3765 21.2211 69.297C23.3123 69.1717 25.3844 68.8253 27.4028 68.2638C29.2573 67.8487 31.5534 67.681 33.2666 66.8862H33.1076C33.2694 66.8562 33.4267 66.8058 33.5757 66.7361C32.3662 67.0871 31.1229 67.3091 29.8666 67.3984Z" fill="#82D13E"/>
<path d="M9.00765 69.1999C12.9551 69.456 17.1852 69.3765 21.2298 69.297C22.7706 69.2424 24.3012 69.0234 25.7954 68.6435L24.1793 68.7142C20.2319 68.829 12.1603 68.935 8.16869 68.7849C3.85915 68.6171 10.818 66.895 10.818 66.895C8.16869 67.4072 5.39576 67.7781 3.09969 68.9614C3.02904 68.9614 2.9584 69.0233 2.88776 69.0674H2.9319C4.95797 68.989 6.98693 69.0333 9.00765 69.1999Z" fill="#F2E75F"/>
<path d="M6.49091 69.0938C6.08379 69.0816 5.68126 69.004 5.29871 68.8642C5.03907 68.766 4.80399 68.6123 4.60989 68.4138C4.11847 68.585 3.63778 68.7855 3.17043 69.0143C3.09978 69.0143 3.02914 69.0762 2.9585 69.1203H3.00264C4.06236 69.0055 5.27223 69.0143 6.49091 69.0938Z" fill="#E8C325"/>
<path opacity="0.48" d="M33.6903 66.736C33.6903 66.2945 33.2311 65.95 32.6394 65.6763C31.1733 65.9252 29.7417 66.3461 28.3741 66.9303C27.2932 67.4687 26.2515 68.0825 25.2567 68.7671L25.8131 68.6435L27.4556 68.2726C29.319 67.8487 31.6151 67.6809 33.3283 66.895H33.2135H33.3901H33.4431L33.6285 66.8243L33.6903 66.736Z" fill="#48602C"/>
<path d="M33.92 66.6741C32.5158 64.9079 28.6213 68.2107 27.6764 69.0849C25.7336 70.9306 23.8703 72.8735 21.9009 74.675C17.4854 78.7373 14.4652 84.0889 10.2528 88.16C12.9021 87.2769 15.4278 85.7579 18.0506 84.8748C20.9847 83.8751 23.6039 82.1207 25.6453 79.7881C27.8354 77.4391 28.9569 75.8495 31.041 73.4916C31.9859 72.4231 33.1693 71.0189 34.2114 70.074C35.2535 69.1291 36.7724 68.4226 36.1542 67.513C35.536 66.6035 34.9885 66.6918 33.92 66.6741Z" fill="#80B17D"/>
<path d="M33.2753 70.3742C30.3677 73.0799 27.8583 76.184 25.8219 79.5938C27.8972 77.3507 29.0187 75.7876 31.041 73.4916C31.9859 72.423 33.1693 71.0189 34.2114 70.074C35.2534 69.129 36.7724 68.4226 36.1542 67.513C35.536 66.6034 34.9885 66.6917 33.9199 66.6299C32.5158 64.8637 28.6213 68.1665 27.6764 69.0408C26.1398 70.4979 24.6562 72.0168 23.1284 73.4563C24.1087 72.5732 25.1066 71.743 26.1398 70.9218C27.8354 69.5618 31.1117 66.568 33.2753 67.0802C34.9002 67.5218 35.4742 68.4579 33.2753 70.3742Z" fill="#6DAA66"/>
<path d="M20.9207 78.2782C19.3576 79.9031 17.7857 81.634 16.1608 83.3119C18.1842 81.5372 20.1093 79.6534 21.9274 77.6689C26.0339 73.3594 30.1756 69.2882 35.8275 67.1423C35.3828 66.7979 34.8246 66.634 34.2644 66.6831C28.7715 68.9438 24.9211 74.1188 20.9207 78.2782Z" fill="#5E9E59"/>
<path d="M19.4106 77.3068L19.9228 76.6621C16.5052 80.38 13.8117 84.7248 10.2528 88.1424C12.9021 87.2593 15.4278 85.7404 18.0506 84.8573C20.43 84.0725 22.6008 82.7592 24.4001 81.0158C22.8624 82.0266 21.2704 82.9523 19.6314 83.7887C19.1192 84.0537 11.9837 87.1533 11.8335 87.2328C10.4736 87.9481 13.8294 85.0869 14.8626 83.7004C16.0725 81.9784 18.1036 78.9228 19.4106 77.3068Z" fill="#9BD197"/>
<path d="M44.0755 176.982C51.9528 176.735 51.3611 174.006 50.5399 172.417C47.343 166.235 48.65 139.274 48.9238 132.924C49.0916 129.074 49.0033 121.206 49.4448 113.84C49.4978 113.037 51.0962 109.972 48.9679 110.052C47.0516 111.818 41.8413 110.679 39.766 109.39C38.0528 112.419 40.7462 114.238 40.9229 118.618C41.0465 121.833 41.0907 141.058 41.1436 147.601C41.1878 153.898 41.2673 163.7 41.5057 169.803C41.7177 175.163 38.5473 177.159 44.0755 176.982Z" fill="#9BC221"/>
<path d="M41.5588 176.77C42.3762 176.986 43.2248 177.057 44.0668 176.982C46.9899 176.894 48.7384 176.461 49.754 175.869C49.8648 175.165 49.8826 174.45 49.807 173.741C49.4979 170.88 48.4647 168.142 48.0408 165.281C47.1577 159.046 47.3785 152.741 47.4756 146.471C47.5727 139.918 47.7052 133.366 48.1997 126.831C48.4294 123.749 48.1997 120.649 48.5265 117.567C48.6167 116.313 48.8417 115.073 49.1976 113.867C49.5597 112.719 50.1249 111.527 49.7098 110.335V110.246C49.4916 110.1 49.2301 110.031 48.968 110.052C47.0517 111.818 41.8414 110.679 39.7661 109.39C39.3678 110.055 39.1743 110.823 39.2097 111.597C42.4242 115.395 46.4247 113.364 47.2107 116.454C47.6169 117.285 45.4444 144.811 45.8595 157.324C45.9612 160.362 46.3486 163.384 47.0164 166.35C47.4579 168.398 48.0673 171.012 46.9634 172.964C46.3618 173.927 45.5738 174.76 44.6456 175.413C43.7175 176.067 42.6679 176.528 41.5588 176.77Z" fill="#8DAA16"/>
<path d="M39.7661 109.39C39.5969 109.689 39.4607 110.006 39.3599 110.335C40.9848 113.867 47.1488 112.887 49.9571 110.644C49.8423 110.273 49.542 110.034 48.9327 110.052C47.0517 111.792 41.8149 110.679 39.7661 109.39Z" fill="#D8D7BA"/>
<path d="M48.6148 174.951C46.6279 176.135 43.0778 176.912 40.7994 175.773C40.8612 176.7 41.5765 177.062 44.0757 176.982C51.0169 176.762 51.3878 174.625 50.8049 173.026C50.1999 173.797 49.4573 174.45 48.6148 174.951Z" fill="#1D490E"/>
<path d="M42.9364 174.254C42.9806 170.721 44.3229 166.88 44.6496 163.33C44.994 159.515 44.0933 155.832 43.8813 152.123C43.5927 144.649 43.6841 137.166 44.1551 129.701C44.367 125.056 44.2081 119.351 42.6627 115.183C42.1324 114.992 41.6185 114.759 41.1261 114.485C40.4108 115.13 42.1151 118.018 42.2741 119.183C42.407 121.05 42.4246 122.923 42.3271 124.791C42.3271 128.968 42.3271 133.154 42.4242 137.331C42.5037 141.747 42.0357 146.039 42.2829 150.525C42.5302 155.011 43.2544 159.356 42.8481 163.771C42.592 166.606 41.8149 171.648 42.9364 174.254Z" fill="#BAD740"/>
<path d="M42.7687 111.341C50.6548 111.244 50.1161 108.516 49.3213 106.926C46.2481 100.744 48.1114 73.7566 48.5088 67.416C48.7473 63.5657 48.8268 55.6973 49.3919 48.341C49.4538 47.5374 51.114 44.5172 48.9857 44.5525C47.0341 46.2481 41.8503 45.0294 39.8015 43.6694C38.0353 46.6631 40.6846 48.5353 40.764 52.9155C40.8259 56.13 40.4814 75.3551 40.402 81.8989C40.3225 88.1954 40.2077 97.9978 40.3225 104.109C40.4461 109.469 37.2404 111.403 42.7687 111.341Z" fill="#9BC221"/>
<path d="M47.9348 61.2784C48.2262 58.2052 48.0849 55.0967 48.447 52.0323C48.5641 50.7785 48.8157 49.541 49.1976 48.341C49.5774 47.2018 50.1602 46.0184 49.7805 44.8086V44.7203C49.5652 44.5666 49.3022 44.4945 49.0387 44.5171C47.087 46.2127 41.9032 44.994 39.8544 43.634C39.4402 44.2915 39.2283 45.0561 39.2451 45.8329C42.3889 49.6921 46.4335 47.7317 47.193 50.8402C47.5816 51.7233 44.8616 79.1612 45.0117 91.6836C45.0517 94.7188 45.3769 97.7434 45.9831 100.718C46.3805 102.775 46.9457 105.407 45.7977 107.332C45.1781 108.283 44.3745 109.1 43.4342 109.736C42.4938 110.371 41.4358 110.812 40.3224 111.032C41.137 111.264 41.9854 111.354 42.8305 111.297C45.7447 111.297 47.5109 110.865 48.5353 110.299C48.6567 109.597 48.6893 108.882 48.6324 108.171C48.3763 105.301 47.4049 102.546 47.0605 99.6845C46.3187 93.4233 46.6543 87.1356 46.8751 80.8568C47.0429 74.3925 47.3078 67.8046 47.9348 61.2784Z" fill="#8DAA16"/>
<path d="M39.828 43.6782C39.6533 43.9554 39.5111 44.2517 39.4041 44.5613C40.9583 48.1379 47.1312 47.2813 50.0013 45.0912C49.8865 44.7203 49.5951 44.473 48.9857 44.4819C47.0606 46.2216 41.8767 45.0029 39.828 43.6782Z" fill="#D8D7BA"/>
<path d="M47.3519 109.407C45.3385 110.538 41.7796 111.244 39.5188 110.07C38.883 110.52 40.2077 111.686 42.8393 111.606C49.7893 111.386 50.1249 109.125 49.5862 107.518C48.9616 108.277 48.2046 108.917 47.3519 109.407Z" fill="#1D490E"/>
<path d="M41.6913 108.586C41.8061 105.054 43.2279 101.247 43.6165 97.7063C44.0404 93.9001 43.2102 90.191 43.0778 86.482C42.9389 79.0065 43.1806 71.5287 43.8019 64.0777C44.111 59.4238 44.0669 53.7278 42.6009 49.5242C42.0741 49.325 41.5658 49.0797 41.082 48.7913L41.3027 49.0209C40.5698 49.6567 42.0092 52.3148 42.1417 53.5158C42.2324 55.3848 42.2088 57.2575 42.071 59.1236C42.0181 63.3006 41.9209 67.4777 41.9121 71.6636C41.9121 76.0791 41.3557 80.3622 41.5147 84.8483C41.6736 89.3345 42.3006 93.75 41.8061 98.0948C41.497 100.93 40.6227 105.954 41.6913 108.586Z" fill="#BAD740"/>
<path d="M48.2792 107.624C47.8119 108.296 47.1874 108.845 46.46 109.222C46.0461 109.364 45.6244 109.481 45.1972 109.575C44.8215 109.734 44.431 109.855 44.0315 109.937C43.6001 109.986 43.1647 109.986 42.7333 109.937C42.3094 109.884 42.0975 109.672 41.6736 109.734C41.306 109.805 40.9284 109.805 40.5609 109.734C40.2076 109.664 39.8986 109.399 39.5541 109.337C39.4545 109.545 39.4176 109.779 39.4482 110.008C39.6928 110.234 39.9525 110.444 40.2253 110.635C40.6384 110.785 41.0751 110.86 41.5146 110.856C42.4259 110.979 43.3498 110.979 44.2611 110.856C45.0022 110.76 45.7152 110.511 46.354 110.123C46.6348 109.872 46.9464 109.658 47.2813 109.487C47.6691 109.403 48.0435 109.266 48.394 109.081C48.67 108.788 48.9155 108.469 49.127 108.127C49.4449 107.756 49.7186 107.924 49.5862 107.473C49.1446 106.034 48.7031 107.014 48.2792 107.624Z" fill="#D8D7BA"/>
<path d="M43.2455 176.479C44.487 176.686 45.7574 176.641 46.9811 176.346C48.009 176.107 48.9357 175.551 49.6304 174.757C50.0454 174.227 51.0345 173.485 50.7784 172.991C50.7343 172.894 50.6901 172.77 50.6371 172.637C49.9483 173.132 49.4361 173.83 48.7031 174.289C47.8381 174.813 46.8875 175.181 45.8949 175.375C45.4003 175.455 44.8528 175.375 44.3583 175.481C43.8142 175.6 43.2509 175.6 42.7069 175.481C42.4949 175.419 42.4066 175.207 42.1682 175.154C41.8989 175.148 41.6297 175.169 41.3645 175.216C41.1438 175.216 41.0289 174.925 40.7817 175.154C40.7251 175.226 40.6943 175.315 40.6943 175.406C40.6943 175.497 40.7251 175.586 40.7817 175.658L40.8612 175.737L40.7817 175.658L40.7287 175.605C40.9318 176.355 42.6097 176.373 43.2455 176.479Z" fill="#D8D7BA"/>
<path d="M40.7905 175.711L40.7111 175.631C40.7111 175.631 40.764 175.702 40.7905 175.711Z" fill="#D8D7BA"/>
<path d="M64.3959 50.0276C66.3367 48.5106 68.1126 46.7939 69.6945 44.9056C72.5911 41.1436 75.6201 37.205 78.1458 33.3016C79.4096 31.2777 80.7896 29.3287 82.2787 27.4644C78.8346 29.0893 75.9645 32.4274 73.0326 34.8383C69.8337 37.4679 66.9397 40.4479 64.4047 43.7223C63.0624 45.4267 61.517 47.0162 60.2541 48.7736C59.5035 49.8245 57.384 53.7543 58.5762 54.814C58.7647 54.7091 58.9397 54.5816 59.0973 54.4343L59.2474 54.2665L59.0973 54.4343L58.9824 54.5756C60.9429 53.5247 62.7003 51.4847 64.3959 50.0276Z" fill="#6DB133"/>
<path d="M59.1149 54.4344C59.1695 54.3827 59.2197 54.3266 59.265 54.2666L59.1149 54.4344Z" fill="#6DB133"/>
<path d="M64.4047 50.0012C66.3475 48.4866 68.1237 46.7696 69.7033 44.8792C72.6087 41.1084 75.6289 37.1786 78.1546 33.2753C79.4163 31.2479 80.7994 29.2986 82.2963 27.438L82.0402 27.5616C81.9318 27.7774 81.7852 27.9719 81.6075 28.1356C76.6268 32.7984 72.856 38.5562 68.6612 43.9166C66.4378 46.6285 63.9629 49.1241 61.2697 51.37C60.2674 52.2949 59.4441 53.3966 58.8411 54.6198C58.9369 54.5591 59.0257 54.488 59.106 54.4079L58.9913 54.5492C60.9518 53.4983 62.7091 51.4318 64.4047 50.0012Z" fill="#5F9E24"/>
<path d="M64.3959 50.0276C66.3367 48.5106 68.1126 46.7939 69.6945 44.9056C72.5911 41.1436 75.6201 37.2049 78.1458 33.3016C79.4096 31.2777 80.7895 29.3287 82.2787 27.4644C78.8346 29.0893 75.9645 32.4274 73.0326 34.8383C70.0653 37.2767 67.3629 40.0206 64.9699 43.0246C65.3231 42.6625 69.1205 38.6974 72.7059 35.4123C75.1491 33.1336 77.7201 30.996 80.4065 29.0098C82.5701 27.7646 78.2959 31.509 74.3573 38.0969C72.0789 41.688 69.3615 44.9809 66.268 47.8993C64.7291 49.0975 63.2552 50.3769 61.8525 51.732C60.8836 52.8648 59.8005 53.8946 58.6204 54.8052C58.7865 54.7123 58.9407 54.5997 59.0796 54.4696L58.9648 54.6109C60.9429 53.5247 62.7003 51.4847 64.3959 50.0276Z" fill="#82D13E"/>
<path opacity="0.48" d="M64.3782 49.966C66.3193 48.4494 68.0953 46.7326 69.6768 44.844L70.3126 44.0227C66.0737 44.7557 62.2764 46.045 59.8302 49.7982C59.4505 50.3987 59.0884 50.9992 58.7263 51.6086C58.2141 52.8891 57.9492 54.196 58.5585 54.7436H58.638L58.744 54.6817L58.8588 54.6023C58.9336 54.5519 59.0045 54.4958 59.0708 54.4345L59.0001 54.5228C60.9164 53.4631 62.6738 51.432 64.3782 49.966Z" fill="#48602C"/>
<path d="M41.8944 52.3149C38.6976 52.7477 31.4385 55.759 30.2728 57.8432C31.2 57.3221 32.1273 56.7393 33.1252 56.2712C34.9873 55.2538 37.0703 54.708 39.1921 54.6816C41.3292 54.8053 43.3515 55.6619 45.5063 55.7678C47.5122 55.8042 49.5007 55.3908 51.3259 54.558C52.7301 54.0105 56.1653 52.2619 57.1809 54.2224C57.7991 53.0655 55.4147 52.3238 54.5316 52.05C50.5047 50.796 45.8772 51.7851 41.8944 52.3149Z" fill="#5F9E24"/>
<path d="M48.6502 53.0656L47.6964 53.2246C48.3322 53.2246 52.5446 52.7123 53.7015 52.8978C54.4069 52.9764 55.1023 53.1273 55.7768 53.3482C56.0707 53.3355 56.3593 53.4296 56.5893 53.6131C56.0553 53.162 55.4131 52.8577 54.7259 52.73C52.6965 52.4879 50.6405 52.6015 48.6502 53.0656Z" fill="#82D13E"/>
<path d="M41.8944 52.3149C39.1513 52.8643 36.4995 53.7978 34.0172 55.0879C37.1958 53.9735 40.49 53.2211 43.8372 52.8448C47.6523 52.4121 53.0039 51.582 56.8895 53.1362C56.1794 52.645 55.391 52.2777 54.5581 52.05C50.5047 50.796 45.8772 51.7851 41.8944 52.3149Z" fill="#6DB133"/>
<path d="M33.9641 55.1321C32.1979 56.0152 30.7408 57.0308 30.2728 57.8609C31.2 57.3399 32.1273 56.757 33.1252 56.289C34.9873 55.2715 37.0703 54.7258 39.1921 54.6994C41.3292 54.823 43.3515 55.6796 45.5063 55.7856C47.5122 55.822 49.5007 55.4086 51.3259 54.5757L52.7477 53.9929C51.6045 54.2549 50.478 54.5852 49.3743 54.982C46.725 55.556 44.5261 55.2204 41.8238 54.7877C38.7323 54.239 35.5462 54.7296 32.7631 56.183C32.4894 56.3243 31.8712 56.3596 33.9641 55.1321Z" fill="#82D13E"/>
<path opacity="0.48" d="M57.1809 54.2402C57.2661 54.0535 57.2836 53.8429 57.2305 53.6447C57.1773 53.4465 57.0567 53.273 56.8895 53.154C56.3566 52.7592 55.7589 52.4603 55.1233 52.2709C51.5909 52.0589 50.9462 53.5514 47.9172 55.2381C47.5992 55.4147 47.2725 55.6001 46.9457 55.7679C48.4673 55.6009 49.9555 55.2081 51.3613 54.6023L51.6527 54.4875L52.7831 54.0194C54.0459 53.5249 55.6001 53.0657 56.5716 53.6044H56.6245C56.8674 53.7583 57.0606 53.9791 57.1809 54.2402Z" fill="#48602C"/>
<path d="M54.4256 83.8064C54.2667 88.4162 53.7545 93.2998 52.0501 97.6888C50.6194 101.354 48.1821 105.283 47.1135 108.957C48.8356 109.328 49.2771 108.622 49.3389 108.418C50.1337 104.656 52.8714 102.299 54.037 98.7044C55.3203 94.6223 56.1264 90.4054 56.4391 86.1378C57.2604 74.5957 56.1035 72.0082 59.1414 62.7975C60.0863 59.9362 60.519 57.7108 59.6536 54.6111L59.5918 55.6708C56.3548 64.707 54.61 74.2097 54.4256 83.8064Z" fill="#9BC221"/>
<path d="M63.7865 47.5021C63.0182 47.9525 60.8546 49.2153 61.72 50.1955C62.2676 48.0584 66.0119 48.9945 67.5043 49.2153C69.471 49.6136 71.5021 49.5654 73.4476 49.074C75.5229 48.4912 77.2891 47.2019 79.3556 46.6014C81.4282 46.1425 83.5821 46.2031 85.6256 46.7779C86.703 47.0076 87.7274 47.3785 88.7606 47.661C87.1446 45.8948 79.3909 44.5967 76.1853 44.8881C72.1848 45.2502 67.4249 45.3385 63.7865 47.5021Z" fill="#64B150"/>
<path d="M63.7865 47.502C63.0245 47.9055 62.3398 48.4407 61.7642 49.0828C65.1907 46.6896 70.5953 46.2921 74.4103 45.8594C77.7583 45.4798 81.1385 45.4798 84.4865 45.8594C81.7739 45.1806 78.98 44.8834 76.1853 44.9763C72.1848 45.2501 67.4249 45.3384 63.7865 47.502Z" fill="#83BF5C"/>
<path d="M85.97 46.6014C82.9361 45.8054 79.7237 46.0414 76.8388 47.2725C74.3042 48.3057 72.2643 49.127 69.5178 49.1623C68.3454 49.0264 67.1657 48.9615 65.9854 48.9681C66.5771 49.0475 67.1158 49.1535 67.5044 49.2153C69.4711 49.6136 71.5021 49.5653 73.4476 49.074C75.5229 48.4912 77.2891 47.2019 79.3556 46.6014C81.4282 46.1425 83.5821 46.2031 85.6256 46.7779C86.703 47.0075 87.7274 47.3784 88.7606 47.661C88.1071 46.9546 86.4734 46.3187 84.5394 45.833C86.8531 46.5572 86.2526 46.672 85.97 46.6014Z" fill="#B2E0A6"/>
<path d="M62.3912 49.4095C62.5413 49.2506 63.4244 48.7649 63.6099 48.6324C63.9898 48.4151 64.3926 48.2403 64.8109 48.1113C65.8971 47.6786 70.1095 47.2283 70.7277 47.0781L69.7739 47.1311C67.7303 47.1441 65.7044 47.5116 63.7865 48.2173C63.4951 48.3365 63.2193 48.4907 62.9652 48.6765C62.7291 48.8375 62.502 49.0114 62.2852 49.1975C61.8575 49.5451 61.5488 50.0174 61.4021 50.5487C61.1637 51.1361 61.0934 51.7782 61.199 52.4032C61.294 52.3433 61.4046 52.3126 61.5169 52.3149C61.5157 52.1228 61.501 51.9309 61.4728 51.7409C61.4719 51.5157 61.4926 51.291 61.5346 51.0698C61.6327 50.4382 61.9333 49.8555 62.3912 49.4095Z" fill="#9BC221"/>
<path d="M60.4042 53.9752C59.2826 53.4365 58.638 53.1628 57.6401 53.7103C56.5274 54.3285 57.7549 55.8827 58.3466 57.384C58.9552 59.0933 59.4769 60.8323 59.9097 62.5943C60.8634 66.1267 61.2167 68.3609 62.3029 71.9463C63.2316 75.4329 65.0586 78.6149 67.6015 81.1748C69.8887 83.4443 71.7786 86.3056 74.057 88.6281C71.7521 82.1992 71.4076 75.0548 68.8202 68.5199C67.6986 65.6322 66.7449 62.6473 65.6675 59.6889C65.173 58.3289 62.7797 52.8537 60.4042 53.9752Z" fill="#6DB133"/>
<path d="M70.8513 82.8702C68.7672 81.5985 64.1662 75.4522 62.7444 73.2886C63.7246 76.267 65.3984 78.97 67.628 81.1747C69.9152 83.4442 71.8051 86.3055 74.0835 88.628C72.8543 84.7425 71.8808 80.7807 71.1692 76.768C71.1274 76.9144 71.0649 77.0542 70.9838 77.183C70.9924 77.3271 70.9924 77.4717 70.9838 77.6158C70.8601 79.1259 72.07 83.612 70.8513 82.8702Z" fill="#F2E75F"/>
<path d="M60.8457 54.7965C63.3626 55.3794 65.2613 60.2011 66.321 62.4883C66.9833 63.8836 67.5838 65.2789 68.1667 66.6831C67.2836 64.3782 66.5506 62.0291 65.694 59.7154C65.173 58.3289 62.7797 52.8537 60.3954 53.9752C59.2738 53.4365 58.6292 53.1628 57.6313 53.7103C56.5185 54.3285 57.746 55.8827 58.3377 57.384C58.9463 59.0933 59.468 60.8323 59.9008 62.5943C60.8281 66.0296 61.1902 68.2373 62.2146 71.6549C61.667 67.0628 60.9694 62.4442 59.1678 58.1788C57.8608 55.0438 58.9471 54.355 60.8457 54.7965Z" fill="#6AAA2A"/>
<path d="M58.17 53.4895C62.9741 58.638 65.2348 65.0228 67.2836 71.6461C68.1628 74.6449 69.2064 77.593 70.4098 80.4771C69.5709 77.8896 68.8202 75.2756 68.0254 72.7676C65.9854 66.3563 64.6255 58.9648 60.0775 53.7721C59.5021 53.4348 58.8184 53.3335 58.17 53.4895Z" fill="#5F9E24"/>
<path d="M72.9089 86.8619C72.7853 86.6941 66.9215 79.7971 66.5241 79.2407C65.2506 77.5221 64.0714 75.7356 62.9917 73.8892C63.9787 76.6372 65.5725 79.1275 67.6545 81.1747C69.9417 83.4443 71.8316 86.3056 74.11 88.6281C72.1671 83.2059 71.5843 77.2714 69.924 71.6284C69.9947 71.9375 70.0565 72.2466 70.1272 72.5115C70.657 74.8871 71.2134 79.1171 71.6108 81.5103C71.9198 83.5856 73.9598 88.3014 72.9089 86.8619Z" fill="#E8C325"/>
<path opacity="0.48" d="M61.093 55.8474C60.8281 55.2204 60.5632 54.5846 60.3159 53.9576L60.0421 53.8252H59.9361L59.7242 53.7368L59.5829 53.675L59.4151 53.622L59.1678 53.5514H59.053H58.8852H58.797C58.6707 53.5382 58.5434 53.5382 58.4172 53.5514L58.2229 53.5955C58.0374 53.6456 57.8592 53.7198 57.6931 53.8163C56.5804 54.4345 57.8079 55.9887 58.3996 57.4812C58.8343 58.6367 59.2028 59.8161 59.5034 61.0136C59.4869 59.8692 59.5935 58.7264 59.8214 57.6048C59.882 57.2331 60.0285 56.8807 60.2492 56.5756C60.47 56.2705 60.7589 56.0212 61.093 55.8474Z" fill="#48602C"/>
<path opacity="0.48" d="M66.5417 62.0289V61.9494C66.2767 61.2164 66.0206 60.4835 65.7557 59.7593C65.2346 58.3729 62.8414 52.8977 60.4571 54.0192L60.095 53.8514L59.9802 53.7984L59.7682 53.7101L59.627 53.6571L59.4592 53.5953L59.2119 53.5247H59.0971H58.9293H58.8057C59.7064 55.4322 60.6661 57.3073 61.6846 59.15C62.5677 60.4128 63.389 61.6757 64.2014 62.9562C66.2222 66.3237 68.0274 69.8161 69.606 73.4121C70.1182 74.4983 70.6481 75.5845 71.1779 76.6619C70.8159 75.0105 70.4273 73.3591 69.9504 71.7342C69.6413 70.6921 69.3058 69.6501 68.8996 68.6257L68.2107 66.7889C67.5926 65.1286 67.0539 63.5567 66.5417 62.0289Z" fill="#48602C"/>
<path d="M64.3429 52.4297L64.546 52.5091L64.3429 52.4297Z" fill="#6DB133"/>
<path d="M70.1449 56.0416C72.1807 57.4109 74.3566 58.5595 76.6357 59.468C81.0512 61.0488 85.7316 62.6913 90.1913 63.8835C92.4917 64.4492 94.7564 65.151 96.9735 65.9853C94.3242 63.2389 90.3149 61.5698 87.1269 59.5475C83.6527 57.3417 79.9408 55.5347 76.0617 54.1606C74.0305 53.41 72.0612 52.3944 70.0124 51.7939C68.7937 51.4141 64.4312 50.6282 63.8307 52.0676C63.9904 52.2123 64.1651 52.3396 64.3517 52.4474L64.5548 52.5269L64.3517 52.4474L64.1839 52.3768C65.7735 53.8604 68.2462 54.8936 70.1449 56.0416Z" fill="#6DB133"/>
<path d="M70.1802 56.0416C72.2139 57.4144 74.3902 58.5633 76.671 59.468C81.0865 61.0488 85.7581 62.6914 90.2266 63.8836C92.5233 64.4521 94.7849 65.1538 97 65.9853C96.9382 65.9235 96.8676 65.8617 96.8057 65.7911C96.5702 65.7547 96.343 65.6769 96.1346 65.5615C90.1825 62.3028 83.5857 60.519 77.245 58.2141C73.9924 56.9601 70.8668 55.3988 67.9106 53.5513C66.7268 52.8886 65.4302 52.4513 64.0868 52.262C64.1776 52.3288 64.2719 52.3908 64.3694 52.4474L64.2016 52.3768C65.8 53.8692 68.308 54.8936 70.1802 56.0416Z" fill="#5F9E24"/>
<path d="M70.1448 56.0415C72.1806 57.4109 74.3565 58.5595 76.6356 59.468C81.0511 61.0487 85.7316 62.6913 90.1913 63.8835C92.4916 64.4491 94.7564 65.151 96.9735 65.9853C94.3242 63.2388 90.3149 61.5698 87.1269 59.5475C83.904 57.5038 80.4767 55.8019 76.9006 54.4696C77.351 54.6904 82.2698 57.0483 86.4911 59.415C89.4001 61.0204 92.2159 62.7894 94.9247 64.7136C96.7792 66.3738 91.9133 63.4949 84.4952 61.8082C80.4125 60.7528 76.4762 59.1955 72.7765 57.1719C71.1957 56.2888 69.456 54.9642 67.7958 54.2312C66.4202 53.6668 65.1063 52.9625 63.8748 52.1294C64.0197 52.256 64.1764 52.3684 64.3429 52.465L64.1751 52.3944C65.7735 53.8603 68.2462 54.8935 70.1448 56.0415Z" fill="#82D13E"/>
<path d="M96.8057 65.7735C94.6951 63.654 91.7367 62.1793 89.0344 60.6427C89.0344 60.6427 96.0992 65.1288 91.304 63.7247C86.8355 62.4177 77.9515 59.3092 73.6419 57.7461L71.8757 57.075C73.3898 58.0395 74.9997 58.8445 76.6798 59.477C81.0953 61.0577 85.7758 62.7003 90.2354 63.8925C92.5358 64.4581 94.8005 65.16 97.0177 65.9943C96.9382 65.9059 96.8675 65.8441 96.8057 65.7735Z" fill="#F2E75F"/>
<path d="M96.8057 65.7735C96.3744 65.3483 95.9173 64.9501 95.4369 64.5813C95.148 64.7264 94.8324 64.8106 94.5096 64.8285C94.0134 64.8504 93.5165 64.7998 93.0349 64.6784C94.3772 65.067 95.6842 65.4997 96.9647 65.9942C96.9382 65.9059 96.8675 65.8441 96.8057 65.7735Z" fill="#E8C325"/>
<path opacity="0.48" d="M72.3879 57.4103C71.5399 56.2836 70.6133 55.2182 69.615 54.2223C68.324 53.0679 66.8977 52.0745 65.3673 51.2639C64.6078 51.3434 64.0073 51.573 63.813 52.0499H63.866L64.0514 52.2H64.0956L64.281 52.3148H64.1839H64.1309C65.7381 53.8161 68.2108 54.8493 70.1095 55.9973L71.7874 57.0218L72.3879 57.4103Z" fill="#48602C"/>
<path d="M62.2499 52.0589C61.0048 51.9794 60.2806 51.9794 59.6006 52.8448C58.9206 53.7103 60.4837 54.8141 61.6318 55.9887C62.8336 57.346 63.9654 58.7638 65.0229 60.2364C67.2306 63.1506 68.3963 65.0935 70.7365 68.0166C72.9034 70.9115 75.7979 73.1814 79.126 74.5956C82.0933 75.8408 84.9103 77.7925 87.8952 79.0995C83.3561 73.9951 80.327 67.5043 75.5318 62.4C73.4035 60.1393 71.4077 57.7284 69.3501 55.4147C68.308 54.3108 64.0338 50.1337 62.2499 52.0589Z" fill="#80B17D"/>
<path d="M63.0094 52.6505C65.5527 52.2531 69.1028 56.0239 70.9573 57.746C72.0818 58.7998 73.171 59.8684 74.2248 60.9516C72.5822 59.1236 70.9926 57.2426 69.3324 55.4146C68.3345 54.3107 64.0338 50.116 62.2676 52.0588C61.0224 51.9793 60.2983 51.9793 59.6183 52.8447C58.9383 53.7102 60.5014 54.814 61.6494 55.9886C62.8512 57.3459 63.9831 58.7636 65.0405 60.2363C67.1865 63.071 68.3522 64.9962 70.5687 67.778C68.3522 63.7246 65.9766 59.6976 62.718 56.4125C60.2894 54.0016 61.0401 52.9507 63.0094 52.6505Z" fill="#6DAA66"/>
<path d="M61.8437 52.0413C61.2002 51.932 60.5394 52.0743 59.998 52.4387C66.3652 55.4236 70.8248 60.519 75.2315 65.8883C77.1611 68.3547 79.2248 70.7132 81.4132 72.9531C79.647 70.8601 77.9956 68.7142 76.3177 66.6919C72.0523 61.4905 68.0342 55.141 61.8437 52.0413Z" fill="#5E9E59"/>
<path d="M86.1202 77.9248C85.9435 77.8188 77.9338 73.5976 77.3598 73.2356C75.5272 72.1255 73.7582 70.9138 72.0612 69.606C74.0107 71.786 76.4251 73.5002 79.126 74.622C82.0932 75.8672 84.9103 77.8188 87.8952 79.1258C84.0625 74.8163 81.3072 69.5265 77.66 64.9167L78.1987 65.7027C79.5675 67.7073 81.6693 71.4252 82.9322 73.5005C83.983 75.2755 87.6391 78.8079 86.1202 77.9248Z" fill="#F2E75F"/>
<path d="M55.8209 53.4101C54.0547 51.4408 49.7187 55.5207 48.7031 56.5981C46.5483 58.8676 44.4995 61.2344 42.3271 63.4509C37.4171 68.4493 34.2556 74.8695 29.6016 79.8678C32.613 78.6403 35.4743 76.7505 38.4327 75.5671C41.7871 74.2198 44.7288 72.015 46.9634 69.1735C49.3743 66.3034 50.5753 64.387 52.8449 61.5258C53.9478 60.0721 55.1269 58.6778 56.3773 57.3487C57.5165 56.2007 59.2562 55.2646 58.4791 54.249C57.7019 53.2335 57.0661 53.3571 55.8209 53.4101Z" fill="#6DB133"/>
<path d="M47.193 68.9438C49.4714 66.2062 50.6724 64.3075 52.8802 61.5257C53.9831 60.072 55.1622 58.6777 56.4126 57.3487C57.5518 56.2007 59.2915 55.2646 58.5144 54.249C57.7373 53.2334 57.1103 53.3659 55.8651 53.3659C54.0989 51.3966 49.7628 55.4765 48.7473 56.5539C47.0429 58.3201 45.4091 60.2011 43.7224 61.9938C44.8086 60.9253 45.9213 59.8743 47.0694 58.8588C48.9592 57.172 52.5976 53.4807 55.1321 53.9399C57.0573 54.2843 57.7814 55.344 55.3352 57.7019C51.9529 60.9605 49.4979 64.9345 47.193 68.9438Z" fill="#6AAA2A"/>
<path d="M41.4087 67.7075C39.6425 69.7033 37.9646 71.8139 36.1719 73.8892C38.4164 71.6995 40.5391 69.3882 42.5302 66.9657C47.0605 61.6671 51.6262 56.7041 58.064 53.8605C57.5289 53.4878 56.8732 53.3302 56.2272 53.4189C49.966 56.3596 45.8065 62.6208 41.4087 67.7075Z" fill="#5F9E24"/>
<path d="M39.5895 66.6653L40.1458 65.8882C36.3927 70.4273 33.5226 75.6553 29.6016 79.8677C32.613 78.6402 35.4743 76.7504 38.4326 75.567C41.1507 74.5 43.595 72.8373 45.5858 70.7011C43.863 71.9774 42.0705 73.1567 40.2165 74.2335C39.6248 74.5779 31.5268 78.649 31.3413 78.7373C29.8047 79.6204 33.5403 76.088 34.653 74.3748C35.9953 72.3083 38.1765 68.6346 39.5895 66.6653Z" fill="#82D13E"/>
<path d="M35.4653 128.103C34.0876 126.434 32.4362 124.959 30.9703 123.343C28.2195 120.251 25.1298 117.478 21.7595 115.077C18.6687 112.869 15.5778 109.778 12.0454 108.356C13.6617 110.113 15.1744 111.961 16.5757 113.893C19.3663 117.62 22.6515 121.338 25.813 124.888C27.5224 126.668 29.4171 128.261 31.4648 129.639C33.231 130.964 35.1474 132.889 37.1609 133.807L37.0372 133.666L36.8783 133.507L37.0372 133.666C37.2045 133.803 37.3885 133.919 37.5847 134.011C38.6709 132.871 36.2866 129.092 35.4653 128.103Z" fill="#6DB133"/>
<path d="M37.0108 133.666C36.9494 133.622 36.8957 133.569 36.8519 133.507L37.0108 133.666Z" fill="#6DB133"/>
<path d="M34.6264 130.761C31.7848 128.704 29.1443 126.383 26.7403 123.828C22.1924 118.777 18.0329 113.293 12.7432 108.984C12.554 108.833 12.3927 108.651 12.2663 108.445L12.0102 108.33C13.6287 110.087 15.1414 111.939 16.5405 113.876C19.3223 117.594 22.6162 121.312 25.7689 124.871C27.4828 126.644 29.377 128.233 31.4208 129.613C33.187 130.946 35.1122 132.863 37.1256 133.781L36.9932 133.64C37.0795 133.715 37.1743 133.781 37.2758 133.834C36.5927 132.653 35.694 131.611 34.6264 130.761Z" fill="#5F9E24"/>
<path d="M34.0523 131.123C32.5687 129.866 31.0212 128.687 29.416 127.59C26.1308 124.902 23.1913 121.817 20.6645 118.406C16.249 112.101 11.754 108.692 14.0059 109.761C16.8201 111.553 19.5297 113.505 22.1216 115.607C25.919 118.636 29.99 122.327 30.361 122.672C27.7686 119.84 24.8856 117.288 21.7595 115.059C18.6687 112.852 15.5778 109.761 12.0454 108.339C13.6617 110.095 15.1744 111.944 16.5757 113.876C19.3663 117.603 22.6515 121.32 25.813 124.871C27.5224 126.651 29.4171 128.244 31.4648 129.622C33.231 130.946 35.1474 132.871 37.1609 133.79L37.0372 133.649C37.1846 133.773 37.3479 133.877 37.5229 133.958C36.2671 133.141 35.1034 132.19 34.0523 131.123Z" fill="#82D13E"/>
<path opacity="0.48" d="M37.1963 130.823C36.79 130.24 36.3838 129.666 35.9599 129.101C33.2665 125.515 29.3896 124.491 25.1154 124.049L25.7954 124.826C27.5077 126.605 29.4054 128.194 31.4561 129.569C33.2223 130.902 35.1386 132.819 37.1521 133.737L37.0815 133.657C37.1515 133.712 37.2253 133.763 37.3023 133.808L37.417 133.878L37.523 133.931H37.6113C38.15 133.348 37.7879 132.068 37.1963 130.823Z" fill="#48602C"/>
<path d="M41.391 130.999C40.5609 131.326 38.2295 132.227 38.9272 133.34C39.8103 131.317 43.3427 132.819 44.791 133.278C46.6703 133.979 48.6831 134.251 50.6813 134.073C52.8184 133.825 54.7789 132.827 56.863 132.562C58.9881 132.436 61.1114 132.837 63.0447 133.728C64.0691 134.126 65.0228 134.611 65.9943 135.097C64.6784 133.11 57.2339 130.602 54.0194 130.381C50.0278 130.107 45.3473 129.445 41.391 130.999Z" fill="#5F9E24"/>
<path d="M41.2762 131.706C40.6148 131.87 40.0067 132.202 39.51 132.668C39.7255 132.473 40.005 132.363 40.296 132.359C40.9576 132.093 41.6438 131.892 42.3448 131.759C43.484 131.503 47.714 131.759 48.3498 131.67L47.3961 131.582C45.3649 131.261 43.2928 131.303 41.2762 131.706Z" fill="#82D13E"/>
<path d="M41.391 130.999C40.5744 131.278 39.8124 131.696 39.1391 132.236C42.9099 130.416 48.3057 130.876 52.1384 131.044C55.5157 131.189 58.866 131.713 62.1263 132.607C59.561 131.495 56.8533 130.746 54.0812 130.381C50.0278 130.107 45.3473 129.445 41.391 130.999Z" fill="#6DB133"/>
<path d="M63.4156 133.604C60.5427 132.338 57.3299 132.065 54.2843 132.827C51.635 133.445 49.4803 133.931 46.7603 133.543C45.6324 133.219 44.485 132.968 43.325 132.792C43.899 132.969 44.4201 133.154 44.791 133.278C46.6703 133.979 48.6831 134.251 50.6813 134.072C52.8184 133.825 54.7789 132.827 56.863 132.562C58.9881 132.436 61.1114 132.837 63.0447 133.728C64.0691 134.125 65.0229 134.611 65.9943 135.097C65.4644 134.302 63.9543 133.419 62.1174 132.633C64.3252 133.71 63.6982 133.719 63.4156 133.604Z" fill="#82D13E"/>
<path opacity="0.48" d="M44.4642 133.18L44.7644 133.278C46.2083 133.791 47.7199 134.088 49.2506 134.161L48.235 133.693C45.1088 132.227 44.3317 130.778 40.8435 131.238C40.2304 131.47 39.6626 131.808 39.1656 132.236C39.0075 132.366 38.9 132.548 38.8613 132.749C38.8226 132.951 38.8553 133.159 38.9536 133.339C39.0715 133.065 39.2643 132.829 39.51 132.659C40.4461 132.059 42.0268 132.412 43.3162 132.818C43.7577 132.924 44.1639 133.066 44.4642 133.18Z" fill="#48602C"/>
<path d="M36.5164 133.843C35.8629 136.995 36.4458 139.141 37.5938 141.976C41.2587 150.948 40.2431 153.624 41.8945 165.069C42.4107 168.69 43.2713 172.253 44.4644 175.711C45.1267 175.463 45.7714 175.198 46.4337 174.933C44.9604 170.985 44.0449 166.851 43.7137 162.65C42.8779 153.076 40.4919 143.702 36.6489 134.894L36.5164 133.843Z" fill="#5E9E59"/>
<path d="M19.3222 125.33C16.0989 125.259 8.46001 127.096 6.95874 128.959C7.96548 128.597 8.97221 128.156 10.0231 127.855C12.0225 127.142 14.167 126.933 16.2666 127.246C18.3684 127.705 20.2229 128.871 22.3336 129.312C24.3076 129.662 26.3346 129.568 28.268 129.039C29.7428 128.712 33.4165 127.529 34.1053 129.621C34.9001 128.579 32.657 127.476 31.8622 127.069C28.0649 125.18 23.3403 125.418 19.3222 125.33Z" fill="#64B150"/>
<path d="M19.3223 125.33C16.5278 125.443 13.7631 125.948 11.1094 126.831C14.4235 126.231 17.7946 126.005 21.1591 126.16C24.9918 126.337 30.4052 126.354 33.9994 128.509C33.3798 127.908 32.6594 127.421 31.8712 127.07C28.065 125.18 23.3404 125.418 19.3223 125.33Z" fill="#83BF5C"/>
<path d="M11.0476 126.849C9.14897 127.467 7.56822 128.209 6.96771 128.959C7.97445 128.597 8.98119 128.156 10.0321 127.855C12.0315 127.142 14.176 126.933 16.2756 127.246C18.3774 127.705 20.2319 128.871 22.3425 129.312C24.3165 129.662 26.3435 129.569 28.277 129.039C28.6656 128.959 29.1601 128.809 29.7782 128.685C28.6074 128.759 27.4423 128.907 26.29 129.127C23.5524 129.277 21.4594 128.597 18.8631 127.741C15.8917 126.727 12.6679 126.727 9.6965 127.741C9.40507 127.794 8.7869 127.723 11.0476 126.849Z" fill="#B2E0A6"/>
<path d="M34.5117 131.723C34.6216 131.708 34.7333 131.73 34.8296 131.785C34.8943 131.151 34.7812 130.512 34.5028 129.939C34.3077 129.416 33.9523 128.968 33.4873 128.659C33.2665 128.526 33.0104 128.306 32.7808 128.191C32.5194 128.021 32.2375 127.884 31.9418 127.785C29.9794 127.213 27.9326 126.986 25.8926 127.114C25.5747 127.114 25.2479 127.114 24.93 127.114C25.557 127.237 29.7959 127.378 30.9086 127.74C31.3326 127.843 31.7442 127.991 32.1361 128.182C32.3304 128.297 33.2576 128.721 33.4166 128.871C33.9169 129.28 34.2703 129.841 34.4233 130.469C34.4758 130.687 34.5113 130.908 34.5293 131.132C34.5098 131.328 34.5039 131.526 34.5117 131.723Z" fill="#9BC221"/>
<path d="M35.6861 133.304C33.2399 132.35 31.2264 137.967 30.8114 139.389C29.9283 142.391 29.1864 145.429 28.268 148.396C26.1751 155.081 26.2899 162.235 24.4265 168.814C26.546 166.341 28.2239 163.347 30.361 160.936C32.7314 158.207 34.3425 154.903 35.0326 151.355C35.8627 147.708 36.0658 145.447 36.7988 141.861C37.1046 140.076 37.5025 138.307 37.991 136.563C38.4855 135.026 39.5982 133.392 38.4502 132.854C37.3993 132.368 36.7811 132.677 35.6861 133.304Z" fill="#6DB133"/>
<path d="M26.8022 157.616C26.8022 157.466 26.8022 157.325 26.758 157.174C26.6667 157.054 26.5952 156.92 26.5461 156.777C26.1134 160.831 25.4143 164.852 24.4531 168.814C26.5726 166.341 28.2505 163.347 30.3876 160.936C32.4582 158.579 33.9411 155.765 34.7148 152.724C33.4431 154.984 29.2749 161.431 27.2791 162.844C26.0957 163.665 26.9965 159.108 26.8022 157.616Z" fill="#F2E75F"/>
<path d="M35.0945 151.063C35.8716 147.584 36.0835 145.35 36.7812 141.861C37.087 140.076 37.4849 138.307 37.9734 136.563C38.4679 135.026 39.5807 133.393 38.4326 132.854C37.4259 132.377 36.7812 132.695 35.6862 133.313C33.24 132.359 31.2265 137.976 30.8114 139.398C30.1138 141.764 29.5045 144.157 28.8245 146.524C29.3013 145.082 29.8165 143.642 30.3699 142.206C31.253 139.848 32.8426 134.911 35.3064 134.152C37.1698 133.587 38.3001 134.205 37.1963 137.419C35.695 141.782 35.3241 146.445 35.0945 151.063Z" fill="#6AAA2A"/>
<path d="M29.3897 152.6C28.7627 155.161 28.1975 157.819 27.5352 160.468C28.5325 157.495 29.3698 154.471 30.0432 151.408C31.6593 144.652 33.4519 138.161 37.8851 132.66C37.2365 132.574 36.579 132.731 36.0394 133.101C31.827 138.603 30.9793 146.065 29.3897 152.6Z" fill="#5F9E24"/>
<path d="M27.2966 152.503C27.3408 152.185 27.3849 151.876 27.4379 151.567C26.1662 157.307 25.9984 163.268 24.4265 168.814C26.546 166.341 28.2239 163.347 30.361 160.936C32.2892 158.746 33.7068 156.155 34.5116 153.35C33.5473 155.263 32.4831 157.123 31.3235 158.923C30.9615 159.497 25.5922 166.8 25.4862 166.968C24.5325 168.478 26.2457 163.639 26.44 161.581C26.6696 159.17 26.9345 154.905 27.2966 152.503Z" fill="#E8C325"/>
<path opacity="0.48" d="M37.8498 132.677H37.6555C37.5263 132.664 37.3961 132.664 37.267 132.677H37.1875H37.0197H36.9049L36.6665 132.765L36.4987 132.836L36.3662 132.898C36.2958 132.928 36.2279 132.963 36.1631 133.004L36.0571 133.057L35.7833 133.207C35.5802 133.852 35.3594 134.496 35.1387 135.141C35.4826 135.278 35.7909 135.492 36.0402 135.766C36.2896 136.04 36.4735 136.366 36.5781 136.722C36.8784 137.827 37.0619 138.96 37.1257 140.104C37.358 138.891 37.6527 137.692 38.0088 136.51C38.5033 134.973 39.616 133.339 38.468 132.792C38.2924 132.713 38.1088 132.654 37.9204 132.615L37.8498 132.677Z" fill="#48602C"/>
<path opacity="0.48" d="M27.4292 151.576C27.0671 153.227 26.7934 154.905 26.5461 156.574C26.9965 155.461 27.4292 154.34 27.8884 153.218C29.2197 149.516 30.7799 145.9 32.56 142.391C33.293 141.049 34.0613 139.742 34.8119 138.408C35.7009 136.501 36.5281 134.564 37.2935 132.598H37.1786H37.0109H36.896L36.6576 132.686L36.4898 132.757L36.3574 132.818L36.1542 132.924L36.0483 132.977L35.695 133.181C33.2488 132.227 31.2354 137.843 30.8203 139.265C30.5995 140.007 30.3964 140.758 30.1845 141.508C30.1845 141.508 30.1845 141.561 30.1845 141.588C29.7429 143.195 29.3014 144.802 28.851 146.392C28.6744 147.019 28.4889 147.655 28.2946 148.282C27.9679 149.324 27.6941 150.383 27.4645 151.452L27.4292 151.576Z" fill="#48602C"/>
<path d="M31.6504 132.024L31.4561 132.121C31.5257 132.099 31.5913 132.066 31.6504 132.024Z" fill="#6DB133"/>
<path d="M25.9191 131.794C23.9144 132.58 22.0158 133.684 20.0464 134.567C16.2738 136.211 12.6957 138.269 9.37855 140.705C6.33184 142.939 2.4197 144.89 0 147.814C2.15186 146.826 4.3606 145.968 6.61446 145.244C10.9858 143.769 15.5073 141.808 19.861 139.945C22.0681 138.876 24.1576 137.58 26.0957 136.077C27.8619 134.797 30.3081 133.604 31.8005 131.988L31.6327 132.068C31.5737 132.11 31.5081 132.143 31.4385 132.165C31.5081 132.143 31.5737 132.11 31.6327 132.068C31.8144 131.951 31.9806 131.811 32.1273 131.653C31.4385 130.213 27.1466 131.299 25.9191 131.794Z" fill="#6DB133"/>
<path d="M28.171 133.375C25.3479 135.42 22.3379 137.194 19.181 138.673C12.9993 141.402 6.55262 143.636 0.847771 147.301C0.642361 147.426 0.418966 147.518 0.185444 147.575L0 147.787C2.15342 146.799 4.36532 145.944 6.62327 145.226C11.0388 143.742 15.5161 141.782 19.8698 139.927C22.0809 138.866 24.1712 137.569 26.1045 136.059C27.9237 134.788 30.3257 133.587 31.8182 131.971L31.6504 132.059C31.7474 131.996 31.839 131.925 31.9242 131.847C30.5906 132.124 29.3187 132.641 28.171 133.375Z" fill="#5F9E24"/>
<path d="M28.33 134.028C26.6874 135.04 25.0986 136.137 23.57 137.313C20.0122 139.581 16.1892 141.402 12.1868 142.736C4.90124 144.935 0.247276 148.14 1.98699 146.356C4.56041 144.259 7.24925 142.307 10.0409 140.51C14.0855 137.861 18.8719 135.159 19.2693 134.911C15.7909 136.482 12.4876 138.415 9.41389 140.678C6.36718 142.912 2.45504 144.864 0.0353394 147.787C2.1872 146.8 4.39591 145.942 6.64977 145.217C11.0211 143.742 15.5426 141.782 19.8963 139.919C22.1034 138.85 24.1929 137.553 26.131 136.051C27.8972 134.77 30.3434 133.578 31.8359 131.962L31.6681 132.041C31.832 131.943 31.9807 131.821 32.1096 131.679C30.936 132.593 29.6691 133.381 28.33 134.028Z" fill="#82D13E"/>
<path d="M6.64976 145.217C11.0211 143.742 15.5426 141.782 19.8963 139.919C21.5263 139.166 23.0766 138.252 24.5238 137.19L22.8017 137.976C18.607 139.857 9.95257 143.548 5.58121 145.164C0.865442 146.93 7.63883 141.932 7.63883 141.932C5.05134 143.645 2.20777 145.323 0.238449 147.584L0.0529785 147.796H0.0971498C2.22867 146.808 4.41667 145.947 6.64976 145.217Z" fill="#F2E75F"/>
<path d="M3.84151 146.198C3.39288 146.36 2.92271 146.455 2.44622 146.48C2.12412 146.491 1.80389 146.427 1.51011 146.295C1.05638 146.7 0.625925 147.13 0.220783 147.584L0.0353394 147.796H0.0794837C1.30577 147.2 2.56138 146.667 3.84151 146.198Z" fill="#E8C325"/>
<path opacity="0.48" d="M30.5555 130.911C29.0869 131.831 27.7322 132.922 26.5197 134.161C25.5904 135.224 24.7376 136.351 23.9675 137.534L24.515 137.154L26.1223 136.015C27.9415 134.735 30.3347 133.534 31.836 131.926H31.783L31.6858 131.971L31.8625 131.847H31.9066L32.0744 131.679L32.1274 131.626C31.9243 131.158 31.3149 130.964 30.5555 130.911Z" fill="#48602C"/>
<path d="M33.7169 131.512C31.8005 129.745 27.8354 134.161 26.917 135.344C24.983 137.799 23.1638 140.343 21.1945 142.745C16.779 148.176 14.1915 154.852 10.0144 160.257C12.9022 158.755 15.578 156.609 18.4569 155.161C21.6884 153.52 24.43 151.056 26.4048 148.017C28.5419 144.944 29.5663 142.93 31.5709 139.866C32.5217 138.322 33.5504 136.828 34.653 135.388C35.6862 134.143 37.3023 133.048 36.4722 132.112C35.6421 131.176 34.9532 131.353 33.7169 131.512Z" fill="#80B17D"/>
<path d="M26.5372 147.769C28.5596 144.838 29.5839 142.842 31.5356 139.822C32.4864 138.278 33.5151 136.783 34.6176 135.344C35.6509 134.099 37.2669 133.004 36.4368 132.068C35.6067 131.132 34.9532 131.308 33.7169 131.467C31.8005 129.701 27.8354 134.117 26.917 135.3C25.3892 137.234 23.9321 139.23 22.4131 141.164C23.4022 140.007 24.409 138.868 25.4599 137.746C27.2261 135.892 30.4759 131.891 33.0457 132.112C34.9885 132.28 35.8098 133.269 33.5844 135.839C30.5554 139.389 28.4712 143.566 26.5372 147.769Z" fill="#6DAA66"/>
<path d="M20.6646 147.072C19.128 149.209 17.6179 151.487 16.0107 153.668C18.049 151.289 19.9535 148.797 21.7155 146.206C25.7425 140.546 29.8401 135.15 35.9953 131.741C35.4291 131.414 34.7593 131.316 34.1231 131.467C28.1622 134.991 24.5856 141.605 20.6646 147.072Z" fill="#5E9E59"/>
<path d="M18.766 146.197L19.2428 145.376C15.9224 150.233 13.538 155.691 10.0144 160.256C12.9022 158.755 15.5779 156.609 18.4569 155.161C21.0654 153.849 23.349 151.973 25.142 149.668C23.5362 151.091 21.8528 152.423 20.0995 153.66C19.5519 154.048 11.8513 158.817 11.6835 158.958C10.2352 160 13.6263 156.15 14.5801 154.322C15.6928 152.105 17.5296 148.29 18.766 146.197Z" fill="#F2E75F"/>
<path d="M54.3726 141.508C52.0501 139.451 49.8511 137.225 47.5462 135.115C46.46 134.108 41.8326 130.337 40.2253 132.412C38.9802 132.412 38.256 132.509 37.6467 133.437C37.0373 134.364 38.7329 135.318 39.9516 136.386C41.2721 137.628 42.5278 138.936 43.7136 140.307C46.1774 143.018 47.5109 144.846 50.1072 147.531C52.5303 150.216 55.6192 152.215 59.0619 153.324C62.1351 154.296 65.12 155.973 68.202 157.007C63.2213 152.344 59.6182 146.153 54.3726 141.508Z" fill="#6DB133"/>
<path d="M40.9935 132.942C43.4927 132.315 47.3695 135.742 49.3742 137.287C50.5928 138.232 51.7762 139.195 52.9066 140.192C51.1404 138.515 49.3742 136.775 47.5285 135.115C46.4423 134.108 41.8148 130.337 40.2075 132.412C38.9624 132.412 38.2382 132.509 37.6289 133.437C37.0196 134.364 38.7151 135.318 39.9338 136.386C41.2543 137.628 42.51 138.936 43.6958 140.307C46.089 142.957 47.4225 144.723 49.8775 147.319C47.2989 143.478 44.5789 139.689 41.0465 136.722C38.4502 134.523 39.1037 133.419 40.9935 132.942Z" fill="#6AAA2A"/>
<path d="M55.5913 145.694C50.849 140.916 46.2657 134.955 39.8191 132.447C39.1806 132.41 38.5511 132.612 38.0529 133.013C44.6673 135.406 49.5332 140.077 54.4432 145.023C56.6011 147.298 58.8799 149.456 61.2696 151.487C59.3003 149.553 57.4458 147.557 55.5913 145.694Z" fill="#5F9E24"/>
<path d="M66.3475 155.982C66.1621 155.885 57.7991 152.45 57.1897 152.105C55.2681 151.162 53.399 150.116 51.5909 148.97C53.7245 150.962 56.2775 152.449 59.0619 153.324C62.1351 154.295 65.12 155.973 68.202 157.007C63.9985 153.068 60.7751 148.061 56.7217 143.76L57.331 144.493C58.8765 146.356 61.305 149.871 62.7533 151.823C63.9808 153.518 67.9459 156.786 66.3475 155.982Z" fill="#82D13E"/>
<path d="M40.9317 25.7424C39.9956 26.6255 39.5541 28.4977 38.9536 29.1689C38.353 29.84 37.4346 29.4691 37.1344 30.1226C36.7122 31.032 36.4855 32.0197 36.4688 33.0221C36.452 34.0246 36.6457 35.0194 37.0372 35.9423C37.8232 37.3023 38.8829 37.3641 39.0595 35.8186C39.1832 34.7766 38.5208 33.6903 38.5385 32.6395C38.5385 31.4561 39.3421 30.3699 39.6424 29.2572C39.9426 28.1445 39.9426 26.7757 40.9317 25.7424Z" fill="#5F8E29"/>
<path d="M37.0638 31.8093C36.9667 31.4102 36.9163 31.0012 36.9137 30.5906C36.274 32.3242 36.3118 34.2353 37.0196 35.9422C37.8056 37.3021 38.8653 37.3639 39.0419 35.8185C39.074 35.4175 39.0351 35.0139 38.9271 34.6263C38.8035 34.5027 38.6887 34.3879 38.5916 34.2731C37.885 33.5919 37.3598 32.745 37.0638 31.8093Z" fill="#5C8021"/>
<path d="M36.6223 38.0793C35.1651 37.5318 32.3392 36.6399 30.6348 37.0814C32.7454 39.404 35.1828 42.8658 37.7968 44.4995C42.5391 47.4491 38.3266 37.5495 36.6223 38.0793Z" fill="#5F8E29"/>
<path d="M35.7832 42.901C36.3984 43.5007 37.0731 44.0362 37.7967 44.4994C42.5389 47.4489 38.3265 37.5494 36.6221 38.0792L36.1276 37.9026C36.4933 38.3591 36.7489 38.8937 36.8744 39.465C37 40.0363 36.9923 40.6288 36.8517 41.1965C36.6514 41.8486 36.2828 42.4365 35.7832 42.901Z" fill="#5C8021"/>
<path d="M36.5693 43.5987C36.958 43.9205 37.3681 44.2155 37.7968 44.4818C41.9121 47.0428 39.2804 39.9162 37.3994 38.3442C37.7789 38.8351 38.077 39.3837 38.2825 39.9692C38.5055 40.6787 38.453 41.4462 38.1355 42.1189C37.818 42.7915 37.2588 43.3199 36.5693 43.5987Z" fill="#52731A"/>
<path d="M36.737 33.1252C35.2383 32.0022 33.5804 31.1092 31.8181 30.4759C27.7558 28.904 23.4463 33.4784 21.3975 34.8031C23.1637 35.2888 25.2919 32.8691 31.1822 33.5579C32.7979 33.7397 34.2984 34.4837 35.4211 35.6597C37.5759 38.0794 38.0086 42.0357 40.3223 44.4377V43.431C39.4392 42.5479 39.5275 39.8986 39.1831 38.5739C38.7063 36.7371 38.3265 34.388 36.737 33.1252Z" fill="#7AA43E"/>
<path d="M38.7946 42.2035C39.1978 43.0127 39.712 43.7618 40.3223 44.4289V43.4221C39.4392 42.539 39.5275 39.8897 39.1831 38.5651C38.7063 36.7371 38.3 34.388 36.737 33.1252C35.2383 32.0022 33.5804 31.1092 31.8181 30.4759C27.7558 28.904 23.4463 33.4784 21.3975 34.8031C22.9252 35.2358 24.7709 33.4166 29.1864 33.4343C31.977 31.1559 36.472 33.0987 37.5582 34.8296C38.7414 36.8904 39.107 39.3205 38.5826 41.6383C38.6445 41.8237 38.7151 42.018 38.7946 42.2035Z" fill="#5F8E29"/>
<path d="M40.5256 32.5601C39.4305 34.8473 37.8763 36.7548 37.9646 39.4218C38.0264 41.0025 39.0155 44.7204 40.19 45.7183L40.8612 44.6939C43.2985 44.7998 41.4617 40.6934 41.0466 39.2804C40.3136 36.8519 40.6139 34.9709 40.5256 32.5601Z" fill="#5F8E29"/>
<path d="M40.5256 32.5601C39.4305 34.8473 37.8763 36.7548 37.9646 39.4218C38.0748 40.6945 38.3509 41.9473 38.7859 43.1484C37.841 39.7927 38.8477 36.534 40.5521 33.2665C40.5344 33.0369 40.5344 32.8073 40.5256 32.5601Z" fill="#9FCC51"/>
<path d="M39.4041 44.6054C39.6006 45.0184 39.8665 45.3947 40.19 45.7181L40.8612 44.6937C43.2986 44.7996 41.4617 40.6932 41.0466 39.2802C40.5788 37.4171 40.4089 35.4917 40.5433 33.5754C39.2981 36.4455 41.3557 39.3686 40.9142 42.3446C40.8587 42.8139 40.693 43.2634 40.4306 43.6563C40.1681 44.0492 39.8163 44.3745 39.4041 44.6054Z" fill="#52731A"/>
<path d="M37.3199 44.1903C35.9953 46.1155 39.8898 47.6521 41.9915 46.8396C44.2611 45.9565 43.3692 43.528 42.071 42.7686C41.6246 43.5821 40.8759 44.1873 39.9869 44.4534C39.0979 44.7194 38.1399 44.6249 37.3199 44.1903Z" fill="#61873D"/>
<path d="M37.1523 44.4818C36.4016 46.248 39.9959 47.608 41.9917 46.8573C42.2779 46.776 42.5417 46.63 42.7626 46.4306C42.9834 46.2311 43.1556 45.9836 43.2656 45.7072C43.3757 45.4307 43.4208 45.1326 43.3974 44.8359C43.3741 44.5392 43.2829 44.2519 43.1309 43.9961C42.3112 44.694 41.2929 45.1164 40.2199 45.2036C39.147 45.2907 38.0738 45.0382 37.1523 44.4818Z" fill="#567C35"/>
<path d="M24.5768 30.1492C23.7749 30.0278 22.9672 29.9482 22.157 29.9108C19.3399 30.3346 18.1919 36.8254 18.5363 39.2363C20.1259 36.8343 22.5633 36.481 25.0271 34.7766C26.4136 33.8141 27.3055 32.9486 28.3652 32.1273C29.4897 31.2902 30.8206 30.7743 32.2156 30.6349C30.6022 29.7435 28.7322 29.4319 26.917 29.7518C26.1487 29.8931 25.3451 30.1227 24.5768 30.1492Z" fill="#82B34F"/>
<path d="M23.9056 30.1138C22.9992 31.3937 22.0234 32.6231 20.9825 33.7964C20.6082 34.2837 20.2604 34.7907 19.9405 35.3153C20.5763 34.5735 21.1415 34.0878 21.636 33.5491C23.3316 31.5533 24.6121 30.211 27.7206 29.7959L26.9523 29.8666C26.1929 29.9549 25.3804 30.1844 24.6121 30.2109C24.3741 30.2004 24.1376 30.1679 23.9056 30.1138Z" fill="#789F43"/>
<path d="M18.5364 39.2362C20.126 36.8342 22.5634 36.4809 25.0272 34.7765C26.4137 33.814 27.3056 32.9485 28.3654 32.1272C29.4899 31.2901 30.8207 30.7742 32.2157 30.6348L31.7918 30.4316L30.6349 30.5994C28.3654 30.9792 26.7493 32.6836 24.8506 33.8581C24.2448 34.452 23.5651 34.9655 22.8283 35.3859C22.007 35.8274 20.179 37.5318 19.5167 37.1521C18.8544 36.7723 19.2517 34.1142 19.3489 33.2134C18.6626 35.1428 18.3859 37.194 18.5364 39.2362Z" fill="#A5D46E"/>
<path d="M47.1666 27.1201C46.2129 25.8042 45.6565 25.1508 43.9698 24.8329C43.0161 24.6474 40.8524 24.5061 40.561 25.3097C39.8457 26.0339 39.7221 26.8905 39.2275 27.65C38.9972 28.0845 38.7251 28.4956 38.4151 28.8775C38.2738 29.0276 37.2936 29.5928 37.2406 29.7076C36.2603 31.9683 40.4286 31.3237 41.5148 31.7917C42.601 32.2597 43.0425 32.6218 44.4025 32.4275C45.5182 32.1739 46.652 32.0086 47.7936 31.933C49.4185 31.933 52.4917 32.5688 53.3219 30.4847C50.3811 31.4208 48.7121 29.266 47.1666 27.1201Z" fill="#82B34F"/>
<path d="M39.3688 27.6941L39.1216 27.7823C38.9185 28.1686 38.6758 28.5326 38.3974 28.8686C38.3021 28.9484 38.2018 29.0221 38.0972 29.0894C38.2578 29.0601 38.42 29.0394 38.5829 29.0275C41.0026 27.9855 43.2898 28.3387 45.9568 29.2218L46.7869 29.4956C44.4643 28.1974 41.6826 26.705 39.3688 27.6941Z" fill="#789F43"/>
<path d="M44.4643 31.7298C42.5657 31.5709 38.5741 31.7828 37.1788 29.9636C36.6047 31.9329 40.4992 31.3501 41.5413 31.8005C42.7335 32.3039 43.069 32.6306 44.429 32.4363C45.5447 32.1827 46.6785 32.0173 47.8201 31.9418C49.445 31.9418 52.5182 32.5776 53.3484 30.4935C53.1312 30.5584 52.9099 30.6086 52.686 30.6436C51.7965 31.4348 50.6345 31.8495 49.4451 31.8005C47.7672 31.7298 46.0716 31.8623 44.4643 31.7298Z" fill="#9FCC51"/>
</g>
<defs>
<clipPath id="clip0_253_2671">
<rect width="97" height="177" fill="white"/>
</clipPath>
</defs>
</svg>
