<svg width="73" height="35" viewBox="0 0 73 35" fill="none" xmlns="http://www.w3.org/2000/svg">
<g clip-path="url(#clip0_253_1365)">
<path d="M50.3108 23.7956C48.2653 24.5918 46.5196 25.9047 44.695 27.1596C44.2666 27.4477 43.8637 27.7723 43.4908 28.1298C43.1218 28.4153 42.7819 28.7367 42.476 29.0894C42.2341 29.6167 42.1605 30.0121 43.2437 29.7169C45.4259 28.8838 47.6291 28.1351 49.806 27.2967C50.9233 26.8359 52.0818 26.4828 53.2659 26.2422L55.4954 25.3933C56.9651 24.862 58.4014 24.2422 59.7966 23.5373C61.0948 22.8194 62.4426 22.1957 63.8297 21.6707C63.8717 21.5653 63.9138 21.4651 63.9611 21.3597C63.8932 21.3863 63.8227 21.4057 63.7508 21.4177C63.4758 21.4218 63.2011 21.3988 62.9305 21.3491C62.2879 21.3543 61.6478 21.4303 61.0218 21.5758C59.5232 21.8447 58.0088 21.9397 56.5155 22.2718C55.3692 22.5302 54.2229 22.9046 53.0556 23.1629C52.1254 23.3008 51.2076 23.5123 50.3108 23.7956Z" fill="#708E4D"/>
<path d="M47.9866 25.1191C49.7008 24.1279 51.3676 23.8009 53.5445 23.2157C55.2219 22.7622 57.2621 22.2719 59.0236 21.8606C58.1823 21.9713 57.3463 22.0768 56.5155 22.2666C55.3692 22.525 54.2229 22.8993 53.0555 23.1577C52.1252 23.2972 51.2074 23.5106 50.3107 23.7957C48.2653 24.5919 46.5196 25.9048 44.695 27.1597C44.2665 27.4478 43.8637 27.7723 43.4908 28.1298C43.3015 28.3144 42.6495 28.8153 42.4865 29.0104C42.2341 29.3056 42.2078 29.6536 42.4287 29.7696C42.313 29.5903 42.3025 29.2424 42.6811 28.9102C44.3091 27.4596 46.0878 26.1886 47.9866 25.1191Z" fill="#426122"/>
<path d="M60.4118 22.3139C60.4132 22.638 60.3815 22.9613 60.3171 23.2788C60.6537 23.0732 61.3688 22.8676 61.6896 22.6725C61.2899 22.7041 60.9797 22.1452 60.6695 21.9712C60.7694 22.2981 61.1532 22.5512 61.1006 22.8992C60.8009 22.8359 60.5906 22.4985 60.4118 22.3139Z" fill="#657E41"/>
<path d="M57.9141 23.9695C57.4406 23.67 56.989 23.337 56.5628 22.973C57.0518 23.3631 57.7301 24.386 56.6785 24.2648C55.9489 24.1278 55.2413 23.8919 54.5752 23.5635C55.0274 23.9642 56.0264 24.3702 56.4366 24.8817L56.5891 24.8289C57.6407 24.4651 58.929 23.8324 59.9859 23.437C59.7772 23.4232 59.5766 23.3506 59.4073 23.2274C59.2379 23.1043 59.1067 22.9356 59.0289 22.741C59.0026 23.0837 59.1972 23.8377 58.6871 23.5213C58.3401 23.3051 58.0824 22.82 57.7774 22.5564C57.7249 22.9255 58.7554 23.7164 57.9141 23.9695Z" fill="#596F39"/>
<path d="M63.5142 21.8606C63.5142 21.8606 63.536 21.8551 63.5142 21.8606V21.8606Z" fill="#657E41"/>
<path d="M45.1577 27.7343C45.8089 27.8104 46.4382 28.0166 47.0086 28.3407C47.9813 27.9874 48.8805 27.6763 50.621 27.1596C52.6243 26.5638 55.4953 25.3879 55.4953 25.3879C54.8907 25.0874 53.5971 24.9345 53.1344 24.4863C53.2659 25.0136 54.0756 25.2034 54.0231 25.4407C53.9705 25.678 53.0976 25.6938 52.8978 25.7254C52.6735 25.7813 52.44 25.789 52.2126 25.7481C51.9851 25.7073 51.7689 25.6186 51.578 25.4881C51.1941 25.2456 50.7997 24.9609 50.4264 24.6867C50.7366 25.098 51.3466 25.583 51.4781 26.1788C51.2888 26.3107 51.0995 26.1789 50.9522 26.0734C51.315 26.8959 49.9321 26.0734 49.685 25.9047C49.9216 26.1472 50.4054 26.4319 50.5579 26.8485C50.023 27.1583 49.4235 27.3388 48.8069 27.3757C48.3389 27.2914 47.7237 26.511 47.4923 26.1103C47.4029 26.5743 48.5072 27.3547 48.0182 27.4918C47.75 27.5656 46.6826 26.6534 46.5195 26.4689C46.6931 27.0699 47.6764 27.2914 47.6974 27.7396C46.8718 27.9716 46.0306 27.5445 45.1577 27.7343Z" fill="#596F39"/>
<path d="M55.3324 25.4881C58.8817 24.0803 63.3038 21.8921 63.9295 21.6707C64.5553 21.4492 65.7594 21.5705 66.3799 21.0696C67.0004 20.5687 66.7322 20.4474 66.5166 20.5792C65.6227 21.1065 64.6657 20.9958 63.8296 21.407C63.125 21.755 61.963 22.3614 61.0691 22.7463C60.1752 23.1312 56.405 24.8923 55.3849 25.2034C54.3648 25.5145 48.6281 27.7764 48.6281 27.7764C50.902 27.1344 53.14 26.3705 55.3324 25.4881Z" fill="#A69D5C"/>
<path d="M50.7156 26.8589C50.4078 26.8572 50.1009 26.8908 49.8007 26.9591C49.5237 26.9722 49.2497 27.0218 48.9857 27.1068C48.7282 27.0569 48.4622 27.0755 48.2141 27.1606C47.966 27.2457 47.7443 27.3944 47.5712 27.5919C47.2293 27.9921 46.9813 28.4642 46.8456 28.9733C46.5845 30.0618 46.6615 31.2043 47.0664 32.2476C47.2498 32.792 47.5421 33.2931 47.9255 33.7202C48.3088 34.1472 48.7752 34.4912 49.2959 34.731C52.4035 35.9859 53.8758 32.506 53.8706 31.0982C53.8813 30.4499 53.7631 29.8059 53.523 29.2039C53.2828 28.6019 52.9255 28.0539 52.4719 27.5919C51.8146 26.8326 51.415 26.8906 50.7156 26.8589Z" fill="#BAAD0C"/>
<path d="M51.6725 31.2986C50.9889 32.3531 49.9005 33.7504 48.4597 33.4076C47.9432 33.2783 47.4911 32.9655 47.1873 32.5271C47.5811 33.5022 48.3343 34.2877 49.2905 34.7205C52.3982 35.9754 53.8705 32.4955 53.8652 31.0877C53.891 29.9106 53.4828 28.7654 52.7189 27.8713C52.8661 29.0524 52.2036 30.4708 51.6725 31.2986Z" fill="#AF9F0B"/>
<path d="M50.968 33.4867C50.1793 34.3884 48.8647 34.4938 47.6606 33.376C48.0629 33.9774 48.6311 34.4482 49.2959 34.7311C52.4035 35.986 53.8758 32.506 53.8706 31.0982C53.8813 30.4499 53.7631 29.806 53.523 29.204C53.2828 28.6019 52.9255 28.0539 52.4719 27.5919C52.3342 27.3941 52.1551 27.2289 51.9471 27.1077C51.7392 26.9866 51.5073 26.9125 51.2678 26.8906C51.5361 27.178 51.7691 27.4967 51.9618 27.8397C52.9819 29.6535 52.4403 31.7995 50.968 33.4867Z" fill="#A5960C"/>
<path opacity="0.34" d="M52.9294 32.9332C52.372 33.9877 51.3046 35.1952 50.0741 34.9263C50.034 34.9315 49.9933 34.9315 49.9532 34.9263C52.6139 35.4535 53.8758 32.4007 53.8706 31.093C53.8813 30.4447 53.7631 29.8008 53.523 29.1988C53.2828 28.5968 52.9255 28.0488 52.4719 27.5867C51.8093 26.8275 51.4202 26.8855 50.7156 26.8538C50.4078 26.8521 50.1009 26.8857 49.8007 26.954H49.7639C50.3078 27.0035 50.8359 27.1637 51.316 27.4248C51.7961 27.6859 52.218 28.0424 52.556 28.4725C52.6971 28.6646 52.817 28.8714 52.9136 29.0894C53.2132 29.685 53.3706 30.3424 53.3733 31.0095C53.3761 31.6766 53.2241 32.3351 52.9294 32.9332Z" fill="#CECE4D"/>
<path opacity="0.58" d="M51.5359 34.8154C53.1134 34.188 53.8758 32.1106 53.8706 31.1246C53.8813 30.4763 53.7631 29.8323 53.523 29.2303C53.2828 28.6283 52.9255 28.0803 52.4719 27.6183C52.3041 27.3799 52.0784 27.1884 51.8161 27.062C51.5539 26.9356 51.2638 26.8784 50.9733 26.8959C51.143 26.9516 51.3068 27.024 51.4623 27.1121C53.2028 27.6393 53.7759 30.2019 53.5341 31.7784C53.4222 32.3935 53.1876 32.9796 52.8442 33.5015C52.5009 34.0234 52.0558 34.4703 51.5359 34.8154Z" fill="#E0DC5A"/>
<path opacity="0.54" d="M47.7657 28.1666C47.4355 28.7209 47.2425 29.3465 47.2031 29.991C47.1348 31.1931 47.4082 32.6695 48.3967 33.4129C48.6754 33.6238 48.9226 33.1862 48.8016 32.622C48.6281 31.9366 48.3442 31.2986 49.2538 29.933C49.653 29.4476 49.9937 28.9167 50.2687 28.3512C50.4948 27.7659 49.8375 27.1701 49.1592 27.3915C48.4809 27.613 48.1338 27.5444 47.7657 28.1666Z" fill="#CECE4D"/>
<path opacity="0.62" d="M47.466 27.7185C47.1801 28.0926 46.9694 28.5188 46.8456 28.9734C46.5845 30.0619 46.6615 31.2044 47.0664 32.2477C47.4095 33.2404 48.0985 34.0754 49.0067 34.5993L48.8595 34.4939C47.732 33.5587 47.0178 32.2154 46.8719 30.7556C46.7641 29.7065 46.971 28.649 47.466 27.7185Z" fill="#DBD875"/>
<path opacity="0.54" d="M49.769 27.3282C49.5217 27.4175 49.2563 27.4446 48.9961 27.4072C48.7332 27.3651 48.4703 27.1383 48.2021 27.2543C48.1285 27.286 47.7814 27.5338 47.834 27.692C47.9637 27.9679 48.1703 28.2003 48.4287 28.3612C48.6871 28.5221 48.9864 28.6046 49.2906 28.5989C49.6076 28.5714 49.9142 28.4723 50.1875 28.3088C50.4607 28.1453 50.6934 27.9218 50.868 27.6551C50.9008 27.5935 50.9175 27.5246 50.9168 27.4548C50.916 27.385 50.8978 27.3165 50.8638 27.2556C50.8298 27.1947 50.781 27.1434 50.722 27.1063C50.663 27.0692 50.5957 27.0476 50.5262 27.0434C50.1897 27.0171 50.032 27.2385 49.769 27.3282Z" fill="#CECE4D"/>
<path d="M48.7175 27.418C48.5965 27.5235 48.7175 27.6658 48.8595 27.6974C49.1592 27.6974 49.7954 27.6553 49.9111 27.3442C49.8901 27.1807 48.8595 27.2915 48.7175 27.418Z" fill="#A5960C"/>
<path d="M48.9173 27.497V27.4653C48.9144 27.4757 48.9144 27.4866 48.9173 27.497Z" fill="#897D22"/>
<path d="M49.2433 27.6394C49.3643 27.6394 49.5799 27.6394 49.6535 27.5286C49.7902 27.3283 49.4116 27.3916 49.3222 27.4232C49.2328 27.4549 49.2275 27.4232 49.1171 27.4232C49.0547 27.41 48.9902 27.41 48.9278 27.4232C48.891 27.4232 48.8595 27.4759 48.891 27.497V27.5286C48.9173 27.6552 49.1013 27.6552 49.2433 27.6394Z" fill="#897D22"/>
<path d="M48.2127 22.6673C48.0787 23.1051 47.9906 23.5557 47.9498 24.0118C47.932 24.6554 48.0634 25.2944 48.3336 25.8784C48.5635 26.2082 48.7574 26.5617 48.912 26.9329C48.9276 27.1657 48.9628 27.3968 49.0172 27.6236C49.0172 27.65 49.1645 27.6236 49.3275 27.6236C49.4905 27.6236 49.5588 27.6236 49.5904 27.5709C49.9006 27.1807 48.7438 25.8415 48.6071 25.5462C48.28 24.8046 48.2133 23.9738 48.4178 23.1893C48.4705 22.9863 48.4935 22.7768 48.4861 22.5671C48.402 22.5993 48.3132 22.6171 48.2232 22.6199L48.2127 22.6673Z" fill="#E5E1AB"/>
<path d="M48.1339 24.1171C48.1339 24.2911 48.1339 24.4598 48.1339 24.6075C48.1707 25.4616 48.8963 26.0996 49.1855 26.88C49.2725 27.1228 49.3256 27.3765 49.3432 27.634C49.4265 27.6376 49.5094 27.6213 49.5851 27.5865C49.8954 27.1963 48.7386 25.8571 48.6018 25.5618C48.2748 24.8202 48.2081 23.9894 48.4126 23.2049C48.4652 23.002 48.4882 22.7924 48.4809 22.5828H48.4178C48.2734 23.0837 48.1783 23.5976 48.1339 24.1171Z" fill="#C1B878"/>
<path opacity="0.51" d="M48.1338 31.9102C48.26 30.7028 48.5913 30.513 48.6597 29.3688C48.698 28.9526 48.6441 28.5331 48.5019 28.1402C48.3816 27.8281 48.2032 27.5418 47.9761 27.2966C47.8455 27.3802 47.7254 27.4794 47.6185 27.5919C47.5049 27.7178 47.4028 27.8536 47.3135 27.9979C47.2576 28.0917 47.2067 28.1885 47.1611 28.2879V28.3195C47.119 28.4144 47.0769 28.5093 47.0401 28.6148C47.0378 28.6252 47.0378 28.636 47.0401 28.6464L46.9297 28.9575C46.6686 30.046 46.7456 31.1885 47.1505 32.2318C47.1874 32.332 47.2294 32.4269 47.2715 32.5218V32.5851L47.3346 32.7064L47.3714 32.7855L47.4135 32.8646C47.4135 32.8909 47.4398 32.9173 47.4555 32.9384C47.4822 32.9911 47.512 33.0422 47.5449 33.0913C47.5712 33.1282 47.587 33.1651 47.6133 33.202L47.6658 33.2811L47.7132 33.3496C47.7401 33.3922 47.7699 33.4327 47.8026 33.4709L47.8288 33.5131L47.9288 33.6344L47.9918 33.7082L48.0602 33.7925C48.0621 33.8012 48.0621 33.8102 48.0602 33.8189L48.097 33.8558L48.1969 33.9613L48.2443 34.0035L48.3021 34.0562L48.4756 34.2038L48.5335 34.246L48.5808 34.2776L48.6228 34.304L48.7701 34.3936V34.3304C48.256 33.6355 48.0281 32.7689 48.1338 31.9102Z" fill="#75690D"/>
<path d="M33.3687 12.5965C32.8009 12.0376 32.2277 11.4839 31.6651 10.925C30.6776 10.2245 29.757 9.43372 28.915 8.56289C27.2692 6.89673 25.5392 5.34131 23.8724 3.70151C22.9995 2.99497 22.9101 3.39569 22.9206 3.96514C23.0537 4.41181 23.2299 4.84442 23.4465 5.25692C23.645 5.7337 23.8842 6.19239 24.1616 6.62783C25.3289 8.52072 26.4016 10.4189 27.958 11.9691C28.6673 12.589 29.4232 13.1531 30.2191 13.6563C31.1866 14.3628 32.0858 15.1695 33.0322 15.8655C34.2679 16.7724 35.6193 17.4473 36.8812 18.3121C37.3963 18.6968 37.9517 19.0239 38.5376 19.2875C38.805 19.3518 39.0657 19.4418 39.3158 19.5564C39.3783 19.5959 39.4364 19.6418 39.4893 19.6935C39.4893 19.5828 39.4893 19.472 39.4893 19.356C38.4267 18.3185 37.4408 17.2048 36.5395 16.0237C35.5525 14.8182 34.4937 13.6737 33.3687 12.5965Z" fill="#708E4D"/>
<path d="M23.1467 3.32715C22.8996 3.32715 22.7892 3.67514 22.8996 4.04422C22.9679 4.28677 23.3676 5.01439 23.4675 5.25693C23.666 5.73371 23.9053 6.1924 24.1826 6.62785C25.3499 8.52074 26.4226 10.4189 27.979 11.9691C28.6883 12.589 29.4442 13.1531 30.24 13.6563C31.2076 14.3628 32.1067 15.1696 33.0532 15.8655C33.7421 16.3928 34.4624 16.8094 35.1881 17.247C33.7368 16.1608 32.0647 14.8954 30.708 13.7987C28.9518 12.3856 27.5531 11.4154 26.3805 9.81781C25.0695 8.07645 23.9483 6.19921 23.0363 4.21823C22.8312 3.74369 22.9732 3.44842 23.1467 3.32715Z" fill="#426122"/>
<path d="M36.7183 17.7899C37.0706 17.7583 37.5754 17.3681 37.933 17.5579C37.6963 17.2416 37.1495 16.7723 36.9181 16.4507C36.854 16.7671 36.7534 17.075 36.6184 17.3681C36.8603 17.2732 37.1863 17.0465 37.465 17.0992C37.3967 17.4525 36.9392 17.5263 36.7183 17.7899Z" fill="#657E41"/>
<path d="M36.6971 16.187C35.8926 15.4014 34.9724 14.3099 34.1416 13.5507L34.0259 13.4399C33.4475 13.7458 32.3695 13.7141 31.7964 13.9039C32.5365 13.8696 33.2777 13.937 33.9996 14.1043C35.0144 14.4154 33.9996 15.085 33.3791 15.2379C33.9156 15.0805 34.4619 14.9589 35.0144 14.8741C35.6875 15.4435 34.4255 15.7546 34.3256 16.1132C34.7206 15.9115 35.1281 15.7354 35.5455 15.5859C36.1397 15.5016 35.6612 16.1132 35.5455 16.4401C35.6947 16.2942 35.8817 16.1932 36.0852 16.1484C36.2887 16.1037 36.5007 16.1171 36.6971 16.187Z" fill="#596F39"/>
<path d="M30.8448 12.4697C31.4495 12.2483 32.6957 12.628 33.3687 12.5963C33.3687 12.5963 31.2076 10.366 29.6091 9.01087C28.2262 7.84034 27.5058 7.1918 26.7696 6.47472C26.1202 6.54269 25.4638 6.47813 24.8399 6.28491C25.5497 6.81218 26.5015 6.75945 27.1693 7.33945C26.9747 7.74017 25.9809 7.55035 25.5918 8.03017C25.8126 7.92471 27.1693 7.50289 27.3743 7.69271C27.7635 8.01434 26.4384 8.28325 26.3227 8.74724C26.696 8.47833 27.5742 8.00907 28.0369 8.12507C28.5885 8.39959 29.0663 8.80283 29.4303 9.3009C29.1253 9.63308 28.5732 9.6858 28.2577 9.82817C28.5417 9.79126 30.1454 9.57507 29.4881 10.1814C29.6774 10.1498 29.9035 10.1076 30.014 10.308C29.6354 10.7878 28.8834 10.9829 28.4365 11.2412C28.8887 11.1463 29.3619 11.0409 29.8141 10.9723C30.0402 10.9276 30.2733 10.9322 30.4974 10.9859C30.7215 11.0396 30.9314 11.141 31.1129 11.2834C31.2865 11.3941 32.0699 11.8107 32.0331 11.9952C31.9963 12.1798 31.176 12.0479 30.8448 12.4697Z" fill="#596F39"/>
<path d="M39.6103 19.3928C39.1266 18.934 35.9296 15.1746 33.2584 12.4381C31.6003 10.7507 29.8557 9.15091 28.0317 7.64526C28.0317 7.64526 32.3803 12.0269 33.1901 12.7176C33.9998 13.4083 36.7551 16.5402 37.3966 17.2521C38.0381 17.9639 38.8847 18.992 39.3895 19.5879C39.9889 20.3049 40.9196 20.5791 41.5191 21.4333C41.6663 21.6389 42.4445 22.0502 42.0817 21.3384C41.7189 20.6266 40.0941 19.8462 39.6103 19.3928Z" fill="#E5E1AB"/>
<path d="M41.5873 20.769C41.2031 20.7235 40.8285 20.6167 40.4778 20.4526C40.8828 20.7154 41.2388 21.0473 41.5295 21.4333C41.6767 21.639 42.4549 22.0503 42.0921 21.3384C41.9615 21.1182 41.7902 20.9249 41.5873 20.769Z" fill="#A69D5C"/>
<path d="M21.7428 20.9693C21.5939 20.796 21.4619 20.6089 21.3484 20.4104C21.0061 20.0015 20.618 19.6335 20.1916 19.3137C19.2294 18.4964 18.367 17.5737 17.3627 16.7986C16.5897 16.1975 15.7379 15.6703 14.9544 15.0587C14.3723 14.5396 13.7518 14.0655 13.0983 13.6403C11.5208 12.7545 9.74878 12.3327 7.97676 11.8371C7.56597 11.7151 7.14553 11.6287 6.72004 11.5787C6.50445 11.5523 5.75252 11.3414 5.56848 11.4416C5.38444 11.5418 5.41074 11.8898 5.56848 12.2589C7.25637 13.2132 8.89168 14.2361 10.5901 15.1746C11.8777 15.82 13.0446 16.6834 14.0395 17.7266C15.3078 18.4884 16.6233 19.1682 17.9779 19.7619C18.7453 20.1436 19.5335 20.4816 20.3389 20.7742C20.812 20.9074 21.2635 21.1081 21.6797 21.37C21.8603 21.3663 22.0387 21.3287 22.2055 21.2593H22.1582C22.1424 21.1855 21.89 21.1011 21.7428 20.9693Z" fill="#6E9145"/>
<path d="M13.0981 13.6403C11.5207 12.7545 9.74865 12.3327 7.97663 11.8371C7.56584 11.7151 7.14539 11.6287 6.7199 11.5787C6.50432 11.5523 5.75239 11.3414 5.56835 11.4416C5.38431 11.5418 5.40009 11.6736 5.44216 11.8792C5.48948 11.8792 5.35802 11.352 5.79445 11.4732C7.56576 11.8074 9.31075 12.269 11.0159 12.8547C12.5618 13.4241 13.645 14.3205 15.1804 15.3961C16.3583 16.2345 17.7569 17.2732 18.9506 18.1853C18.4247 17.7055 17.8989 17.231 17.3731 16.7986C16.6001 16.1975 15.7483 15.6703 14.9648 15.0587C14.3793 14.5392 13.7553 14.065 13.0981 13.6403Z" fill="#496F23"/>
<path d="M18.3354 20.2575C18.7967 20.5321 19.308 20.7113 19.8393 20.7848C20.3651 20.8692 20.8384 20.9904 21.3274 21.0537C21.2906 20.943 21.2485 20.827 21.2169 20.7162C21.1486 20.7584 21.0329 20.7637 20.9698 20.8111C20.9698 20.7426 20.9435 20.6582 20.9698 20.5791C20.835 20.573 20.7004 20.5964 20.5755 20.6477C20.5897 20.4916 20.6143 20.3366 20.649 20.1837C20.6058 20.2474 20.5498 20.3015 20.4847 20.3425C20.4196 20.3836 20.3467 20.4106 20.2706 20.422C20.1946 20.4334 20.117 20.4288 20.0428 20.4087C19.9685 20.3886 19.8992 20.3533 19.8393 20.305C19.6027 20.0624 19.7972 19.5668 19.7394 19.2768C19.5869 19.5141 19.629 19.899 19.3818 20.0466C19.2767 19.8357 19.3818 19.5194 19.3818 19.3084C19.0085 19.6195 19.1084 20.3103 18.4458 19.8673C17.878 19.493 18.1251 19.1239 18.3775 18.6494C18.1409 18.8181 17.7675 19.3401 17.6992 18.8497C17.7167 18.4815 17.7607 18.1149 17.8306 17.753C17.5677 17.9165 17.615 18.9921 17.0051 18.5914C16.9462 18.1297 16.9163 17.6648 16.9157 17.1994C16.9157 17.7266 16.6423 18.6968 16.1638 17.9534C15.8628 17.4155 15.6364 16.839 15.4907 16.2397C15.4907 16.767 15.7799 17.7056 15.6117 18.2223L15.6853 18.3435C15.658 18.3378 15.6327 18.325 15.6117 18.3066C16.1901 19.261 17.4153 19.6881 18.3354 20.2575Z" fill="#5B7635"/>
<path d="M8.55501 13.9251C8.36571 14.7845 9.25435 15.1694 9.90111 15.6598C10.5489 16.1573 11.2713 16.5488 12.0412 16.8198C12.5455 16.9956 13.0623 17.1331 13.5871 17.2311C13.829 17.2838 14.113 17.4947 14.3654 17.3681C14.211 16.8556 14.1399 16.3215 14.155 15.7863C13.8974 16.1502 14.1971 16.7723 14.0183 16.8409C13.8395 16.9094 13.3663 16.3821 13.2401 16.2714C13.089 16.1562 12.9639 16.0102 12.8733 15.843C12.7826 15.6757 12.7285 15.4911 12.7143 15.3013C12.6617 14.9269 12.6407 14.5209 12.6144 14.1413C12.5092 14.5578 12.5302 15.1958 12.2358 15.6176C12.0465 15.5702 12.0254 15.3803 12.0097 15.2169C11.6784 15.8865 11.4838 14.5525 11.447 14.3152C11.4791 14.6726 11.4324 15.0326 11.3103 15.3698C10.8321 15.1895 10.4021 14.9008 10.0536 14.5262C9.85381 14.1834 10.0221 13.3715 10.1535 13.0129C9.81175 13.2027 9.90639 14.3205 9.55935 14.0674C9.37005 13.9409 9.38582 12.7704 9.41737 12.57C9.12816 12.9971 9.50677 13.7458 9.23334 13.9936C8.6339 13.5929 8.4446 12.8178 7.87671 12.3696C8.05023 12.7651 8.62865 13.3135 8.58133 13.7511L8.55501 13.9251Z" fill="#5B7635"/>
<path d="M17.7728 19.1926C16.0421 18.3448 14.376 17.3702 12.7881 16.2768C11.4349 15.3554 10.0305 14.5121 8.58147 13.7512C7.42903 13.2003 6.37261 12.4667 5.45282 11.5789C5.26878 12.0481 6.17319 13.2767 6.39929 13.593C7.66197 15.2855 9.23847 16.7177 11.0423 17.8112C12.8173 18.9818 14.7487 19.8942 16.779 20.5213C17.685 20.8459 18.632 21.0412 19.5922 21.1013C20.4072 21.1013 21.4746 21.5917 22.2213 21.2648H22.174V21.2384C20.5913 20.922 19.1032 20.0151 17.7728 19.1926Z" fill="#93AD64"/>
<path d="M11.1526 15.217C11.4576 15.4174 11.7678 15.6125 12.078 15.8023C11.7731 15.6019 11.4628 15.4174 11.1526 15.217Z" fill="#A0B96A"/>
<path d="M5.54218 12.1218C5.77981 12.6432 6.0743 13.1366 6.42029 13.5929C7.68297 15.2853 9.25947 16.7175 11.0633 17.811C12.8383 18.9816 14.7697 19.8941 16.8 20.5212C17.5845 20.7919 18.3953 20.9792 19.2188 21.0801C17.0724 20.5829 15.0103 19.7729 13.0982 18.6758C10.1063 17.036 7.14594 15.1642 5.54218 12.1218Z" fill="#BFD493"/>
<path d="M17.6624 20.5951C17.7886 20.5318 18.9401 20.0678 19.0874 20.1785C19.6132 20.5055 19.7709 20.9958 20.6228 21.0274C21.0876 21.0447 21.5448 21.1522 21.9689 21.3438C22.0608 21.3244 22.1506 21.2962 22.2371 21.2594H22.1897V21.2331C20.6122 20.9062 19.1294 19.9993 17.7938 19.1767C16.0654 18.3277 14.4011 17.3531 12.8143 16.2609C11.4605 15.3406 10.0561 14.4974 8.60773 13.7353C7.45529 13.1844 6.39887 12.4509 5.47908 11.563C5.43987 11.758 5.46769 11.9606 5.55797 12.1377C5.67318 12.1841 5.77847 12.252 5.86818 12.3381C6.24152 12.6808 7.54558 13.6088 8.05562 13.6721C8.56567 13.7353 8.58144 13.9093 7.94519 14.3259C8.14079 14.3022 8.33851 14.3022 8.53411 14.3259C8.99683 14.3839 9.78029 14.3259 9.86442 14.7951C9.90123 14.9902 9.29128 15.1748 9.21241 15.4489C9.10199 15.8497 10.1116 14.7899 10.3272 15.0482C10.3272 15.0482 11.6522 15.5755 11.6575 15.855C11.6575 16.2768 10.5112 16.2662 10.5112 16.2662C10.5533 16.8251 12.3148 16.3084 12.6145 16.4033C13.7555 16.746 12.4147 16.9306 11.7521 17.7004C12.2149 17.5791 12.7617 16.9622 13.2402 16.8989C13.7187 16.8357 13.887 17.2733 13.0772 17.9535L14.1289 17.4262C14.539 17.616 13.7608 18.1064 13.4085 18.4438C15.0491 17.6793 15.2804 18.1275 15.1122 18.0115C15.5118 18.2804 14.681 18.834 14.7756 18.8024C14.8703 18.7707 15.5591 18.3067 15.659 18.2751C16.0691 18.196 16.6265 18.8393 17.0051 19.0502C17.3837 19.2611 16.9262 19.6196 16.4793 19.8516C16.8106 19.8938 17.3679 19.4087 17.5309 19.3718C17.5309 19.3718 18.0568 19.53 17.6256 19.9466C17.4205 20.1364 18.3302 19.6249 18.4985 19.8358C18.5142 19.936 17.6361 20.5107 17.6624 20.5951Z" fill="#7C8F4D"/>
<path d="M22.174 21.0484C21.5219 21.0748 20.1916 20.3313 19.4712 19.9939C18.7508 19.6564 15.8641 17.9481 15.1279 17.4577C14.3918 16.9673 10.3692 14.7739 10.3692 14.7739C11.2053 15.3856 14.1236 17.1624 16.0849 18.4648C18.0462 19.7671 20.9698 20.8428 21.6744 21.254C21.7988 21.3148 21.9318 21.3557 22.0688 21.3753C22.5303 21.4985 22.9993 21.5919 23.4727 21.6548C23.6883 21.5388 23.3676 21.4175 23.5148 21.2382C23.2677 21.2593 22.5473 21.0273 22.174 21.0484Z" fill="#E5E1AB"/>
<path d="M53.8548 20.7585C53.7403 20.5618 53.6436 20.3554 53.5656 20.1416C53.2909 19.6835 52.9664 19.2573 52.5981 18.8708C51.7725 17.9112 51.0679 16.8619 50.2003 15.934C49.5325 15.2221 48.7806 14.5578 48.097 13.8249C47.6031 13.22 47.0653 12.6526 46.488 12.1271C45.0578 10.9987 43.3909 10.2975 41.7241 9.5224C41.3383 9.3366 40.9372 9.18488 40.5252 9.06896C40.3096 9.01096 39.605 8.67351 39.4052 8.74205C39.2054 8.8106 39.1791 9.16386 39.2842 9.55931C40.7986 10.772 42.2499 12.0427 43.78 13.2502C44.9473 14.0951 45.9611 15.1349 46.7772 16.3241C47.9062 17.2786 49.0953 18.1592 50.337 18.9605C51.0316 19.4615 51.7549 19.921 52.5034 20.3367C52.9487 20.5474 53.3628 20.8189 53.7339 21.1434C53.9181 21.1777 54.107 21.1777 54.2912 21.1434H54.2386C54.2176 21.0379 53.9863 20.9114 53.8548 20.7585Z" fill="#6E9145"/>
<path d="M48.1338 13.8354C47.6399 13.2306 47.1021 12.6631 46.5248 12.1376C45.0946 11.0093 43.4277 10.308 41.7609 9.53293C41.3751 9.34713 40.974 9.19538 40.562 9.07945C40.3464 9.02146 39.6418 8.68401 39.442 8.75255C39.2422 8.8211 39.2422 8.96347 39.2527 9.16384C39.2947 9.16384 39.2527 8.63656 39.6628 8.82638C41.3608 9.4375 43.0111 10.1742 44.6003 11.0303C46.0253 11.8423 46.9665 12.9021 48.2811 14.194C49.3327 15.2063 50.5263 16.4612 51.5569 17.5474C51.1258 17.0201 50.6946 16.4401 50.2108 15.9234C49.5325 15.2221 48.7806 14.5578 48.1338 13.8354Z" fill="#496F23"/>
<path d="M50.6103 19.5089C51.0223 19.8542 51.4974 20.1156 52.009 20.2787C52.498 20.4369 52.9608 20.6372 53.4393 20.7796C53.413 20.6636 53.3919 20.5423 53.3762 20.4263C53.3078 20.458 53.1921 20.4263 53.1238 20.4791C53.1238 20.4158 53.1238 20.3262 53.1553 20.2523C53.0219 20.2234 52.8839 20.2234 52.7505 20.2523C52.79 20.1017 52.8392 19.9538 52.8977 19.8095C52.8455 19.8663 52.7821 19.9117 52.7115 19.9428C52.6409 19.9738 52.5646 19.9899 52.4875 19.9899C52.4104 19.9899 52.3342 19.9738 52.2636 19.9428C52.193 19.9117 52.1296 19.8663 52.0774 19.8095C51.8881 19.53 52.1563 19.0713 52.1457 18.7813C51.9564 18.9869 51.9407 19.3718 51.6672 19.4825C51.5989 19.2558 51.7514 18.9553 51.8092 18.7549C51.3885 19.0027 51.378 19.6987 50.7996 19.1609C50.2212 18.6231 50.5998 18.37 50.9258 17.9482C50.6629 18.0747 50.2107 18.5282 50.2212 18.0326C50.299 17.6746 50.4009 17.3222 50.5262 16.978C50.2423 17.094 50.1108 18.1644 49.5797 17.6687C49.5913 17.2038 49.637 16.7403 49.7164 16.282C49.6481 16.8093 49.1906 17.7162 48.8488 16.9095C48.6375 16.3291 48.5066 15.7223 48.4597 15.1062C48.3545 15.6335 48.5123 16.5984 48.2652 17.0835L48.3125 17.2153C48.287 17.2038 48.2638 17.1878 48.2441 17.1678C48.6595 18.1749 49.7901 18.7918 50.6103 19.5089Z" fill="#5B7635"/>
<path d="M46.8876 15.4858C46.7457 15.5333 46.3197 14.9269 46.2146 14.8004C46.0776 14.6632 45.972 14.4979 45.9048 14.3159C45.8376 14.1338 45.8106 13.9394 45.8255 13.7459C45.8255 13.361 45.8781 12.9602 45.9096 12.5806C45.7413 12.976 45.6572 13.6351 45.2996 13.9779C45.1261 13.8988 45.1366 13.709 45.1419 13.5508C44.7107 14.1519 44.7265 12.8073 44.7318 12.5648C44.7066 12.9241 44.6025 13.2735 44.4268 13.5877C43.9791 13.3308 43.6002 12.969 43.3225 12.5332C43.2717 12.0168 43.3918 11.4979 43.6643 11.0568C43.2963 11.1886 43.2069 12.3064 42.9071 12.0164C42.7389 11.8582 42.944 10.7088 43.0071 10.5137C42.6495 10.8934 42.9071 11.6895 42.5969 11.8952C42.0711 11.3995 42.0027 10.6086 41.5137 10.0708C41.6241 10.4926 42.1079 11.1253 41.987 11.5471V11.6526C41.6557 12.4646 42.476 12.9972 43.0386 13.5824C43.5989 14.177 44.2482 14.6804 44.9631 15.0746C45.4344 15.3267 45.9229 15.5452 46.4249 15.7284C46.651 15.8128 46.9086 16.0711 47.1663 15.9815C47.0966 15.4553 47.1108 14.9214 47.2084 14.3997C46.8824 14.7635 47.0822 15.4173 46.8876 15.4858Z" fill="#5B7635"/>
<path d="M50.237 18.3648C48.6658 17.2457 47.179 16.0121 45.7886 14.674C44.5991 13.5475 43.3456 12.4912 42.0342 11.5104C40.9873 10.7829 40.0626 9.89297 39.2947 8.87402C39.0423 9.31166 39.7363 10.6667 39.9046 11.0147C40.8836 12.8868 42.2117 14.5532 43.8167 15.9236C45.3905 17.3663 47.161 18.5771 49.0749 19.5196C49.9144 19.9968 50.8174 20.3519 51.7567 20.5741C52.5612 20.7165 53.5392 21.3597 54.3437 21.1646H54.2911C54.2911 21.1646 54.2911 21.1646 54.2911 21.133C52.7347 20.5214 51.4096 19.393 50.237 18.3648Z" fill="#93AD64"/>
<path d="M44.3269 13.3716C44.595 13.6247 44.8527 13.8672 45.1472 14.1045C44.8737 13.8356 44.6003 13.6089 44.3269 13.3716Z" fill="#A0B96A"/>
<path d="M39.2632 9.41699C39.4125 9.96595 39.6224 10.4965 39.8889 10.9988C40.868 12.8709 42.196 14.5372 43.8011 15.9076C45.3748 17.3504 47.1453 18.5612 49.0593 19.5036C49.7902 19.8979 50.5604 20.2142 51.3571 20.4474C49.3181 19.6103 47.412 18.4787 45.6993 17.0887C43.0018 15.006 40.378 12.6808 39.2632 9.41699Z" fill="#BFD493"/>
<path d="M49.8901 19.7303C50.0268 19.6882 51.2362 19.4298 51.3677 19.5458C51.8462 19.9624 51.8935 20.4685 52.7453 20.632C53.2003 20.7265 53.6336 20.9053 54.0231 21.1593C54.1167 21.1565 54.2099 21.1459 54.3018 21.1276H54.2492C54.2492 21.1276 54.2492 21.1276 54.2492 21.096C52.7506 20.516 51.4203 19.3876 50.2372 18.3595C48.6637 17.2433 47.1766 16.0095 45.7887 14.6686C44.6007 13.5406 43.3471 12.4842 42.0343 11.505C40.9889 10.7757 40.0644 9.88606 39.2948 8.86865C39.2295 9.05644 39.2295 9.26085 39.2948 9.44863C39.3982 9.51648 39.4905 9.6001 39.5682 9.69647C39.8837 10.1025 41.0195 11.2255 41.519 11.3679C42.0185 11.5103 41.9975 11.6895 41.3034 12.0006C41.4997 12.005 41.6944 12.037 41.8818 12.0955C42.3288 12.2326 43.1122 12.2959 43.1228 12.7757C43.1228 12.9708 42.497 13.0551 42.3708 13.303C42.1973 13.6826 43.3647 12.7757 43.5382 13.0868C43.5382 13.0868 44.7581 13.825 44.7213 14.0991C44.6634 14.5157 43.5224 14.3153 43.5224 14.3153C43.4751 14.8795 45.2944 14.6528 45.5941 14.7951C46.6458 15.3224 45.3102 15.2855 44.5425 15.934C45.021 15.8918 45.6625 15.3698 46.1199 15.4067C46.5774 15.4437 46.6984 15.8813 45.7834 16.4613L46.8929 16.0922C47.2663 16.3453 46.4197 16.7038 46.0148 16.9833C47.7553 16.4876 47.9183 16.9833 47.771 16.8304C48.1181 17.1626 47.2084 17.5686 47.3083 17.558C47.4082 17.5475 48.1601 17.1942 48.2601 17.1889C48.6807 17.1889 49.1277 17.9007 49.4694 18.1696C49.8112 18.4385 49.3012 18.6969 48.8437 18.8762C49.1592 18.9764 49.7902 18.5862 49.9269 18.5703C49.9269 18.5703 50.4527 18.8129 49.9269 19.1504C49.6955 19.3085 50.6736 18.95 50.8103 19.1873C50.8366 19.2189 49.8796 19.6354 49.8901 19.7303Z" fill="#7C8F4D"/>
<path d="M54.2754 20.9008C53.6287 20.827 52.4298 19.8779 51.7778 19.4033C51.1258 18.9288 48.544 16.8039 47.8972 16.2028C47.2505 15.6017 43.6275 12.7861 43.6275 12.7861C44.3532 13.5243 46.9507 15.7441 48.6807 17.347C50.4106 18.9499 53.1239 20.479 53.7496 21.001C53.864 21.0812 53.9899 21.1434 54.123 21.1855C54.5572 21.3804 55.0033 21.5477 55.4586 21.6864C55.6952 21.6073 55.3955 21.4333 55.569 21.2804C55.3166 21.2857 54.6435 20.9482 54.2754 20.9008Z" fill="#E5E1AB"/>
<path d="M23.5148 21.2173C23.2677 21.2648 22.5473 21.0328 22.174 21.0538H22.1319C22.3834 21.1505 22.6048 21.3125 22.7734 21.5231C23.0035 21.5782 23.2372 21.617 23.4727 21.6391C23.6883 21.5126 23.3676 21.3913 23.5148 21.2173Z" fill="#ADA261"/>
<path d="M24.3561 19.4984C24.2777 18.8601 24.1296 18.2324 23.9144 17.6266C23.478 16.1661 23.2151 14.6686 22.7155 13.2134C22.3264 12.1009 21.8216 11.0041 21.4378 9.8705C21.1896 8.96098 20.875 8.07101 20.4966 7.20781C19.4449 5.26219 17.9831 3.66984 16.5213 1.99841C16.1876 1.60481 15.8217 1.23973 15.4276 0.906958C15.2226 0.738232 14.6073 0.0264371 14.376 7.37603e-05C14.1446 -0.0262896 13.9185 0.353325 13.8502 0.838411C14.9018 2.91584 15.8956 5.05655 17.0051 7.10235C17.8752 8.60878 18.4833 10.2527 18.8034 11.9638C19.5825 13.5689 20.4606 15.1239 21.4325 16.6195C21.9536 17.5132 22.526 18.3759 23.1467 19.2031C23.5352 19.6531 23.8591 20.1554 24.109 20.6953C24.2988 20.8166 24.5091 20.9023 24.7294 20.9484H24.6716C24.6716 20.8271 24.4823 20.5741 24.4192 20.3421C24.3738 20.0632 24.3526 19.7809 24.3561 19.4984Z" fill="#87A564"/>
<path d="M20.4966 7.20767C19.4449 5.26205 17.9832 3.6697 16.5214 1.99827C16.1876 1.60467 15.8218 1.2396 15.4277 0.906821C15.2226 0.738095 14.6074 0.0263 14.376 -6.33537e-05C14.1446 -0.0264267 14.0553 0.131755 13.9659 0.363752C14.0027 0.395388 14.2078 -0.210978 14.5811 0.189745C16.1502 1.69626 17.6055 3.31769 18.9349 5.04061C20.1127 6.62241 20.6281 8.26747 21.4589 10.3607C22.1004 11.9847 22.8155 13.962 23.4202 15.6703C23.2151 14.8478 23.01 14.0252 22.7366 13.2133C22.3475 12.1007 21.8427 11.004 21.4589 9.87036C21.2039 8.96027 20.8822 8.07029 20.4966 7.20767Z" fill="#4F712D"/>
<path d="M20.0233 13.5139V13.6827C20.0014 13.6575 19.9836 13.629 19.9707 13.5983C19.9182 14.927 20.8699 16.1608 21.422 17.3524C21.7038 17.9363 22.0988 18.4579 22.5841 18.8868C23.0415 19.3033 23.4569 19.7515 23.9092 20.1417C23.9407 20.0046 23.9775 19.8622 24.0196 19.7251C23.9249 19.7251 23.804 19.6566 23.7093 19.6618C23.7672 19.5986 23.783 19.4826 23.8566 19.4246C23.7253 19.328 23.5746 19.2614 23.4149 19.2295C23.5311 19.0819 23.6576 18.9427 23.7935 18.813C23.7075 18.848 23.6152 18.8649 23.5223 18.8627C23.4295 18.8605 23.3381 18.8393 23.2538 18.8002C23.1695 18.7612 23.0941 18.7052 23.0323 18.6357C22.9705 18.5663 22.9235 18.4848 22.8943 18.3964C22.8207 17.9957 23.336 17.6213 23.4727 17.2944C23.1625 17.4315 22.9469 17.8217 22.6051 17.8217C22.6367 17.5422 22.9522 17.2944 23.1309 17.0941C22.5525 17.1573 22.2002 17.9219 21.8217 17.0361C21.5009 16.2821 21.9899 16.0764 22.5578 15.7653C22.2107 15.7653 21.5061 16.0553 21.7428 15.5123C21.9163 15.1432 22.3738 14.8321 22.5946 14.4946C22.2213 14.4946 21.543 15.6019 21.2117 14.7952C21.4537 14.2892 21.7314 13.8011 22.0425 13.3346C21.7165 13.8619 20.7752 14.6581 20.7805 13.5983C20.8337 12.8554 20.9858 12.123 21.2327 11.4207C20.8384 11.9637 20.5334 13.1027 20.0233 13.5139Z" fill="#6A814A"/>
<path d="M15.7272 4.48712C14.9701 5.2253 15.6116 6.20601 15.9428 7.12346C16.2703 8.0522 16.7404 8.9239 17.3363 9.70705C17.7302 10.216 18.1589 10.697 18.6193 11.1465C18.8296 11.3574 18.9874 11.7687 19.3186 11.795C19.4959 11.1875 19.7693 10.6125 20.1284 10.092C19.6026 10.2818 19.5237 11.1096 19.2871 11.0832C19.0505 11.0569 18.9295 10.1869 18.8769 9.99179C18.7943 9.77558 18.759 9.54404 18.7735 9.31295C18.7881 9.08186 18.852 8.85662 18.9611 8.65251C19.1556 8.24125 19.4028 7.81945 19.6236 7.41873C19.245 7.772 18.8401 8.43634 18.267 8.65779C18.1145 8.47852 18.2197 8.27817 18.3038 8.10417C17.5361 8.55762 18.2144 7.08127 18.3353 6.81763C18.1197 7.08654 17.9041 7.59798 17.4993 7.79307C17.1326 7.29702 16.8892 6.72039 16.7894 6.11108C16.8157 5.63654 17.5203 4.93003 17.8884 4.65585C17.4204 4.61894 16.7736 5.81056 16.5791 5.34129C16.4792 5.0882 17.2626 3.91767 17.4256 3.75949C16.8525 4.00203 16.7421 5.00911 16.3004 5.07766C15.9639 4.27621 16.3004 3.36931 16.0007 2.5415C15.9165 3.06877 16.1374 3.99147 15.8009 4.40274L15.7272 4.48712Z" fill="#6A814A"/>
<path d="M21.5429 15.9024C20.362 13.9015 19.3287 11.8168 18.451 9.66485C17.6911 7.84412 16.8291 6.06789 15.8692 4.34471C15.0708 3.02494 14.4902 1.58452 14.1498 0.0791016C13.6555 0.432371 13.7554 2.26726 13.7712 2.71544C13.9357 5.25643 14.5836 7.7424 15.6799 10.0392C16.6956 12.3978 18.0412 14.5993 19.6762 16.5773C20.3748 17.5037 21.1996 18.3273 22.1265 19.0238C22.9468 19.5511 23.704 20.7638 24.6873 20.9431H24.6294C24.632 20.9274 24.632 20.9113 24.6294 20.8956C23.257 19.5142 22.3684 17.616 21.5429 15.9024Z" fill="#BED29B"/>
<path d="M17.4941 7.5083C17.6676 7.91957 17.8517 8.32556 18.0199 8.72101C17.8674 8.30447 17.6834 7.90375 17.4941 7.5083Z" fill="#D2E5A8"/>
<path d="M13.7713 2.72069C13.9358 5.26168 14.5837 7.74765 15.68 10.0444C16.6957 12.4031 18.0413 14.6046 19.6763 16.5826C20.29 17.3751 20.9843 18.1013 21.748 18.7496C19.9113 16.8195 18.3649 14.6311 17.1576 12.2537C15.2384 8.63664 13.4768 4.78758 13.8554 0.653809C13.7544 1.33783 13.7262 2.03068 13.7713 2.72069Z" fill="#DBEFB0"/>
<path d="M20.5123 17.2469C20.6858 17.2469 22.1371 17.5791 22.2265 17.7742C22.5578 18.4649 22.3737 19.0555 23.2151 19.646C23.6705 19.9714 24.0596 20.3813 24.3614 20.8534C24.4669 20.8964 24.576 20.9299 24.6874 20.9536H24.6295C24.6321 20.9379 24.6321 20.9219 24.6295 20.9062C23.2624 19.5353 22.3527 17.6371 21.5482 15.9235C20.3653 13.9238 19.3319 11.8389 18.4564 9.68593C17.6958 7.85685 16.8303 6.07345 15.8641 4.34471C15.0703 3.02318 14.4917 1.58325 14.1499 0.0791016C13.981 0.249603 13.8753 0.472838 13.8502 0.711829C13.9346 0.83474 13.9952 0.972471 14.029 1.11783C14.1814 1.71892 14.8808 3.5169 15.3593 3.91762C15.8378 4.31835 15.7273 4.50288 14.8334 4.50288C15.0463 4.60799 15.2444 4.74097 15.4224 4.89833C15.8535 5.26742 16.6791 5.72087 16.474 6.25341C16.3846 6.46959 15.6485 6.25341 15.3856 6.48013C15.007 6.80704 16.7264 6.41159 16.7737 6.81231C16.7737 6.81231 17.757 8.2254 17.5783 8.50485C17.3153 8.93721 16.1533 8.15684 16.1533 8.15684C15.8325 8.75793 17.9411 9.40119 18.1987 9.70701C19.1242 10.8037 17.6729 10.1077 16.474 10.4399C16.9998 10.6297 17.9831 10.3661 18.5037 10.6139C19.0243 10.8617 18.9086 11.4312 17.6308 11.5946L19.0295 11.7317C19.3187 12.1957 18.2092 12.1694 17.6308 12.259C19.792 12.5754 19.7341 13.1817 19.6342 12.955C19.8551 13.4823 18.6562 13.4822 18.7719 13.5297C18.8875 13.5771 19.8919 13.5297 20.0023 13.5982C20.4703 13.7881 20.607 14.8057 20.8489 15.2697C21.0907 15.7337 20.3967 15.797 19.7972 15.7442C20.1022 16.0026 20.9856 15.8866 21.1433 15.9393C21.1433 15.9393 21.585 16.4666 20.8647 16.5773C20.5334 16.6353 21.7848 16.725 21.8164 17.0466C21.8059 17.1468 20.5439 17.1467 20.5123 17.2469Z" fill="#9BAA74"/>
<path d="M20.5596 22.2191C19.527 22.2378 18.4964 22.317 17.473 22.4563C15.7054 22.6092 13.9492 22.8734 12.2148 23.2472C10.6748 24.0534 9.0083 24.5884 7.2878 24.829C4.98469 25.235 2.72365 25.7676 0.452097 26.2C0.115571 26.5585 -0.0737281 26.9117 0.120826 27.1332C0.315381 27.3546 1.23556 27.3652 1.49322 27.4232C1.99732 27.5287 2.50899 27.5939 3.02338 27.6183C5.23709 27.7396 7.40349 27.9399 9.56462 27.5498C10.4762 27.3186 11.3691 27.0189 12.2358 26.6534C13.3663 26.2579 14.5389 25.9838 15.6536 25.5989C17.0996 25.1032 18.4405 24.3862 19.8602 23.8325C20.4696 23.6303 21.0551 23.3615 21.6059 23.0311C21.811 22.8472 22.0328 22.683 22.2685 22.5407C22.4893 22.4458 22.7943 22.4511 22.8995 22.3667C22.7462 22.2321 22.5673 22.1298 22.3737 22.0662C21.7794 22.2043 21.1684 22.2558 20.5596 22.2191Z" fill="#87A564"/>
<path d="M0.110422 26.5796C-0.0105175 26.7958 -0.0473251 26.9856 0.110422 27.1069C0.268169 27.2282 1.22519 27.3389 1.48284 27.3969C1.98695 27.5024 2.49858 27.5677 3.01297 27.592C5.22669 27.7133 7.39308 27.9136 9.55421 27.5235C10.4658 27.2923 11.3587 26.9927 12.2254 26.6271C13.3559 26.2317 14.5285 25.9575 15.6433 25.5726C16.4478 25.2984 17.2207 24.9557 17.9884 24.6077C16.2742 25.1824 14.3077 25.8309 12.6092 26.3266C10.4534 26.9593 8.86011 27.5551 6.87776 27.6078C4.7049 27.6184 2.53429 27.4668 0.38386 27.1544C-0.184029 27.128 0.163004 26.5902 0.110422 26.5796Z" fill="#4F712D"/>
<path d="M19.2872 23.6849C19.4607 23.3738 19.4292 22.7358 19.813 22.546C19.9006 22.5142 19.9936 22.5008 20.0866 22.5067C20.1795 22.5126 20.2702 22.5375 20.3531 22.5801C20.4359 22.6226 20.5091 22.6818 20.5682 22.7539C20.6273 22.8261 20.6709 22.9097 20.6964 22.9994C20.7134 22.8217 20.7433 22.6455 20.7858 22.4722C20.9096 22.578 21.0549 22.6554 21.2117 22.6989C21.2117 22.604 21.2958 22.5196 21.3116 22.4405C21.3642 22.5144 21.4956 22.5671 21.5482 22.6409C21.6324 22.5302 21.7218 22.4089 21.8111 22.2982C21.2275 22.1822 20.6175 22.1294 20.0076 22.0293C19.3745 21.8978 18.7213 21.8978 18.0883 22.0293C16.8106 22.3192 15.2541 22.3298 14.2393 23.1945C14.2721 23.1865 14.3064 23.1865 14.3392 23.1945L14.213 23.3053C14.213 23.9591 13.4926 24.887 13.3086 25.5198C13.7033 24.8923 14.1829 24.3227 14.7336 23.8273C15.5644 23.1629 15.5223 24.3967 15.3067 24.982C15.4817 24.4404 15.6943 23.9119 15.943 23.4002C16.7895 23.1734 16.3268 24.3914 16.5634 24.6761C16.6229 24.2381 16.7125 23.8047 16.8316 23.3791C17.0998 22.8518 17.3574 23.5847 17.5309 23.8642C17.431 23.2262 17.2891 22.7147 18.0568 22.5038C18.9822 22.2613 18.5826 23.0047 18.9033 23.5003C18.9612 23.2525 18.9664 22.8518 19.1662 22.6567C19.3976 22.9309 19.2136 23.3263 19.2872 23.6849Z" fill="#6A814A"/>
<path d="M11.5734 25.4722C11.7601 24.8676 12.0443 24.2976 12.4147 23.785C12.1886 23.5372 11.7679 23.6637 11.4735 23.6321C10.8376 23.5432 10.1962 23.4992 9.55421 23.5003C8.57059 23.5114 7.59478 23.6769 6.66218 23.9906C5.73673 24.3017 4.55888 24.4019 4.45372 25.4564L4.41691 25.5724C4.30649 26.0997 3.43363 26.4951 3.08133 26.88C3.90161 26.5848 4.41693 25.778 5.25824 25.5513C5.47383 25.9415 4.73241 26.648 4.91645 27.2544C4.95851 27.0066 5.39493 25.6726 5.65784 25.5935C6.14686 25.4564 5.60527 26.6955 5.92602 27.0488C5.92602 26.5848 6.03118 25.5988 6.38874 25.2824C6.93005 24.9863 7.53387 24.8237 8.15027 24.8079C8.16397 25.2418 8.07757 25.6731 7.89785 26.0681C8.02931 25.8097 8.77073 24.365 8.89167 25.256C8.9758 25.0768 9.07046 24.8712 9.30182 24.887C9.4806 25.4722 9.20717 26.2051 9.1651 26.7219C9.33863 26.2948 9.52267 25.8466 9.72774 25.4353C9.82137 25.2234 9.95888 25.0339 10.1311 24.8794C10.3034 24.7248 10.5064 24.6088 10.7268 24.539C10.9161 24.4651 11.7101 24.0644 11.8363 24.1963C11.9625 24.3281 11.4209 24.9608 11.5734 25.4722Z" fill="#6A814A"/>
<path d="M8.79174 21.9924C6.31095 22.5369 3.95798 23.5555 1.86139 24.9925C1.4828 25.2667 -0.0210678 26.3212 0.00522332 26.9276C1.39838 26.2697 2.88794 25.8407 4.41689 25.6569C6.36695 25.3551 8.29814 24.9414 10.2009 24.4178C12.4329 23.7826 14.709 23.3155 17.0104 23.0205C18.8507 22.5987 20.9014 22.1506 22.826 22.3826H22.8628C22.1161 21.7182 20.7595 21.8816 19.8235 21.5758C18.705 21.2706 17.5488 21.1268 16.3899 21.1487C13.83 21.0653 11.2714 21.3494 8.79174 21.9924Z" fill="#BED29B"/>
<path d="M7.91364 24.9925C8.34481 24.8923 8.77073 24.7921 9.20191 24.6814C8.77073 24.771 8.34481 24.8765 7.91364 24.9925Z" fill="#D2E5A8"/>
<path d="M8.79175 21.9922C6.31096 22.5368 3.95799 23.5554 1.8614 24.9924C1.28685 25.3776 0.757653 25.8269 0.283936 26.3316C3.31268 23.4897 7.41936 22.5037 11.4367 21.7919C14.0448 21.2864 16.7123 21.1639 19.3555 21.4281C18.3753 21.2214 17.3758 21.1206 16.3741 21.1275C13.8185 21.0525 11.2653 21.3436 8.79175 21.9922Z" fill="#DBEFB0"/>
<path d="M3.76477 25.5198C3.16008 25.388 1.31444 25.9416 0.746555 26.1947C0.610393 26.2558 0.464288 26.2915 0.315377 26.3002C0.143703 26.4678 0.0342375 26.6891 0.00512695 26.9276C1.39829 26.2698 2.88784 25.8407 4.41679 25.6569C6.36685 25.3551 8.29805 24.9414 10.2008 24.4178C12.4328 23.7826 14.7089 23.3155 17.0103 23.0206C18.8506 22.5987 20.9013 22.1506 22.8206 22.3826C22.8345 22.3854 22.8488 22.3854 22.8627 22.3826C22.7945 22.3201 22.7185 22.2669 22.6366 22.2244C22.0788 22.2767 21.5161 22.2194 20.9802 22.0557C19.9969 21.7604 19.6394 22.2666 18.8769 22.43C18.6719 22.4775 17.5308 21.5231 17.4099 21.3755C17.352 21.4651 18.1303 22.4617 18.0461 22.5144C17.7727 22.6831 16.9314 21.7551 17.0891 22.0504C17.4362 22.6937 16.7579 22.6673 16.7579 22.6673C16.6212 22.5724 16.169 21.7973 15.7746 21.7235C16.169 22.1506 16.6264 22.7306 16.0427 22.836C15.4591 22.9415 14.644 23.4424 14.2023 23.1946C14.0972 23.1313 13.4978 22.3246 13.3979 22.256C13.2979 22.1875 14.0341 23.1366 13.4767 23.3105C13.7134 23.2473 13.2717 23.6638 11.6995 22.1559C11.9676 22.6831 12.667 23.5373 12.1254 23.5953L11.1578 22.5724C11.8151 23.6902 11.4102 24.1068 10.9265 23.8695C10.4427 23.6322 10.0273 22.6884 9.54356 22.372C10.001 23.5057 11.4628 24.2438 10.0273 24.1858C9.62772 24.1858 7.81888 22.8993 7.55071 23.5215C7.55071 23.5215 8.87578 23.9591 8.70226 24.4389C8.58658 24.75 6.87241 24.8449 6.87241 24.8449C6.53062 25.0505 5.78392 23.4529 5.75763 23.9486C5.75763 24.2966 6.36761 24.7447 6.24668 24.9504C5.96799 25.4776 5.10036 25.0769 4.54825 24.9504C4.31525 24.9036 4.08911 24.8274 3.87521 24.7237C4.45361 25.4355 4.41679 25.6569 3.76477 25.5198Z" fill="#9BAA74"/>
<path d="M22.2476 22.2191C21.1959 22.3773 17.5415 22.5038 14.7914 23.2262C12.0413 23.9486 8.02929 24.8449 6.84619 25.2193C6.84619 25.2193 12.2832 24.2702 13.3138 24.0013C14.3445 23.7324 18.2828 22.9467 19.2451 22.7991C20.2074 22.6515 21.5167 22.5671 22.3001 22.4986C23.2256 22.4089 23.9828 21.8078 25.0239 21.7973C25.2763 21.7973 24.8767 21.5653 24.6506 21.4546C24.5244 21.4388 22.3685 22.2033 22.2476 22.2191Z" fill="#E5E1AB"/>
<path d="M17.5572 25.6567L15.3277 26.5162C14.2818 27.1224 13.1815 27.629 12.0413 28.0294C9.84339 28.8362 7.71381 29.7641 5.53164 30.5972C4.52732 31.0929 4.85333 31.346 5.36864 31.5727C5.83417 31.6321 6.30436 31.6462 6.77261 31.6148C7.28745 31.6303 7.80269 31.6039 8.31327 31.5358C10.5112 31.2616 12.6828 31.077 14.7388 30.3072C15.5956 29.921 16.4218 29.4697 17.2102 28.9574C18.2618 28.3669 19.3608 27.9029 20.3651 27.3124C21.7007 26.5689 22.8943 25.6251 24.1931 24.8289C24.7575 24.5204 25.2864 24.1509 25.7706 23.7269C25.9373 23.5095 26.1258 23.3099 26.3332 23.1311C26.3953 23.0894 26.4625 23.0558 26.533 23.031C26.4289 22.9871 26.3271 22.9378 26.2281 22.8833C24.8437 23.4195 23.4218 23.853 21.9741 24.1804C20.4747 24.5866 18.9999 25.0796 17.5572 25.6567Z" fill="#87A564"/>
<path d="M5.64735 31.5727C5.12152 31.5727 4.92697 31.309 4.89016 31.0981C4.80077 31.3301 5.05316 31.5727 5.41598 31.6254C5.66312 31.6623 6.46762 31.6254 6.75156 31.6254C7.2664 31.6409 7.78165 31.6145 8.29222 31.5463C10.4902 31.2722 12.6618 31.0876 14.7178 30.3178C15.5746 29.9315 16.4008 29.4803 17.1892 28.968C18.2408 28.3774 19.3398 27.9135 20.3441 27.3229C21.0908 26.9064 21.7901 26.4318 22.4842 25.9573C20.9067 26.822 19.0506 27.8185 17.4941 28.5936C15.4802 29.6007 14.0184 30.4707 12.0782 30.8714C9.9654 31.3331 7.80968 31.5682 5.64735 31.5727Z" fill="#4F712D"/>
<path d="M23.6621 24.7817C23.7777 24.4442 23.6621 23.822 23.9618 23.5742C23.5779 23.6639 22.9101 23.9644 22.5315 24.0382C22.7921 24.2304 23.0302 24.4515 23.2414 24.6973C23.2414 24.4389 23.1888 24.0435 23.3465 23.8168C23.641 24.0224 23.5201 24.4653 23.6621 24.7817Z" fill="#6A814A"/>
<path d="M18.7404 25.351L18.5932 25.4143C18.6248 26.0681 18.1515 27.033 18.0674 27.6341C18.3498 26.9474 18.7229 26.3018 19.1769 25.7148C19.8762 24.9187 20.055 26.1366 19.9393 26.7694C20.0193 26.2136 20.137 25.6639 20.2916 25.1243C21.0909 24.7499 20.8174 26.0312 21.1277 26.2737C21.1109 25.8305 21.1232 25.3866 21.1645 24.945C21.338 24.365 21.6903 25.0557 21.9374 25.2983C21.8677 25.1014 21.8543 24.8888 21.899 24.6847C21.9436 24.4806 22.0443 24.2931 22.1898 24.1436C21.1539 24.5337 19.7815 24.9081 18.7404 25.351Z" fill="#6A814A"/>
<path d="M16.3899 27.9029C16.4372 27.2649 17.3048 26.2842 17.5572 25.6567C17.5572 25.6567 14.6337 26.7113 12.7407 27.5866C11.1001 28.3564 10.222 28.7254 9.25448 29.1103C9.0476 29.7342 8.71466 30.3086 8.27646 30.7976C9.03364 30.36 9.39646 29.4742 10.1852 29.1051C10.4691 29.4531 9.88022 30.2756 10.1484 30.8398C10.1484 30.592 10.3377 29.1947 10.5848 29.0735C11.0423 28.852 10.7321 30.1702 11.1107 30.4602C11.016 30.0067 10.9634 29.0102 11.2579 28.6411C11.736 28.2522 12.3006 27.9845 12.9037 27.8607C12.999 28.2842 12.999 28.7237 12.9037 29.1472C12.9878 28.8678 13.4611 27.3176 13.7345 28.1718C13.7871 27.982 13.8396 27.7605 14.0763 27.7342C14.355 28.2614 14.213 29.0471 14.2603 29.5638C14.3602 29.1156 14.4601 28.6358 14.5916 28.1982C14.6458 27.9733 14.7475 27.7628 14.89 27.5809C15.0324 27.3989 15.2122 27.2498 15.4171 27.1436C15.5907 27.0329 16.3005 26.4951 16.4688 26.6164C16.6371 26.7376 16.1428 27.4284 16.3899 27.9029Z" fill="#6A814A"/>
<path d="M28.5522 21.6337C27.7582 21.6706 26.9326 22.5617 26.3174 22.8148C25.7022 23.0679 20.9488 24.3965 17.3784 25.6936C15.1571 26.4989 12.979 27.4193 10.853 28.4512C10.853 28.4512 16.637 26.3422 17.6045 25.8729C18.5721 25.4036 22.5525 24.2225 23.478 23.9167C24.4034 23.6109 25.6759 23.2893 26.4278 23.0784C27.327 22.8306 27.9633 22.0977 28.9886 21.9078C29.2042 21.8604 29.3462 21.5967 28.5522 21.6337Z" fill="#C1B878"/>
<path d="M30.1034 3.14782C30.3873 2.56782 31.8596 0.485117 30.3663 1.03875C29.4145 1.3762 28.263 2.50456 27.5163 3.19001C26.6354 4.00159 25.8662 4.92719 25.229 5.94236C23.7462 8.32033 23.5674 10.3925 24.3929 13.0394C25.0186 15.0588 26.2491 17.2575 28.1841 18.3542C28.9097 18.776 31.3706 20.5898 32.0647 19.9782C31.9227 19.82 31.765 19.6039 31.6125 19.4509C28.4102 16.3664 27.2902 10.4874 28.8046 6.26926C29.1733 5.20307 29.607 4.1606 30.1034 3.14782Z" fill="#87A564"/>
<path d="M31.8333 20.0626C31.6966 19.9044 31.6914 19.5354 31.5494 19.4035C28.3524 16.3137 27.2271 10.44 28.7415 6.22185C29.1154 5.16375 29.5508 4.12853 30.0455 3.12152C30.2611 2.68916 31.1603 1.37627 30.9237 1.01245C30.9029 1.17071 30.8549 1.32414 30.7817 1.46589C30.4136 2.18298 29.5933 3.85971 28.9518 4.52407C28.5206 4.96697 28.5206 3.40624 27.9633 3.31133C28.2593 3.76 28.4499 4.27022 28.5206 4.8035C28.4313 6.12694 27.9265 4.99859 27.9265 4.99859C27.6951 5.62077 28.6731 6.18496 28.1736 6.53296C27.9264 7.18149 26.533 6.03732 26.3805 6.53296C26.3805 6.53296 28.2104 6.69641 27.958 8.01458C27.5952 9.99183 25.4498 8.38364 25.4498 8.38364C25.3341 8.78436 27.6267 9.29583 27.6057 9.72292C27.5636 10.7775 26.5541 10.9884 26.3753 11.2151C26.4068 11.2151 27.7056 10.2924 27.7687 11.1782C27.816 11.7793 26.9169 12.4383 26.9169 12.4383C26.98 12.6229 27.9212 11.5947 27.9212 12.4383C27.9212 12.9656 25.8547 14.1731 25.8547 14.1731C26.2859 14.3681 27.6373 12.644 28.0684 13.9041C28.2998 14.5738 28.4365 15.3858 27.6793 15.6863C27.9002 15.7707 28.426 15.3119 28.5522 15.5229C29.0097 16.261 28.5837 16.4825 28.7099 16.725C28.7099 16.725 28.8992 16.261 29.2358 17.0045C29.5828 17.4421 29.1727 17.8376 29.2095 17.8692C29.383 17.9325 29.4829 17.5423 29.6301 17.6741C29.9141 17.9272 30.5135 18.5283 30.3242 18.9659C30.6292 18.8815 31.2286 19.4984 31.8333 20.0626Z" fill="#6A814A"/>
<path d="M26.7802 4.15491C27.8318 2.84202 29.1411 1.44474 30.85 1.03347H30.9394C30.8605 0.928014 30.6765 0.906923 30.3242 1.03347C29.3725 1.37092 28.2209 2.49928 27.4795 3.18473C26.5971 3.99491 25.8278 4.92071 25.1922 5.93708C23.7094 8.31505 23.5306 10.3872 24.3509 13.0341C24.9819 15.0535 26.207 17.2522 28.1473 18.3489C28.4996 18.5546 29.2673 19.0924 30.0403 19.5142C28.2052 18.2857 26.4804 17.0255 25.4814 14.985C24.598 13.1817 23.9986 11.2097 24.2825 9.18503C24.5507 7.2236 25.5655 5.64708 26.7802 4.15491Z" fill="#BFD493"/>
<path d="M32.9742 21.4071C33.1137 21.4812 33.2687 21.521 33.4265 21.5231C33.5211 21.5231 33.8208 21.444 33.8576 21.3438C33.947 21.0802 33.3003 20.9273 33.1478 20.8166C32.8932 20.6738 32.6596 20.4964 32.4537 20.2893C32.2939 20.0987 32.118 19.9223 31.9279 19.762C31.8326 19.6373 31.7289 19.5193 31.6176 19.4088C28.4154 16.3243 27.2954 10.4452 28.8097 6.22708C28.978 5.75254 29.1673 5.26219 29.3671 4.7771C28.2731 6.72986 27.7912 8.9678 27.9842 11.1992C28.1262 13.0552 28.3155 15.0008 29.2304 16.6195C29.8971 17.7407 30.6816 18.7871 31.5703 19.741C31.5703 19.741 32.0961 20.4422 32.2539 20.6742C32.4689 20.9286 32.7008 21.1682 32.948 21.3913H32.8849C32.9151 21.3933 32.9451 21.3986 32.9742 21.4071Z" fill="#E5E1AB"/>
<path d="M24.4718 21.2488C24.0743 21.1206 23.7061 20.9145 23.3886 20.6425C22.7629 20.1521 22.337 19.9939 22.705 20.9272C22.7623 21.1752 22.9005 21.397 23.0976 21.5575C23.2948 21.7179 23.5396 21.8078 23.7935 21.813C24.0249 21.8552 24.2246 21.8657 24.3929 21.8816C25.1388 21.7813 25.8954 21.792 26.6382 21.9132C27.2113 21.9132 27.8739 22.0398 28.3261 22.0872C29.9929 22.2454 31.7018 22.0397 33.3634 22.1188C33.6211 22.1188 34.21 22.2085 34.7464 22.2085C35.7827 22.2825 36.8229 22.2825 37.8593 22.2085C41.0457 22.2085 44.695 22.4194 46.467 22.5248C48.0444 22.6197 52.5928 22.2454 53.3447 22.2085C54.1808 22.1663 61.8473 21.7761 65.018 21.7761C66.6533 21.7761 68.0993 21.4017 69.682 21.3121C70.381 21.2235 71.0697 21.0663 71.738 20.8428C72.6477 20.6214 72.8738 20.6425 73.0263 19.6407C71.6118 19.435 70.0133 19.9729 68.6567 20.1679C66.9489 20.3866 65.2303 20.5098 63.5089 20.537C60.3855 20.6741 57.5671 21.2436 54.3175 21.1012C52.6541 21.0885 50.9924 21.2101 49.3485 21.465C47.8313 21.5863 46.3068 21.5863 44.7896 21.465C41.824 21.2857 38.1958 21.2436 35.1775 21.3437C34.4926 21.2527 33.8019 21.2122 33.1111 21.2225C32.2637 21.3067 31.4123 21.3437 30.5608 21.3332C29.7458 21.3015 28.9098 21.3332 28.0684 21.2488C27.3791 21.1663 26.683 21.1557 25.9914 21.2172C25.5785 21.0569 25.1763 20.8703 24.7873 20.6583C24.1142 20.2576 23.2624 18.623 22.7734 17.7794C22.2844 16.9358 20.4861 13.3293 20.0654 12.3486C19.6447 11.3678 17.0367 6.48535 17.0367 6.48535C17.4783 7.65588 19.2451 11.3784 20.3651 13.9936C21.4851 16.6089 23.7251 19.6301 24.1615 20.5054C24.3065 20.7091 24.4842 20.8873 24.6874 21.0327C24.7557 21.1539 24.7189 21.3121 24.4718 21.2488Z" fill="#E5E1AB"/>
<path d="M22.7366 17.7954C22.2476 16.9518 20.4492 13.3505 20.0286 12.3698C19.7078 11.6369 18.1724 8.71586 17.3995 7.29224H17.2996C17.9884 8.87404 19.4029 11.8425 20.3073 14.0201C21.0479 15.6178 21.9147 17.1536 22.8996 18.6126C22.9644 18.5664 23.033 18.5259 23.1047 18.4914C22.9785 18.233 22.847 17.9958 22.7366 17.7954Z" fill="#C1B878"/>
<path d="M72.1219 19.5878C71.985 19.8284 71.7982 20.0366 71.5741 20.1986C71.3501 20.3605 71.0939 20.4723 70.8231 20.5264C69.2467 20.8728 67.6409 21.067 66.0276 21.1064C65.6966 21.152 65.3625 21.1714 65.0285 21.1644C64.7446 21.1644 64.4501 21.1222 64.1504 21.1064C62.9095 21.1907 61.6265 21.1064 60.4696 21.2487C58.8028 21.4333 57.1675 21.5915 55.5006 21.6231C54.7221 21.7445 53.9374 21.822 53.1502 21.8551C51.9723 21.9448 50.784 22.0186 49.5956 22.0555C49.4329 22.0922 49.2641 22.0922 49.1014 22.0555C47.27 22.1267 45.436 22.0738 43.6118 21.8973C43.1024 21.9685 42.5857 21.9685 42.0763 21.8973C41.0835 21.8051 40.0855 21.7839 39.0897 21.834L33.0164 21.9553C30.7922 22.008 28.5942 21.6389 26.3753 21.6442C25.0555 21.6442 23.52 21.6442 22.6156 20.5211C22.5729 20.4728 22.5359 20.4197 22.5052 20.3629C22.5193 20.5467 22.5693 20.7259 22.6524 20.8902C22.7097 21.1382 22.8479 21.36 23.045 21.5205C23.2422 21.6809 23.487 21.7708 23.7409 21.776C23.9723 21.8182 24.1668 21.8287 24.3403 21.8446C25.0843 21.7417 25.8395 21.7524 26.5803 21.8762C27.1588 21.8762 27.816 22.0027 28.2682 22.0449C29.9403 22.2084 31.6493 22.0027 33.3109 22.0818C33.5685 22.0818 34.1575 22.1715 34.6938 22.1715C35.7301 22.2455 36.7703 22.2455 37.8067 22.1715C40.9879 22.1715 44.6423 22.3771 46.4144 22.4878C47.9918 22.5827 52.5402 22.2084 53.2921 22.1715C54.1282 22.1293 61.7947 21.7391 64.9654 21.7391C66.5955 21.7391 68.0415 21.3647 69.6295 21.2751C70.3279 21.1834 71.0162 21.0263 71.6854 20.8058C72.5898 20.5844 72.8159 20.6055 72.9684 19.6037C72.6873 19.5727 72.4039 19.5674 72.1219 19.5878Z" fill="#C1B878"/>
<path d="M46.4565 9.03733C45.9582 8.90351 45.45 8.81004 44.9368 8.75786C44.6739 8.75786 43.759 8.49949 43.5434 8.62076C43.3278 8.74204 43.3646 9.14803 43.575 9.61203C45.6362 10.7193 47.6343 11.9057 49.706 12.9918C51.268 13.7383 52.6907 14.7477 53.9126 15.9761C55.4588 16.858 57.0587 17.6416 58.7029 18.3225C59.6393 18.7612 60.5995 19.1467 61.5791 19.4772C62.1531 19.629 62.7035 19.8596 63.2144 20.1627C63.4191 20.162 63.6214 20.119 63.8086 20.0361C63.7455 19.9307 63.4458 19.8358 63.2828 19.6776C63.0998 19.4729 62.9377 19.2503 62.799 19.0132C62.3713 18.5329 61.8936 18.0999 61.374 17.7214C60.1857 16.7618 59.1235 15.6756 57.8931 14.7687C56.9466 14.0675 55.9107 13.4453 54.9537 12.7334C54.2369 12.1216 53.4739 11.5664 52.6717 11.0726C50.7314 10.0497 48.6018 9.58568 46.4565 9.03733Z" fill="#87A564"/>
<path d="M43.8221 8.65768C45.9597 9.01251 48.0686 9.52357 50.132 10.1868C52.0039 10.83 53.3447 11.8793 55.2167 13.1394C56.6574 14.1096 58.3716 15.3329 59.8281 16.398C59.1971 15.8338 58.5609 15.2749 57.8773 14.7687C56.9309 14.0675 55.895 13.4453 54.938 12.7334C54.2211 12.1216 53.4582 11.5664 52.6559 11.0726C50.7156 10.0497 48.5861 9.58568 46.4407 9.03733C45.9424 8.90351 45.4343 8.81004 44.9211 8.75786C44.6582 8.75786 43.7432 8.49949 43.5276 8.62076C43.312 8.74204 43.3331 8.91076 43.3909 9.14803C43.4593 9.15858 43.2857 8.56277 43.8221 8.65768Z" fill="#4F712D"/>
<path d="M56.4998 16.1977C56.1229 15.5585 55.8363 14.87 55.6479 14.1519C55.6479 14.7951 56.0371 15.9077 55.8478 16.5351L55.9372 16.6775C55.9032 16.6727 55.8708 16.6601 55.8425 16.6406C56.5524 17.7637 58.0299 18.2224 59.1604 18.9078C59.7216 19.2313 60.3423 19.4376 60.9851 19.5142C61.595 19.5986 62.1945 19.7356 62.7886 19.7989C62.7361 19.6671 62.6887 19.5247 62.6414 19.3929C62.5678 19.4456 62.4258 19.4562 62.3522 19.5142C62.3522 19.4298 62.3101 19.3296 62.3522 19.2347C62.1899 19.2311 62.0287 19.2617 61.879 19.3243C61.8905 19.1363 61.9168 18.9494 61.9578 18.7654C61.9068 18.8435 61.8403 18.9103 61.7625 18.9615C61.6847 19.0127 61.5971 19.0473 61.5054 19.0631C61.4137 19.0789 61.3197 19.0757 61.2292 19.0535C61.1388 19.0313 61.0539 18.9907 60.9798 18.9342C60.6906 18.6442 60.9114 18.0431 60.8378 17.6951C60.6538 17.9904 60.7222 18.4491 60.4224 18.6336C60.291 18.3858 60.4224 18.0009 60.4224 17.7478C59.986 18.1327 60.1227 18.9553 59.313 18.4438C58.6189 18.0062 58.9081 17.558 59.1973 16.978C58.9238 17.1889 58.4821 17.8269 58.3822 17.2311C58.3976 16.7876 58.4415 16.3455 58.5137 15.9077C58.2035 16.1133 58.2823 17.4157 57.5409 16.9622C57.4567 16.4088 57.4092 15.8505 57.3989 15.2908C57.4252 15.8919 57.0729 17.0782 56.4998 16.1977Z" fill="#6A814A"/>
<path d="M62.7938 19.7988C62.7938 19.7988 62.8112 19.8102 62.7938 19.7988V19.7988Z" fill="#799354"/>
<path d="M47.2084 11.5366C46.998 12.5911 48.0812 13.0235 48.8805 13.5982C49.6806 14.1814 50.568 14.6335 51.5096 14.9375C52.122 15.1332 52.7476 15.2847 53.3815 15.3909C53.6707 15.4489 54.0336 15.6967 54.3175 15.528C54.1224 14.9271 54.0248 14.2987 54.0283 13.6667C53.7233 14.1096 54.1019 14.8478 53.8916 14.9638C53.6813 15.0798 53.0923 14.4365 52.9398 14.2942C52.7481 14.1649 52.587 13.9949 52.4679 13.7963C52.3489 13.5977 52.2749 13.3752 52.251 13.1447C52.1827 12.6913 52.1406 12.2062 52.0985 11.7475C51.9881 12.2747 52.0249 13.034 51.6831 13.5402C51.457 13.4822 51.4255 13.2555 51.3992 13.0604C51.0206 13.8724 50.7472 12.2748 50.6998 12.0058C50.7459 12.4361 50.6993 12.8712 50.5631 13.2818C49.9794 13.0818 49.4514 12.7457 49.0225 12.3011C48.7806 11.8898 48.9593 10.9144 49.1066 10.4768C48.7017 10.714 48.8384 12.0585 48.4178 11.7791C48.1916 11.6315 48.1759 10.1973 48.2074 9.97585C47.8709 10.5031 48.3494 11.3942 48.0234 11.7053C47.2925 11.2308 47.0401 10.308 46.346 9.78076C46.5669 10.2553 47.2767 10.8986 47.2294 11.4258L47.2084 11.5366Z" fill="#6A814A"/>
<path d="M43.4014 8.78955C43.1964 9.359 44.3111 10.8195 44.5898 11.1939C46.1623 13.1931 48.1003 14.8734 50.3002 16.1449C52.4684 17.511 54.8197 18.5602 57.2832 19.2611C58.3832 19.6324 59.5306 19.8437 60.6905 19.8885C61.6738 19.8885 62.9147 20.4474 63.8454 20.0362C63.8396 20.0235 63.8305 20.0126 63.8191 20.0045C61.9157 19.646 60.0963 18.5967 58.4663 17.6424C56.3598 16.6655 54.3281 15.5341 52.3878 14.2573C50.7338 13.1821 49.0184 12.2049 47.2505 11.331C45.8399 10.6961 44.5404 9.83801 43.4014 8.78955Z" fill="#BED29B"/>
<path d="M50.3686 13.0234C50.7419 13.2607 51.1205 13.4874 51.5044 13.7089C51.1258 13.4716 50.763 13.2449 50.3686 13.0234Z" fill="#D2E5A8"/>
<path d="M43.5066 9.44873C43.8055 10.0682 44.1705 10.6533 44.595 11.194C46.1675 13.1932 48.1056 14.8735 50.3055 16.145C52.4737 17.5111 54.8249 18.5603 57.2884 19.2612C58.2423 19.5677 59.2258 19.7727 60.2225 19.8728C57.6234 19.3264 55.1171 18.4047 52.7821 17.1363C49.1855 15.2487 45.5415 13.0658 43.5066 9.44873Z" fill="#DBEFB0"/>
<path d="M58.3558 19.3349C58.5083 19.2558 59.8807 18.6864 60.0648 18.8077C60.7273 19.1926 60.9113 19.7831 61.9367 19.7936C62.497 19.801 63.0506 19.9174 63.5667 20.1364C63.6574 20.1187 63.7456 20.0904 63.8296 20.052C63.8233 20.038 63.8121 20.0267 63.7981 20.0204C61.8946 19.6618 60.0805 18.6126 58.4505 17.6582C56.343 16.6834 54.3111 15.5519 52.372 14.2732C50.718 13.1979 49.0026 12.2208 47.2347 11.3469C45.8316 10.71 44.5392 9.852 43.4067 8.80542C43.3641 9.04155 43.403 9.2852 43.5171 9.49614C43.6553 9.55176 43.7833 9.63018 43.8957 9.72814C44.3584 10.1394 45.9517 11.2203 46.5722 11.3099C47.1926 11.3996 47.2084 11.5788 46.4565 12.1008C46.6903 12.0691 46.9273 12.0691 47.1611 12.1008C47.7237 12.1588 48.6597 12.0639 48.7806 12.6281C48.8279 12.8601 48.097 13.1026 48.0076 13.4401C47.8867 13.9199 49.0593 12.6175 49.3432 12.9128C49.3432 12.9128 50.947 13.5192 50.9628 13.8566C50.9628 14.3839 49.5904 14.3839 49.5904 14.3839C49.664 15.0588 51.7673 14.3839 52.1511 14.4999C53.5393 14.8743 51.925 15.1379 51.1468 16.0817C51.7042 15.9235 52.3457 15.1642 52.9136 15.0746C53.4815 14.985 53.7128 15.5123 52.7506 16.377L53.981 15.6915C54.5068 15.913 53.5551 16.5193 53.1397 16.9411C55.0957 15.971 55.3849 16.5088 55.1799 16.377C55.6636 16.6881 54.6803 17.3735 54.796 17.3366C54.9117 17.2997 55.7267 16.7144 55.8477 16.6933C56.3419 16.5826 57.0308 17.3471 57.4935 17.5897C57.9562 17.8322 57.4146 18.2751 56.9046 18.5704C57.3042 18.6073 57.9562 18.0115 58.1245 17.964C58.1245 17.964 58.7818 18.1433 58.2559 18.6495C58.0193 18.8868 59.0972 18.2488 59.3076 18.4966C59.3654 18.5177 58.3243 19.2347 58.3558 19.3349Z" fill="#9BAA74"/>
<path d="M56.3998 16.7776C58.8028 18.2961 62.2364 19.5141 63.2092 19.9886C64.3134 20.5159 63.8296 20.7901 64.7866 21.0432C65.6017 21.1486 66.5376 20.8428 66.2957 20.7637C65.3072 20.4474 64.1925 20.0836 63.3196 19.7092C62.594 19.4034 61.3741 18.9183 60.5012 18.4965C59.6283 18.0747 56.1 16.1291 55.2009 15.5596C54.3017 14.9902 49.4168 12.4487 49.4168 12.4487C50.4369 13.1922 54.002 15.2591 56.3998 16.7776Z" fill="#E5E1AB"/>
<path d="M27.9054 25.4828C27.8274 25.1553 27.7146 24.8371 27.5689 24.5337C27.4813 24.245 27.3576 23.9687 27.2008 23.7111C27.1896 23.4241 27.103 23.1452 26.9497 22.9026C26.7965 22.6601 26.582 22.4624 26.328 22.3297C25.8177 22.0681 25.2551 21.9257 24.6821 21.9132C23.4672 21.9073 22.2797 22.2754 21.28 22.9677C20.7508 23.2999 20.2946 23.7368 19.9393 24.2517C19.584 24.7667 19.337 25.3488 19.2136 25.9626C18.6877 29.5849 22.7366 30.2651 24.2247 29.8907C24.9125 29.7372 25.5629 29.4479 26.138 29.0396C26.7131 28.6313 27.2013 28.1123 27.5742 27.5127C28.2157 26.6375 28.0527 26.2315 27.9054 25.4828Z" fill="#BAAD0C"/>
<path d="M23.457 27.6341C22.1529 27.1807 20.4177 26.3792 20.3967 24.7605C20.4011 24.1764 20.618 23.6139 21.0066 23.1787C20.0757 23.8425 19.4341 24.8389 19.2136 25.9627C18.6877 29.585 22.7366 30.2652 24.2247 29.8908C25.4744 29.6209 26.5798 28.8957 27.327 27.8556C26.1334 28.3091 24.4718 27.9874 23.457 27.6341Z" fill="#AF9F0B"/>
<path d="M20.9698 27.4443C19.813 26.838 19.3661 25.4618 20.2389 23.9011C19.7078 24.476 19.3519 25.1914 19.2136 25.9627C18.6877 29.5851 22.7366 30.2652 24.2247 29.8909C24.9125 29.7374 25.5629 29.4481 26.138 29.0398C26.7131 28.6315 27.2013 28.1124 27.5742 27.5129C27.7472 27.3163 27.8754 27.0843 27.9499 26.833C28.0244 26.5817 28.0433 26.317 28.0053 26.0576C27.7687 26.4153 27.4917 26.7444 27.1798 27.0383C25.5235 28.5991 23.1257 28.5991 20.9698 27.4443Z" fill="#A5960C"/>
<path opacity="0.34" d="M22.0531 29.3846C20.8122 29.063 19.2505 28.2352 19.2189 26.8643C19.2189 26.8221 19.2189 26.7799 19.1821 26.7377C19.282 29.701 22.8629 30.2546 24.2353 29.9013C24.9231 29.7479 25.5735 29.4585 26.1486 29.0503C26.7237 28.642 27.2119 28.1229 27.5848 27.5234C28.2158 26.627 28.0528 26.221 27.9055 25.4723C27.8275 25.1448 27.7147 24.8266 27.569 24.5232V24.4863C27.6556 25.0773 27.6214 25.6798 27.4687 26.2572C27.3159 26.8345 27.0477 27.3748 26.6804 27.845C26.5097 28.038 26.3213 28.2146 26.1177 28.3723C25.566 28.8474 24.9111 29.1865 24.2053 29.3623C23.4995 29.5381 22.7624 29.5457 22.0531 29.3846Z" fill="#CECE4D"/>
<path opacity="0.58" d="M19.7395 28.3827C20.7911 29.9013 23.1941 30.1807 24.2616 29.9118C24.9494 29.7583 25.5998 29.469 26.1749 29.0607C26.75 28.6524 27.2382 28.1334 27.6111 27.5338C27.8181 27.2946 27.961 27.0064 28.0263 26.6964C28.0916 26.3865 28.0772 26.065 27.9844 25.7622C27.9695 25.9565 27.936 26.149 27.8845 26.3369C27.7793 28.3195 25.2133 29.5796 23.4834 29.7273C22.8011 29.7687 22.1175 29.6709 21.474 29.4398C20.8305 29.2087 20.2404 28.8491 19.7395 28.3827Z" fill="#E0DC5A"/>
<path opacity="0.54" d="M25.7706 22.6831C25.1004 22.4735 24.39 22.4283 23.6988 22.5513C22.4106 22.7833 20.9225 23.4529 20.3861 24.6972C20.2389 25.0399 20.77 25.2245 21.3326 24.924C22.011 24.5654 22.6104 24.1014 24.2878 24.7183C24.91 25.0165 25.5646 25.2412 26.2385 25.3879C26.4041 25.3894 26.5669 25.3448 26.7086 25.259C26.8504 25.1732 26.9655 25.0495 27.0413 24.9019C27.1171 24.7543 27.1505 24.5884 27.1378 24.4229C27.1251 24.2573 27.0669 24.0986 26.9694 23.9643C26.6434 23.3263 26.5383 22.894 25.7706 22.6831Z" fill="#CECE4D"/>
<path opacity="0.62" d="M26.1702 22.2719C25.7004 22.0645 25.1952 21.9499 24.6821 21.9344C23.4672 21.9285 22.2797 22.2966 21.28 22.9889C20.3239 23.6005 19.6186 24.5361 19.2924 25.6253C19.3187 25.5673 19.3397 25.504 19.366 25.4407C19.7112 24.7282 20.193 24.0909 20.784 23.5652C21.375 23.0396 22.0635 22.6359 22.8102 22.3773C23.8941 22.0039 25.0651 21.9672 26.1702 22.2719Z" fill="#DBD875"/>
<path opacity="0.54" d="M27.164 24.6023C27.0111 24.3582 26.9158 24.0823 26.8853 23.7956C26.8853 23.5056 27.0378 23.1839 26.8485 22.915C26.7959 22.8465 26.4436 22.5407 26.2912 22.6303C26.0312 22.8381 25.8372 23.1172 25.7326 23.4337C25.628 23.7501 25.6175 24.0902 25.7022 24.4125C25.8105 24.7402 25.9925 25.0386 26.2341 25.2845C26.4757 25.5305 26.7705 25.7174 27.0956 25.8308C27.1696 25.8487 27.2468 25.8478 27.3204 25.8282C27.3939 25.8086 27.4614 25.7709 27.5167 25.7186C27.5721 25.6662 27.6135 25.6008 27.6373 25.5284C27.6611 25.4559 27.6665 25.3787 27.653 25.3036C27.6267 24.9609 27.3323 24.8554 27.164 24.6023Z" fill="#CECE4D"/>
<path d="M26.8064 23.5055C26.6645 23.4001 26.5488 23.5846 26.5488 23.727C26.6172 24.0433 26.8327 24.7077 27.185 24.7235C27.3585 24.6919 26.9747 23.6215 26.8064 23.5055Z" fill="#A5960C"/>
<path d="M26.7749 23.7323V23.7007C26.7749 23.7007 26.7802 23.7165 26.7749 23.7323Z" fill="#897D22"/>
<path d="M26.7013 24.1173C26.7433 24.2438 26.7907 24.4758 26.9274 24.5285C27.1745 24.6182 27.0063 24.2333 26.9589 24.1489C26.9116 24.0645 26.9169 24.0487 26.9221 23.9275C26.9227 23.8561 26.9065 23.7857 26.8748 23.7218C26.8433 23.6849 26.8065 23.6638 26.7854 23.7218V23.7534C26.6067 23.7745 26.654 23.9696 26.7013 24.1173Z" fill="#897D22"/>
<path d="M31.6966 21.7445C31.198 21.7126 30.6974 21.7339 30.2033 21.8077C29.5207 21.953 28.8814 22.2564 28.3366 22.6935C28.0436 23.0216 27.7177 23.3185 27.3638 23.5793C27.1215 23.6546 26.8858 23.7498 26.6592 23.8641C26.6592 23.8641 26.6592 24.0275 26.7328 24.1963C26.8064 24.365 26.8065 24.4388 26.8538 24.4599C27.3428 24.6919 28.4628 23.1206 28.7362 22.8781C29.4375 22.3415 30.2994 22.059 31.1813 22.0766C31.4086 22.0818 31.6353 22.0534 31.8543 21.9923C31.7986 21.9097 31.756 21.8191 31.7281 21.7234L31.6966 21.7445Z" fill="#E5E1AB"/>
<path d="M30.1454 22.0502L29.6196 22.1768C28.7257 22.4404 28.2367 23.3684 27.4848 23.8693C27.2507 24.0232 26.9957 24.1422 26.7276 24.2226C26.7591 24.3386 26.7959 24.4493 26.8433 24.4704C27.3323 24.7024 28.4523 23.1311 28.7257 22.8886C29.427 22.3519 30.2888 22.0694 31.1708 22.0871C31.398 22.0923 31.6249 22.0639 31.8439 22.0028L31.8018 21.9395C31.2474 21.9227 30.6927 21.9598 30.1454 22.0502Z" fill="#C1B878"/>
<path d="M47.5449 26.9171C47.3481 26.6439 47.1205 26.3944 46.8666 26.1736C46.675 25.9404 46.4541 25.733 46.2093 25.5567C46.0884 25.2964 45.9004 25.0731 45.6647 24.91C45.429 24.7469 45.1541 24.6497 44.8685 24.6287C44.2973 24.581 43.7229 24.6677 43.1911 24.8818C42.0696 25.3529 41.1203 26.1594 40.4726 27.1913C40.1116 27.7036 39.8586 28.2845 39.7293 28.8983C39.6 29.5121 39.5971 30.1459 39.7207 30.7608C40.6303 34.3041 44.6318 33.3497 45.857 32.427C46.4313 32.0176 46.9187 31.4977 47.2906 30.8975C47.6625 30.2973 47.9116 29.6289 48.0234 28.9312C48.2811 27.8609 47.9708 27.5445 47.5449 26.9171Z" fill="#BAAD0C"/>
<path d="M44.2796 30.6291C42.9019 30.7187 40.9879 30.6291 40.3517 29.1738C40.1299 28.6366 40.1112 28.0367 40.2991 27.4866C39.6921 28.4623 39.4848 29.6355 39.7207 30.7609C40.6356 34.3041 44.6319 33.3498 45.857 32.4271C46.9036 31.6906 47.6415 30.5919 47.9288 29.3425C47.0086 30.2073 45.3522 30.5605 44.2796 30.6291Z" fill="#AF9F0B"/>
<path d="M41.9133 31.4198C40.6146 31.3143 39.6681 30.2229 39.8679 28.4407C39.5998 29.1849 39.5559 29.9917 39.7417 30.7607C40.6514 34.3039 44.6529 33.3496 45.8781 32.4269C46.4524 32.0174 46.9397 31.4975 47.3117 30.8973C47.6836 30.2971 47.9327 29.6287 48.0445 28.9311C48.1254 28.6825 48.1527 28.4195 48.1246 28.1595C48.0965 27.8995 48.0136 27.6485 47.8815 27.4231C47.7973 27.8434 47.6686 28.2535 47.4976 28.6464C46.5564 30.708 44.3374 31.6254 41.9133 31.4198Z" fill="#A5960C"/>
<path opacity="0.34" d="M43.6643 32.7854C42.3919 32.9752 40.6356 32.8223 40.073 31.5727C40.073 31.5358 40.0151 31.5041 39.9941 31.4672C41.2298 34.1616 44.7265 33.281 45.8781 32.4269C46.4524 32.0174 46.9397 31.4975 47.3117 30.8973C47.6836 30.2972 47.9327 29.6288 48.0445 28.9311C48.2811 27.8765 47.9708 27.5496 47.5186 26.9169C47.3219 26.6437 47.0942 26.3942 46.8403 26.1735L46.8088 26.1418C47.1186 26.6526 47.3212 27.2214 47.4044 27.8134C47.4876 28.4054 47.4495 29.0082 47.2925 29.5849C47.2131 29.832 47.1092 30.0704 46.9823 30.2967C46.6582 30.9401 46.19 31.4995 45.6144 31.9313C45.0388 32.363 44.3714 32.6554 43.6643 32.7854Z" fill="#CECE4D"/>
<path opacity="0.58" d="M41.1193 32.7801C42.6968 33.7661 44.9999 33.086 45.8781 32.4269C46.4524 32.0174 46.9397 31.4975 47.3116 30.8973C47.6836 30.2972 47.9327 29.6288 48.0444 28.9311C48.1429 28.6293 48.1631 28.3075 48.1033 27.9957C48.0435 27.6839 47.9057 27.3925 47.7026 27.1489C47.7656 27.3335 47.8079 27.5245 47.8288 27.7184C48.5071 29.5902 46.6247 31.7467 45.0893 32.5587C44.4771 32.8635 43.8095 33.0403 43.127 33.0783C42.4445 33.1164 41.7615 33.0149 41.1193 32.7801Z" fill="#E0DC5A"/>
<path opacity="0.54" d="M44.4951 25.1664C43.7961 25.2341 43.1234 25.4692 42.5338 25.8518C41.4348 26.5689 40.3253 27.7658 40.3096 29.1209C40.3096 29.4952 40.8669 29.4531 41.2666 28.9574C41.7556 28.3616 42.1289 27.7026 43.8957 27.6182C44.5859 27.6475 45.2772 27.5997 45.9569 27.4758C46.6142 27.2965 46.7089 26.3264 46.0779 25.894C45.552 25.4353 45.2839 25.0609 44.4951 25.1664Z" fill="#CECE4D"/>
<path opacity="0.62" d="M44.695 24.6127C44.1811 24.6052 43.6706 24.6965 43.1911 24.8816C42.0696 25.3527 41.1203 26.1592 40.4726 27.1911C39.8268 28.1349 39.5429 29.2809 39.6733 30.418C39.6733 30.3547 39.6733 30.2914 39.6733 30.2229C39.7613 28.6242 40.4757 27.125 41.6609 26.0522C42.5082 25.2822 43.564 24.7813 44.695 24.6127Z" fill="#DBD875"/>
<path opacity="0.54" d="M46.5248 26.3897C46.2881 26.2254 46.0921 26.009 45.9516 25.757C45.8202 25.5039 45.857 25.1348 45.5731 24.9608C45.4994 24.9186 45.0472 24.771 44.9579 24.9187C44.7967 25.2105 44.7242 25.5432 44.7495 25.8758C44.7747 26.2085 44.8965 26.5264 45.0998 26.7904C45.3282 27.0483 45.6121 27.2507 45.9301 27.3823C46.248 27.5138 46.5916 27.5711 46.9349 27.5497C47.0097 27.5382 47.0804 27.5081 47.1406 27.4621C47.2007 27.4161 47.2484 27.3558 47.2793 27.2865C47.3102 27.2173 47.3232 27.1414 47.3173 27.0658C47.3113 26.9901 47.2865 26.9172 47.2452 26.8537C47.0822 26.5426 46.7772 26.5584 46.5248 26.3897Z" fill="#CECE4D"/>
<path d="M45.7677 25.5198C45.5942 25.4776 45.5574 25.6938 45.61 25.8256C45.7993 26.0945 46.2568 26.6218 46.588 26.4952C46.7353 26.4003 45.9728 25.562 45.7677 25.5198Z" fill="#A5960C"/>
<path d="M45.8256 25.7412V25.699C45.8256 25.699 45.8203 25.7306 45.8256 25.7412Z" fill="#897D22"/>
<path d="M45.9096 26.1262C45.9937 26.2264 46.1252 26.4215 46.2777 26.4162C46.5353 26.4162 46.2304 26.1104 46.1567 26.0524C46.0831 25.9944 46.0779 25.9838 46.0358 25.8626C46.0098 25.7973 45.9683 25.7394 45.9149 25.6938C45.8728 25.6938 45.8307 25.6938 45.8255 25.6938V25.736C45.8255 25.736 45.8255 25.736 45.8255 25.7097C45.6887 25.852 45.8044 26.0102 45.9096 26.1262Z" fill="#897D22"/>
<path d="M49.5956 22.0029C49.1244 22.1682 48.6715 22.382 48.2443 22.6409C47.6728 23.0429 47.2014 23.5716 46.8666 24.1858C46.7248 24.6023 46.5379 25.0019 46.3092 25.3774C46.1988 25.5304 45.8781 25.7202 45.7834 25.9047C45.7834 25.9311 45.8675 26.0471 45.978 26.1841C46.0884 26.3212 46.141 26.374 46.1935 26.3792C46.7194 26.3792 47.161 24.518 47.3293 24.2069C47.7631 23.4381 48.4458 22.8409 49.2644 22.5144C49.4767 22.4303 49.6752 22.3148 49.8533 22.1716C49.7698 22.1209 49.6966 22.0547 49.6377 21.9766L49.5956 22.0029Z" fill="#E5E1AB"/>
<path d="M48.2811 22.8834C48.1233 22.9959 47.9813 23.1014 47.8551 23.1998C47.1348 23.7851 47.0401 24.8396 46.5406 25.5883C46.3859 25.8217 46.1981 26.0313 45.9832 26.2105C46.0516 26.3001 46.1357 26.3898 46.183 26.395C46.7089 26.395 47.1506 24.5338 47.3188 24.2227C47.7526 23.4539 48.4353 22.8567 49.2538 22.5302C49.4661 22.4461 49.6647 22.3306 49.8428 22.1875L49.7797 22.1453C49.2571 22.3412 48.7552 22.5885 48.2811 22.8834Z" fill="#C1B878"/>
<path d="M45.3102 22.7673C44.2758 22.7858 43.2435 22.865 42.2183 23.0046C40.4508 23.1575 38.6946 23.4216 36.9601 23.7955C35.4215 24.6048 33.7544 25.1401 32.0332 25.3773C29.7301 25.7885 27.469 26.3211 25.1975 26.7481C24.8609 27.112 24.6716 27.4652 24.8662 27.6867C25.0607 27.9081 25.9809 27.9187 26.2386 27.9767C26.7427 28.0822 27.2544 28.1474 27.7687 28.1718C29.9825 28.293 32.1541 28.4934 34.31 28.1032C35.2215 27.8721 36.1144 27.5724 36.9811 27.2069C38.1117 26.8114 39.2842 26.5372 40.399 26.1523C41.845 25.6567 43.1858 24.9396 44.6056 24.386C45.2141 24.1815 45.7993 23.9129 46.3513 23.5845C46.5564 23.4007 46.7782 23.2365 47.0138 23.0942C47.2347 23.0045 47.5397 23.0045 47.6448 22.9202C47.4915 22.7855 47.3127 22.6833 47.119 22.6196C46.5263 22.756 45.9171 22.8057 45.3102 22.7673Z" fill="#87A564"/>
<path d="M24.8556 27.128C24.7347 27.3442 24.7032 27.534 24.8294 27.6553C24.9556 27.7765 25.9441 27.8873 26.2017 27.9453C26.7058 28.0508 27.2175 28.116 27.7319 28.1404C29.9456 28.2616 32.1173 28.462 34.2731 28.0718C35.1847 27.8406 36.0776 27.541 36.9443 27.1754C38.0748 26.78 39.2474 26.5058 40.3622 26.1209C41.1667 25.8467 41.9396 25.504 42.7073 25.156C40.9932 25.7307 39.0266 26.3793 37.3282 26.8696C35.1723 27.5076 33.5791 28.1034 31.602 28.1562C29.4274 28.1639 27.2553 28.0123 25.1028 27.7027C24.5612 27.6764 24.9135 27.1386 24.8556 27.128Z" fill="#4F712D"/>
<path d="M44.0323 24.2279C44.2058 23.9221 44.1743 23.2788 44.5581 23.0942C44.6457 23.0625 44.7388 23.0491 44.8317 23.055C44.9246 23.0608 45.0153 23.0858 45.0982 23.1283C45.181 23.1709 45.2543 23.2301 45.3133 23.3022C45.3724 23.3744 45.4161 23.4579 45.4415 23.5477C45.4608 23.3703 45.4907 23.1942 45.5309 23.0204C45.656 23.1243 45.8009 23.2014 45.9568 23.2471C45.9568 23.1522 46.0409 23.0679 46.0567 22.9888C46.1093 23.0626 46.2408 23.1153 46.2986 23.1892C46.3775 23.0732 46.4721 22.9572 46.5563 22.8464C45.9726 22.7305 45.3627 22.6777 44.758 22.5723C44.1208 22.4534 43.4663 22.4642 42.8334 22.6039C41.5557 22.8939 39.9992 22.9044 38.9897 23.7639C39.0227 23.7579 39.0565 23.7579 39.0896 23.7639L38.9581 23.8746C38.9581 24.5284 38.2377 25.4564 38.0537 26.0891C38.4439 25.4596 38.916 24.8851 39.4576 24.3808C40.2937 23.727 40.2517 24.9555 40.0308 25.5408C40.2069 25.0082 40.4195 24.4885 40.667 23.9853C41.5136 23.7586 41.0509 24.9713 41.2875 25.2613C41.347 24.8233 41.4366 24.3899 41.5557 23.9643C41.8238 23.437 42.0815 24.1699 42.2603 24.4493C42.1551 23.8113 42.0132 23.2946 42.7861 23.089C43.7116 22.8412 43.3119 23.6162 43.6327 24.0855C43.6958 23.8377 43.6958 23.437 43.8956 23.2366C44.1427 23.4792 43.9272 23.8957 44.0323 24.2279Z" fill="#6A814A"/>
<path d="M36.3187 26.0153C36.5079 25.4116 36.7919 24.8421 37.16 24.3281C36.9339 24.0855 36.5132 24.2121 36.224 24.1804C35.5864 24.0916 34.9433 24.0475 34.2995 24.0486C33.3176 24.0593 32.3434 24.2247 31.4128 24.539C30.4821 24.8448 29.3095 24.9502 29.1991 25.9995L29.1622 26.1208C29.0518 26.648 28.179 27.0435 27.8267 27.4231C28.6522 27.1331 29.1623 26.3264 30.0036 26.0997C30.2192 26.4899 29.4777 27.1964 29.6618 27.8027C29.7038 27.5549 30.1403 26.221 30.4032 26.1419C30.8922 26.0048 30.3559 27.2491 30.6713 27.5971C30.6713 27.1331 30.7818 26.1471 31.1393 25.8308C31.6803 25.5339 32.2843 25.3712 32.9009 25.3562C32.9098 25.7903 32.8217 26.2209 32.6432 26.6164C32.7746 26.358 33.5213 24.9133 33.637 25.8044C33.7211 25.6251 33.8158 25.4195 34.0472 25.4353C34.2259 26.0206 33.9525 26.7535 33.9104 27.2702C34.0892 26.8431 34.268 26.3897 34.4731 25.9837C34.5667 25.7718 34.7042 25.5823 34.8765 25.4278C35.0487 25.2732 35.2517 25.1572 35.4721 25.0873C35.6614 25.0135 36.4554 24.6075 36.5816 24.7393C36.7078 24.8711 36.1662 25.5091 36.3187 26.0153Z" fill="#6A814A"/>
<path d="M33.537 22.5407C31.0565 23.0862 28.7037 24.1048 26.6066 25.5408C26.228 25.815 24.7242 26.8695 24.7505 27.4759C26.1439 26.8187 27.6333 26.3897 29.1621 26.2052C31.1127 25.9041 33.0441 25.4886 34.9462 24.9608C37.1867 24.3257 39.4717 23.8605 41.7819 23.5688C43.6222 23.147 45.6677 22.6988 47.5659 22.9308H47.6027C46.8561 22.2665 45.4994 22.4035 44.5687 22.1241C43.4502 21.8192 42.2941 21.6754 41.1351 21.697C38.5753 21.6138 36.0167 21.8979 33.537 22.5407Z" fill="#BED29B"/>
<path d="M32.6589 25.5355C33.09 25.4406 33.516 25.3404 33.9471 25.2244C33.5212 25.3193 33.09 25.4353 32.6589 25.5355Z" fill="#D2E5A8"/>
<path d="M33.5369 22.5407C31.0564 23.0862 28.7036 24.1048 26.6065 25.5408C26.032 25.9261 25.5028 26.3753 25.0291 26.8801C28.0578 24.0381 32.1645 23.0468 36.187 22.3403C38.7934 21.8356 41.4588 21.7113 44.1007 21.9712C43.1216 21.7691 42.1241 21.6702 41.1245 21.6759C38.5671 21.6006 36.0121 21.8918 33.5369 22.5407Z" fill="#DBEFB0"/>
<path d="M28.5101 26.0681C27.9054 25.9363 26.0598 26.4899 25.4919 26.743C25.3559 26.8047 25.2097 26.8404 25.0607 26.8485C24.889 27.0161 24.7796 27.2375 24.7505 27.4759C26.1436 26.8181 27.6332 26.3891 29.1621 26.2052C31.1127 25.9042 33.0441 25.4887 34.9462 24.9609C37.1872 24.3266 39.472 23.8596 41.7819 23.5636C43.6222 23.1471 45.6677 22.6989 47.5659 22.9309H47.6027C47.5331 22.8689 47.4573 22.8141 47.3766 22.7674C46.8192 22.8213 46.2566 22.7658 45.7203 22.604C44.737 22.3087 44.3847 22.8149 43.617 22.9784C43.4119 23.0258 42.2709 22.0715 42.15 21.9238C42.0921 22.0135 42.8703 23.01 42.7862 23.0627C42.5128 23.2314 41.6715 22.2982 41.8292 22.5987C42.1763 23.2367 41.4979 23.2104 41.4979 23.2104C41.3612 23.1207 40.909 22.3456 40.5146 22.2718C40.9143 22.6989 41.3665 23.2789 40.7828 23.3843C40.1992 23.4898 39.3841 23.9907 38.9477 23.7376C38.8425 23.6796 38.2378 22.8729 38.1379 22.8044C38.038 22.7358 38.7742 23.6849 38.2168 23.8589C38.4534 23.7903 38.0117 24.2174 36.4395 22.7042C36.7077 23.2314 37.407 24.0856 36.8654 24.1436L35.8979 23.1207C36.5552 24.2385 36.1503 24.6551 35.6665 24.4125C35.1828 24.17 34.7674 23.2367 34.2836 22.9203C34.7464 24.054 36.2029 24.7921 34.7674 24.7341C34.3678 24.7341 32.5589 23.4476 32.2908 24.0698C32.2908 24.0698 33.6158 24.5074 33.4423 24.9872C33.3266 25.2983 31.6125 25.3932 31.6125 25.3932C31.2707 25.5989 30.524 24.0012 30.4977 24.4969C30.4977 24.8449 31.1077 25.293 30.992 25.4987C30.7081 25.9996 29.8404 25.6252 29.2883 25.4987C29.0555 25.4537 28.8294 25.3793 28.6153 25.2772C29.2042 25.9996 29.1621 26.2052 28.5101 26.0681Z" fill="#9BAA74"/>
<path d="M46.9927 22.7674C45.941 23.0152 42.2603 23.0521 39.5417 23.7745C36.8232 24.4968 32.7797 25.3932 31.5913 25.7676C31.5913 25.7676 37.0283 24.8185 38.059 24.5496C39.0896 24.2807 43.028 23.495 43.9955 23.3474C44.963 23.1998 46.2618 23.1154 47.0453 23.0469C47.9707 22.9572 49.1485 22.0398 50.2002 22.0345C50.4526 22.0345 50.2002 21.6602 48.8541 21.7392C48.1337 21.9238 48.2441 22.4616 46.9927 22.7674Z" fill="#E5E1AB"/>
</g>
<defs>
<clipPath id="clip0_253_1365">
<rect width="73" height="35" fill="white"/>
</clipPath>
</defs>
</svg>
