<svg width="15" height="13" viewBox="0 0 15 13" fill="none" xmlns="http://www.w3.org/2000/svg">
<g clip-path="url(#clip0_313_135)">
<path d="M14.8905 1.49837C14.3305 1.75389 13.7381 1.92374 13.1318 2.0027C13.7708 1.60596 14.2486 0.977842 14.4747 0.237281C13.8765 0.609466 13.2218 0.871881 12.539 1.01318C12.253 0.694219 11.9076 0.439967 11.5241 0.266125C11.1406 0.0922834 10.727 0.00254145 10.309 0.00244141C9.90821 0.0025772 9.51133 0.0853261 9.14107 0.245957C8.77081 0.406588 8.43443 0.641945 8.15113 0.938607C7.86784 1.23527 7.64318 1.58742 7.48999 1.97493C7.33681 2.36244 7.2581 2.77773 7.25836 3.19707C7.25587 3.44184 7.27959 3.68612 7.32907 3.92537C6.11466 3.86292 4.92651 3.53311 3.84226 2.95749C2.758 2.38187 1.80204 1.57339 1.03684 0.584882C0.763858 1.07483 0.619712 1.63164 0.619038 2.19874C0.619484 2.72356 0.74339 3.24019 0.97983 3.70305C1.21627 4.16592 1.55798 4.5608 1.97479 4.85283C1.4916 4.83969 1.01856 4.70484 0.595801 4.4597V4.49487C0.596467 5.23229 0.840029 5.94695 1.28546 6.51847C1.7309 7.08999 2.35098 7.48346 3.04129 7.63261C2.78022 7.7042 2.51118 7.73899 2.2413 7.73606C2.04732 7.73981 1.85352 7.7216 1.66329 7.68175C1.86067 8.31546 2.24093 8.86961 2.75174 9.26793C3.26255 9.66624 3.87882 9.88916 4.51571 9.90598C3.43509 10.7899 2.10249 11.2694 0.730782 11.2679C0.486552 11.2698 0.24246 11.2552 0 11.2245C1.39606 12.1653 3.0227 12.6629 4.68332 12.6573C10.3006 12.6573 13.3716 7.78934 13.3716 3.56949C13.3716 3.42828 13.3672 3.29224 13.3607 3.15568C13.9628 2.70524 14.4812 2.1436 14.8905 1.49837Z" fill="#494949"/>
</g>
<defs>
<clipPath id="clip0_313_135">
<rect width="14.8905" height="12.6569" fill="white"/>
</clipPath>
</defs>
</svg>
