<svg width="19" height="13" viewBox="0 0 19 13" fill="none" xmlns="http://www.w3.org/2000/svg">
<g clip-path="url(#clip0_256_20454)">
<path d="M7.66805 5.81112C7.66805 5.81112 9.46772 5.66692 9.46772 3.38981C9.46772 1.1127 7.99649 0.000488281 6.13383 0.000488281H0.00146484V12.7299H6.13383C6.13383 12.7299 9.87639 12.8571 9.87639 8.97283C9.87639 8.97283 10.0399 5.81355 7.66955 5.81355L7.66805 5.81112ZM2.70172 2.26301H6.13234C6.13234 2.26301 6.96618 2.26302 6.96618 3.58748C6.96618 4.91195 6.47502 5.10312 5.91638 5.10312H2.69872L2.70172 2.26301ZM5.97337 10.4682H2.70172V7.06592H6.13234C6.13234 7.06592 7.37335 7.0481 7.37335 8.81406C7.37335 10.286 6.46528 10.452 5.97337 10.4682Z" fill="black"/>
<path d="M17.1935 0.750488H12.3314V2.31797H17.1935V0.750488Z" fill="black"/>
<path d="M14.8667 3.23926C10.336 3.23926 10.3397 8.12964 10.3397 8.12964C10.3397 8.12964 10.0285 12.9965 14.8667 12.9965C14.8667 12.9965 18.8994 13.2444 18.8994 9.61045H16.826C16.826 9.61045 16.8943 10.9795 14.9364 10.9795C14.9364 10.9795 12.8623 11.1293 12.8623 8.76474H18.9676C18.9676 8.76474 19.6358 3.23926 14.8667 3.23926ZM16.7098 7.06603H12.839C12.839 7.06603 13.0925 5.10323 14.9131 5.10323C16.7338 5.10323 16.7128 7.06603 16.7128 7.06603H16.7098Z" fill="black"/>
</g>
<defs>
<clipPath id="clip0_256_20454">
<rect width="19" height="13" fill="white" transform="translate(0 0.000488281)"/>
</clipPath>
</defs>
</svg>
