<svg width="130" height="190" viewBox="0 0 130 190" fill="none" xmlns="http://www.w3.org/2000/svg">
<g opacity="0.2" clip-path="url(#clip0_261_20589)">
<path d="M6.92242 126.805C3.9365 120.027 5.87973 113.286 10.2958 107.519C13.1383 103.796 16.2607 100.294 19.6359 97.0419C22.9675 93.8662 28.0829 92.2746 31.2958 89.2095C31.7685 87.9315 32.004 86.5791 31.9908 85.2183C31.3013 81.7715 32.1032 78.4979 31.3092 75.0376C25.5932 65.6912 20.2646 56.0693 14.2915 46.924C14.9475 50.3283 14.4502 54.2902 14.1407 57.2615C13.8483 60.0546 13.5729 62.922 13.253 65.7968C18.6501 73.8606 13.5174 88.6409 6.74543 94.3948C6.62612 94.4742 6.48039 94.5039 6.33966 94.4776C6.19892 94.4512 6.07439 94.371 5.9926 94.254C3.75269 91.3973 3.10191 87.0802 3.60005 83.5436C4.26049 78.8516 7.98898 76.0225 10.0851 71.9405C10.1187 71.8769 10.1739 71.8271 10.2408 71.7999C10.3076 71.7727 10.3817 71.7698 10.4503 71.7919C10.5189 71.814 10.5775 71.8596 10.6155 71.9205C10.6535 71.9815 10.6685 72.0541 10.658 72.1252C9.88137 76.6611 5.0018 78.9562 4.66598 83.7451C4.5001 86.1988 4.56819 88.9908 5.5427 91.2899C6.72645 94.0816 7.80662 92.1103 8.96743 90.3728C13.1608 84.071 16.4326 74.1165 13.1422 66.7565C12.4479 72.6299 11.4696 78.5134 9.4424 83.8905C9.36841 84.1002 9.05976 84.0115 9.08583 83.7771C10.1955 77.6326 11.2679 71.5399 12.1705 65.3744C10.4188 68.7288 7.3508 71.5551 4.18072 73.3827C0.111222 75.7675 -3.68128 73.8742 -6.95069 71.1636C-7.03911 71.0817 -7.09351 70.9696 -7.10306 70.8495C-7.1126 70.7294 -7.07661 70.61 -7.00227 70.5148C-2.12817 65.4144 5.13948 63.7407 11.1726 60.3822C11.2528 60.3277 11.3514 60.3071 11.4467 60.325C11.5419 60.3429 11.6259 60.3978 11.6804 60.4776C11.7349 60.5574 11.7554 60.6554 11.7372 60.7504C11.719 60.8453 11.6637 60.9293 11.5834 60.9838C8.64611 63.1036 5.27546 64.2763 1.97082 65.7208C-0.171418 66.6578 -2.46708 67.6168 -4.28354 69.1825C-6.74599 71.325 -4.67772 72.1607 -2.81324 72.9012C3.52362 75.4662 10.6002 68.4784 12.5944 62.3002L12.7131 61.4712L12.775 61.0127C11.655 62.6982 10.2522 64.1792 8.628 65.3908C6.40452 67.2116 2.36681 70.9434 -0.790865 70.8248C-0.841758 70.8259 -0.891578 70.8106 -0.932915 70.7811C-0.974245 70.7516 -1.00485 70.7094 -1.02014 70.6611C-1.03543 70.6127 -1.03461 70.5608 -1.01776 70.5129C-1.00091 70.465 -0.968981 70.4238 -0.926707 70.3954C1.32402 68.8719 3.90764 67.915 6.11821 66.2646C8.5654 64.4329 12.8722 61.4675 13.0698 58.0792C13.0729 58.0283 13.0898 57.979 13.1189 57.937C13.148 57.895 13.1882 57.8617 13.235 57.8407C13.8194 53.4787 14.2983 48.3185 12.6785 44.5075C8.52378 38.2144 3.83312 32.29 -1.34161 26.7997C-1.91957 26.1976 -1.09519 25.192 -0.491022 25.7924C7.36311 33.7241 13.598 42.873 19.3618 52.3706C23.1391 56.1377 27.809 59.1569 32.441 62.035C35.6343 62.9044 38.925 63.3738 42.2369 63.4327C42.2369 63.4327 42.2253 63.3964 42.2902 63.3692C49.9262 59.4172 56.6707 56.0265 65.4192 55.2745C73.2754 54.6323 81.1774 55.5487 88.6678 57.9706C88.7511 57.9878 88.8285 58.0259 88.8926 58.0814C88.9567 58.1369 89.0054 58.208 89.034 58.2877C89.0626 58.3675 89.0702 58.4533 89.0559 58.5369C89.0416 58.6205 89.006 58.699 88.9526 58.7651C78.1978 71.2332 57.1987 71.9097 43.0657 64.9332C43 64.9053 42.9471 64.8539 42.9175 64.7891C42.888 64.7244 42.8839 64.6508 42.906 64.583C42.928 64.5152 42.9747 64.4581 43.0368 64.4227C43.099 64.3873 43.172 64.3763 43.2417 64.3918C50.8522 66.0618 57.9904 68.5197 65.9659 67.9856C69.7662 67.7279 73.6917 67.3375 77.2447 65.8544C77.3722 65.814 90.2925 59.3257 86.1564 58.2263C78.6581 56.2349 70.8299 55.1859 63.1004 56.5402C55.7708 57.8278 50.3372 60.7372 43.7255 63.4074C48.0102 63.2771 52.2705 62.7009 56.4371 61.6878C59.4451 59.4743 63.0067 58.1311 66.7281 57.807C66.7728 57.8094 66.815 57.8279 66.847 57.859C66.879 57.8901 66.8985 57.9317 66.902 57.9761C66.9054 58.0205 66.8926 58.0648 66.8658 58.1006C66.839 58.1363 66.8001 58.1612 66.7563 58.1706C63.6126 58.5398 61.0533 59.9748 58.3192 61.2587L58.4165 61.2279C66.0521 59.3446 74.469 61.0721 81.79 58.4901C81.8924 58.471 81.9982 58.4897 82.0875 58.543C82.1767 58.5962 82.2433 58.6801 82.2745 58.779C82.3058 58.8779 82.2997 58.985 82.2573 59.0799C82.2149 59.1747 82.1392 59.2509 82.0444 59.2942C77.8654 60.7625 74.0466 60.0749 69.7147 60.4475C64.177 60.9155 58.8675 62.1893 53.4252 63.2125C46.7587 64.4633 40.7255 65.0548 34.3637 63.256C35.7552 64.1062 37.1405 64.9584 38.5099 65.8023C44.3642 69.5243 49.3222 74.1086 54.912 78.1139C56.661 79.3726 58.5171 80.4768 60.4592 81.4141C65.3591 81.7598 70.1017 79.9403 75.0677 80.305C79.5451 80.6246 84.0017 81.4698 88.4347 82.1561C95.6557 83.2707 103.297 84.5318 108.407 90.1656C108.463 90.2459 108.491 90.3428 108.486 90.441C108.481 90.5392 108.442 90.6329 108.377 90.7069C103.222 96.016 94.3405 96.6438 87.3631 95.8978C78.259 94.9132 70.7822 89.9484 63.8412 84.3751C59.6197 82.7794 55.7166 80.4516 52.3123 77.4994C51.703 76.9672 51.0706 76.4888 50.4548 75.9785C51.7716 77.4377 53.0369 78.9663 54.2654 80.5266C57.2751 81.9092 59.2919 84.3776 62.0283 86.2058C66.1307 88.8946 69.9135 92.0379 73.3042 95.576C79.1465 101.801 83.8044 109.034 87.0519 116.922C87.0904 117.036 87.0903 117.16 87.0517 117.274C87.0131 117.388 86.938 117.487 86.8379 117.555C83.7099 119.875 70.7367 109.046 68.5719 106.997C61.2331 100.04 54.3931 91.3216 51.5387 81.4957C51.4411 81.1873 51.8925 80.9247 52.0687 81.2282C55.9242 87.9038 59.0005 94.8194 64.2293 100.662C67.5621 104.396 71.193 108.017 75.3978 110.791C74.6468 110.297 86.1165 117.218 84.9795 114.764C78.62 101.145 67.8343 90.535 55.5093 82.1352C61.9294 90.5605 67.5687 99.9179 75.5746 106.598C75.8547 106.828 75.5379 107.348 75.2192 107.143C61.7508 98.5923 56.256 82.2782 44.9122 71.6789C41.1816 68.9679 37.3436 66.4241 33.3752 63.8482C29.4067 61.2722 24.9643 58.8662 21.3018 55.6947C28.4892 67.8548 35.209 80.3956 43.8595 91.5208C50.1482 99.6152 56.6733 107.548 63.174 115.489C69.0309 119.536 76.0323 121.499 81.5465 126.173C85.2619 129.394 88.7703 132.845 92.051 136.506C96.1943 141.028 103.667 148.409 102.289 155.29C102.26 155.421 102.191 155.539 102.09 155.628C101.99 155.717 101.865 155.772 101.731 155.786C80.634 154.97 69.3515 131.913 60.6421 115.638C60.5808 115.542 60.5594 115.427 60.5823 115.315C60.6052 115.204 60.6708 115.106 60.765 115.041C60.8592 114.977 60.9746 114.952 61.0871 114.97C61.1995 114.989 61.3 115.051 61.3673 115.143C67.1038 122.062 70.5407 130.772 75.8259 138.06C78.7785 142.134 82.0036 146.289 86.1673 149.229C87.1424 149.925 101.962 157.043 101.263 153.167C99.7876 144.953 91.6735 137.636 86.085 131.987C82.0213 127.885 77.5586 124.042 72.268 121.532C69.8063 120.425 67.4069 119.186 65.0804 117.819C66.8051 119.934 68.5297 122.049 70.2209 124.122C71.3275 125.508 72.5337 126.829 73.7586 128.124C73.7754 128.086 73.8021 128.053 73.8358 128.029C73.8695 128.005 73.909 127.989 73.9504 127.985C73.9918 127.981 74.0335 127.987 74.0714 128.004C74.1093 128.021 74.1421 128.048 74.1662 128.082C74.7166 128.766 75.2689 129.456 75.7563 130.173C82.1799 136.582 89.3705 142.289 94.6368 149.622C94.66 149.667 94.6659 149.718 94.6536 149.766C94.6412 149.815 94.6114 149.857 94.5698 149.885C94.5282 149.913 94.4778 149.925 94.4282 149.918C94.3785 149.911 94.3332 149.886 94.3008 149.848C89.3114 143.538 83.2589 138.176 77.3996 132.58C79.5944 135.969 81.5382 139.558 83.7192 142.926C83.7409 142.973 83.7451 143.027 83.731 143.078C83.7169 143.128 83.6855 143.172 83.6421 143.201C83.5988 143.231 83.5463 143.244 83.4941 143.239C83.4419 143.234 83.3931 143.211 83.3565 143.174C80.3207 138.899 77.3275 134.485 74.6907 129.951C72.2 127.537 69.8356 124.997 67.6065 122.342C65.7379 120.081 63.8564 117.83 61.962 115.587C61.7276 115.395 61.4931 115.203 61.261 114.997C61.212 114.958 61.1759 114.906 61.1572 114.847C61.1384 114.787 61.1379 114.724 61.1558 114.664C55.7551 108.258 50.3159 101.877 45.1458 95.2911C47.125 99.7734 48.3451 104.602 50.265 109.13C51.8734 112.905 53.5715 116.731 54.8988 120.694C54.8988 120.694 54.9649 120.713 54.9946 120.744C61.7909 130.423 65.7286 141.81 66.3627 153.618C66.7348 160.75 68.3491 172.718 62.7746 178.392C62.7164 178.458 62.644 178.511 62.5629 178.545C62.4817 178.579 62.3939 178.595 62.306 178.591C62.218 178.587 62.1321 178.563 62.0547 178.521C61.9773 178.479 61.9105 178.421 61.8591 178.349C51.7128 165.03 53.676 146.25 54.9647 130.724C55.0105 130.151 55.9155 130.224 55.9566 130.776C56.5397 139.504 53.8329 147.95 55.6965 156.693C56.498 160.43 57.0686 164.24 58.2076 167.904C58.5786 169.077 62.0941 180.191 63.9003 175.023C66.5976 167.266 65.9172 156.054 64.641 148.07C63.1896 139.467 60.196 131.199 55.8037 123.661C56.0771 124.652 56.3282 125.656 56.5268 126.665C57.807 133.204 57.7267 139.814 58.6013 146.402C59.6297 154.151 61.4501 161.744 62.8179 169.426C62.8913 169.848 62.176 169.995 62.0843 169.578C60.7216 163.158 59.0786 156.76 58.1301 150.256C58.1902 153.403 58.3833 156.548 58.4492 159.713C58.4611 159.962 58.0718 159.999 58.058 159.744C57.7273 155.192 56.9411 150.785 57.6289 146.264C57.1706 141.394 57.0617 136.466 56.3448 131.644C55.3084 124.735 52.9908 118.338 50.2621 111.951C47.6732 105.879 46.1384 98.9149 42.7185 93.2787C42.6289 93.1395 42.5975 92.9707 42.6311 92.8084C42.6647 92.6462 42.7606 92.5034 42.8983 92.4103L42.766 92.2459C39.2584 87.6419 36.0565 82.8214 32.9809 77.9144C33.6187 82.0428 32.9357 86.5157 34.377 90.6493C35.067 92.6194 35.6338 94.4954 36.1044 96.342C36.1683 96.3521 36.2271 96.3825 36.2721 96.4287C43.1009 104.013 44.65 117.95 43.2598 127.748C42.4968 133.151 40.841 138.371 39.5642 143.671C38.7639 146.97 38.0658 150.424 35.8701 153.114C35.8069 153.181 35.7297 153.234 35.644 153.268C35.5583 153.303 35.4661 153.319 35.3738 153.314C35.2815 153.31 35.1913 153.286 35.1095 153.243C35.0277 153.201 34.9563 153.141 34.9001 153.068C29.5718 146.426 27.4898 136.422 27.2353 128.035C27.1183 123.948 27.1053 119.429 28.5899 115.547C30.4159 110.759 34.4027 107.057 35.1479 101.873C35.1722 101.776 35.2293 101.692 35.3095 101.633C35.3897 101.574 35.488 101.545 35.5872 101.551C35.6865 101.557 35.7804 101.597 35.8531 101.664C35.9257 101.732 35.9723 101.822 35.9849 101.921C36.3216 109.004 29.439 113.543 28.7401 120.775C27.8601 129.926 28.7689 143.38 34.727 150.894C35.9871 152.491 38.9061 141.231 39.234 139.924C40.073 136.599 41.3437 133.35 41.8517 129.95C43.3916 119.632 42.3409 106.828 36.4846 97.9246C37.3311 101.704 37.6853 105.578 37.5385 109.451C38.3057 112.186 38.875 114.974 39.2417 117.792C39.6164 120.074 40.1865 122.468 40.0309 124.786C40.0202 124.942 39.7704 124.955 39.7305 124.807C39.0267 122.582 38.8257 120.152 38.4191 117.852C38.0821 115.964 37.6722 114.098 37.3813 112.228C37.0347 117.658 36.3332 123.002 36.8715 128.505C37.1516 131.503 37.7992 134.691 35.7727 137.134C35.7576 137.157 35.7343 137.172 35.7078 137.177C35.6812 137.183 35.6537 137.177 35.6312 137.162C35.6088 137.147 35.5933 137.124 35.5881 137.098C35.5829 137.071 35.5884 137.044 35.6034 137.021C37.4142 132.185 35.3065 128.036 35.6465 123.239C36.1008 116.903 37.13 110.398 36.7266 104.054C36.3563 98.2577 34.0223 93.0762 32.4668 87.5886C32.4022 87.9549 32.3117 88.3028 32.2149 88.6726C32.2522 88.6901 32.2856 88.715 32.3127 88.746C32.3398 88.7769 32.3602 88.8132 32.3726 88.8524C32.385 88.8915 32.3892 88.9328 32.3847 88.9737C32.3803 89.0146 32.3674 89.0542 32.347 89.0899C32.082 89.5196 31.9175 89.8444 31.7214 90.1326L31.5453 90.5473C31.5887 90.5218 31.6391 90.5104 31.6893 90.5148C31.7395 90.5191 31.7871 90.5389 31.8253 90.5714C31.8636 90.604 31.8906 90.6478 31.9027 90.6965C31.9148 90.7452 31.9113 90.7965 31.8927 90.8432C28.2439 97.5781 28.8471 105.462 24.7724 112.012C20.8839 118.264 13.187 122.488 7.62717 127.048C7.50065 127.105 7.357 127.112 7.22581 127.067C7.09462 127.022 6.98596 126.928 6.92242 126.805ZM63.0073 82.4572C67.8094 84.3105 72.709 85.0354 78.4604 85.8766C83.097 86.5516 87.2544 87.4648 91.0577 90.2792C91.3979 90.5308 91.0194 91.1294 90.6485 90.9075C86.5557 88.4242 82.3851 87.7014 78.1162 87.1961C80.71 88.4189 83.1611 89.9207 85.426 91.6749C85.5771 91.7934 85.4135 92.058 85.2419 91.9593C83.0615 90.7268 80.849 89.6041 78.5853 88.531C77.4183 87.9889 76.2064 87.4743 75.067 86.8503C72.4138 86.6009 69.7861 86.1351 67.2103 85.4578C67.1477 85.4438 67.0861 85.4255 67.026 85.4031C72.7607 89.6552 78.555 93.9483 85.9159 94.7659C90.638 95.2676 96.0276 95.4716 100.657 94.0538C106.258 92.3486 108.691 89.1844 102.044 86.4645C94.8239 83.5139 86.5823 82.6156 78.8656 81.6445C73.7349 81.0126 68.137 82.6637 63.0168 82.4875L63.0073 82.4572ZM16.0432 119.204C21.1678 115.022 25.8334 110.826 27.2567 104.11C28.065 100.329 28.5796 96.6538 30.1211 93.2262C29.4889 94.168 28.8055 95.0748 28.0739 95.9424C27.5519 96.5732 27.0397 97.214 26.5196 97.8508C26.5474 97.8872 26.5616 97.9321 26.5597 97.9778C26.2312 99.5583 25.5372 101.082 25.1406 102.637C24.7688 104.039 24.3708 105.442 24.0431 106.856C24.033 106.896 24.0078 106.931 23.9726 106.954C23.9374 106.977 23.8948 106.986 23.8534 106.979C23.812 106.972 23.7751 106.949 23.7499 106.916C23.7247 106.882 23.7133 106.84 23.7179 106.799C24.0434 104.554 24.2164 101.912 25.0855 99.6747C20.3576 105.661 16.1986 112.071 12.6624 118.823C12.6366 118.873 12.5926 118.91 12.5397 118.928C12.4867 118.946 12.4289 118.943 12.3784 118.92C12.3278 118.896 12.2884 118.854 12.2683 118.802C12.2483 118.75 12.2491 118.693 12.2707 118.641C14.6035 111.97 19.3312 106.47 23.4573 100.822C25.5883 97.906 28.4484 94.8661 30.2545 91.5144C30.0716 91.6122 29.8605 91.7055 29.6211 91.8145C24.3347 94.112 21.1098 97.4138 17.1468 101.381C12.213 106.314 5.39757 113.579 6.43818 121.198C7.40597 128.355 12.8392 121.854 16.0527 119.234L16.0432 119.204Z" fill="#41844D"/>
<path d="M94.4945 145.371C90.3255 139.373 84.4947 134.606 78.5832 130.449C78.5466 130.424 78.502 130.414 78.458 130.42C78.414 130.426 78.3737 130.448 78.3452 130.482C78.3167 130.516 78.3018 130.559 78.3036 130.604C78.3054 130.648 78.3239 130.69 78.3551 130.721C83.8465 135.556 89.5119 139.969 94.3185 145.533C94.3961 145.588 94.5752 145.478 94.4945 145.371Z" fill="#41844D"/>
<path d="M63.9586 160.697C63.066 154.58 61.7088 148.432 60.2729 142.414C60.2566 142.373 60.2264 142.34 60.1877 142.32C60.149 142.3 60.1044 142.294 60.0617 142.303C60.019 142.313 59.981 142.337 59.9545 142.372C59.9281 142.407 59.9149 142.45 59.9172 142.493C60.6746 148.673 61.9212 154.781 63.6453 160.763C63.654 160.804 63.6787 160.84 63.7142 160.863C63.7497 160.886 63.793 160.895 63.8345 160.886C63.8761 160.877 63.9124 160.852 63.9357 160.817C63.9589 160.781 63.9673 160.738 63.9586 160.697Z" fill="#41844D"/>
<path d="M33.2019 128.057C33.1769 132.561 33.3852 137.085 33.6402 141.587C33.6451 141.641 33.671 141.691 33.7124 141.726C33.7538 141.762 33.8076 141.78 33.8621 141.776C33.9166 141.773 33.9678 141.748 34.0046 141.708C34.0415 141.668 34.0612 141.615 34.0596 141.561C33.8388 137.061 34.1082 132.506 33.5809 128.03C33.5728 127.984 33.5477 127.942 33.5106 127.913C33.4734 127.884 33.4268 127.87 33.3798 127.873C33.3327 127.877 33.2884 127.897 33.2556 127.931C33.2227 127.965 33.2036 128.01 33.2019 128.057Z" fill="#41844D"/>
<path d="M16.0511 115.955C17.9682 112.828 20.271 109.758 21.3693 106.218C21.4331 106.018 21.1201 105.937 21.0286 106.113C19.2865 109.371 17.4752 112.558 15.5936 115.734C15.4237 116.02 15.8834 116.228 16.0511 115.955Z" fill="#41844D"/>
<path d="M8.87737 76.9718C7.34984 80.2137 6.94048 83.8653 7.71299 87.3573C7.77802 87.5629 8.07136 87.4768 8.06448 87.2861C7.98976 85.5083 8.04713 83.727 8.23614 81.957C8.43494 80.3044 8.93482 78.7163 9.25601 77.0915C9.26004 77.0456 9.24829 76.9997 9.22268 76.9615C9.19708 76.9232 9.15917 76.8948 9.11513 76.8808C9.07109 76.8669 9.02355 76.8683 8.98035 76.8848C8.93716 76.9014 8.90082 76.932 8.87737 76.9718Z" fill="#41844D"/>
<path d="M97.9457 90.5943C98.1323 90.6351 98.2421 90.3277 98.0478 90.2627C93.1567 88.5507 88.5558 85.1371 83.351 84.4822C83.0797 84.4483 82.9097 84.8613 83.196 84.9637C88.0819 86.7438 92.8387 89.5093 97.9457 90.5943Z" fill="#41844D"/>
<path d="M78.5781 61.9804C73.7176 61.569 69.1233 63.5411 64.3085 63.8868C64.119 63.9002 64.0856 64.2168 64.2907 64.2317C69.1401 64.5867 73.644 62.1177 78.5027 62.3965C78.7702 62.4184 78.8535 62.0063 78.5781 61.9804Z" fill="#41844D"/>
<path d="M79.6177 109.283C76.3879 105.409 73.265 101.282 69.5063 97.8481C69.465 97.8137 69.4125 97.7954 69.3587 97.7965C69.3048 97.7977 69.2531 97.8183 69.2132 97.8544C69.1733 97.8906 69.1479 97.94 69.1417 97.9933C69.1354 98.0466 69.1486 98.1003 69.1791 98.1445C72.3577 102.068 75.9077 105.707 79.2069 109.526C79.3917 109.793 79.8131 109.52 79.6177 109.283Z" fill="#41844D"/>
</g>
<defs>
<clipPath id="clip0_261_20589">
<rect width="108" height="165" fill="white" transform="matrix(-0.953433 0.301605 0.301605 0.953433 79.9708 0)"/>
</clipPath>
</defs>
</svg>
