<svg width="7" height="13" viewBox="0 0 7 13" fill="none" xmlns="http://www.w3.org/2000/svg">
<g clip-path="url(#clip0_256_20446)">
<path d="M1.94906 7.33838H0.34181C0.0816893 7.33838 0.000488281 7.2405 0.000488281 6.99645V5.02624C0.000488281 4.76566 0.0977618 4.68431 0.34181 4.68431H1.94906V3.25262C1.94906 2.60182 2.06284 1.98364 2.38768 1.41419C2.72858 0.828209 3.21625 0.439678 3.83335 0.210032C4.23441 0.0662184 4.65767 -0.0055002 5.08363 -0.00181823H6.67523C6.90278 -0.00181823 7.00007 0.0960539 7.00007 0.323581V2.17812C7.00007 2.40607 6.90278 2.50395 6.67523 2.50395C6.23704 2.50395 5.79843 2.50395 5.35982 2.52005C4.92121 2.52005 4.69408 2.7319 4.69408 3.18696C4.67759 3.67506 4.69408 4.14706 4.69408 4.65169H6.57795C6.83765 4.65169 6.93535 4.74914 6.93535 5.0093V6.97824C6.93535 7.23839 6.85415 7.31973 6.57795 7.31973H4.69408V12.6241C4.69408 12.9003 4.61287 12.9982 4.32018 12.9982H2.28997C2.04677 12.9982 1.94906 12.9003 1.94906 12.6563V7.33626V7.33838Z" fill="black"/>
</g>
<defs>
<clipPath id="clip0_256_20446">
<rect width="7" height="13" fill="white" transform="translate(0 0.000488281)"/>
</clipPath>
</defs>
</svg>
