<svg width="221" height="231" viewBox="0 0 221 231" fill="none" xmlns="http://www.w3.org/2000/svg">
<g opacity="0.2" clip-path="url(#clip0_261_20566)">
<path d="M206.037 172.079C199.269 169.507 191.727 164.891 184.305 164.63C176.535 164.363 169.92 168.859 162.2 169.075C162.149 169.081 162.102 169.103 162.064 169.138C162.027 169.172 162.001 169.218 161.991 169.268C161.981 169.318 161.988 169.37 162.009 169.417C162.031 169.463 162.066 169.501 162.111 169.526L161.661 169.577C161.325 169.577 160.944 169.577 160.436 169.577C160.395 169.574 160.353 169.58 160.314 169.594C160.275 169.609 160.239 169.631 160.209 169.659C160.179 169.688 160.154 169.722 160.138 169.76C160.121 169.799 160.113 169.84 160.113 169.882C159.752 169.977 159.39 170.085 159.041 170.205C163.075 166.084 166.456 161.436 171.347 158.191C176.713 154.642 182.929 152.273 188.708 149.479C193.085 147.365 195.685 143.421 200.817 142.583C200.84 142.577 200.861 142.564 200.876 142.545C200.89 142.526 200.898 142.502 200.898 142.478C200.898 142.454 200.89 142.431 200.876 142.412C200.861 142.393 200.84 142.379 200.817 142.373C197.645 141.834 195.184 143.993 192.704 145.758C188.143 148.997 183.126 151.06 178.178 153.505C179.682 152.292 181.121 150.965 182.587 149.765C184.407 148.247 186.393 146.838 188.035 145.11C188.137 145.002 188.035 144.793 187.87 144.863C185.758 145.891 183.944 147.6 182.162 149.073C179.874 150.822 177.714 152.731 175.698 154.788C172.229 156.61 169.008 158.87 166.114 161.512C170.998 151.905 181.699 144.539 191.518 140.697C194.753 139.427 198.229 138.906 201.565 137.967C202.878 137.598 214.188 134.506 213.433 136.392C209.83 145.377 198.476 152.959 190.008 156.794C183.322 159.823 175.914 156.077 169.869 159.938C169.783 159.995 169.722 160.082 169.695 160.181C169.669 160.281 169.68 160.387 169.725 160.479C169.771 160.572 169.849 160.644 169.944 160.684C170.039 160.723 170.145 160.726 170.243 160.693C175.159 158.737 180.392 160.363 185.504 159.557C189.646 158.922 193.605 156.617 197.131 154.477C204.356 150.032 212.088 143.18 215.247 135.166C215.285 135.081 215.304 134.988 215.301 134.894C215.299 134.8 215.277 134.709 215.235 134.625C215.193 134.541 215.133 134.468 215.06 134.41C214.986 134.352 214.901 134.311 214.81 134.29C211.359 133.725 207.978 134.849 204.661 135.814C199.377 137.357 193.979 138.538 188.854 140.589C179.58 144.304 168.124 152.654 164.883 162.471C164.864 162.533 164.864 162.6 164.883 162.662C163.5 164.002 162.143 165.443 160.754 167.043C157.855 170.383 153.58 172.028 150.288 174.663C153.059 169.501 155.685 164.268 157.969 158.883C157.969 158.82 158.02 158.75 158.052 158.687C158.201 158.762 158.375 158.775 158.534 158.722C158.693 158.67 158.825 158.557 158.902 158.407C162.149 152.591 167.477 147.727 171.511 142.399C175.749 136.792 180.202 131.547 185.739 127.159C189.615 124.085 193.871 121.527 197.918 118.669C202.212 117.005 205.707 114.072 209.519 111.506C209.735 111.367 209.52 111.043 209.298 111.176C206.57 112.846 203.912 114.592 201.178 116.256C206.411 112.154 211.219 107.518 216.148 103.067C216.471 102.781 215.977 102.223 215.647 102.502C209.589 107.582 203.842 112.986 197.563 117.786C192.228 121.863 186.392 125.121 181.293 129.54C180.512 130.22 179.758 130.944 179.022 131.68C183.443 124.041 189.198 117.26 196.015 111.659C202.358 106.509 211.873 100.279 220.017 98.7363C225.441 97.7076 217.48 106.394 216.611 107.309C213.979 110.141 210.902 112.567 208.035 115.145C201.299 121.184 192.552 123.063 185.2 127.965C184.731 128.276 185.117 129.108 185.65 128.861C199.903 122.174 217.366 114.44 223.963 98.8507C223.998 98.7701 224.016 98.6824 224.014 98.5942C224.011 98.5059 223.989 98.4193 223.949 98.3407C223.909 98.2621 223.852 98.1936 223.782 98.1401C223.712 98.0866 223.63 98.0495 223.544 98.0315C215.786 96.0059 206.101 103.442 200.037 107.353C190 113.853 181.981 123.034 176.884 133.858C176.884 133.896 176.884 133.928 176.884 133.966C174.087 137.109 171.569 140.538 169.057 143.84C166.044 147.809 162.422 151.302 159.472 155.27C162.676 147.428 165.555 139.453 168.48 131.496C168.541 131.484 168.598 131.454 168.643 131.41C168.688 131.366 168.72 131.31 168.733 131.248C168.797 130.943 168.847 130.613 168.898 130.34C169.926 127.559 170.953 124.771 172.006 122.003C173.275 118.713 174.252 115.361 175.178 111.976C177.842 107.372 180.214 102.534 182.447 97.7204C182.467 97.6682 182.467 97.6103 182.446 97.5584C182.425 97.5065 182.385 97.4645 182.335 97.4404C182.285 97.4164 182.227 97.4122 182.174 97.4288C182.12 97.4454 182.076 97.4815 182.048 97.5299C180.189 101.137 178.013 104.642 176.136 108.274C178.115 100.337 179.796 92.3355 182.84 84.779C182.936 84.5377 182.587 84.3599 182.473 84.6012C178.667 92.907 177.252 102.07 174.861 110.922C174.493 111.728 174.144 112.541 173.82 113.367C173.804 113.405 173.797 113.447 173.802 113.488C173.806 113.53 173.821 113.57 173.846 113.603C173.87 113.637 173.903 113.664 173.94 113.682C173.978 113.699 174.02 113.707 174.061 113.703C173.541 115.43 172.964 117.139 172.311 118.815C171.321 121.355 170.336 123.912 169.355 126.486C169.389 123.762 169.277 121.038 169.019 118.326C168.594 112.459 169.723 106.591 171.289 100.965C173.446 93.2182 175.825 82.4359 182.289 77.013C185.34 74.473 186.487 91.0147 186.367 92.253C185.866 97.3711 183.83 102.286 181.73 106.928C177.975 115.221 172.057 122.619 168.848 131.128C168.808 131.232 168.809 131.348 168.85 131.451C168.892 131.555 168.971 131.64 169.072 131.688C169.172 131.736 169.287 131.744 169.394 131.711C169.501 131.678 169.591 131.605 169.647 131.509C179.567 115.691 194.156 94.2025 184.356 75.3113C184.278 75.2005 184.166 75.1178 184.037 75.0755C183.908 75.0332 183.768 75.0335 183.64 75.0762C176.922 77.3368 174.182 87.5984 172.279 93.4912C170.711 98.2073 169.439 103.017 168.473 107.893C167.122 115.075 168.892 122.193 168.264 129.356C164.547 139.052 160.849 148.755 156.884 158.337C151.442 171.514 143.786 183.693 136.72 196.126C137.658 191.345 137.551 186.277 137.836 181.47C138.122 176.663 138.432 172.06 138.952 167.424C142.581 152.153 154.144 139.129 154.924 123.031C154.924 122.65 154.334 122.638 154.29 122.993C152.425 133.369 147.04 143.015 142.872 152.876C144.097 137.859 148.017 123.069 156.783 110.643C158.362 108.407 158.014 121.946 158.052 121.038C157.715 126.118 156.352 131.121 154.747 135.916C152.21 143.409 147.706 149.581 143.773 156.324C143.596 156.629 144.052 156.883 144.274 156.648C151.461 149.206 155.692 138.83 158.134 128.899C158.857 125.971 161.895 109.144 158.28 107.588C158.174 107.541 158.055 107.528 157.941 107.552C157.827 107.576 157.724 107.635 157.646 107.722C152.349 114.535 148.332 122.255 145.79 130.505C144.379 135.26 143.508 140.16 143.196 145.11C142.961 148.431 141.801 151.46 142.092 154.769C141.337 156.636 140.627 158.509 140.005 160.395C140.145 159.601 140.253 158.807 140.411 158.001C141.303 153.538 141.402 148.953 140.703 144.456C142.111 135.566 142.746 126.524 139.067 118.059C136.244 111.57 131.265 104.089 124.04 102.267C123.943 102.248 123.842 102.262 123.753 102.306C123.665 102.351 123.594 102.425 123.551 102.515C121.16 109.823 123.862 117.151 126.488 124.035C128.099 128.257 129.584 132.588 131.563 136.671C133.726 141.205 137.677 144.444 139.809 148.908C139.957 151.081 139.915 153.263 139.682 155.429C138.959 162.338 137.411 168.993 137.069 175.99C136.986 177.597 136.935 179.235 136.885 180.88C135.293 174.397 131.772 169.412 127.37 164.198C123.767 159.957 119.999 155.943 116.828 151.333C114.354 147.739 113.022 144.044 109.686 141.129C109.267 140.773 108.709 141.415 109.121 141.764C115.026 146.882 117.71 155.099 123.165 160.865L123.234 160.941C120.754 159.182 118.211 157.677 116.32 155.112C116.181 154.927 115.883 155.112 116.016 155.315C118.157 158.411 121.112 160.855 124.554 162.376C127.516 165.516 130.145 168.955 132.4 172.638C126.761 168.193 121.496 164.903 116.714 159.131C111.671 153.042 108.69 145.663 106.698 138.094C105.601 133.915 117.722 141.967 117.824 142.056C120.9 144.424 123.203 147.663 125.321 150.863C129.761 157.575 131.176 165.062 133.504 172.568C133.531 172.629 133.578 172.679 133.638 172.709C133.698 172.739 133.766 172.748 133.832 172.734C133.897 172.72 133.956 172.684 133.998 172.631C134.04 172.579 134.062 172.514 134.062 172.447C133.129 156.572 122.086 138.532 105.778 135.369C105.695 135.356 105.61 135.365 105.531 135.394C105.451 135.422 105.381 135.47 105.325 135.534C105.269 135.597 105.231 135.673 105.212 135.756C105.194 135.838 105.197 135.923 105.22 136.004C106.833 143.785 109.969 151.168 114.449 157.728C119.492 165.024 125.81 169.209 133.079 173.908C133.111 173.908 133.136 173.908 133.161 173.908C134.76 176.837 135.989 179.953 136.821 183.185C136.631 188.709 136.307 194.316 134.918 199.523C129.463 209.353 124.528 219.399 121.515 230.289C121.287 231.121 122.581 231.337 122.822 230.524C125.055 223.23 127.909 216.14 131.353 209.334C133.891 205.994 138.648 203.816 142.771 202.14C142.815 202.167 142.865 202.181 142.917 202.181C142.968 202.181 143.019 202.167 143.063 202.14C146.145 200.59 150.877 202.889 153.7 204.114C156.237 205.219 158.381 207.004 160.843 208.204C160.889 208.224 160.94 208.229 160.99 208.218C161.039 208.207 161.084 208.18 161.116 208.141C161.149 208.103 161.168 208.055 161.172 208.004C161.175 207.954 161.162 207.903 161.134 207.861C159.675 205.042 154.379 203.378 151.677 202.343C149.977 201.708 147.795 200.933 145.765 200.92L146.196 200.743L146.983 200.425C153.402 199.073 163.056 201.752 163.97 208.585C164.236 210.579 164.541 212.82 161.433 211.76C159.174 210.979 157.182 209.455 155.299 208.052C152.381 205.88 149.679 203.518 146.348 202.013C146.26 201.97 146.159 201.964 146.066 201.996C145.973 202.028 145.897 202.096 145.854 202.184C145.811 202.273 145.805 202.374 145.837 202.467C145.869 202.56 145.937 202.636 146.025 202.679C151.975 206.267 157.069 211.785 163.97 213.474C164.094 213.497 164.222 213.469 164.327 213.398C164.431 213.327 164.503 213.217 164.528 213.093C165.295 208.871 165.042 204.591 160.919 202.228C157.747 200.393 153.725 199.104 149.92 199.263C155.774 196.945 161.648 194.818 167.592 192.697C167.788 192.627 167.731 192.291 167.509 192.323C161.8 193.269 156.13 195.371 150.63 197.72C155.444 191.135 165.809 188.989 173.421 189.465C175.521 189.605 177.791 189.56 175.958 192.005C174.429 194.012 172.013 195.478 169.78 196.564C165.416 198.685 160.969 195.567 156.605 197.168C156.539 197.196 156.485 197.247 156.452 197.31C156.419 197.374 156.409 197.448 156.424 197.518C156.439 197.588 156.478 197.651 156.534 197.696C156.59 197.741 156.66 197.765 156.732 197.764C161.35 197.549 165.695 199.384 170.142 197.606C173.484 196.259 176.929 193.497 178.33 190.113C178.362 190.049 178.38 189.979 178.384 189.908C178.388 189.836 178.378 189.765 178.354 189.698C178.331 189.63 178.294 189.568 178.246 189.515C178.199 189.462 178.141 189.419 178.077 189.389C169.659 186.354 154.144 189.294 149.761 198.082C147.078 199.244 144.433 200.45 141.839 201.6C139.073 202.825 135.356 204.381 132.698 206.68C137.735 196.844 143.513 187.338 148.86 177.622C151.493 175.184 154.766 174.238 157.443 171.907C158.629 171.213 159.931 170.739 161.286 170.51C165.581 171.78 169.532 175.457 173.973 176.778C178.508 178.096 183.137 179.068 187.82 179.686C195.076 180.651 201.958 178.962 206.411 172.936C206.466 172.859 206.499 172.77 206.509 172.676C206.518 172.582 206.504 172.488 206.466 172.401C206.428 172.315 206.369 172.24 206.294 172.184C206.219 172.127 206.13 172.091 206.037 172.079ZM130.744 132.588C127.75 125.343 124.401 117.672 123.412 109.862C122.486 102.673 126.469 103.213 130.757 107.258C134.309 110.605 136.834 115.405 138.731 119.812C141.686 126.664 140.811 133.903 139.948 141.065C139.948 141.002 139.917 140.938 139.904 140.875C139.212 138.28 138.308 135.746 137.202 133.299C137.202 131.985 137.03 130.664 136.929 129.369C136.732 126.829 136.618 124.34 136.612 121.812C136.612 121.615 136.301 121.603 136.269 121.812C135.863 124.679 135.767 127.58 135.984 130.467C134.309 126.492 132.87 122.473 133.009 117.634C133.009 117.202 132.305 117.17 132.254 117.596C131.677 122.339 132.952 126.441 134.671 130.848C136.802 136.309 138.61 140.964 139.378 146.088C136.961 141.478 132.742 137.452 130.744 132.588ZM201.578 176.13C195.412 180.88 185.644 178.562 178.863 176.727C173.408 175.254 168.911 174.092 164.274 170.618C164.065 170.459 163.874 170.326 163.703 170.212C167.541 170.11 171.632 171.088 175.248 171.482C182.257 172.257 189.444 173.628 196.453 172.307C196.51 172.302 196.563 172.275 196.6 172.231C196.636 172.187 196.654 172.13 196.649 172.072C196.644 172.015 196.617 171.962 196.573 171.925C196.529 171.888 196.472 171.871 196.415 171.876C188.729 172.165 181.034 171.74 173.427 170.606C175.825 170.244 178.229 169.063 180.354 168.218C180.392 168.202 180.423 168.171 180.44 168.133C180.456 168.095 180.458 168.052 180.444 168.012C180.431 167.973 180.403 167.94 180.366 167.92C180.329 167.901 180.286 167.896 180.246 167.907C178.844 168.332 177.417 168.688 176.002 169.069C174.423 169.488 172.755 169.659 171.207 170.167C171.163 170.186 171.126 170.217 171.099 170.256L168.651 169.856C167.526 169.65 166.391 169.506 165.251 169.424C169.019 169.063 172.514 167.672 176.218 166.472C182.815 164.332 188.822 166.307 195.044 168.688C198.92 170.231 207.318 171.723 201.578 176.149V176.13Z" fill="#41844D"/>
<path d="M178.8 86.8684C175.628 93.5295 174.36 101.042 173.637 108.338C173.628 108.383 173.638 108.43 173.665 108.468C173.691 108.506 173.731 108.532 173.776 108.541C173.822 108.549 173.869 108.539 173.907 108.513C173.945 108.487 173.971 108.447 173.979 108.401C175.483 101.162 176.517 93.9739 179.009 86.9699C179.016 86.9561 179.02 86.9413 179.021 86.926C179.022 86.9108 179.019 86.8954 179.014 86.8809C179.009 86.8665 179.002 86.8533 178.991 86.8418C178.981 86.8304 178.969 86.8211 178.956 86.8144C178.942 86.8077 178.927 86.8038 178.912 86.8029C178.896 86.802 178.881 86.8041 178.867 86.8091C178.852 86.8142 178.839 86.8219 178.827 86.8321C178.816 86.8422 178.807 86.8546 178.8 86.8684Z" fill="#41844D"/>
<path d="M207.483 105.918C202.561 109.786 197.848 114.065 193.294 118.352C193.142 118.498 193.37 118.745 193.528 118.625C198.574 114.854 203.312 110.688 207.699 106.166C207.826 106.02 207.629 105.791 207.483 105.918Z" fill="#41844D"/>
<path d="M194.201 149.276C198.165 147.028 202.041 144.583 205.847 142.075C206.069 141.929 205.847 141.586 205.612 141.732C201.775 144.183 197.652 146.241 193.985 148.959C193.943 148.987 193.914 149.031 193.905 149.081C193.895 149.131 193.906 149.183 193.934 149.225C193.963 149.267 194.007 149.296 194.057 149.306C194.107 149.315 194.159 149.305 194.201 149.276Z" fill="#41844D"/>
<path d="M192.146 170.384C188.448 170.282 184.61 169.812 180.957 170.625C180.747 170.676 180.836 170.987 181.033 170.98C184.756 170.866 188.454 170.853 192.184 170.898C192.52 170.904 192.469 170.396 192.146 170.384Z" fill="#41844D"/>
<path d="M161.553 196.298C165.158 196.004 168.564 194.524 171.239 192.088C171.404 191.942 171.169 191.713 171.004 191.815C169.483 192.781 167.89 193.63 166.24 194.355C164.699 194.99 163.069 195.377 161.47 195.91C161.429 195.93 161.395 195.963 161.375 196.004C161.354 196.045 161.348 196.092 161.358 196.137C161.367 196.182 161.392 196.222 161.427 196.252C161.463 196.281 161.507 196.297 161.553 196.298Z" fill="#41844D"/>
<path d="M129.07 111.43C129.013 111.246 128.683 111.303 128.728 111.506C129.666 116.65 128.969 122.397 130.992 127.286C131.093 127.54 131.538 127.483 131.493 127.185C130.611 122.003 130.675 116.447 129.07 111.43Z" fill="#41844D"/>
<path d="M113.643 142.793C115.705 147.238 119.72 150.292 122.429 154.331C122.536 154.489 122.828 154.331 122.74 154.172C120.634 149.727 116.219 147.041 114.049 142.653C113.929 142.405 113.548 142.539 113.643 142.793Z" fill="#41844D"/>
<path d="M154.595 118.072C152.806 122.854 150.751 127.667 149.635 132.677C149.577 132.925 149.964 133.058 150.053 132.817C151.911 128.061 153.332 123.114 155.032 118.307C155.134 117.983 154.709 117.78 154.595 118.072Z" fill="#41844D"/>
<path d="M104.954 47.9111C104.89 47.7777 104.846 47.6381 104.782 47.5047C104.751 47.4383 104.705 47.3793 104.649 47.3316C104.593 47.2838 104.528 47.2483 104.457 47.2274C104.387 47.2064 104.313 47.2005 104.24 47.21C104.167 47.2195 104.097 47.2441 104.034 47.2824C103.609 46.9967 103.19 46.7047 102.765 46.438C102.65 46.3616 102.514 46.3203 102.376 46.3192C102.237 46.3181 102.102 46.3574 101.985 46.4319C101.868 46.5065 101.775 46.6132 101.718 46.7393C101.661 46.8655 101.641 47.0056 101.661 47.1427C102.962 58.2044 94.608 70.1488 90.6436 80.0357C87.9351 86.7794 85.3661 95.1932 90.2249 101.327C90.2756 101.588 90.301 101.848 90.358 102.115C90.3742 102.173 90.4038 102.227 90.4448 102.272C90.4857 102.318 90.5366 102.352 90.5934 102.374C90.6503 102.396 90.7117 102.404 90.7721 102.397C90.8326 102.391 90.8905 102.37 90.9416 102.337C89.7617 106.82 89.1592 111.348 89.895 115.786C87.9921 112.237 85.9497 108.757 83.7613 105.34C83.8063 105.299 83.8336 105.243 83.8375 105.182C84.0849 99.2636 80.4818 94.6978 78.2173 89.548C78.3568 88.9574 78.4774 88.3669 78.6233 87.7763C80.8498 78.8038 84.7254 68.1803 81.2114 59.0998C81.1623 58.9984 81.0908 58.9095 81.0023 58.8398C80.9138 58.7702 80.8106 58.7217 80.7006 58.6978C80.5906 58.674 80.4767 58.6754 80.3674 58.7022C80.258 58.7289 80.1563 58.7801 80.0697 58.8521C75.7568 62.1583 72.0171 66.153 69.0009 70.6758C67.9035 68.2819 66.7872 65.9134 65.6708 63.5702C65.7419 63.5361 65.8019 63.4824 65.8439 63.4155C65.8859 63.3487 65.9083 63.2714 65.9083 63.1924C65.9083 63.1134 65.8859 63.036 65.8439 62.9692C65.8019 62.9023 65.7419 62.8488 65.6708 62.8146C65.5059 62.7384 65.3536 62.6494 65.195 62.5669L64.7382 61.608C65.5501 48.4191 68.8742 35.0587 63.1147 22.5683C59.3849 14.4657 52.4263 4.58515 43.2352 2.12771C42.6492 1.39448 41.9997 0.714536 41.2942 0.0957403C40.9263 -0.221759 40.5329 0.336984 40.7676 0.673534C41.0023 1.01008 41.2436 1.3847 41.4719 1.74664H41.2372C40.901 1.61965 40.5647 1.50531 40.2222 1.39736C40.2058 1.35891 40.1808 1.32477 40.1491 1.29753C40.1174 1.27028 40.0799 1.25075 40.0395 1.24032C39.999 1.22989 39.9568 1.22885 39.9159 1.23737C39.875 1.2459 39.8366 1.26373 39.8036 1.28946C39.5055 1.20056 39.2074 1.11173 38.8966 1.04188C38.3892 0.927583 38.2242 1.75936 38.6999 1.92446C38.8522 1.97526 38.9917 2.04513 39.1439 2.09593C39.1286 2.20744 39.1417 2.32105 39.182 2.42614C47.0855 21.9206 41.4845 51.9561 63.5204 62.7511C63.5775 63.5131 63.6599 64.2688 63.774 65.0308C63.7898 65.1306 63.8416 65.221 63.9196 65.2852C63.9976 65.3493 64.0966 65.3827 64.1974 65.3788C64.2983 65.3749 64.3941 65.3339 64.4669 65.2639C64.5397 65.1939 64.5843 65.0997 64.5923 64.999C64.5923 64.7513 64.5923 64.5036 64.5923 64.2559C65.8609 66.7324 67.1676 69.1963 68.3982 71.6474C66.7726 74.1652 65.376 76.8238 64.2247 79.5912C58.6174 70.352 50.6188 63.1638 42.6582 55.9121C43.7175 55.5883 44.0281 54.4579 44.2374 53.4546C44.4975 52.1846 44.4152 50.7178 44.7197 49.4097C44.9945 49.8551 45.3705 50.2293 45.817 50.5019C45.9586 50.6805 46.1155 50.8463 46.2863 50.9972C46.3644 51.0618 46.4552 51.1091 46.5529 51.136C46.6506 51.1628 46.7529 51.1686 46.853 51.153C46.9531 51.1374 47.0487 51.1007 47.1336 51.0454C47.2186 50.9901 47.2907 50.9174 47.3455 50.8321C47.4148 50.7778 47.4691 50.7068 47.5035 50.6258C47.5378 50.5447 47.5512 50.4562 47.5422 50.3686C47.5518 50.2492 47.5323 50.1293 47.4852 50.0193C47.4852 49.9812 47.4469 49.9431 47.4279 49.8987C47.2026 49.2122 46.7895 48.6028 46.2355 48.1397C46.1097 47.9868 45.9387 47.8778 45.747 47.8286C45.5314 47.6508 45.3095 47.4729 45.0684 47.3015C44.9409 47.2148 44.7844 47.1815 44.6326 47.2088C44.4809 47.2361 44.3458 47.3218 44.2563 47.4475C43.5776 48.6223 43.5145 49.9876 43.413 51.3401C43.3305 52.3371 43.4826 54.8898 42.2964 55.3025C42.2612 55.3162 42.2292 55.3367 42.202 55.3628C42.1747 55.389 42.1529 55.4203 42.1378 55.4549L39.8987 53.4039C38.5814 49.9978 37.5213 46.4976 36.7272 42.9328C36.7971 42.8417 36.8351 42.7301 36.8351 42.6153C36.8351 42.5004 36.7971 42.3888 36.7272 42.2978C36.6447 42.1581 36.556 42.0183 36.4735 41.8722C36.4735 41.8722 36.4735 41.8723 36.4418 41.8342L36.353 41.7135C36.3086 41.6436 36.2642 41.5675 36.2135 41.4977C39.9686 39.4784 35.7124 32.341 31.951 36.1129C31.8318 36.2181 31.738 36.349 31.6765 36.4956C31.6151 36.6423 31.5876 36.801 31.5962 36.9598C31.6047 37.1186 31.6491 37.2736 31.7259 37.4128C31.8027 37.552 31.91 37.6719 32.0397 37.7638C33.3591 38.5702 34.2153 38.4941 35.3254 37.6305C35.8836 38.4179 35.8582 39.834 34.6911 40.1134C34.0567 40.2594 33.5938 41.0976 34.1393 41.6183C34.6848 42.139 35.1225 42.5517 35.5919 43.047C35.6616 43.1129 35.7434 43.1647 35.8328 43.1994C37.0317 45.2759 37.4947 48.781 38.1544 50.9146C38.2812 51.321 38.4335 51.7148 38.5668 52.1212C36.0295 49.7336 33.4923 47.2824 31.1454 44.7297C31.2143 44.71 31.2749 44.6684 31.318 44.6111C31.3612 44.5538 31.3846 44.484 31.3846 44.4122C31.3846 44.3404 31.3612 44.2707 31.318 44.2135C31.2749 44.1562 31.2143 44.1144 31.1454 44.0947C28.1007 42.9771 27.4345 36.7923 27.6946 32.887C27.8572 32.8222 28.0007 32.7171 28.1116 32.5816C28.2226 32.4461 28.2973 32.2847 28.3289 32.1123C28.5826 30.8423 28.1958 28.4929 26.3119 29.1279C24.1869 29.8391 25.0432 32.6521 26.1279 33.8395C26.2071 33.9285 26.3184 33.9825 26.4373 33.9896C26.5562 33.9967 26.6729 33.9566 26.7622 33.8777C26.7555 36.0366 26.9445 38.1917 27.3268 40.3165C25.3581 37.9113 23.5686 35.3645 21.9731 32.6965C22.7787 32.0043 22.8866 30.6581 22.9563 29.6485C23.0276 29.0896 22.9686 28.5218 22.7837 27.9897C22.5988 27.4575 22.2931 26.9755 21.8907 26.5815C20.4318 25.3115 18.2942 26.2068 17.1779 27.4705C17.0837 27.5953 16.9988 27.7269 16.924 27.8642C16.5625 27.7372 16.055 28.1626 16.2897 28.569C16.3532 28.6897 16.4357 28.804 16.5055 28.9246C16.435 29.312 16.4414 29.7095 16.5244 30.0943C16.6073 30.4792 16.7652 30.8439 16.9891 31.1676C17.2129 31.4913 17.4983 31.7677 17.8289 31.981C18.1595 32.1943 18.5289 32.3404 18.9159 32.4108C19.003 32.4222 19.0914 32.4066 19.1695 32.3663C19.4432 32.652 19.7838 32.8649 20.1603 32.9858C20.5369 33.1066 20.9376 33.1317 21.3263 33.0585C21.3897 33.0585 21.4341 33.0076 21.4848 32.9886C23.782 37.1254 26.4916 41.0188 29.5723 44.6091C25.8933 45.9362 21.7956 43.9106 17.8185 43.3391C17.9849 42.5334 17.9719 41.7009 17.7804 40.9008C17.7142 40.7629 17.609 40.6474 17.4778 40.5689C17.3467 40.4903 17.1954 40.452 17.0427 40.4588C16.89 40.4656 16.7427 40.517 16.619 40.6069C16.4953 40.6967 16.4007 40.821 16.3469 40.9642C16.3034 41.3139 16.189 41.651 16.0107 41.9548C15.8775 42.2152 16.1376 42.4756 16.3977 42.4819C16.3808 42.6839 16.3446 42.8837 16.2897 43.0788C15.8313 42.7384 15.2672 42.5719 14.6976 42.6089C14.5011 42.6625 14.321 42.7642 14.1737 42.905C14.0264 43.0458 13.9166 43.2213 13.8541 43.4154C13.71 43.4606 13.5868 43.5557 13.5066 43.6837C13.4264 43.8118 13.3943 43.9642 13.4163 44.1138C13.4702 44.3011 13.5337 44.4855 13.6066 44.6663C13.6066 45.4664 13.8667 46.2348 14.444 46.4507C14.7814 46.5791 15.145 46.6227 15.5032 46.5776C15.842 46.6369 16.1905 46.6005 16.5098 46.4727C16.8291 46.3448 17.1065 46.1304 17.311 45.8537C17.4648 45.6851 17.5688 45.4772 17.6113 45.2529C17.6539 45.0287 17.6333 44.7969 17.552 44.5837C21.8272 45.1488 26.5149 47.5048 30.1749 45.3521C33.1688 48.8192 36.4037 52.0831 39.7401 55.2771C39.9304 55.7407 40.1016 56.1978 40.3046 56.655C40.341 56.7347 40.402 56.8009 40.4784 56.8437C40.5547 56.8865 40.6426 56.9039 40.7295 56.8933C40.8165 56.8827 40.898 56.8446 40.9618 56.7846C41.0257 56.7247 41.0686 56.646 41.0848 56.5598C43.1146 58.4648 45.1635 60.3698 47.1996 62.2748C44.0915 62.3383 41.1548 60.4333 38.275 59.4491C35.3952 58.4648 32.6297 57.6266 29.8767 56.5217C31.9383 54.0579 29.1408 48.9398 25.6331 50.9273C22.3157 52.8323 23.8 58.9855 27.6313 57.4615C27.9476 57.7119 28.3064 57.9035 28.6905 58.0267C28.7788 58.0578 28.8724 58.0711 28.9659 58.0659C29.0593 58.0607 29.1507 58.037 29.235 57.9963C29.3193 57.9556 29.3947 57.8986 29.4569 57.8286C29.5191 57.7586 29.5669 57.677 29.5975 57.5884C33.1433 58.9918 36.7843 60.0777 40.3808 61.335C42.9688 62.2304 45.062 63.6972 47.8085 62.8717C53.5998 68.3517 59.2263 73.9651 63.8694 80.442C62.3223 84.3685 61.3647 88.5028 61.0277 92.7103C56.4227 91.8213 50.6947 91.3514 46.8952 88.3098C49.4895 86.6461 48.0686 81.9597 44.3579 81.5597C38.4969 80.9247 38.2878 88.9193 43.7682 87.9096C43.8443 88.4938 44.2692 89.0463 44.9606 88.8558H45.043C45.3191 88.8386 45.593 88.7962 45.8613 88.7288C49.6672 92.0816 56.1433 93.4279 60.9577 93.4152C60.4884 101.588 62.6514 109.735 68.4363 116.593C68.6202 117.399 68.8296 118.199 69.0706 118.993C68.8676 119.399 68.6773 119.806 68.4363 120.212C68.005 121.031 69.191 121.87 69.6287 121.05C70.3001 123.26 71.0879 125.433 71.9885 127.559C68.5054 124.581 64.7165 121.982 60.6852 119.806C58.8203 118.809 57.006 117.755 55.2109 116.675C55.246 116.561 55.245 116.438 55.2075 116.324C55.17 116.211 55.0981 116.111 55.0018 116.04C49.477 111.709 46.6542 104.959 43.0323 99.1111C40.4634 94.9582 36.9239 91.9546 33.061 89.0527C23.6844 82.1551 12.2721 78.5966 0.641376 78.9435C0.51369 78.9462 0.389864 78.9875 0.285971 79.0618C0.182078 79.1362 0.102966 79.2402 0.0591 79.3603C0.0152344 79.4803 0.00859144 79.6109 0.0400522 79.7348C0.0715129 79.8587 0.139672 79.9703 0.235486 80.0548C10.0863 87.3763 14.5771 99.5111 23.8761 107.442C32.4456 114.757 44.4657 113.576 54.3229 117.812C54.6654 118.028 55.008 118.256 55.3506 118.447C65.1824 124.403 73.4856 130.067 81.0085 138.989C84.3234 142.957 87.3544 147.154 90.079 151.549C87.5369 149.555 84.7692 147.867 81.833 146.52C81.7823 146.43 81.7156 146.351 81.6363 146.285C67.2311 134.722 45.931 112.262 27.3838 128.092L27.3141 128.035C26.9843 127.8 26.6797 128.232 26.9017 128.512C26.6797 128.708 26.4515 128.893 26.2231 129.108C25.5888 129.693 26.4577 130.702 27.0793 130.112C27.3584 129.858 27.6312 129.629 27.904 129.388C35.4015 135.738 43.5905 141.453 52.547 145.523C62.0616 149.816 71.3733 145.091 81.0212 147.479C81.1521 147.514 81.2899 147.514 81.4207 147.479C84.9703 149.066 88.2971 151.111 91.316 153.562C94.3607 158.598 97.1072 163.824 99.6952 169.107C99.7625 169.234 99.8759 169.33 100.012 169.375C100.148 169.421 100.296 169.412 100.426 169.35C100.556 169.289 100.657 169.18 100.709 169.046C100.761 168.912 100.759 168.763 100.704 168.631C94.0434 154.166 85.3154 139.351 73.1874 128.626C72.0463 125.742 71.0512 122.802 70.206 119.818C73.8089 112.408 75.1536 104.54 76.6696 96.6093C83.1586 106.102 89.3938 115.716 93.796 126.397C93.9228 126.708 94.0245 127.032 94.145 127.33C88.506 124.517 84.1989 119.545 78.7311 116.408C78.6774 116.372 78.6153 116.35 78.5505 116.344C78.4857 116.339 78.4205 116.351 78.3616 116.378C78.3027 116.406 78.252 116.449 78.2145 116.502C78.177 116.555 78.1539 116.617 78.1476 116.681C78.1476 116.726 78.1476 116.764 78.1476 116.808C77.4499 116.447 76.581 117.494 77.1899 118.117C77.247 118.174 77.2976 118.205 77.3547 118.263C77.7811 118.688 78.2906 119.021 78.8516 119.241C78.9833 119.355 79.0986 119.488 79.1941 119.634C79.2415 119.748 79.3238 119.844 79.4292 119.907C79.5346 119.971 79.6576 119.999 79.7801 119.987C79.9027 119.976 80.0186 119.926 80.1106 119.844C80.2026 119.762 80.2658 119.653 80.2915 119.533C80.3596 119.511 80.4204 119.471 80.4674 119.417C80.5144 119.363 80.5461 119.297 80.5585 119.226C80.5709 119.156 80.5638 119.083 80.538 119.016C80.5123 118.949 80.4685 118.891 80.412 118.847C80.2661 118.758 80.1393 118.637 79.9997 118.536C79.7886 118.222 79.5371 117.938 79.2514 117.691C78.8645 116.986 80.6912 118.574 80.8434 118.688C82.5751 119.901 84.1734 121.311 85.8036 122.651C88.5438 124.898 91.284 127.096 94.5507 128.461C98.9084 139.992 100.26 152.216 100.697 164.478C100.755 166.027 100.812 167.57 100.888 169.126C100.849 169.228 100.849 169.341 100.888 169.444L100.989 170.822C100.973 170.91 100.973 171 100.989 171.088C102.112 191.516 105.645 212.115 120.773 227.133C121.351 227.705 122.327 226.886 121.744 226.301C110.903 215.456 106.571 202.324 104.491 188.436C107.662 186.373 107.973 181.934 108.88 178.315C109.023 178.343 109.172 178.326 109.305 178.266C109.438 178.206 109.549 178.105 109.622 177.978C110.028 177.273 109.793 176.581 109.482 175.882C109.434 175.784 109.357 175.702 109.263 175.646C109.168 175.59 109.059 175.563 108.949 175.569C108.839 175.574 108.733 175.612 108.644 175.676C108.555 175.741 108.487 175.83 108.449 175.933C107.884 177.889 107.465 179.87 106.99 181.852C106.514 183.833 105.924 186.068 104.332 187.37C103.603 182.194 103.158 176.924 102.809 171.628C102.918 171.628 103.024 171.599 103.119 171.546C103.213 171.493 103.292 171.416 103.349 171.323C108.062 163.849 109.92 155.632 110.865 147.161C111.336 146.755 111.689 146.228 111.886 145.638C113.092 142.932 114.963 140.557 116.523 138.075C117.836 135.96 119.099 133.833 120.45 131.756C120.507 132.029 120.577 132.303 120.646 132.601C120.662 132.706 120.716 132.801 120.798 132.868C120.879 132.936 120.983 132.971 121.089 132.967C121.194 132.963 121.295 132.92 121.371 132.847C121.448 132.774 121.494 132.675 121.503 132.569C121.56 131.835 121.52 131.096 121.382 130.372L121.699 129.909C121.759 129.821 121.781 129.713 121.762 129.608C121.743 129.504 121.684 129.411 121.598 129.35L120.881 128.994C120.813 128.972 120.74 128.966 120.669 128.975C120.597 128.984 120.529 129.009 120.468 129.048C120.408 129.087 120.356 129.138 120.318 129.199C120.28 129.26 120.255 129.329 120.247 129.401C120.225 129.888 120.246 130.377 120.31 130.861C119.904 131.394 119.302 132.017 119.042 132.404C117.716 134.449 116.504 136.563 115.236 138.646C114.284 140.202 113.244 141.694 112.229 143.218C112.096 143.415 111.55 144.444 111.087 145.25C111.17 144.367 111.259 143.491 111.328 142.596C111.442 142.525 111.525 142.413 111.559 142.283C111.593 142.153 111.576 142.015 111.512 141.897L111.398 141.662C111.614 138.697 111.779 135.712 111.95 132.734C111.982 132.724 112.013 132.707 112.039 132.684C112.064 132.662 112.086 132.634 112.101 132.604C112.116 132.573 112.125 132.539 112.128 132.505C112.13 132.471 112.126 132.437 112.115 132.404C112.077 132.309 112.026 132.214 111.988 132.125C112.051 131.045 112.128 129.978 112.197 128.905C117.145 126.251 119.124 120.777 121.027 115.716C121.128 115.744 121.235 115.738 121.333 115.699C121.43 115.66 121.512 115.59 121.566 115.5C121.566 115.45 121.636 115.386 121.667 115.335H121.725C121.791 115.366 121.862 115.386 121.934 115.392C122.008 115.402 122.082 115.402 122.156 115.392L122.257 115.348L122.346 115.297C122.382 115.275 122.414 115.247 122.441 115.215C122.982 115.135 123.498 114.935 123.951 114.63C125.492 113.627 125.987 110.998 124.769 109.55C124.277 109.03 123.613 108.704 122.9 108.633C122.188 108.562 121.473 108.75 120.887 109.163C120.454 109.484 120.13 109.93 119.958 110.441C119.785 110.951 119.773 111.503 119.923 112.021C119.85 112.042 119.785 112.085 119.736 112.144C119.687 112.203 119.658 112.275 119.651 112.351C119.613 112.753 119.667 113.159 119.809 113.537C119.951 113.915 120.176 114.257 120.469 114.535V114.573C118.845 119.558 116.745 125.184 112.223 128.061C112.358 126.168 112.529 124.287 112.737 122.416C114.519 121.908 115.363 119.914 115.857 118.021C115.922 118.094 116.005 118.149 116.097 118.181C116.189 118.213 116.288 118.221 116.384 118.204C116.48 118.187 116.57 118.145 116.646 118.083C116.721 118.021 116.779 117.941 116.815 117.85C117.208 116.656 116.555 115.589 116.048 114.523C115.963 114.355 115.827 114.22 115.659 114.135C115.492 114.051 115.302 114.023 115.117 114.055C114.933 114.087 114.763 114.178 114.634 114.313C114.505 114.449 114.422 114.622 114.398 114.808C114.254 115.344 114.213 115.902 114.278 116.453C114.302 116.572 114.354 116.683 114.43 116.777C114.214 118.108 113.714 119.377 112.965 120.498C113.567 115.256 114.822 110.111 116.701 105.182C116.833 105.301 116.973 105.411 117.12 105.512C117.652 105.869 118.297 106.018 118.932 105.933C119.568 105.847 120.15 105.533 120.57 105.048C120.928 104.69 121.204 104.259 121.38 103.784C121.556 103.31 121.628 102.803 121.59 102.298C121.553 101.793 121.407 101.302 121.164 100.858C120.92 100.414 120.583 100.029 120.177 99.7271C119.493 99.2451 118.692 98.9546 117.858 98.8854C117.024 98.8162 116.187 98.9707 115.432 99.3333C113.606 100.349 113.783 103.143 115.502 104.197C115.598 104.252 115.71 104.272 115.819 104.255C115.843 104.291 115.871 104.325 115.902 104.356C113.498 109.963 112.343 115.9 111.677 121.92C111.677 121.958 111.677 121.99 111.677 122.028C111.392 124.683 111.182 127.349 111.043 130.016C109.14 126.206 106.558 122.657 104.491 118.91C104.547 118.887 104.593 118.844 104.621 118.789C104.649 118.734 104.656 118.672 104.643 118.612C104.539 118.155 104.345 117.723 104.072 117.342C104.11 117.342 104.154 117.298 104.199 117.266C105.727 115.996 105.797 112.579 104.199 111.316C102.993 110.351 101.224 110.732 100.114 111.652C99.7387 111.958 99.4765 112.38 99.3685 112.852C99.2604 113.323 99.3129 113.817 99.5174 114.256C99.4433 114.259 99.3711 114.28 99.3065 114.317C99.2419 114.354 99.1871 114.405 99.1458 114.466C99.1045 114.528 99.0779 114.599 99.0686 114.672C99.0594 114.746 99.0677 114.821 99.0925 114.891C99.6317 116.567 101.236 118.167 102.898 117.856C105.247 122.597 107.917 127.172 110.891 131.547L110.796 133.191C110.673 135.389 110.538 137.584 110.39 139.776C110.225 139.453 110.072 139.141 109.901 138.799C109.856 138.707 109.783 138.633 109.693 138.585C109.603 138.538 109.5 138.521 109.399 138.535C109.299 138.55 109.205 138.597 109.132 138.668C109.06 138.739 109.011 138.831 108.994 138.932C108.626 138.509 108.265 138.085 107.909 137.662C107.459 137.122 105.759 135.408 105.201 134.144C105.262 134.151 105.324 134.151 105.385 134.144C105.44 134.149 105.497 134.14 105.547 134.116C105.598 134.093 105.642 134.057 105.674 134.011C105.706 133.965 105.726 133.912 105.731 133.856C105.736 133.8 105.726 133.744 105.702 133.693C105.543 133.236 105.429 132.544 105.017 132.239C105.074 132.201 105.131 132.182 105.188 132.144C105.517 131.892 105.791 131.575 105.992 131.213C106.194 130.851 106.319 130.451 106.36 130.038C106.401 129.626 106.357 129.209 106.231 128.815C106.105 128.42 105.899 128.055 105.626 127.743C105.168 127.158 104.55 126.719 103.847 126.481C103.144 126.243 102.386 126.216 101.668 126.403C101.342 126.527 101.053 126.73 100.826 126.994C100.599 127.258 100.441 127.574 100.368 127.915C100.282 128.42 100.311 128.939 100.454 129.432C100.597 129.924 100.849 130.378 101.192 130.76C101.235 130.808 101.291 130.842 101.353 130.859C101.416 130.876 101.481 130.875 101.543 130.855C101.605 130.836 101.659 130.799 101.7 130.749C101.742 130.7 101.768 130.639 101.776 130.575C101.732 129.95 101.78 129.321 101.915 128.708C101.957 128.557 102.008 128.409 102.067 128.264C102.182 128.086 102.194 128.118 102.271 128.08C102.379 128.043 102.492 128.022 102.607 128.016C102.499 128.016 103.019 128.073 102.975 128.061C103.364 128.15 103.727 128.331 104.034 128.588C104.327 128.769 104.542 129.052 104.64 129.382C104.737 129.713 104.709 130.068 104.56 130.378C104.402 130.747 103.875 131.426 103.406 131.306C102.936 131.185 102.581 130.34 102.537 129.851C102.524 129.785 102.49 129.724 102.44 129.679C102.389 129.633 102.325 129.606 102.258 129.6C102.19 129.594 102.123 129.611 102.066 129.647C102.008 129.683 101.965 129.737 101.941 129.801C101.813 130.213 101.798 130.652 101.897 131.072C101.996 131.492 102.206 131.877 102.505 132.188C102.704 132.388 102.951 132.534 103.221 132.612C103.492 132.689 103.778 132.697 104.053 132.633C103.279 133.903 104.402 134.969 105.15 136.024C106.723 138.18 108.418 140.245 110.224 142.208C109.99 145.123 109.698 148.031 109.286 150.927C108.808 154.083 108.096 157.199 107.155 160.249C106.305 163.081 103.114 166.504 103 169.393C102.924 169.253 102.841 169.113 102.765 168.967C102.725 168.881 102.662 168.808 102.581 168.758C102.283 163.837 102.01 158.915 101.611 154.051C100.84 145.288 98.8109 136.682 95.5849 128.499C95.616 128.449 95.6357 128.393 95.6428 128.335C95.65 128.277 95.6442 128.218 95.6261 128.162C95.6079 128.106 95.5779 128.055 95.5378 128.013C95.4978 127.97 95.4488 127.936 95.3944 127.915H95.3563C94.0496 124.606 92.5654 121.368 90.9543 118.18C90.387 115.897 90.1396 113.546 90.2187 111.195C90.2488 111.24 90.2915 111.275 90.3416 111.296C90.3918 111.317 90.4468 111.322 90.4999 111.311C90.553 111.3 90.6016 111.273 90.6396 111.235C90.6776 111.196 90.7033 111.147 90.7133 111.093C92.0771 103.042 99.194 98.9079 104.96 94.0438C109.958 89.8338 112.572 84.6521 114.234 78.3783C117.266 67.1833 114.221 54.7627 104.954 47.9111ZM21.0471 31.109C21.0471 31.0582 20.99 31.0074 20.9583 30.9566C20.8061 30.6709 20.324 30.8805 20.5016 31.1726L20.6539 31.4519C20.0041 31.1954 19.4285 30.7808 18.9792 30.2455C18.7128 29.9915 18.4782 29.7184 18.2435 29.4454C18.2433 29.1479 18.3439 28.8591 18.5289 28.6262C18.8173 28.2446 19.2159 27.9609 19.6707 27.8134C19.845 27.7516 20.0301 27.7265 20.2145 27.7396C20.399 27.7527 20.5788 27.8039 20.7426 27.8897C20.923 28.0759 21.0616 28.2986 21.1491 28.5428C21.2366 28.787 21.2711 29.0471 21.2501 29.3057C21.2661 29.856 21.215 30.406 21.0979 30.9439C21.0854 31.0002 21.0684 31.0554 21.0471 31.109ZM27.9802 55.6455C27.7899 55.5566 27.5931 55.4866 27.4092 55.3977C27.3232 55.3661 27.2308 55.3558 27.1399 55.3675C27.049 55.3792 26.9623 55.4125 26.887 55.4648C26.8117 55.5172 26.7502 55.5868 26.7075 55.6679C26.6648 55.7491 26.6422 55.8394 26.6417 55.9312C26.4824 55.8807 26.3346 55.7992 26.2069 55.6913C26.0791 55.5835 25.9738 55.4514 25.8971 55.3027C25.8205 55.154 25.774 54.9915 25.7602 54.8247C25.7465 54.658 25.7658 54.4902 25.8171 54.331C25.9249 51.9878 30.2637 54.439 27.9802 55.6455ZM45.0114 86.6651C44.9506 86.6626 44.8899 86.6735 44.8337 86.6969C44.7649 86.716 44.6949 86.7309 44.6243 86.7413C44.5092 86.7448 44.3965 86.7732 44.2935 86.8248C44.1905 86.8763 44.0999 86.9497 44.0281 87.0398C44.0281 87.0398 44.0282 87.0397 43.9838 87.008C43.5573 86.9417 43.1495 86.7865 42.7867 86.5524C42.4239 86.3183 42.1141 86.0106 41.8777 85.6492C41.8777 83.795 42.7531 83.1853 44.4784 83.8139C46.0642 84.2648 46.6922 86.2968 45.043 86.6651H45.0114ZM3.9461 80.4929C21.6243 82.6011 30.4159 95.7901 41.4084 107.207C37.3298 104.147 33.3464 100.959 29.3566 97.6824C22.081 91.6689 14.3741 84.9823 5.36695 81.7184L3.9461 80.4929ZM24.5802 106.407C19.1315 102.299 15.4208 95.9869 11.5832 90.4751C10.9933 89.6242 9.36946 87.0652 7.60608 84.6903C19.8419 95.9298 33.1369 107.811 48.0876 114.357C48.1466 114.374 48.2099 114.37 48.2663 114.346C48.3227 114.322 48.369 114.279 48.3973 114.224C48.4257 114.17 48.4343 114.107 48.4218 114.047C48.4093 113.987 48.3765 113.933 48.3289 113.894C40.2731 108.503 32.0523 103.645 24.3835 97.6569C18.3956 92.977 12.6995 87.9414 6.92098 83.0075C21.9922 89.8909 34.0884 102.965 47.5168 113.005C48.6014 113.938 49.7242 114.84 50.885 115.697C42.0237 112.548 32.4139 112.319 24.5802 106.407ZM48.4301 112.224C34.9574 99.2571 24.2503 81.7439 4.07928 80.0675C15.6998 80.1754 26.8828 85.4333 35.7568 92.6342C42.804 98.3492 45.2713 107.69 51.2591 114.148C50.3013 113.538 49.3753 112.865 48.4301 112.224ZM31.602 126.74C40.2794 124.803 47.7895 126.219 55.8706 130.036C62.4864 133.16 67.2881 138.868 73.276 142.831C65.4169 139.44 58.9216 134.214 51.2845 130.474C47.4883 128.648 43.3422 127.667 39.1312 127.597C36.4702 126.888 33.6942 126.722 30.9677 127.108C31.1771 126.975 31.3864 126.873 31.602 126.74ZM63.8756 139.44C61.7076 138.573 59.5899 137.585 57.5325 136.481C53.3968 134.226 49.0456 131.445 44.4976 129.496C48.5651 130.379 52.4355 132.004 55.9152 134.29C58.4905 135.903 61.1291 137.77 63.8756 139.434V139.44ZM28.6461 128.937L28.5446 128.861C28.6652 128.759 28.7857 128.67 28.8999 128.581C28.9298 128.641 28.976 128.692 29.0332 128.727C29.0905 128.761 29.1564 128.779 29.2234 128.778C32.7676 128.549 36.3229 128.549 39.8671 128.778C46.4386 130.683 52.623 135.058 58.5221 138.081C63.2858 140.519 68.354 142.266 73.3587 144.126C64.1422 144.031 56.8666 141.218 48.6206 136.881C42.3156 133.573 35.9344 129.896 28.7477 128.893C28.6969 128.899 28.6778 128.918 28.6461 128.931V128.937ZM65.2712 146.323C52.1664 147.593 40.1399 137.49 29.8894 129.858C38.0784 132.309 45.3412 136.367 52.9719 140.215C59.518 143.517 67.447 146.603 74.8494 144.73L76.879 145.498C73.0033 145.352 69.1849 145.923 65.2712 146.317V146.323ZM76.6315 144.247C63.1397 134.963 50.9358 122.066 33.8031 125.61C47.9355 119.469 63.324 132.525 74.3609 141.885L77.5768 144.609L76.6315 144.247ZM64.3133 29.204C66.73 37.1796 64.7954 45.3013 63.8502 53.3975C62.625 43.4849 60.5626 33.6941 57.6849 24.1304C55.5156 16.9485 51.976 8.82063 45.8232 4.22959C54.9256 8.26184 61.6555 20.4347 64.3133 29.1976V29.204ZM45.3348 5.34084C60.0254 15.9009 59.3468 39.961 62.7086 57.3726C58.0845 47.5301 53.8283 37.7257 51.475 26.6831C50.1683 20.4664 48.8489 11.7289 45.3348 5.33448V5.34084ZM46.1847 30.6709C45.7914 28.4166 45.4553 26.1624 45.1254 23.9019C48.2335 36.7987 52.0648 49.5747 60.3488 59.6458C51.386 52.8767 48.1637 42.0437 46.1847 30.6645V30.6709ZM63.2097 61.5508C62.753 61.2841 62.3344 60.9985 61.903 60.7191C61.9165 60.6392 61.8982 60.5571 61.8522 60.4904C49.9336 42.8565 47.4597 23.235 40.92 3.62622C40.9157 3.5546 40.926 3.48296 40.9501 3.41538C40.9741 3.3478 41.0115 3.28567 41.06 3.23291C41.1086 3.18015 41.1672 3.13779 41.2325 3.10827C41.2978 3.07874 41.3684 3.06272 41.44 3.06114C41.8206 3.23894 42.2012 3.41666 42.5628 3.61351C47.6373 12.3765 49.5024 22.6128 51.5385 32.4934C53.6508 42.6216 58.3636 52.2101 63.2097 61.5446V61.5508ZM68.1256 114.891C61.6557 106.21 60.7674 95.6503 63.6028 85.0966C64.8714 80.3659 67.1742 75.9464 69.7622 71.8252C71.8586 68.8831 74.224 66.1428 76.8282 63.64C67.821 76.6194 57.6657 99.7207 67.9986 114.205C68.043 114.427 68.0749 114.656 68.1256 114.885V114.891ZM69.0579 114.637C68.2114 110.521 67.7864 106.33 67.7893 102.127C67.8464 91.2117 72.0393 82.0232 77.1391 72.6697C77.1783 72.6022 77.1906 72.5226 77.1738 72.4464C77.1571 72.3703 77.1125 72.3033 77.0487 72.2585C76.9849 72.2138 76.9066 72.1946 76.8294 72.2049C76.7522 72.2152 76.6814 72.2543 76.6315 72.3142C67.8146 83.2997 65.4615 98.1014 67.6118 112.046C60.0001 96.3361 69.5845 77.083 78.0398 63.4369C78.0717 63.382 78.0914 63.3208 78.0977 63.2575C78.104 63.1943 78.0968 63.1303 78.0764 63.0701C78.0559 63.0099 78.0229 62.9549 77.9794 62.9086C77.9359 62.8623 77.883 62.826 77.8242 62.8019C78.0399 62.6368 78.2492 62.4843 78.4586 62.3509C78.9216 73.4571 75.3946 82.7281 71.7537 93.2247C69.2926 100.318 67.5863 107.753 69.337 115.088C69.2418 114.923 69.1467 114.808 69.0579 114.63V114.637ZM75.5342 94.5708V94.6026C74.0182 102.007 73.0477 109.328 70.206 116.339C65.9181 97.4029 83.7803 80.2706 79.2576 61.8937C79.9871 61.5953 80.5264 61.697 80.7167 62.459C82.9558 71.4188 78.3633 82.3853 76.3209 91.0339C76.0354 92.1896 75.7815 93.3771 75.5342 94.5646V94.5708ZM76.9487 95.4789C77.2658 93.8216 77.583 92.1705 77.9763 90.5132C80.2471 94.7423 82.9177 99.6572 83.1397 104.445C81.1649 101.406 79.1011 98.4147 76.9487 95.4726V95.4789ZM121.782 111.5C121.782 111.249 121.88 111.007 122.055 110.827C122.214 110.705 122.403 110.629 122.603 110.609C122.802 110.589 123.003 110.625 123.184 110.713C123.339 110.801 123.46 110.939 123.526 111.106C123.608 111.552 123.546 112.013 123.349 112.421C123.253 112.664 123.103 112.882 122.91 113.059C122.718 113.236 122.489 113.368 122.239 113.443L122.175 113.303C122.081 113.127 121.921 112.995 121.731 112.935C121.787 112.457 121.808 111.975 121.794 111.494L121.782 111.5ZM115.914 101.702C115.908 101.553 115.941 101.404 116.01 101.271C116.079 101.139 116.182 101.026 116.308 100.946C116.732 100.738 117.199 100.635 117.671 100.643C118.143 100.652 118.606 100.774 119.022 100.997C119.23 101.083 119.418 101.211 119.573 101.375C119.727 101.538 119.845 101.732 119.92 101.944C119.994 102.157 120.023 102.382 120.004 102.606C119.985 102.831 119.918 103.048 119.809 103.245C119.283 104.585 118.23 104.483 117.329 103.88C117.329 103.848 117.329 103.816 117.36 103.791C117.589 103.27 116.948 102.959 116.574 103.22C116.37 103.003 116.191 102.765 116.041 102.508C115.964 102.244 115.921 101.971 115.914 101.696V101.702ZM101.801 116.555C101.391 116.407 101.021 116.166 100.721 115.849C100.422 115.533 100.2 115.15 100.076 114.732C100.308 114.903 100.582 115.011 100.868 115.043C100.946 115.051 101.025 115.037 101.096 115.003C101.167 114.97 101.228 114.918 101.272 114.853C101.316 114.789 101.342 114.713 101.347 114.635C101.352 114.556 101.335 114.478 101.3 114.408C100.964 113.773 100.666 113.405 101.256 112.84C101.513 112.585 101.838 112.409 102.192 112.332C102.545 112.256 102.914 112.282 103.254 112.408C104.319 112.865 103.977 115.164 103.583 115.875C103.417 116.183 103.145 116.421 102.818 116.545C102.49 116.669 102.129 116.67 101.801 116.548V116.555ZM103.704 48.6414C103.894 48.7493 104.066 48.87 104.243 48.9843C104.512 49.6337 104.738 50.2996 104.922 50.9781C104.37 50.1373 103.753 49.3411 103.076 48.5969C103.209 48.4636 103.399 48.4445 103.723 48.635L103.704 48.6414ZM103.856 51.1814C104.452 52.0374 104.987 52.9351 105.455 53.8674C106.603 64.0274 100.095 75.5717 97.0945 84.5506C95.3121 89.8656 92.7812 95.5932 91.1447 101.422C91.0623 101.314 90.9859 101.194 90.9035 101.086C89.0703 90.8878 96.0923 83.0329 100.266 74.3525C103.729 67.1834 106.07 58.9284 103.875 51.1623L103.856 51.1814ZM95.9971 71.1394C98.0333 66.6436 100.063 62.1541 101.642 57.4742C102.239 55.6427 102.695 53.7682 103.006 51.8671C103.031 51.7073 103.046 51.5463 103.051 51.3846C105.943 63.348 99.5809 73.4762 94.0053 83.6806C91.2905 88.659 89.3877 93.8787 89.8888 99.4159C85.696 90.9069 92.5717 78.7276 96.016 71.1203L95.9971 71.1394ZM91.4238 105.391C91.1171 106.002 90.8664 106.64 90.6752 107.296C91.9882 97.5934 96.9421 87.4081 100.152 79.1595C102.721 72.5365 106.419 64.1861 106.546 56.3884C109.381 64.0464 108.937 73.5651 106.508 80.658C103.425 89.6559 95.7245 96.6346 91.3414 104.979C91.312 105.046 91.306 105.122 91.3244 105.193C91.3428 105.264 91.3843 105.327 91.4427 105.372L91.4238 105.391ZM105.563 91.872C102.448 94.9327 97.7603 97.7649 94.3922 101.289C99.7394 93.4469 106.875 86.1889 108.664 76.721C109.996 69.6725 109.755 60.6683 106.457 53.7277C106.4 53.1753 106.317 52.6291 106.216 52.083C111.354 61.1953 110.84 71.3362 108.195 81.4708C108.175 81.5349 108.18 81.6043 108.209 81.6646C108.239 81.7249 108.291 81.7715 108.354 81.7945C108.417 81.8175 108.487 81.815 108.548 81.7879C108.609 81.7607 108.658 81.7108 108.683 81.6486C110.875 76.5749 111.756 71.0304 111.245 65.5262C110.734 60.022 108.848 54.7351 105.759 50.1526L105.721 50.0193C118.154 59.4427 115.718 81.9027 105.581 91.8531L105.563 91.872Z" fill="#41844D"/>
<path d="M18.5098 39.5674C18.5967 39.563 18.6813 39.5369 18.7555 39.4914C18.8298 39.4459 18.8914 39.3826 18.9349 39.3071L18.9791 39.3451C20.1653 39.9801 21.0788 39.0848 21.4149 37.9799C21.8717 36.5067 21.5926 34.754 19.8482 34.4556C19.2118 34.3965 18.5715 34.5169 17.9998 34.803C17.4281 35.0892 16.9478 35.5297 16.6132 36.0749C15.7759 37.4909 16.7147 39.6309 18.5098 39.5674ZM19.309 36.0367C19.5094 35.9829 19.7228 36.008 19.9054 36.1066C19.9751 36.1574 19.9624 36.1384 20.0322 36.3035C20.061 36.4503 20.08 36.5987 20.0892 36.748C20.0892 37.0782 19.9624 38.272 19.5819 38.1704C18.9289 37.881 18.4145 37.3478 18.1483 36.6844C18.4657 36.3685 18.8696 36.1541 19.309 36.0685V36.0367Z" fill="#41844D"/>
<path d="M39.7783 43.9551C39.8988 44.1138 40.0448 44.2917 40.2034 44.4631C40.2571 44.9138 40.4084 45.3473 40.6472 45.7331C40.8438 46.0316 41.2818 45.8474 41.3769 45.5998C41.4204 45.488 41.4564 45.3734 41.4847 45.2569C41.6806 45.2749 41.8778 45.2398 42.0555 45.1553C43.0197 44.6854 43.0451 43.5361 42.9246 42.6153C42.886 42.4094 42.7677 42.227 42.5954 42.1081C42.4231 41.9891 42.2107 41.9432 42.0047 41.9803C41.6478 42.0472 41.3115 42.1968 41.0229 42.4174C40.7343 42.6379 40.5013 42.9233 40.3428 43.2503C40.2491 43.2157 40.1472 43.2115 40.051 43.2382C39.9548 43.265 39.8694 43.3212 39.8069 43.3992C39.7445 43.4771 39.7082 43.5727 39.703 43.6725C39.6979 43.7722 39.7242 43.8711 39.7783 43.9551Z" fill="#41844D"/>
<path d="M49.4832 82.5378C48.1004 83.5411 48.4429 86.1129 49.9589 86.8177C50.0241 86.8414 50.0939 86.8498 50.1627 86.8421C50.2316 86.8344 50.2977 86.8109 50.356 86.7734C50.4143 86.7359 50.4631 86.6854 50.4988 86.6259C50.5344 86.5665 50.556 86.4996 50.5616 86.4304C50.795 86.7297 51.1184 86.9456 51.484 87.0462C51.8496 87.1469 52.2379 87.1269 52.5912 86.9892C53.3841 86.6463 53.7964 85.4208 53.8599 84.6334C53.9013 84.2849 53.8615 83.9317 53.7437 83.6012C53.626 83.2707 53.4336 82.9719 53.1813 82.7284C52.6771 82.2829 52.037 82.0214 51.3654 81.9868C50.6938 81.9523 50.0304 82.1465 49.4832 82.5378ZM52.0204 83.6936C52.143 83.7574 52.2453 83.8542 52.3159 83.9731C52.3865 84.092 52.4226 84.2284 52.42 84.3667C52.4167 84.8529 52.2388 85.3216 51.9188 85.6874C51.6207 85.9795 50.8025 84.9318 50.2507 84.1317C50.272 84.021 50.3223 83.918 50.3966 83.8332C50.6194 83.6443 50.8954 83.5293 51.1864 83.5043C51.4773 83.4792 51.7687 83.5454 52.0204 83.6936Z" fill="#41844D"/>
<path d="M46.7112 93.8534C47.0474 94.3233 47.796 94.101 48.2146 93.9422C48.3652 93.8706 48.4816 93.7425 48.5386 93.5856C48.5956 93.4288 48.5886 93.2558 48.5191 93.1041C48.2527 92.6279 47.7897 92.469 47.4852 92.0436C47.0349 91.4467 46.0706 92.0881 46.3941 92.7485C46.3941 92.7929 46.4576 92.8374 46.483 92.8882C46.495 93.0191 46.495 93.151 46.483 93.2819C46.5031 93.4903 46.5823 93.6885 46.7112 93.8534Z" fill="#41844D"/>
<path d="M78.6107 114.923C78.8469 115.222 79.1674 115.443 79.5306 115.558C79.9723 115.646 80.4301 115.604 80.8481 115.436C81.2661 115.268 81.6261 114.981 81.8838 114.612C82.7846 113.418 81.6555 112.072 80.6152 111.437C79.575 110.802 78.078 110.326 76.9679 111.062C76.7109 111.26 76.5149 111.526 76.4027 111.831C76.2905 112.135 76.2665 112.465 76.3336 112.783C76.4732 113.608 77.1647 114.866 78.0083 115.101C78.1136 115.147 78.2317 115.154 78.3419 115.122C78.4521 115.089 78.5472 115.019 78.6107 114.923ZM78.1604 112.878C78.1353 112.784 78.1163 112.689 78.1034 112.592C78.1034 112.465 78.1034 112.592 78.1034 112.485H78.2112H78.4648C78.8104 112.541 79.1458 112.648 79.4606 112.802C79.524 112.802 79.7019 112.935 79.8731 113.037C80.0444 113.139 80.3045 113.38 80.2157 113.297C80.2712 113.348 80.322 113.403 80.3678 113.462L80.4312 113.532C80.4312 113.532 80.4694 113.615 80.482 113.64C80.3539 113.766 80.2086 113.873 80.0506 113.958C79.5876 114.237 79.0674 113.481 78.782 113.189C78.7184 113.122 78.6335 113.08 78.5419 113.07C78.4504 113.059 78.3578 113.081 78.2809 113.132C78.2238 113.062 78.1857 112.967 78.1604 112.904V112.878Z" fill="#41844D"/>
<path d="M126.057 113.5C124.218 114.301 124.154 116.809 125.423 118.123H125.467C126.374 119.323 127.928 120.028 129.305 119.19C130.878 118.206 131.582 115.831 130.263 114.377C129.726 113.833 129.04 113.459 128.292 113.303C127.544 113.147 126.766 113.216 126.057 113.5ZM128.905 117.38C128.214 118.65 126.806 117.876 126.019 116.891C125.987 116.577 125.987 116.26 126.019 115.945C126.051 115.774 126.111 115.608 126.197 115.456C126.282 115.327 126.39 115.213 126.514 115.12C126.867 114.945 127.26 114.866 127.653 114.892C128.046 114.917 128.426 115.046 128.753 115.266C129.038 115.432 129.248 115.703 129.336 116.021C129.348 116.51 129.196 116.988 128.905 117.38Z" fill="#41844D"/>
<path d="M123.349 130.969C123.043 131.379 122.9 131.888 122.949 132.398C122.964 132.536 123.01 132.67 123.083 132.789C123.155 132.908 123.253 133.009 123.369 133.086C123.485 133.163 123.617 133.213 123.755 133.234C123.893 133.254 124.033 133.244 124.167 133.204C124.242 133.169 124.307 133.116 124.357 133.049C124.406 132.983 124.439 132.905 124.452 132.823C124.972 133.801 125.816 134.951 126.894 134.55C127.725 134.239 127.528 132.963 127.363 132.334C127.199 131.559 126.793 130.856 126.203 130.328C125.264 129.553 123.989 130.124 123.349 130.969ZM126.044 132.963C126.047 133.018 126.047 133.073 126.044 133.128C125.534 132.802 125.101 132.369 124.776 131.858C124.734 131.793 124.671 131.743 124.598 131.718C124.667 131.609 124.771 131.526 124.893 131.483C125.015 131.439 125.147 131.437 125.27 131.477C125.473 131.56 125.638 131.915 125.733 132.112C125.866 132.384 125.97 132.669 126.044 132.963Z" fill="#41844D"/>
<path d="M111.423 125.477C110.846 122.156 109.889 118.72 109.724 115.317C109.85 115.467 109.988 115.607 110.136 115.736C110.211 115.787 110.298 115.817 110.389 115.824C110.48 115.832 110.57 115.815 110.653 115.777C110.735 115.739 110.806 115.679 110.859 115.605C110.912 115.531 110.945 115.445 110.954 115.355C110.954 115.31 110.954 115.266 110.954 115.221C111.144 115.161 111.303 115.03 111.398 114.854C111.492 114.679 111.515 114.473 111.462 114.281C111.366 113.881 111.252 113.507 111.132 113.145C111.667 112.651 112.003 111.978 112.078 111.253C112.153 110.528 111.961 109.801 111.538 109.208C110.853 108.198 109.476 107.354 108.22 107.652C106.527 108.052 106.45 110.262 107.421 111.405C107.452 111.435 107.489 111.458 107.529 111.475C107.744 112.146 108.137 112.747 108.664 113.215C108.766 117.444 110.003 121.4 110.891 125.578C110.91 125.643 110.953 125.698 111.011 125.732C111.068 125.767 111.137 125.78 111.203 125.767C111.269 125.754 111.328 125.718 111.369 125.664C111.409 125.611 111.429 125.544 111.423 125.477ZM108.29 109.602C108.29 109.544 108.442 109.322 108.398 109.373C108.438 109.346 108.476 109.316 108.512 109.284H108.601C108.852 109.25 109.107 109.297 109.33 109.417C109.624 109.556 109.884 109.758 110.091 110.008C110.281 110.204 110.407 110.452 110.455 110.72C110.502 110.988 110.469 111.264 110.358 111.513C110.199 111.261 110.019 111.023 109.819 110.802C109.747 110.723 109.657 110.664 109.557 110.629C109.456 110.594 109.349 110.585 109.244 110.602C109.139 110.62 109.04 110.664 108.957 110.73C108.873 110.796 108.807 110.882 108.766 110.98C108.655 111.043 108.558 111.127 108.48 111.227C108.341 111.018 108.214 110.808 108.125 110.643C108.161 110.297 108.216 109.954 108.29 109.614V109.602Z" fill="#41844D"/>
<path d="M122.226 124.968C122.334 125.004 122.45 125.014 122.563 124.997C122.676 124.98 122.783 124.937 122.876 124.87C122.969 124.804 123.046 124.717 123.099 124.616C123.152 124.515 123.181 124.403 123.184 124.289C123.273 124.155 123.32 123.998 123.32 123.838C123.32 123.677 123.273 123.52 123.184 123.387C123.019 123.017 122.806 122.671 122.549 122.358C122.436 122.2 122.266 122.092 122.075 122.055C121.884 122.018 121.686 122.057 121.522 122.161C121.335 122.22 121.178 122.348 121.082 122.52C120.987 122.691 120.96 122.892 121.008 123.082C121.042 123.361 121.119 123.633 121.236 123.889C120.668 124.218 120.14 124.612 119.663 125.063C118.274 126.289 117.056 127.826 115.413 128.734C115.014 128.956 115.179 129.629 115.661 129.534C116.185 129.431 116.695 129.269 117.183 129.051C117.246 129.024 117.298 128.977 117.331 128.917C117.364 128.857 117.377 128.789 117.367 128.721C117.825 128.402 118.266 128.059 118.686 127.692C119.257 127.184 121.294 124.771 122.226 124.968Z" fill="#41844D"/>
<path d="M33.4669 63.824C33.3328 63.5744 33.1081 63.3859 32.8391 63.2975C32.5701 63.2091 32.2775 63.2277 32.0218 63.3492C31.766 63.4706 31.5666 63.6859 31.4649 63.9504C31.3632 64.2148 31.3669 64.5083 31.4753 64.7701C31.4753 64.8336 31.5196 64.8908 31.545 64.9543C31.2426 65.0234 30.9677 65.1811 30.7553 65.4073C30.5429 65.6335 30.4027 65.918 30.3525 66.2243C30.213 67.1197 30.9297 67.7038 31.6211 68.0594C32.0796 68.2672 32.5972 68.3034 33.0799 68.1611C33.6966 69.0947 34.5081 69.8832 35.4586 70.4724C35.5362 70.5244 35.6287 70.5498 35.722 70.5447C35.8153 70.5396 35.9043 70.5044 35.9758 70.4442C36.0473 70.3841 36.0975 70.3023 36.1186 70.2112C36.1397 70.1201 36.1306 70.0247 36.0929 69.9391C35.503 68.6691 34.9131 67.3991 34.3612 66.1291C34.3159 65.7819 34.2242 65.4422 34.0885 65.1194C34.4564 64.9289 34.8307 64.7511 35.2049 64.5923C37.3743 63.6335 39.8481 63.7161 42.0174 62.7763C42.4043 62.6112 42.3155 61.9317 41.8715 61.9381C38.9628 61.9154 36.0877 62.5606 33.4669 63.824Z" fill="#41844D"/>
<path d="M118.242 140.621L118.331 140.894C117.281 141.326 116.347 141.998 115.604 142.856C114.621 143.898 112.483 146.127 112.432 147.702C112.43 147.811 112.469 147.916 112.541 147.998C112.613 148.079 112.714 148.13 112.822 148.141C112.93 148.151 113.039 148.12 113.125 148.054C113.212 147.988 113.27 147.891 113.288 147.784C113.365 146.946 115.026 145.384 115.572 144.717C115.978 144.215 117.627 142.228 118.82 141.923C119.054 142.21 119.371 142.418 119.727 142.52C119.807 142.535 119.888 142.535 119.968 142.52C120.45 142.92 121.408 142.641 121.179 141.885C120.892 141.031 120.425 140.249 119.809 139.593C119.086 138.71 117.938 139.662 118.242 140.621Z" fill="#41844D"/>
<path d="M82.7019 127.877C82.7134 127.41 82.6246 126.947 82.4417 126.518C82.41 126.448 82.3974 126.397 82.372 126.334C82.4672 126.238 82.5685 126.15 82.6573 126.048C84.205 125.07 86.3809 125.337 88.1062 125.299C88.4361 125.299 88.7403 124.81 88.3534 124.613C86.8957 123.925 85.2426 123.775 83.6849 124.187C83.5884 123.991 83.4371 123.826 83.2492 123.713C83.0612 123.601 82.8446 123.545 82.6257 123.552C81.2366 123.648 80.1455 124.429 80.025 125.877C79.9927 126.188 80.0242 126.504 80.1179 126.803C80.2115 127.102 80.3652 127.379 80.5695 127.617C80.7737 127.855 81.0244 128.048 81.306 128.186C81.5875 128.323 81.894 128.402 82.207 128.417C82.2773 128.422 82.3481 128.412 82.4138 128.386C82.4796 128.361 82.5386 128.32 82.5864 128.268C82.6341 128.216 82.6695 128.154 82.6895 128.086C82.7095 128.018 82.7137 127.947 82.7019 127.877Z" fill="#41844D"/>
</g>
<defs>
<clipPath id="clip0_261_20566">
<rect width="224" height="231" fill="white" transform="translate(0.000732422 0.000488281)"/>
</clipPath>
</defs>
</svg>
