<svg width="13" height="13" viewBox="0 0 13 13" fill="none" xmlns="http://www.w3.org/2000/svg">
<g clip-path="url(#clip0_256_20450)">
<path d="M8.93774 0.000488281H4.06209C2.98461 0.000660968 1.95131 0.428752 1.18942 1.19064C0.427531 1.95253 -0.000559736 2.98583 -0.000732422 4.06331V8.93832C-0.000559736 10.0158 0.427531 11.0491 1.18942 11.811C1.95131 12.5729 2.98461 13.001 4.06209 13.0011H8.93709C10.0146 13.0011 11.048 12.5731 11.8099 11.8112C12.5719 11.0492 12.9999 10.0158 12.9999 8.93832V4.06657C13.0003 3.53283 12.8954 3.00426 12.6915 2.51104C12.4875 2.01782 12.1883 1.56961 11.8111 1.19203C11.4339 0.814438 10.986 0.514862 10.493 0.310414C9.99994 0.105965 9.47148 0.000659267 8.93774 0.000488281ZM11.7813 8.93832C11.7806 9.69233 11.4808 10.4153 10.9477 10.9485C10.4146 11.4817 9.69176 11.7817 8.93774 11.7826H4.06209C3.30807 11.7817 2.5852 11.4817 2.0521 10.9485C1.51899 10.4153 1.21919 9.69233 1.2185 8.93832V4.06657C1.21919 3.31261 1.519 2.58974 2.05213 2.05661C2.58525 1.52348 3.30813 1.22368 4.06209 1.22299H8.93709C9.69105 1.22368 10.4139 1.52348 10.9471 2.05661C11.4802 2.58974 11.78 3.31261 11.7807 4.06657L11.7813 8.93832Z" fill="black"/>
<path d="M6.50064 3.25146C5.63863 3.25146 4.81192 3.59385 4.20232 4.20333C3.59273 4.8128 3.25017 5.63944 3.25 6.50146C3.25017 7.36347 3.59273 8.19013 4.20232 8.7996C4.81192 9.40908 5.63863 9.75147 6.50064 9.75147C7.36255 9.75129 8.1891 9.40882 8.79855 8.79937C9.40801 8.18991 9.75048 7.36336 9.75065 6.50146C9.75048 5.63956 9.40801 4.81302 8.79855 4.20357C8.1891 3.59411 7.36255 3.25164 6.50064 3.25146ZM6.50064 8.53223C5.96215 8.53171 5.44586 8.31761 5.06503 7.9369C4.6842 7.55619 4.46993 7.03995 4.46924 6.50146C4.46975 5.96285 4.68394 5.44647 5.06479 5.06562C5.44564 4.68477 5.96204 4.47057 6.50064 4.47005C7.03919 4.47057 7.55553 4.68478 7.93628 5.06565C8.31703 5.44652 8.53107 5.96291 8.53142 6.50146C8.53073 7.03984 8.31654 7.55598 7.93585 7.93668C7.55516 8.31737 7.03902 8.53154 6.50064 8.53223Z" fill="black"/>
<path d="M9.99415 3.43997C10.2334 3.43997 10.4273 3.24605 10.4273 3.00685C10.4273 2.76764 10.2334 2.57373 9.99415 2.57373C9.75495 2.57373 9.56104 2.76764 9.56104 3.00685C9.56104 3.24605 9.75495 3.43997 9.99415 3.43997Z" fill="black"/>
</g>
<defs>
<clipPath id="clip0_256_20450">
<rect width="13" height="13" fill="white" transform="translate(0 0.000488281)"/>
</clipPath>
</defs>
</svg>
