<svg width="33" height="32" viewBox="0 0 33 32" fill="none" xmlns="http://www.w3.org/2000/svg">
<path d="M27.3093 21.1666C28.999 16.1731 30.7107 11.1925 32.4115 6.20761C32.4444 6.11783 32.47 6.0195 32.4956 5.91262C32.5395 5.75016 32.2505 5.61335 31.8555 5.61335H7.34314C6.94813 5.61335 6.56044 5.24568 6.47997 4.79251C6.24224 3.4501 6.00816 2.12906 5.77408 0.82084C5.69361 0.367668 5.30592 0 4.91092 0H1.21687C0.821858 0 0.5 0.376219 0.5 0.837942V1.27401C0.5 1.73574 0.821858 2.11195 1.21687 2.11195H3.42964C3.82465 2.11195 4.21234 2.47962 4.28914 2.9328C5.63875 10.7009 6.98105 18.4304 8.33065 26.1814C8.41112 26.6346 8.18435 27.1903 7.92102 27.5324C7.55161 28.0112 7.32119 28.6396 7.32485 29.3151C7.32851 30.7858 8.35991 31.9914 9.61443 31.9957C10.8616 31.9957 11.926 30.773 11.9296 29.3279C11.9296 29.003 11.8784 28.6909 11.7797 28.396C11.637 27.9642 11.7431 27.6734 12.1417 27.6734H23.5311C23.9261 27.6734 24.0359 27.9642 23.8896 28.396C23.7945 28.6781 23.7396 28.9817 23.7323 29.298C23.703 30.7174 24.782 31.9914 26.0182 32C27.2727 32.0085 28.3261 30.8114 28.337 29.3536C28.3444 28.5328 28.0115 27.776 27.4995 27.2716C27.1959 26.9723 26.8887 26.5619 26.8887 26.2199C26.8887 25.8779 26.5668 25.6 26.1718 25.6H10.8507C10.4556 25.6 10.068 25.2323 9.98749 24.7791C9.85948 24.0481 9.73147 23.3256 9.60346 22.5859C9.52299 22.1328 9.62174 21.7651 9.82656 21.7651H10.1923C15.6346 21.7651 21.077 21.7608 26.5156 21.7779C26.9435 21.7737 27.1484 21.6411 27.3093 21.1666Z" fill="#393939"/>
</svg>
