<svg width="165" height="208" viewBox="0 0 165 208" fill="none" xmlns="http://www.w3.org/2000/svg">
<g opacity="0.6" clip-path="url(#clip0_253_521)">
<path d="M133.263 68.0004C137.038 75.4338 135.295 83.1247 130.736 89.8737C127.794 94.2359 124.524 98.3677 120.955 102.233C117.427 106.005 111.828 108.101 108.406 111.746C107.96 113.211 107.783 114.744 107.883 116.272C108.876 120.109 108.199 123.822 109.3 127.665C116.302 137.817 122.881 148.3 130.163 158.208C129.183 154.424 129.505 149.943 129.66 146.586C129.809 143.427 129.93 140.194 130.111 136.937C123.544 128.211 128.386 111.292 135.547 104.41C135.675 104.315 135.834 104.274 135.992 104.294C136.15 104.314 136.294 104.394 136.394 104.518C139.06 107.603 140.073 112.402 139.766 116.404C139.321 121.711 135.331 125.119 133.251 129.834C133.215 129.905 133.156 129.962 133.083 129.994C133.01 130.026 132.929 130.033 132.852 130.013C132.775 129.993 132.707 129.947 132.66 129.883C132.613 129.819 132.589 129.74 132.592 129.661C133.17 124.524 138.484 121.641 138.553 116.243C138.582 113.476 138.329 110.347 137.093 107.817C135.588 104.759 134.492 107.041 133.321 109.064C129.034 116.39 126.012 127.777 130.163 135.842C130.561 129.188 131.287 122.53 133.2 116.351C133.272 116.12 133.638 116.238 133.605 116.459C132.763 123.425 131.95 130.343 131.341 137.323C133.217 133.442 136.12 130.15 139.736 127.804C144.138 124.879 148.521 126.75 152.335 129.62C152.445 129.706 152.517 129.832 152.536 129.971C152.555 130.109 152.52 130.25 152.437 130.363C147.314 136.39 139.276 138.683 132.734 142.834C132.648 142.888 132.544 142.908 132.444 142.89C132.343 142.873 132.253 142.818 132.19 142.738C132.127 142.657 132.097 142.556 132.104 142.454C132.112 142.352 132.157 142.257 132.231 142.186C135.383 139.618 139.085 138.102 142.691 136.276C145.031 135.097 147.54 133.875 149.441 132.015C152.056 129.462 149.683 128.677 147.563 127.923C140.303 125.438 132.832 133.718 130.991 140.779L130.914 141.716C130.9 141.884 130.89 142.067 130.868 142.236C132.024 140.269 133.509 138.516 135.259 137.053C137.643 134.872 141.926 130.414 145.462 130.375C145.519 130.369 145.576 130.382 145.625 130.411C145.674 130.441 145.712 130.485 145.733 130.538C145.754 130.591 145.757 130.649 145.742 130.704C145.727 130.759 145.694 130.808 145.649 130.843C143.23 132.697 140.404 133.928 138.029 135.919C135.412 138.12 130.765 141.681 130.77 145.529C130.772 145.586 130.757 145.643 130.728 145.692C130.699 145.742 130.656 145.782 130.606 145.809C130.243 150.735 130.024 156.565 132.082 160.749C137.14 167.562 142.772 173.929 148.916 179.781C149.606 180.421 148.743 181.611 148.028 180.969C138.699 172.549 131.155 162.644 124.095 152.326C119.627 148.323 114.204 145.215 108.808 142.279C105.179 141.497 101.466 141.171 97.7551 141.308C97.7551 141.308 97.767 141.354 97.7019 141.387C89.4049 146.287 82.1002 150.495 72.3299 151.886C63.5777 153.089 54.6737 152.544 46.1339 150.281C46.04 150.266 45.9515 150.226 45.877 150.167C45.8024 150.108 45.744 150.031 45.7074 149.943C45.6707 149.855 45.6569 149.759 45.6673 149.665C45.6777 149.57 45.7119 149.479 45.7668 149.402C57.0303 134.734 80.4578 132.699 96.7262 139.674C96.8077 139.695 96.8775 139.748 96.9202 139.821C96.9628 139.894 96.9748 139.98 96.9535 140.062C96.9323 140.143 96.8794 140.213 96.8067 140.256C96.7341 140.298 96.6476 140.31 96.5661 140.289C87.9454 138.876 79.794 136.556 70.9037 137.645C66.6641 138.161 62.2951 138.842 58.4091 140.724C58.2633 140.762 44.2258 148.859 48.9279 149.845C57.4459 151.62 66.2761 152.323 74.8415 150.327C82.9675 148.436 88.864 144.83 96.0909 141.428C91.3017 141.834 86.5684 142.74 81.9684 144.133C78.7457 146.808 74.8437 148.535 70.6972 149.123C70.6476 149.122 70.6002 149.103 70.5636 149.069C70.5269 149.036 70.5035 148.99 70.4978 148.941C70.492 148.892 70.504 148.842 70.5319 148.801C70.5598 148.76 70.6017 148.73 70.6497 148.718C74.1444 148.108 76.9025 146.329 79.889 144.737L79.7814 144.765C71.3573 147.339 61.8174 145.918 53.7939 149.248C53.6819 149.279 53.5626 149.267 53.4587 149.216C53.3547 149.164 53.2732 149.077 53.2293 148.969C53.1855 148.862 53.1822 148.742 53.2204 148.633C53.2586 148.523 53.3356 148.431 53.4367 148.374C58.0128 146.469 62.3283 147.006 67.1339 146.335C73.3051 145.467 79.1651 143.712 85.187 142.235C92.5693 140.414 99.2854 139.405 106.527 141.027C104.918 140.158 103.309 139.289 101.756 138.413C94.9667 134.585 89.1268 129.742 82.6119 125.581C80.5723 124.275 78.423 123.149 76.1882 122.216C70.6782 122.127 65.4828 124.455 59.9055 124.359C54.8705 124.27 49.8286 123.585 44.8344 123.084C36.6822 122.279 28.0498 121.328 21.9713 115.31C21.9028 115.225 21.8649 115.119 21.8633 115.01C21.8617 114.9 21.8966 114.794 21.9625 114.706C27.3864 108.389 37.3004 107.173 45.1552 107.589C55.4109 108.136 64.0839 113.261 72.226 119.089C77.0504 120.629 81.5646 123.009 85.5603 126.12C86.2764 126.672 87.0133 127.177 87.7408 127.71C86.1664 126.152 84.6529 124.512 83.2005 122.825C79.7432 121.459 77.3291 118.808 74.1386 116.924C69.3867 114.149 64.9615 110.85 60.9462 107.088C54.01 100.45 48.3322 92.6108 44.1873 83.9505C44.1359 83.8241 44.1273 83.6843 44.1627 83.5524C44.198 83.4206 44.2754 83.3038 44.3831 83.22C47.7459 80.3923 62.9801 91.7876 65.5096 93.9664C74.1722 101.33 82.3824 110.711 86.2168 121.569C86.3062 121.914 85.8569 122.235 85.6387 121.899C80.8921 114.635 77.0063 107.058 70.8011 100.835C66.8277 96.8437 62.5325 93.001 57.6495 90.1457C58.517 90.65 45.2207 83.5766 46.6623 86.2664C54.6186 101.184 67.4151 112.432 81.7498 121.112C74.023 112.048 67.1061 101.874 57.7541 94.8522C57.4214 94.6107 57.7472 94.0349 58.1141 94.2184C73.736 102.999 80.9411 120.994 94.316 132.199C98.6661 135.02 103.097 137.648 107.738 140.296C112.379 142.944 117.464 145.378 121.763 148.696C112.911 135.476 104.604 121.796 94.2145 109.818C86.6504 101.13 78.8414 92.6036 71.0499 84.0806C64.2328 79.8915 56.2625 78.0811 49.7993 73.2026C45.4324 69.8112 41.2838 66.1478 37.3782 62.2339C32.4519 57.408 23.6104 49.5745 24.7088 41.764C24.7281 41.6136 24.7966 41.4737 24.9035 41.3661C25.0103 41.2585 25.1496 41.1892 25.2998 41.1687C48.9487 40.7795 63.0808 66.0137 73.8739 83.759C73.9538 83.8622 73.9896 83.9928 73.9731 84.1222C73.9567 84.2517 73.8896 84.3694 73.7865 84.4493C73.6834 84.5292 73.5527 84.5647 73.4232 84.5483C73.2938 84.5319 73.1763 84.4647 73.0964 84.3616C66.2581 76.9268 61.8171 67.3646 55.4426 59.5067C51.8486 55.1139 47.9942 50.6329 43.1519 47.5869C42.0076 46.8676 24.9634 39.7735 25.9973 44.0838C28.1732 53.217 37.7329 60.9464 44.3401 66.9505C49.1606 71.3043 54.4323 75.3447 60.4854 77.8479C63.3112 78.9337 66.0743 80.1761 68.7619 81.5692C66.7048 79.3173 64.6529 77.0639 62.6061 74.8093C61.263 73.3225 59.8475 71.9038 58.3938 70.5275C58.3771 70.5705 58.3493 70.6084 58.3132 70.6372C58.2772 70.666 58.2342 70.6846 58.1885 70.6914C58.1429 70.6983 58.0963 70.693 58.0534 70.676C58.0105 70.659 57.9729 70.6309 57.9444 70.5947C57.2807 69.8657 56.6437 69.1132 56.0278 68.3473C48.4255 61.5361 40.0091 55.5663 33.6457 47.6565C33.6085 47.6096 33.5916 47.5499 33.5985 47.4905C33.6054 47.4311 33.6356 47.3769 33.6825 47.3398C33.7293 47.3027 33.789 47.2856 33.8483 47.2925C33.9077 47.2994 33.962 47.3298 33.9991 47.3766C39.9974 54.1608 47.1265 59.8087 54.0311 65.7277C51.3526 62.056 48.9492 58.1493 46.2844 54.4987C46.2556 54.4458 46.2466 54.3844 46.2589 54.3255C46.2712 54.2666 46.3041 54.2141 46.3517 54.1771C46.3992 54.1402 46.4582 54.1216 46.5183 54.1242C46.5784 54.1269 46.6356 54.1507 46.6797 54.1916C50.3333 58.8147 53.9844 63.5859 57.2368 68.5257C60.1505 71.1128 62.9859 73.7775 65.6385 76.6533C67.8726 79.0832 70.1233 81.5034 72.3907 83.9139C72.6655 84.1212 72.9383 84.3208 73.2034 84.5224C73.257 84.5688 73.2951 84.6303 73.3129 84.6988C73.3306 84.7674 73.3271 84.8397 73.3027 84.9062C79.7632 91.7673 86.2582 98.603 92.4667 105.693C89.9644 100.772 88.2931 95.4229 85.8442 90.4552C83.8137 86.3128 81.6499 82.0983 79.9197 77.7554C79.9197 77.7554 79.8406 77.735 79.8133 77.6929C71.5815 67.2385 66.4406 54.6884 64.9724 41.4633C64.1062 33.498 61.524 20.1378 67.4003 13.4163C67.4619 13.3396 67.5395 13.2775 67.628 13.2344C67.7164 13.1914 67.8133 13.1684 67.9117 13.1672C68.01 13.166 68.1074 13.1866 68.1968 13.2276C68.2862 13.2685 68.3656 13.3288 68.429 13.404C80.636 27.7532 79.6551 48.9886 79.2047 66.4833C79.1851 67.1354 78.1696 67.1033 78.0914 66.4848C76.8813 56.7168 79.3621 47.0661 76.7104 37.3601C75.5798 33.214 74.6907 28.9565 73.188 24.9232C72.6964 23.6254 68.0389 11.3593 66.3498 17.2672C63.8336 26.149 65.3456 38.6969 67.2618 47.586C69.4384 57.1618 73.3187 66.2686 78.7175 74.4715C78.3507 73.3707 78.0067 72.264 77.7166 71.1434C75.8351 63.875 75.5463 56.4318 74.1238 49.1019C72.475 40.4547 69.9533 32.0417 67.9284 23.4919C67.8072 23.0237 68.6111 22.8074 68.742 23.2813C70.7145 30.3951 72.9292 37.4954 74.4048 44.746C74.1369 41.212 73.7249 37.6907 73.4223 34.1493C73.4231 34.0958 73.4433 34.0445 73.4789 34.0047C73.5145 33.9648 73.5633 33.9391 73.6163 33.9323C73.6693 33.9255 73.7231 33.938 73.7676 33.9677C73.8121 33.9974 73.8443 34.0422 73.8584 34.0938C74.516 39.1648 75.6879 44.1027 75.2073 49.2063C76.0353 54.6509 76.4639 60.1663 77.5875 65.5508C79.1957 73.2503 82.2194 80.2802 85.6737 87.2971C88.9636 93.9634 91.1508 101.685 95.3169 107.813C95.423 107.965 95.4677 108.15 95.4421 108.333C95.4165 108.516 95.3225 108.683 95.179 108.799C95.1949 108.86 95.2817 108.912 95.3303 108.973C99.552 113.924 103.453 119.154 107.205 124.473C106.22 119.879 106.693 114.778 104.827 110.257C103.916 108.036 103.171 106.01 102.527 103.965C102.454 103.957 102.385 103.926 102.332 103.876C94.1993 95.7774 91.5796 80.2158 92.516 69.1223C93.0208 63.0051 94.5403 57.0429 95.6323 51.0112C96.2971 47.2521 96.8758 43.3187 99.1571 40.173C99.2214 40.09 99.3038 40.0228 99.398 39.9765C99.4921 39.9301 99.5957 39.9058 99.7007 39.9055C99.8056 39.9052 99.9092 39.9288 100.004 39.9746C100.098 40.0204 100.181 40.0871 100.246 40.1697C106.645 47.3005 109.612 58.4154 110.437 67.8328C110.806 72.4217 111.132 77.4801 109.723 81.9396C107.977 87.4364 103.76 91.8366 103.255 97.6999C103.234 97.8077 103.176 97.9048 103.091 97.9747C103.007 98.0446 102.9 98.0831 102.79 98.0836C102.681 98.084 102.574 98.0465 102.489 97.9773C102.403 97.9081 102.345 97.8114 102.323 97.7038C101.487 89.7306 108.904 84.2481 109.223 76.0826C109.617 65.7436 107.729 50.6644 100.56 42.6189C99.0578 40.9277 96.5068 53.7249 96.2192 55.208C95.4893 59.0003 94.2818 62.7196 93.9273 66.5704C92.8594 78.263 94.8689 92.5741 101.993 102.22C100.802 98.0251 100.157 93.6944 100.074 89.3348C99.0394 86.3075 98.2237 83.2097 97.6336 80.0653C97.0664 77.526 96.2886 74.8692 96.2916 72.2232C96.2959 72.0501 96.5687 72.0287 96.6258 72.1859C97.4165 74.724 98.0552 77.3071 98.5383 79.9213C99.0247 81.9902 99.613 84.0735 100.059 86.1774C100.106 80.0313 100.545 74.0052 99.5838 67.8579C99.0694 64.5105 98.1516 60.9644 100.26 58.1009C100.278 58.082 100.302 58.0697 100.328 58.0658C100.354 58.062 100.381 58.0668 100.404 58.0795C100.427 58.0923 100.445 58.1123 100.455 58.1364C100.465 58.1605 100.468 58.1874 100.461 58.2128C98.7287 63.7634 101.366 68.2891 101.294 73.7047C101.194 80.8473 100.463 88.2104 101.32 95.3181C102.107 101.805 105.044 107.457 107.144 113.547C107.193 113.133 107.261 112.698 107.352 112.323C107.311 112.299 107.276 112.268 107.247 112.231C107.219 112.194 107.199 112.152 107.187 112.107C107.175 112.062 107.173 112.015 107.18 111.969C107.186 111.923 107.202 111.879 107.226 111.839C107.492 111.344 107.679 110.96 107.857 110.636L108.028 110.157C107.846 110.311 107.504 110.096 107.619 109.845C111.272 102.062 110.092 93.2356 114.225 85.6307C118.183 78.3655 126.553 73.1444 132.455 67.6937C132.603 67.6291 132.771 67.625 132.922 67.6823C133.073 67.7396 133.195 67.8538 133.263 68.0004ZM73.326 121.188C67.8346 119.399 62.3058 118.889 55.8129 118.294C50.5709 117.816 45.859 117.046 41.4311 114.113C41.027 113.85 41.4115 113.152 41.8403 113.385C46.5919 115.922 51.2982 116.481 56.0889 116.797C53.1093 115.577 50.27 114.038 47.6205 112.208C47.4406 112.083 47.6073 111.778 47.8062 111.882C50.3241 113.13 52.8757 114.255 55.4766 115.318C56.8215 115.862 58.2063 116.372 59.5229 116.997C62.5098 117.116 65.4821 117.477 68.4101 118.079L68.6201 118.131C61.9299 113.704 55.1645 109.24 46.8709 108.774C41.5418 108.467 35.5144 108.594 30.4227 110.469C24.2593 112.728 21.7364 116.427 29.3752 119.077C37.6446 121.948 46.9309 122.452 55.6335 123.073C61.4059 123.512 67.5431 121.342 73.3399 121.242L73.326 121.188ZM123.539 77.0691C118.072 82.0796 113.118 87.0802 111.966 94.7162C111.309 98.9809 110.96 103.166 109.441 107.105C110.088 106.009 110.795 104.948 111.558 103.928C112.112 103.187 112.64 102.445 113.174 101.692C113.147 101.649 113.133 101.598 113.136 101.546C113.4 99.75 114.069 98.0291 114.429 96.2243C114.752 94.6256 115.108 93.0265 115.381 91.4244C115.394 91.382 115.422 91.3456 115.459 91.3214C115.496 91.2972 115.54 91.2868 115.584 91.2919C115.628 91.297 115.669 91.3175 115.7 91.3495C115.731 91.3816 115.749 91.4233 115.752 91.4676C115.519 93.9847 115.541 96.9766 114.676 99.5509C119.584 92.5391 123.829 85.0849 127.355 77.2854C127.377 77.2263 127.422 77.1788 127.48 77.153C127.538 77.1273 127.604 77.1256 127.663 77.1483C127.722 77.171 127.77 77.2161 127.795 77.274C127.821 77.3318 127.823 77.3976 127.8 77.4567C125.625 85.0954 120.687 91.5822 116.429 98.1633C114.231 101.566 111.228 105.152 109.414 109.029C109.613 108.912 109.845 108.794 110.136 108.653C115.933 105.736 119.306 101.841 123.486 97.1392C128.688 91.2963 135.855 82.7259 134.203 74.2268C132.62 66.3079 126.959 73.9236 123.522 77.0654L123.539 77.0691Z" fill="#41844D"/>
<path d="M34.0437 52.5159C39.101 58.9868 45.9345 63.9988 52.8316 68.3391C53.0462 68.4719 53.267 68.1856 53.0715 68.0315C46.6161 62.9298 39.9839 58.3161 34.2732 52.3583C34.1376 52.246 33.9445 52.386 34.0437 52.5159Z" fill="#41844D"/>
<path d="M67.2382 33.4165C68.6353 40.2371 70.5477 47.0552 72.5455 53.7285C72.6031 53.951 72.9695 53.848 72.9292 53.6291C71.6862 46.7341 69.902 39.9477 67.5933 33.3328C67.5821 33.2857 67.5527 33.2449 67.5115 33.2194C67.4704 33.194 67.4209 33.186 67.3738 33.1971C67.3267 33.2082 67.286 33.2376 67.2606 33.2788C67.2351 33.3199 67.2271 33.3694 67.2382 33.4165Z" fill="#41844D"/>
<path d="M103.762 68.2095C103.506 63.1409 103.002 58.0628 102.397 53.0028C102.383 52.9465 102.349 52.8972 102.301 52.8642C102.253 52.8312 102.195 52.8169 102.138 52.8237C102.08 52.8306 102.027 52.8581 101.988 52.9014C101.95 52.9446 101.928 53.0006 101.928 53.0586C102.464 58.1037 102.457 63.2323 103.339 68.2534C103.351 68.3043 103.381 68.3491 103.423 68.3795C103.466 68.41 103.518 68.4238 103.57 68.4184C103.622 68.413 103.67 68.3888 103.705 68.3503C103.741 68.3118 103.761 68.2618 103.762 68.2095Z" fill="#41844D"/>
<path d="M123.739 80.7518C121.789 84.3851 119.417 87.972 118.407 92.0089C118.353 92.244 118.705 92.3083 118.802 92.1114C120.537 88.3453 122.362 84.638 124.27 80.9666C124.438 80.6364 123.912 80.437 123.739 80.7518Z" fill="#41844D"/>
<path d="M134.288 124.095C135.788 120.36 136.01 116.234 134.919 112.36C134.857 112.122 134.512 112.244 134.535 112.459C134.73 114.453 134.779 116.457 134.679 118.458C134.564 120.322 134.11 122.143 133.858 123.985C133.847 124.041 133.857 124.1 133.887 124.148C133.917 124.197 133.965 124.232 134.021 124.246C134.076 124.26 134.135 124.252 134.184 124.224C134.234 124.196 134.271 124.15 134.288 124.095Z" fill="#41844D"/>
<path d="M33.7 114.24C33.4862 114.205 33.3815 114.56 33.6032 114.625C39.1913 116.25 44.557 119.799 50.4292 120.211C50.7314 120.24 50.8946 119.763 50.5745 119.666C44.976 117.938 39.4879 115.149 33.7 114.24Z" fill="#41844D"/>
<path d="M57.2099 145.202C62.682 145.367 67.6956 142.873 73.0625 142.188C73.2698 142.134 73.29 141.802 73.0592 141.796C67.6106 141.691 62.7269 144.749 57.2752 144.727C56.9714 144.724 56.9041 145.192 57.2099 145.202Z" fill="#41844D"/>
<path d="M53.0066 92.1092C56.8735 96.2594 60.6373 100.706 65.0476 104.298C65.2644 104.471 65.5849 104.159 65.3909 103.948C61.5887 99.7314 57.378 95.8667 53.4366 91.7767C53.2058 91.5498 52.7739 91.8746 53.0066 92.1092Z" fill="#41844D"/>
</g>
<defs>
<clipPath id="clip0_253_521">
<rect width="122.831" height="182.855" fill="white" transform="matrix(-0.96809 0.250604 0.250604 0.96809 118.912 0)"/>
</clipPath>
</defs>
</svg>
